<svg xmlns="http://www.w3.org/2000/svg" viewBox="0 0 16 16" width="20" height="20"><defs><style>.cls-1{fill:#e1fff9;}.cls-2{fill:none;stroke:#aecec8;stroke-linejoin:round;stroke-width:0.75px;}.cls-3{fill:#16a085;}</style></defs><title>column</title><g id="_2" data-name="2"><rect class="cls-1" x="5.3" y="2.15" width="5.4" height="11.7" rx="1" ry="1"/><line class="cls-2" x1="5.75" y1="8" x2="10.25" y2="8"/><line class="cls-2" x1="5.75" y1="10.7" x2="10.25" y2="10.7"/><path class="cls-3" d="M6,5.83l3.9,0V13a.15.15,0,0,1-.15.15H6.2A.15.15,0,0,1,6,13V5.83M5.3,5.08V13a.9.9,0,0,0,.9.9H9.8a.9.9,0,0,0,.9-.9V5.1l-5.4,0Z"/><path class="cls-3" d="M9.8,2.9A.15.15,0,0,1,10,3V5H6V3A.15.15,0,0,1,6.2,2.9H9.8m0-.75H6.2a.9.9,0,0,0-.9.9v2.7h5.4V3a.9.9,0,0,0-.9-.9Z"/></g></svg>
