<?xml version="1.0" encoding="utf-8"?>
<!-- Generator: Adobe Illustrator 23.0.2, SVG Export Plug-In . SVG Version: 6.00 Build 0)  -->
<svg version="1.1" id="Слой_1" xmlns="http://www.w3.org/2000/svg" xmlns:xlink="http://www.w3.org/1999/xlink" x="0px" y="0px"
	 viewBox="0 0 26 26" style="enable-background:new 0 0 26 26;" xml:space="preserve">
<style type="text/css">
	.st0{fill:#FFFFFF;}
</style>
<path class="st0" d="M21.5,2h-9c-1.1,0-2,0.9-2,2v3h-6c-1.1,0-2,0.9-2,2v13c0,1.1,0.9,2,2,2h8c1.1,0,2-0.9,2-2v-3h7c1.1,0,2-0.9,2-2
	V4C23.5,2.9,22.6,2,21.5,2z M12.5,14.8H8.9l1-1c0.1-0.1,0.1-0.2,0.1-0.3s0-0.2-0.1-0.3l-0.3-0.3c-0.1-0.1-0.2-0.1-0.3-0.1
	c-0.1,0-0.2,0-0.3,0.1l-2.3,2.3c-0.1,0.1-0.1,0.2-0.1,0.3c0,0.1,0,0.2,0.1,0.3L9,18.1c0.1,0.1,0.2,0.1,0.3,0.1c0.1,0,0.2,0,0.3-0.1
	l0.3-0.3c0.1-0.1,0.1-0.2,0.1-0.3c0-0.1,0-0.2-0.1-0.3l-1-1h3.6l0,5.8h-8V9h8L12.5,14.8z M21.5,9.8h-3.6l1-1
	c0.1-0.1,0.1-0.2,0.1-0.3s0-0.2-0.1-0.3l-0.3-0.3c-0.1-0.1-0.2-0.1-0.3-0.1c-0.1,0-0.2,0-0.3,0.1l-2.3,2.3c-0.1,0.1-0.1,0.2-0.1,0.3
	c0,0.1,0,0.2,0.1,0.3l2.3,2.3c0.1,0.1,0.2,0.1,0.3,0.1c0.1,0,0.2,0,0.3-0.1l0.3-0.3c0.1-0.1,0.1-0.2,0.1-0.3c0-0.1,0-0.2-0.1-0.3
	l-1-1h3.6l0,5.8h-7V9c0-1.1-0.9-2-2-2V4h9L21.5,9.8z"/>
</svg>
