<svg xmlns="http://www.w3.org/2000/svg" viewBox="0 0 16 16"><defs><style>.cls-1{fill:#def4fd;}.cls-2,.cls-4{fill:none;}.cls-2{stroke:#717f8e;}.cls-2,.cls-3,.cls-4{stroke-linecap:round;stroke-linejoin:round;stroke-width:0.75px;}.cls-3{fill:#354a5f;}.cls-3,.cls-4{stroke:#354a5f;}</style></defs><title>coll-event_trigger</title><g id="_2" data-name="2"><rect class="cls-1" x="2.8" y="2.71" width="8" height="8" rx="1" ry="1"/><path class="cls-2" d="M9.8,10.71h-6a1,1,0,0,1-1-1v-6a1,1,0,0,1,1-1h6a1,1,0,0,1,1,1v2"/><rect class="cls-1" x="4.7" y="4.41" width="8" height="8" rx="1" ry="1"/><polygon class="cls-3" points="13.2 12.44 11.69 13.89 11.74 10.93 13.2 12.44"/><path class="cls-4" d="M11.7,12.41h-6a1,1,0,0,1-1-1v-6a1,1,0,0,1,1-1h6a1,1,0,0,1,1,1v2"/></g></svg>