<svg xmlns="http://www.w3.org/2000/svg" viewBox="0 0 16 16"><defs><style>.cls-1{fill:#def4fd;}.cls-2{fill:none;stroke:#326690;stroke-miterlimit:10;stroke-width:0.75px;}.cls-3{fill:#326690;}</style></defs><title>pg</title><g id="_2" data-name="2"><path class="cls-1" d="M11.81,8.65A7,7,0,0,0,12.88,7.3a6.16,6.16,0,0,0,.79-1.84c.44-1.89,0-2.94-1.86-3.43s-2.08.35-2.08.35a3.64,3.64,0,0,0-2.89.08s-2.49-.76-3.41-.14-2,1.4-.81,5.16a10.12,10.12,0,0,0,1,2.52c.63.92,1.07.73,1.29.5,0,0,.87-1,1.05-1.17s1,.17,1.15.17a2.21,2.21,0,0,1,.94,1.22c.05.44-.19,2.9.65,3.25a1.53,1.53,0,0,0,2.16-1.27,23.06,23.06,0,0,0,.42-2.34l.24-1.3Z"/><path class="cls-2" d="M6.54,2.45s-2.5-1-3.86.38.24,5.63.24,5.63a7.38,7.38,0,0,0,1.08,2s.37.5.95,0c0,0,.89-.95,1.16-1.31"/><path class="cls-2" d="M9.5,2.22a4,4,0,0,1,3.15.1c1.48.8,1.25,1.81,1.21,2.11s-.42,3.38-2.32,4.33"/><path class="cls-2" d="M5.67,5.46s1.15-.72,1.75-.24.4,2.13.39,2.19A11.12,11.12,0,0,1,7.29,8.9l-.17.3s-.13.23-.47.09-1.27-.76-1.2-1.66a13.63,13.63,0,0,0,.05-2.17c-.05-.27.17-2.38,1.32-3a3.11,3.11,0,0,1,2.78-.2A4.26,4.26,0,0,1,12,4.7l.08.5A5.53,5.53,0,0,0,12,7s.24,1.25-.17,1.62c0,0-.49-.22-.26.11,0,0-1.34-2.13-1.1-3.08,0,0,.06-.92,1.44-.66"/><path class="cls-2" d="M5.85,11.6c1,0,1.5-2.09,1.5-2.09l.66.91a6.64,6.64,0,0,1,.17,2.09c.12,1,.23,1.71,1.42,1.57A1.63,1.63,0,0,0,11,12.56a3.24,3.24,0,0,1,.15-.83c0-.2.1-.52.1-.52,0-.28.29-2.46.29-2.46a1.86,1.86,0,0,0,1.9,1.9"/><path class="cls-3" d="M11.58,5.52s-.08-.18-.44-.07-.18.23-.18.23.12.14.24.13A.43.43,0,0,0,11.58,5.52Z"/><path class="cls-3" d="M7.16,5.77s0-.2-.41-.22-.26.17-.26.17.07.18.19.21A.45.45,0,0,0,7.16,5.77Z"/></g></svg>