<svg id="Layer_1" data-name="Layer 1" xmlns="http://www.w3.org/2000/svg" viewBox="0 0 16 16"><defs><style>.cls-1{fill:#def4fd;}.cls-2{fill:none;stroke:#326690;stroke-miterlimit:10;stroke-width:0.75px;}.cls-3{fill:#326690;}</style></defs><title>pg</title><path class="cls-1" d="M10.87,8.51A7.4,7.4,0,0,0,12,7.1a6.48,6.48,0,0,0,.83-1.94c.46-2,0-3.1-2-3.61s-2.31.25-2.31.25A3.79,3.79,0,0,0,5.63,2S3,1.14,2,1.86,0,3.33,1.19,7.29A10.65,10.65,0,0,0,2.3,9.94c.66,1,1.13.77,1.36.53,0,0,.92-1,1.11-1.24s1,.18,1.21.18A2.33,2.33,0,0,1,7,10.7c.06.46-.2,3.06.68,3.43a1.61,1.61,0,0,0,2.27-1.34,24.28,24.28,0,0,0,.44-2.46L10.63,9Z"/><path class="cls-2" d="M5.33,2S2.7.9,1.27,2.39s.26,5.92.26,5.92a7.77,7.77,0,0,0,1.13,2.15s.39.53,1,0c0,0,.94-1,1.22-1.38"/><path class="cls-2" d="M8.52,1.61a4.35,4.35,0,0,1,3.24.24c1.56.85,1.32,1.9,1.28,2.22S12.6,7.63,10.6,8.63"/><path class="cls-2" d="M4.41,5.15S5.63,4.4,6.25,4.9s.42,2.24.41,2.3a11.7,11.7,0,0,1-.55,1.57l-.18.31s-.14.24-.49.09-1.34-.8-1.26-1.74a14.35,14.35,0,0,0,.05-2.29c-.05-.28.18-2.5,1.39-3.15A3.27,3.27,0,0,1,8.56,1.8a4.49,4.49,0,0,1,2.49,2.56l.09.53a5.82,5.82,0,0,0-.09,1.92s.25,1.31-.18,1.7c0,0-.52-.23-.27.11,0,0-1.41-2.24-1.16-3.24,0,0,.06-1,1.52-.69"/><path class="cls-2" d="M4.6,11.63c1,0,1.57-2.2,1.57-2.2l.69,1A7,7,0,0,1,7,12.58c.12,1.09.25,1.8,1.5,1.65A1.71,1.71,0,0,0,10,12.64a3.41,3.41,0,0,1,.15-.88c0-.21.11-.54.11-.54,0-.29.3-2.59.3-2.59a2,2,0,0,0,2,2"/><path class="cls-3" d="M10.63,5.22s-.09-.18-.46-.08-.19.25-.19.25.13.15.25.13A.45.45,0,0,0,10.63,5.22Z"/><path class="cls-3" d="M6,5.49s0-.21-.43-.23-.28.18-.28.18.08.19.2.22A.47.47,0,0,0,6,5.49Z"/></svg>