<?xml version="1.0" standalone="no"?>
<!DOCTYPE svg PUBLIC "-//W3C//DTD SVG 1.0//EN" "http://www.w3.org/TR/2001/REC-SVG-20010904/DTD/svg10.dtd">
<svg xmlns="http://www.w3.org/2000/svg" xmlns:xlink="http://www.w3.org/1999/xlink" id="body_1" width="933" height="933">

<defs>
                <clipPath  id="1">

                    <path clip-rule="evenodd" d="M0 700L700 700L700 0L0 0L0 700z" />                </clipPath>
</defs>

<g transform="matrix(0.99964285 0 0 0.99964285 0 0)">
	<g transform="matrix(1.3333333 0 -0 -1.3333333 0 933.3333)">
		<g>
			<g clip-path="url(#1)" >
				<g transform="matrix(1 0 0 1 697.2871 351.3565)">
                    <path d="M0 0C 0 -192.551 -156.093 -348.644 -348.644 -348.644C -541.19403 -348.644 -697.287 -192.55101 -697.287 0C -697.287 192.55 -541.194 348.644 -348.64398 348.644C -156.093 348.644 0 192.55 0 0" stroke="none" fill="#FF3E00" fill-rule="nonzero" />
				</g>
				<g transform="matrix(1 0 0 1 557.8364 368.4297)">
                    <path d="M0 0C 13.1 12.888 21.351 30.523 21.351 49.233C 21.351 84.117004 -7.309 109.503006 -42.662003 105.935L-42.662003 105.935L-96.414 100.507996C -102.08 99.937 -106.673004 94.940994 -106.673004 89.35L-106.673004 89.35L-106.673004 -4.806999L-106.673004 -16.729L-106.673004 -110.884995C -106.673004 -116.476 -102.08 -120.545 -96.414 -119.97299L-96.414 -119.97299L-42.662003 -114.54699C -7.309002 -110.97899 21.350998 -79.80699 21.350998 -44.92299L21.350998 -44.92299L21.350998 -44.92199C 21.351 -26.213 13.1 -10.243 0 0" stroke="none" fill="#FFFFFF" fill-rule="nonzero" />
				</g>
				<g transform="matrix(1 0 0 1 237.3389 468.9331)">
                    <path d="M0 0L-53.752 5.431C -89.104996 9.002001 -117.764 -16.405 -117.764 -51.319C -117.764 -70.045 -109.514 -87.696 -96.414 -100.595C -109.514 -110.847 -117.764 -126.831 -117.764 -145.556L-117.764 -145.556L-117.764 -145.557C -117.764 -180.47 -89.104996 -211.669 -53.752 -215.241L-53.752 -215.241L0 -220.672C 5.666 -221.244 10.259 -217.172 10.259 -211.576L10.259 -211.576L10.259 -117.339005L10.259 -105.406006L10.259 -11.168007C 10.259 -5.572 5.666 -0.572 0 0" stroke="none" fill="#FFFFFF" fill-rule="nonzero" />
				</g>
				<g transform="matrix(1 0 0 1 348.7803 424.1963)">
                    <path d="M0 0L-53.737 0C -59.403 0 -63.997 -4.602 -63.997 -10.279L-63.997 -10.279L-63.997 -150.139L-63.997 -164.343C -63.997 -170.342 -59.869003 -176.369 -53.915 -176.369L-53.915 -176.369L0.01499939 -176.369C -0.5530006 -187.58101 -15.906 -201.168 -51.912 -205.176L-51.912 -205.176L-55.995 -205.54C -58.423 -205.803 -63.996998 -205.54 -63.996998 -216.07999L-63.996998 -216.07999L-63.996998 -218.87599C -63.996998 -224.55699 -59.552 -229.54999 -53.880997 -229.54999L-53.880997 -229.54999L-0.13699722 -229.54999C 35.216003 -229.54999 64.02701 -195.31198 64.02701 -159.874L64.02701 -159.874L64.02701 -64.18299C 64.027 -28.735 35.361 0 0 0" stroke="none" fill="#FFFFFF" fill-rule="nonzero" />
				</g>
			</g>
		</g>
	</g>
</g>
</svg>