<svg width="33" height="33" viewBox="0 0 33 33" fill="none" xmlns="http://www.w3.org/2000/svg">
<g clip-path="url(#clip0_70_351)">
<mask id="mask0_70_351" style="mask-type:luminance" maskUnits="userSpaceOnUse" x="0" y="0" width="33" height="33">
<path fill-rule="evenodd" clip-rule="evenodd" d="M0.138916 0.619995H32.1389V32.62H0.138916V0.619995Z" fill="white"/>
</mask>
<g mask="url(#mask0_70_351)">
<path d="M32.0149 16.558C32.0149 25.3603 24.8792 32.496 16.0769 32.496C7.27459 32.496 0.138916 25.3603 0.138916 16.558C0.138916 7.7557 7.2746 0.619978 16.0769 0.619978C24.8792 0.619978 32.0149 7.7557 32.0149 16.558Z" fill="#FF3E00"/>
<path d="M25.64 15.7775C26.2389 15.1883 26.6161 14.3822 26.6161 13.5269C26.6161 11.9322 25.3059 10.7717 23.6898 10.9348L21.2325 11.1829C20.9735 11.209 20.7635 11.4373 20.7635 11.6929V15.9973V16.5423V20.8465C20.7635 21.1021 20.9735 21.2881 21.2325 21.262L23.6898 21.0139C25.3059 20.8508 26.6161 19.4258 26.6161 17.8311C26.6161 16.9759 26.2389 16.2458 25.64 15.7775Z" fill="white"/>
<path d="M10.9887 11.1831L8.53143 10.9348C6.91529 10.7715 5.60516 11.933 5.60516 13.5291C5.60516 14.3851 5.98231 15.192 6.58116 15.7817C5.98231 16.2504 5.60516 16.9811 5.60516 17.8371V17.8371C5.60516 19.4331 6.91529 20.8594 8.53143 21.0227L10.9887 21.2709C11.2477 21.2971 11.4576 21.1109 11.4576 20.8551V16.5471V16.0016V11.6936C11.4576 11.4378 11.2477 11.2092 10.9887 11.1831Z" fill="white"/>
<path d="M16.0832 13.2282H13.6266C13.3676 13.2282 13.1576 13.4386 13.1576 13.6981V20.0917V20.741C13.1576 21.0152 13.3463 21.2908 13.6185 21.2908H16.0839C16.0579 21.8033 15.356 22.4244 13.7101 22.6077L13.5234 22.6243C13.4124 22.6363 13.1576 22.6243 13.1576 23.1061V23.2339C13.1576 23.4936 13.3608 23.7219 13.62 23.7219H16.0769C17.693 23.7219 19.0101 22.1567 19.0101 20.5367V16.1623C19.0101 14.5418 17.6997 13.2282 16.0832 13.2282Z" fill="white"/>
</g>
<g clip-path="url(#clip1_70_351)">
<mask id="mask1_70_351" style="mask-type:luminance" maskUnits="userSpaceOnUse" x="0" y="0" width="33" height="33">
<path fill-rule="evenodd" clip-rule="evenodd" d="M0.138916 0.619995H32.1389V32.62H0.138916V0.619995Z" fill="white"/>
</mask>
<g mask="url(#mask1_70_351)">
<path d="M32.0149 16.558C32.0149 25.3603 24.8792 32.496 16.0769 32.496C7.27459 32.496 0.138916 25.3603 0.138916 16.558C0.138916 7.7557 7.2746 0.619978 16.0769 0.619978C24.8792 0.619978 32.0149 7.7557 32.0149 16.558Z" fill="#0A8A8A"/>
<path d="M25.64 15.7775C26.2389 15.1883 26.6161 14.3822 26.6161 13.5269C26.6161 11.9322 25.3059 10.7717 23.6898 10.9348L21.2325 11.1829C20.9735 11.209 20.7635 11.4373 20.7635 11.6929V15.9973V16.5423V20.8465C20.7635 21.1021 20.9735 21.2881 21.2325 21.262L23.6898 21.0139C25.3059 20.8508 26.6161 19.4258 26.6161 17.8311C26.6161 16.9759 26.2389 16.2458 25.64 15.7775Z" fill="#0A8A8A"/>
<path d="M10.9887 11.1831L8.53143 10.9348C6.91529 10.7715 5.60516 11.933 5.60516 13.5291C5.60516 14.3851 5.98231 15.192 6.58116 15.7817C5.98231 16.2504 5.60516 16.9811 5.60516 17.8371V17.8371C5.60516 19.4331 6.91529 20.8594 8.53143 21.0227L10.9887 21.2709C11.2477 21.2971 11.4576 21.1109 11.4576 20.8551V16.5471V16.0016V11.6936C11.4576 11.4378 11.2477 11.2092 10.9887 11.1831Z" fill="#0A8A8A"/>
<path d="M16.0832 13.2282H13.6266C13.3676 13.2282 13.1576 13.4386 13.1576 13.6981V20.0917V20.741C13.1576 21.0152 13.3463 21.2908 13.6185 21.2908H16.0839C16.0579 21.8033 15.356 22.4244 13.7101 22.6077L13.5234 22.6243C13.4124 22.6363 13.1576 22.6243 13.1576 23.1061V23.2339C13.1576 23.4936 13.3608 23.7219 13.62 23.7219H16.0769C17.693 23.7219 19.0101 22.1567 19.0101 20.5367V16.1623C19.0101 14.5418 17.6997 13.2282 16.0832 13.2282Z" fill="#0A8A8A"/>
</g>
<path d="M21.8261 14.4002V14.4026C21.5741 14.3944 21.3222 14.4049 21.0725 14.4352C21.0968 14.2347 21.1095 14.0307 21.1095 13.8231C21.1083 11.0543 18.8834 8.81 16.1383 8.81C13.3933 8.81 11.1683 11.0543 11.1683 13.8231C11.1683 14.0295 11.181 14.2335 11.2053 14.4341C10.9545 14.4049 10.7025 14.3944 10.4517 14.4026C10.4517 14.4026 10.4517 14.4002 10.4517 14.3991C7.77948 14.4842 5.63892 16.6946 5.63892 19.4111C5.63892 22.1275 7.86386 24.4242 10.6089 24.4242C11.9196 24.4242 13.0951 23.9707 14.0001 23.0765L14.0024 23.0788L16.1568 20.9057C16.1684 20.9162 16.1788 20.9278 16.1892 20.9395C16.8076 21.5632 17.4132 22.2009 18.042 22.8153C19.0533 23.804 20.2369 24.4254 21.6689 24.4254C24.414 24.4254 26.6389 22.1811 26.6389 19.4122C26.6389 16.6433 24.4983 14.4854 21.8273 14.4014M16.1383 10.8992C17.7391 10.8992 19.0371 12.2084 19.0371 13.8231C19.0371 14.5856 18.747 15.2805 18.2731 15.8016L16.158 17.9887L14.014 15.8144C13.5331 15.2921 13.2384 14.5926 13.2384 13.8243C13.2384 12.2096 14.5364 10.9004 16.1372 10.9004M12.672 21.5073C12.0791 21.9969 11.3879 22.335 10.6089 22.335C9.00812 22.335 7.71014 21.0258 7.71014 19.4111C7.71014 18.1939 8.44755 17.1505 9.49587 16.711C9.50858 16.711 9.5213 16.7086 9.53286 16.704C10.6667 16.24 11.8584 16.5641 12.7056 17.4128C13.3829 18.0913 14.0556 18.7745 14.7282 19.4589C14.504 19.7258 12.8073 21.3965 12.672 21.5084M21.6678 22.335C20.9454 22.335 20.2866 22.0983 19.7792 21.6588C19.7745 21.6553 19.7468 21.6285 19.7468 21.6285L17.5981 19.4495C17.7253 19.3201 19.6301 17.3837 20.0103 17.0082C20.8229 16.4393 21.8596 16.3367 22.7531 16.7028C22.7623 16.7063 22.7704 16.7086 22.7797 16.7086C23.8291 17.1482 24.5665 18.1928 24.5665 19.4099C24.5665 21.0246 23.2686 22.3338 21.6666 22.3338" fill="white"/>
</g>
</g>
<defs>
<clipPath id="clip0_70_351">
<rect width="32" height="32" fill="white" transform="translate(0.138916 0.619995)"/>
</clipPath>
<clipPath id="clip1_70_351">
<rect width="32" height="32" fill="white" transform="translate(0.138916 0.619995)"/>
</clipPath>
</defs>
</svg>
