<svg id="Layer_1" data-name="Layer 1" xmlns="http://www.w3.org/2000/svg" viewBox="0 0 15 16"><defs><style>.cls-1{fill:#def4fd;}.cls-2{fill:#2980b9;}.cls-3{fill:none;stroke:#2980b9;stroke-linecap:round;stroke-linejoin:round;stroke-width:0.75px;}</style></defs><title>server</title><rect class="cls-1" x="0.88" y="2.5" width="9.85" height="11.1" rx="1.13" ry="1.13"/><path class="cls-2" d="M9.6,2.88a.75.75,0,0,1,.75.75v8.85a.75.75,0,0,1-.75.75H2a.75.75,0,0,1-.75-.75V3.63A.75.75,0,0,1,2,2.88H9.6m0-.75H2A1.5,1.5,0,0,0,.5,3.63v8.85A1.5,1.5,0,0,0,2,14H9.6a1.5,1.5,0,0,0,1.5-1.5V3.63A1.5,1.5,0,0,0,9.6,2.13Z"/><line class="cls-3" x1="4.79" y1="4.57" x2="2.68" y2="4.57"/><line class="cls-3" x1="8.85" y1="7.22" x2="2.76" y2="7.22"/><line class="cls-3" x1="8.85" y1="9.22" x2="2.76" y2="9.22"/><line class="cls-3" x1="8.85" y1="11.22" x2="2.76" y2="11.22"/></svg>