<svg id="Layer_1" data-name="Layer 1" xmlns="http://www.w3.org/2000/svg" viewBox="0 0 15 16"><defs><style>.cls-1{fill:#f2f2f2;}.cls-2{fill:#717f8e;}.cls-3,.cls-5,.cls-6{fill:#2980b9;}.cls-3{stroke:#717f8e;}.cls-3,.cls-6{stroke-miterlimit:1;stroke-width:0.5px;}.cls-4{fill:#def4fd;}.cls-6{stroke:#2980b9;}</style></defs><title>server</title><rect class="cls-1" x="0.49" y="2.6" width="9.85" height="3.1" rx="1.13" ry="1.13"/><path class="cls-2" d="M9.22,3a.75.75,0,0,1,.75.75v.85a.75.75,0,0,1-.75.75H1.62a.75.75,0,0,1-.75-.75V3.72A.75.75,0,0,1,1.62,3h7.6m0-.75H1.62a1.5,1.5,0,0,0-1.5,1.5v.85a1.5,1.5,0,0,0,1.5,1.5h7.6a1.5,1.5,0,0,0,1.5-1.5V3.72a1.5,1.5,0,0,0-1.5-1.5Z"/><line class="cls-3" x1="3.79" y1="4.15" x2="1.69" y2="4.15"/><rect class="cls-4" x="0.49" y="6.45" width="9.85" height="3.1" rx="1.13" ry="1.13"/><path class="cls-5" d="M9.22,6.82a.75.75,0,0,1,.75.75v.85a.75.75,0,0,1-.75.75H1.62a.75.75,0,0,1-.75-.75V7.57a.75.75,0,0,1,.75-.75h7.6m0-.75H1.62a1.5,1.5,0,0,0-1.5,1.5v.85a1.5,1.5,0,0,0,1.5,1.5h7.6a1.5,1.5,0,0,0,1.5-1.5V7.57a1.5,1.5,0,0,0-1.5-1.5Z"/><line class="cls-6" x1="3.79" y1="8" x2="1.69" y2="8"/><path class="cls-1" d="M1.62,10.3h7.6a1.12,1.12,0,0,1,1.12,1.12v.85A1.13,1.13,0,0,1,9.22,13.4H1.62A1.13,1.13,0,0,1,.49,12.28v-.85A1.13,1.13,0,0,1,1.62,10.3Z"/><path class="cls-2" d="M9.22,10.68a.75.75,0,0,1,.75.75v.85a.75.75,0,0,1-.75.75H1.62a.75.75,0,0,1-.75-.75v-.85a.75.75,0,0,1,.75-.75h7.6m0-.75H1.62a1.5,1.5,0,0,0-1.5,1.5v.85a1.5,1.5,0,0,0,1.5,1.5h7.6a1.5,1.5,0,0,0,1.5-1.5v-.85a1.5,1.5,0,0,0-1.5-1.5Z"/><line class="cls-3" x1="3.79" y1="11.85" x2="1.69" y2="11.85"/></svg>