<svg id="Layer_1" data-name="Layer 1" xmlns="http://www.w3.org/2000/svg" viewBox="0 0 15 16"><defs><style>.cls-1{fill:#f2f2f2;}.cls-2{fill:#717f8e;}.cls-3,.cls-5{fill:#2980b9;}.cls-3{stroke:#717f8e;stroke-miterlimit:1;stroke-width:0.5px;}.cls-4{fill:#def4fd;}.cls-6{fill:none;stroke:#d0021b;stroke-linecap:round;stroke-linejoin:round;stroke-width:1.5px;}</style></defs><title>serverbad</title><rect class="cls-1" x="0.38" y="2.62" width="9.85" height="3.1" rx="1.13" ry="1.13"/><path class="cls-2" d="M9.1,3a.75.75,0,0,1,.75.75V4.6a.75.75,0,0,1-.75.75H1.5A.75.75,0,0,1,.75,4.6V3.75A.75.75,0,0,1,1.5,3H9.1m0-.75H1.5A1.5,1.5,0,0,0,0,3.75V4.6A1.5,1.5,0,0,0,1.5,6.1H9.1a1.5,1.5,0,0,0,1.5-1.5V3.75a1.5,1.5,0,0,0-1.5-1.5Z"/><line class="cls-3" x1="3.68" y1="4.17" x2="1.58" y2="4.17"/><rect class="cls-4" x="0.38" y="6.47" width="9.85" height="3.1" rx="1.13" ry="1.13"/><path class="cls-5" d="M9.1,6.85a.75.75,0,0,1,.75.75v.85a.75.75,0,0,1-.75.75H1.5a.75.75,0,0,1-.75-.75V7.6a.75.75,0,0,1,.75-.75H9.1m0-.75H1.5A1.5,1.5,0,0,0,0,7.6v.85a1.5,1.5,0,0,0,1.5,1.5H9.1a1.5,1.5,0,0,0,1.5-1.5V7.6A1.5,1.5,0,0,0,9.1,6.1Z"/><line class="cls-3" x1="3.68" y1="8.02" x2="1.58" y2="8.02"/><rect class="cls-1" x="0.38" y="10.32" width="9.85" height="3.1" rx="1.13" ry="1.13"/><path class="cls-2" d="M9.1,10.7a.75.75,0,0,1,.75.75v.85A.75.75,0,0,1,9.1,13H1.5a.75.75,0,0,1-.75-.75v-.85a.75.75,0,0,1,.75-.75H9.1m0-.75H1.5A1.5,1.5,0,0,0,0,11.45v.85a1.5,1.5,0,0,0,1.5,1.5H9.1a1.5,1.5,0,0,0,1.5-1.5v-.85a1.5,1.5,0,0,0-1.5-1.5Z"/><line class="cls-3" x1="3.68" y1="11.87" x2="1.58" y2="11.87"/><line class="cls-6" x1="12.1" y1="1.65" x2="9.1" y2="4.65"/><line class="cls-6" x1="12.1" y1="4.65" x2="9.1" y2="1.65"/></svg>