<svg id="Layer_1" data-name="Layer 1" xmlns="http://www.w3.org/2000/svg" viewBox="0 0 16 16"><defs><style>.cls-1{fill:#f2f2f2;}.cls-2{fill:#717f8e;}.cls-3,.cls-4{fill:none;}.cls-3{stroke:#717f8e;stroke-miterlimit:1;stroke-width:0.5px;}.cls-4{stroke:#d0021b;stroke-linecap:round;stroke-linejoin:round;stroke-width:1.5px;}</style></defs><title>serverbad</title><rect class="cls-1" x="0.8" y="3.07" width="9.85" height="11.1" rx="1.13" ry="1.13"/><path class="cls-2" d="M9.52,3.45a.75.75,0,0,1,.75.75v8.85a.75.75,0,0,1-.75.75H1.92a.75.75,0,0,1-.75-.75V4.2a.75.75,0,0,1,.75-.75h7.6m0-.75H1.92A1.5,1.5,0,0,0,.42,4.2v8.85a1.5,1.5,0,0,0,1.5,1.5h7.6a1.5,1.5,0,0,0,1.5-1.5V4.2A1.5,1.5,0,0,0,9.52,2.7Z"/><line class="cls-3" x1="4.1" y1="4.62" x2="1.99" y2="4.62"/><line class="cls-3" x1="8.58" y1="7.79" x2="2.49" y2="7.79"/><line class="cls-3" x1="8.58" y1="9.79" x2="2.49" y2="9.79"/><line class="cls-3" x1="8.58" y1="11.79" x2="2.49" y2="11.79"/><line class="cls-4" x1="12.22" y1="1.47" x2="9.22" y2="4.47"/><line class="cls-4" x1="12.22" y1="4.47" x2="9.22" y2="1.47"/></svg>