<?xml version="1.0" encoding="utf-8"?>
<!-- Generator: Adobe Illustrator 25.4.2, SVG Export Plug-In . SVG Version: 6.00 Build 0)  -->
<svg version="1.1" id="Layer_1" xmlns="http://www.w3.org/2000/svg" xmlns:xlink="http://www.w3.org/1999/xlink" x="0px" y="0px"
	 viewBox="0 0 30 30" style="enable-background:new 0 0 30 30;" xml:space="preserve">
<g>
	<path d="M29,12.3c0,0-5.6,0-10,4.4c-0.2,0.2-0.4,0.4-0.5,0.6c-0.8-0.1-2,0-2.6,0.6c-1.4,1.4-1.9,3.8-1.9,3.8l3.1-0.4v1.1l1.9,1.9
		h1.1l-0.4,3.1c0,0,2.4-0.5,3.8-1.9c0.6-0.6,0.6-1.8,0.6-2.6c0.2-0.2,0.4-0.3,0.6-0.5C29,17.9,29,12.3,29,12.3z M22.8,17.3
		c0-0.7,0.6-1.2,1.2-1.2s1.2,0.6,1.2,1.2s-0.6,1.2-1.2,1.2S22.8,18,22.8,17.3z"/>
	<path d="M18,24.5c-0.6,0.6-1.5,0.3-1.5,0.3s-0.3-0.9,0.3-1.5c0,0,0.1-0.1,0.1-0.1l-0.3-0.3c-0.2,0.1-0.5,0.2-0.6,0.4
		c-0.9,0.9-0.7,2.7-0.7,2.7s1.9,0.1,2.7-0.7c0.2-0.2,0.3-0.4,0.4-0.6l-0.3-0.3C18.1,24.4,18.1,24.5,18,24.5z"/>
	<path d="M2.5,8.9h18.6c0.8,0,1.5-0.7,1.5-1.5V4.3c0-0.8-0.7-1.5-1.5-1.5H2.5C1.7,2.7,1,3.4,1,4.3v3.1C1,8.2,1.7,8.9,2.5,8.9z
		 M18.8,4.6c0.6,0,1.2,0.5,1.2,1.2s-0.5,1.2-1.2,1.2s-1.2-0.5-1.2-1.2S18.2,4.6,18.8,4.6z M15.8,4.6c0.6,0,1.2,0.5,1.2,1.2
		s-0.5,1.2-1.2,1.2s-1.2-0.5-1.2-1.2S15.1,4.6,15.8,4.6z"/>
	<path d="M2.5,16.5h15.4c0.1-0.2,0.3-0.4,0.4-0.5c1.4-1.4,2.9-2.3,4.3-3v-1.1c0-0.8-0.7-1.5-1.5-1.5H2.5c-0.8,0-1.5,0.7-1.5,1.5V15
		C1,15.8,1.7,16.5,2.5,16.5z M18.8,12.3c0.6,0,1.2,0.5,1.2,1.2c0,0.6-0.5,1.2-1.2,1.2s-1.2-0.5-1.2-1.2
		C17.7,12.8,18.2,12.3,18.8,12.3z M15.8,12.3c0.6,0,1.2,0.5,1.2,1.2c0,0.6-0.5,1.2-1.2,1.2s-1.2-0.5-1.2-1.2
		C14.6,12.8,15.1,12.3,15.8,12.3z"/>
	<path d="M2.5,18.1c-0.8,0-1.5,0.7-1.5,1.5v3.1c0,0.8,0.7,1.5,1.5,1.5h10.1l0.7-3.2c0,0,0.3-1.6,1.2-2.9H2.5z"/>
</g>
</svg>
