<?xml version="1.0" encoding="utf-8"?>
<!-- Generator: Adobe Illustrator 24.2.2, SVG Export Plug-In . SVG Version: 6.00 Build 0)  -->
<svg version="1.1" id="Layer_1" xmlns="http://www.w3.org/2000/svg" xmlns:xlink="http://www.w3.org/1999/xlink" x="0px" y="0px"
	 viewBox="0 0 16 16" style="enable-background:new 0 0 16 16;" xml:space="preserve">
<style type="text/css">
	.st0{fill:#F2F2F2;}
	.st1{fill:#9BA5B0;}
	.st2{fill:none;stroke:#9BA5B0;stroke-width:0.75;stroke-miterlimit:1;}
	.st3{fill:#F7F7F7;}
	.st4{fill:#354A5F;}
	.st5{fill:none;stroke:#D0021B;stroke-width:1.5;stroke-linecap:round;stroke-linejoin:round;}
</style>
<g>
	<path class="st0" d="M6.7,2.1h4.6c0.6,0,1.1,0.5,1.1,1.1v0.8c0,0.6-0.5,1.1-1.1,1.1H6.7c-0.6,0-1.1-0.5-1.1-1.1V3.2
		C5.6,2.6,6.1,2.1,6.7,2.1z"/>
	<path class="st1" d="M11.3,2.5c0.4,0,0.8,0.3,0.8,0.8v0.8c0,0.4-0.3,0.8-0.8,0.8H6.7C6.3,4.8,6,4.5,6,4.1V3.2
		c0-0.4,0.3-0.7,0.8-0.7H11.3 M11.3,1.7H6.7c-0.8,0-1.5,0.7-1.5,1.5v0.8c0,0.8,0.7,1.5,1.5,1.5h4.6c0.8,0,1.5-0.7,1.5-1.5V3.2
		C12.8,2.4,12.1,1.7,11.3,1.7L11.3,1.7z"/>
	<line class="st2" x1="8.9" y1="3.6" x2="6.8" y2="3.6"/>
	<path class="st0" d="M6.7,5.2h4.6c0.6,0,1.1,0.5,1.1,1.1v0.8c0,0.6-0.5,1.1-1.1,1.1H6.7c-0.6,0-1.1-0.5-1.1-1.1V6.3
		C5.6,5.7,6.1,5.2,6.7,5.2z"/>
	<path class="st1" d="M11.3,5.6c0.4,0,0.8,0.3,0.8,0.8v0.8c0,0.4-0.3,0.8-0.8,0.8H6.7C6.3,7.9,6,7.6,6,7.1V6.3
		c0-0.4,0.3-0.7,0.8-0.7H11.3 M11.3,4.8H6.7c-0.8,0-1.5,0.7-1.5,1.5v0.8c0,0.8,0.7,1.5,1.5,1.5h4.6c0.8,0,1.5-0.7,1.5-1.5V6.3
		C12.8,5.5,12.1,4.8,11.3,4.8L11.3,4.8z"/>
	<line class="st2" x1="8.9" y1="6.7" x2="6.8" y2="6.7"/>
	<path class="st0" d="M6.7,8.3h4.6c0.6,0,1.1,0.5,1.1,1.1v0.9c0,0.6-0.5,1.1-1.1,1.1c0,0,0,0,0,0H6.7c-0.6,0-1.1-0.5-1.1-1.1l0,0
		V9.4C5.6,8.8,6.1,8.3,6.7,8.3C6.7,8.3,6.7,8.3,6.7,8.3z"/>
	<path class="st1" d="M11.3,8.7c0.4,0,0.8,0.3,0.8,0.8v0.8c0,0.4-0.3,0.8-0.8,0.8H6.7C6.3,11,6,10.7,6,10.3V9.4C6,9,6.3,8.7,6.7,8.7
		H11.3 M11.3,7.9H6.7c-0.8,0-1.5,0.7-1.5,1.5v0.8c0,0.8,0.7,1.5,1.5,1.5h4.6c0.8,0,1.5-0.7,1.5-1.5V9.4C12.8,8.6,12.1,7.9,11.3,7.9z
		"/>
	<line class="st2" x1="8.9" y1="9.8" x2="6.8" y2="9.8"/>
</g>
<path class="st3" d="M11.6,10.5c-0.6,0.3-0.8,0.1-1.1-0.2c-0.1-0.2-0.3-0.4-0.6-0.5L7.1,8.5C6.8,8.4,6.4,8.3,6.1,8.3
	C5.1,8.1,4.2,8.4,3.4,9l-1.4,1.1v2.7h0.9v-0.2l3.7,1.8c0.4,0.2,0.7,0.3,1.1,0.3c0.3,0,0.7-0.1,1-0.2l6.1-2.6
	c0.3-0.1,0.6-0.4,0.7-0.7c0.1-0.3,0.1-0.7,0-1c-0.3-0.6-1.1-0.9-1.7-0.6l-0.4,0.2L11.6,10.5"/>
<path class="st4" d="M15.5,10.2c-0.3-0.6-1.1-0.9-1.7-0.6l-0.4,0.2l-1.8,0.8l0.3,0.8l1.8-0.8l0.4-0.2c0.2-0.1,0.5,0,0.6,0.2
	c0.1,0.1,0.1,0.2,0,0.3c0,0.1-0.1,0.2-0.2,0.2l-6.1,2.6c-0.5,0.2-1,0.2-1.4,0l-4.1-2v-1.2l1-0.8C4.5,9.2,5.2,9,6,9.1
	c0.3,0,0.6,0.1,0.8,0.2l2.8,1.2c0.1,0,0.1,0.1,0.2,0.2c0.1,0.1,0.1,0.3,0,0.4c0,0,0,0.1-0.1,0.1c-0.1,0.1-0.3,0.2-0.5,0.1l-2.2-1
	l-0.4,0.8l2.2,1c0.2,0.1,0.4,0.1,0.5,0.1c0.4,0,0.7-0.2,1-0.4c0.1-0.1,0.2-0.2,0.2-0.3c0.2-0.4,0.1-0.9-0.1-1.2
	c-0.1-0.2-0.3-0.4-0.6-0.5L7.1,8.5C6.8,8.4,6.4,8.3,6.1,8.3C5.1,8.1,4.2,8.4,3.4,9L2.9,9.4V9.3c0-0.6-0.4-1-1-1H1.4
	c-0.6,0-1,0.4-1,1v4.1c0,0.6,0.4,1,1,1h0.5c0.6,0,1-0.4,1-1v-0.6h0v-0.2l3.7,1.8c0.4,0.2,0.7,0.3,1.1,0.3c0.3,0,0.7-0.1,1-0.2
	l6.1-2.6c0.3-0.1,0.6-0.4,0.7-0.7C15.7,10.9,15.7,10.5,15.5,10.2z M1.9,13.4H1.4V9.3h0.5L1.9,13.4z"/>
<line class="st5" x1="13.8" y1="1.3" x2="10.8" y2="4.3"/>
<line class="st5" x1="13.8" y1="4.3" x2="10.8" y2="1.3"/>
</svg>
