<svg id="Layer_1" data-name="Layer 1" xmlns="http://www.w3.org/2000/svg" viewBox="0 0 16 16"><defs><style>.cls-1{fill:#def4fd;}.cls-1,.cls-2{stroke:#2880b9;stroke-width:0.75px;}.cls-1,.cls-2,.cls-3{stroke-linecap:round;stroke-linejoin:round;}.cls-2{fill:none;}.cls-3{fill:#2980b9;stroke:#2980b9;stroke-width:0.5px;}.cls-4{font-size:5.4px;fill:#34495e;font-family:Helvetica-Bold, Helvetica;font-weight:700;}</style></defs><title>fts_dictionary</title><path class="cls-1" d="M11,11.39l-5.5,2a1.26,1.26,0,0,1-1.61-.75h0A1.26,1.26,0,0,1,4.66,11l5.5-2,.5-.18L9.91,6.76l-.14-.38L8.19,2a.57.57,0,0,0-.73-.34L1.31,3.94A.57.57,0,0,0,1,4.66L2.55,9l.15.4,1,2.66.22.59a1.26,1.26,0,0,0,1.61.75l6.09-2.22"/><line class="cls-2" x1="5.32" y1="12.12" x2="11.07" y2="10.03"/><line class="cls-3" x1="2.01" y1="3.84" x2="4.6" y2="10.96"/><text class="cls-4" transform="translate(5.17 8.12) rotate(-20)">a</text></svg>