<svg xmlns="http://www.w3.org/2000/svg" viewBox="0 0 16 16"><defs><style>.cls-1{fill:#def4fd;}.cls-1,.cls-2{stroke:#1a79aa;stroke-width:0.75px;}.cls-1,.cls-2,.cls-3{stroke-linecap:round;stroke-linejoin:round;}.cls-2{fill:none;}.cls-3{fill:#2980b9;stroke:#2980b9;stroke-width:0.5px;}.cls-4{font-size:5.4px;fill:#34495e;font-family:Helvetica-Bold, Helvetica;font-weight:700;}</style></defs><title>fts_dictionary</title><g id="_2" data-name="2"><path class="cls-1" d="M12.76,11.82l-5.5,2a1.26,1.26,0,0,1-1.61-.75h0a1.26,1.26,0,0,1,.75-1.61l5.5-2,.5-.18L11.65,7.2l-.14-.38L9.93,2.47a.57.57,0,0,0-.73-.34L3.05,4.37a.57.57,0,0,0-.34.73L4.29,9.42l.15.4,1,2.66.22.59a1.26,1.26,0,0,0,1.61.75l6.09-2.22"/><line class="cls-2" x1="7.06" y1="12.55" x2="12.81" y2="10.46"/><line class="cls-3" x1="3.75" y1="4.27" x2="6.34" y2="11.39"/><text class="cls-4" transform="translate(6.91 8.55) rotate(-20)">a</text></g></svg>