<svg id="Layer_1" data-name="Layer 1" xmlns="http://www.w3.org/2000/svg" viewBox="0 0 16 16"><defs><style>.cls-1{fill:#def4fd;}.cls-2{fill:#717f8e;}.cls-3{fill:#34495e;}</style></defs><title>coll-edbvar</title><path class="cls-1" d="M1.1,11.09a.35.35,0,0,1-.35-.34V4.82l9.17,0v5.9a.34.34,0,0,1-.34.34Z"/><path class="cls-2" d="M1.13,5.19l8.42,0,0,5.5-8.45,0V5.19M.38,4.44v6.3a.72.72,0,0,0,.72.72H9.58a.72.72,0,0,0,.72-.72V4.47l-9.92,0Z"/><path class="cls-1" d="M.75,4.8V3a.34.34,0,0,1,.34-.34H9.58A.35.35,0,0,1,9.92,3V4.8Z"/><path class="cls-2" d="M9.55,3V4.42H1.12L1.1,3H9.55m0-.75H1.1A.72.72,0,0,0,.38,3V5.17H10.3V3a.72.72,0,0,0-.72-.72Z"/><path class="cls-1" d="M3.14,13.3A.35.35,0,0,1,2.79,13V7l9.17,0V13a.35.35,0,0,1-.35.35Z"/><path class="cls-3" d="M3.17,7.41l8.42,0,0,5.5L3.17,13V7.41m-.75-.75V13a.72.72,0,0,0,.72.72h8.48a.72.72,0,0,0,.72-.72V6.68l-9.92,0Z"/><path class="cls-1" d="M2.79,7V5.23a.34.34,0,0,1,.34-.34h8.48a.35.35,0,0,1,.35.34V7Z"/><path class="cls-3" d="M11.59,5.26V6.64H3.16l0-1.38h8.45m0-.75H3.14a.72.72,0,0,0-.72.72V7.39h9.92V5.23a.72.72,0,0,0-.72-.72Z"/><path class="cls-3" d="M5.58,12.51H5.13a4.56,4.56,0,0,1-.55-1.12,3.69,3.69,0,0,1-.19-1.13A3.54,3.54,0,0,1,4.63,9a4.5,4.5,0,0,1,.51-1h.45a7.12,7.12,0,0,0-.44,1.21,4.54,4.54,0,0,0,0,1.84,5,5,0,0,0,.2.77Q5.38,12.06,5.58,12.51Z"/><path class="cls-3" d="M5.74,12l1.17-1.79L5.86,8.54h.81l.69,1.1L8,8.54h.8L7.77,10.21,8.94,12H8.1l-.76-1.19L6.58,12Z"/><path class="cls-3" d="M9.11,12.51q.19-.42.27-.64a4.73,4.73,0,0,0,.15-.51,5.36,5.36,0,0,0,.1-.55,4.3,4.3,0,0,0,0-.54,4.51,4.51,0,0,0-.12-1.06A7,7,0,0,0,9.1,8h.45a4.34,4.34,0,0,1,.55,1.07,3.5,3.5,0,0,1,.2,1.15,4,4,0,0,1-.15,1,4.42,4.42,0,0,1-.58,1.24Z"/></svg>