<svg xmlns="http://www.w3.org/2000/svg" viewBox="0 0 16 16"><defs><style>.cls-1{fill:#ffefd6;}.cls-2{fill:#efa539;}.cls-3,.cls-5{fill:none;stroke:#efa539;stroke-linejoin:round;stroke-width:0.75px;}.cls-3{stroke-linecap:round;}.cls-4{fill:#ab6a0c;}</style></defs><title>coll-edbvar</title><g id="_3" data-name="3"><path class="cls-1" d="M3,11.68a.63.63,0,0,1-.62-.62v-8A.63.63,0,0,1,3,2.43l8-.08a.62.62,0,0,1,.62.63v8a.63.63,0,0,1-.62.63Z"/><path class="cls-2" d="M11,2.72a.25.25,0,0,1,.25.25v8a.26.26,0,0,1-.26.25L3,11.3a.25.25,0,0,1-.25-.25v-8A.26.26,0,0,1,3,2.8l8-.08M11,2,3,2.05a1,1,0,0,0-1,1v8a1,1,0,0,0,1,1L11,12a1,1,0,0,0,1-1V3a1,1,0,0,0-1-1Z"/><line class="cls-3" x1="2.69" y1="5.05" x2="11.38" y2="4.97"/><line class="cls-1" x1="2.69" y1="5.05" x2="11.38" y2="4.97"/><rect class="cls-1" x="4.38" y="4.09" width="9.25" height="9.56" rx="0.62" ry="0.62"/><path class="cls-2" d="M13,4.47a.25.25,0,0,1,.25.25V13a.25.25,0,0,1-.25.25H5A.25.25,0,0,1,4.75,13V4.72A.25.25,0,0,1,5,4.47h8m0-.75H5a1,1,0,0,0-1,1V13a1,1,0,0,0,1,1h8a1,1,0,0,0,1-1V4.72a1,1,0,0,0-1-1Z"/><path class="cls-4" d="M7.24,12.54H6.78a4.56,4.56,0,0,1-.55-1.12,3.69,3.69,0,0,1-.19-1.13A3.54,3.54,0,0,1,6.28,9a4.5,4.5,0,0,1,.51-1h.45A7.12,7.12,0,0,0,6.8,9.24a4.54,4.54,0,0,0,0,1.84,5,5,0,0,0,.2.77Q7,12.09,7.24,12.54Z"/><path class="cls-4" d="M7.4,12l1.17-1.79L7.51,8.57h.81L9,9.67l.67-1.1h.8L9.42,10.23,10.59,12H9.76L9,10.81,8.23,12Z"/><path class="cls-4" d="M10.76,12.54q.19-.42.27-.64a4.73,4.73,0,0,0,.15-.51,5.36,5.36,0,0,0,.1-.55,4.3,4.3,0,0,0,0-.54,4.51,4.51,0,0,0-.12-1.06A7,7,0,0,0,10.76,8h.45a4.34,4.34,0,0,1,.55,1.07,3.5,3.5,0,0,1,.2,1.15,4,4,0,0,1-.15,1.05,4.42,4.42,0,0,1-.58,1.24Z"/><line class="cls-5" x1="4.69" y1="6.59" x2="13.35" y2="6.59"/></g></svg>