<svg xmlns="http://www.w3.org/2000/svg" viewBox="0 0 16 16"><defs><style>.cls-1{fill:#ffefd6;}.cls-2{fill:#efa539;}.cls-3{fill:#ab6a0c;}.cls-4{fill:none;stroke:#efa539;stroke-linecap:round;stroke-linejoin:round;stroke-width:0.75px;}</style></defs><title>edbvar</title><g id="_3" data-name="3"><rect class="cls-1" x="2.38" y="2.38" width="11.25" height="11.25" rx="0.63" ry="0.63"/><path class="cls-2" d="M13,2.75a.25.25,0,0,1,.25.25V13a.25.25,0,0,1-.25.25H3A.25.25,0,0,1,2.75,13V3A.25.25,0,0,1,3,2.75H13M13,2H3A1,1,0,0,0,2,3V13a1,1,0,0,0,1,1H13a1,1,0,0,0,1-1V3a1,1,0,0,0-1-1Z"/><path class="cls-3" d="M5.81,12.06H5.26A5.51,5.51,0,0,1,4.6,10.7a4.46,4.46,0,0,1-.23-1.37,4.29,4.29,0,0,1,.28-1.55,5.44,5.44,0,0,1,.62-1.17h.54a8.61,8.61,0,0,0-.54,1.46,5.49,5.49,0,0,0-.06,2.23,6.1,6.1,0,0,0,.24.93Q5.56,11.52,5.81,12.06Z"/><path class="cls-3" d="M6,11.42,7.42,9.25l-1.29-2h1L8,8.59l.82-1.34h1l-1.29,2,1.42,2.14h-1L7.93,10,7,11.42Z"/><path class="cls-3" d="M10.07,12.06q.24-.5.33-.77a5.73,5.73,0,0,0,.18-.62A6.49,6.49,0,0,0,10.7,10a5.21,5.21,0,0,0,0-.65,5.46,5.46,0,0,0-.14-1.28,8.5,8.5,0,0,0-.53-1.46h.54a5.25,5.25,0,0,1,.67,1.29,4.23,4.23,0,0,1,.24,1.39,4.79,4.79,0,0,1-.19,1.27,5.35,5.35,0,0,1-.7,1.5Z"/><line class="cls-4" x1="2.69" y1="5" x2="13.35" y2="5"/></g></svg>