<svg id="Layer_1" data-name="Layer 1" xmlns="http://www.w3.org/2000/svg" viewBox="0 0 16 16"><defs><style>.cls-1{fill:#def4fd;}.cls-2{fill:#34495e;}</style></defs><title>edbvar</title><path class="cls-1" d="M1.6,12.84a.44.44,0,0,1-.44-.43V5.7l10.41,0v6.69a.44.44,0,0,1-.43.43Z"/><path class="cls-2" d="M1.54,6.07l9.66,0v6.31a.06.06,0,0,1-.06.06H1.6a.06.06,0,0,1-.06-.06V6.07M.79,5.32v7.09a.81.81,0,0,0,.81.81h9.54a.81.81,0,0,0,.81-.81V5.35L.79,5.32Z"/><path class="cls-1" d="M1.16,5.65V3.59a.44.44,0,0,1,.44-.43h9.54a.44.44,0,0,1,.43.43V5.65Z"/><path class="cls-2" d="M11.14,3.53a.06.06,0,0,1,.06.06V5.27H1.54V3.59a.06.06,0,0,1,.06-.06h9.54m0-.75H1.6a.81.81,0,0,0-.81.81V6H11.95V3.59a.81.81,0,0,0-.81-.81Z"/><path class="cls-2" d="M4.35,11.91H3.84a5.13,5.13,0,0,1-.61-1.27A4.15,4.15,0,0,1,3,9.37a4,4,0,0,1,.26-1.44,5.06,5.06,0,0,1,.57-1.09h.51a8,8,0,0,0-.5,1.36,5.11,5.11,0,0,0-.05,2.07,5.68,5.68,0,0,0,.22.86Q4.12,11.4,4.35,11.91Z"/><path class="cls-2" d="M4.53,11.3l1.32-2L4.65,7.44h.91l.78,1.24L7.1,7.44H8L6.8,9.32l1.32,2H7.18L6.33,10,5.47,11.3Z"/><path class="cls-2" d="M8.31,11.91q.22-.47.31-.72a5.33,5.33,0,0,0,.17-.58A6,6,0,0,0,8.9,10a4.84,4.84,0,0,0,0-.6A5.07,5.07,0,0,0,8.8,8.2a7.9,7.9,0,0,0-.5-1.36h.5A4.88,4.88,0,0,1,9.43,8a3.94,3.94,0,0,1,.22,1.29,4.45,4.45,0,0,1-.17,1.18,5,5,0,0,1-.65,1.39Z"/></svg>