<svg xmlns="http://www.w3.org/2000/svg" viewBox="0 0 16 16"><defs><style>.cls-1,.cls-4{fill:#c9edd2;}.cls-2{fill:#1a6016;}.cls-3,.cls-5{fill:none;}.cls-3,.cls-4,.cls-5{stroke:#1a6016;stroke-linejoin:round;}.cls-3,.cls-4{stroke-width:0.75px;}.cls-4{stroke-linecap:round;}</style></defs><title>coll-extension</title><g id="_2" data-name="2"><path class="cls-1" d="M5.12,11.63A.62.62,0,0,1,4.51,11V3a.62.62,0,0,1,.62-.62h5.61a.62.62,0,0,1,.62.62V8.65l-3,3Z"/><path class="cls-2" d="M10.73,2.75A.24.24,0,0,1,11,3V8.5L8.22,11.25H5.12A.24.24,0,0,1,4.88,11V3a.24.24,0,0,1,.24-.24h5.61m0-.75H5.12a1,1,0,0,0-1,1v8a1,1,0,0,0,1,1H8.53l3.19-3.19V3a1,1,0,0,0-1-1Z"/><polyline class="cls-3" points="11.5 8.02 7.99 8.04 7.99 12"/><rect class="cls-4" x="2.28" y="4.63" width="6.01" height="2.01"/><path class="cls-1" d="M7.12,13.63A.62.62,0,0,1,6.51,13V5a.62.62,0,0,1,.62-.62h5.61a.62.62,0,0,1,.62.62v5.66l-3,3Z"/><path class="cls-2" d="M12.73,4.75A.24.24,0,0,1,13,5V10.5l-2.75,2.75H7.12A.24.24,0,0,1,6.88,13V5a.24.24,0,0,1,.24-.24h5.61m0-.75H7.12a1,1,0,0,0-1,1v8a1,1,0,0,0,1,1h3.41l3.19-3.19V5a1,1,0,0,0-1-1Z"/><polyline class="cls-5" points="13.5 10.02 9.99 10.04 9.99 14"/><rect class="cls-4" x="4.28" y="6.63" width="6.01" height="2.01"/></g></svg>