<svg id="Layer_1" data-name="Layer 1" xmlns="http://www.w3.org/2000/svg" viewBox="0 0 16 16"><defs><style>.cls-1,.cls-4{fill:#def4fd;}.cls-2{fill:#717f8e;}.cls-3{fill:none;stroke:#717f8e;}.cls-3,.cls-4{stroke-linejoin:round;stroke-width:0.75px;}.cls-4{stroke:#2980b9;stroke-linecap:round;}</style></defs><title>extension</title><path class="cls-1" d="M3,13.11a.62.62,0,0,1-.62-.62v-9A.62.62,0,0,1,3,2.86H9.65a.62.62,0,0,1,.62.62v6.66l-3,3Z"/><path class="cls-2" d="M9.65,3.23a.24.24,0,0,1,.24.24V10L7.14,12.73H3a.24.24,0,0,1-.24-.24v-9A.24.24,0,0,1,3,3.23H9.65m0-.75H3a1,1,0,0,0-1,1v9a1,1,0,0,0,1,1H7.45l3.19-3.19V3.47a1,1,0,0,0-1-1Z"/><polyline class="cls-3" points="10.42 9.5 6.9 9.52 6.9 13.48"/><rect class="cls-4" x="0.19" y="5.12" width="6.01" height="2.01"/></svg>