<svg xmlns="http://www.w3.org/2000/svg" viewBox="0 0 16 16"><defs><style>.cls-1,.cls-4{fill:#c9edd2;}.cls-2{fill:#1a6016;}.cls-3{fill:none;}.cls-3,.cls-4{stroke:#1a6016;stroke-linejoin:round;stroke-width:0.75px;}.cls-4{stroke-linecap:round;}</style></defs><title>extension</title><g id="_2" data-name="2"><path class="cls-1" d="M5.62,13.13A.62.62,0,0,1,5,12.51v-9a.62.62,0,0,1,.62-.62h6.61a.62.62,0,0,1,.62.62v6.66l-3,3Z"/><path class="cls-2" d="M12.23,3.25a.24.24,0,0,1,.24.24V10L9.72,12.75H5.62a.24.24,0,0,1-.24-.24v-9a.24.24,0,0,1,.24-.24h6.61m0-.75H5.62a1,1,0,0,0-1,1v9a1,1,0,0,0,1,1H10l3.19-3.19V3.49a1,1,0,0,0-1-1Z"/><polyline class="cls-3" points="13 9.52 9.49 9.54 9.49 13.5"/><rect class="cls-4" x="2.78" y="5.13" width="6.01" height="2.01"/></g></svg>