<svg id="Layer_1" data-name="Layer 1" xmlns="http://www.w3.org/2000/svg" viewBox="0 0 64 64"><defs><style>.cls-1{fill:#222222;}</style></defs><title>commit</title><path class="cls-1" d="M51.89,28.51a21.22,21.22,0,0,0-6.3-2.1,45.22,45.22,0,0,0-8.67-.78,45.12,45.12,0,0,0-8.66.78,21.22,21.22,0,0,0-6.3,2.1c-1.54.89-2.32,1.85-2.32,2.88v2.88c0,1,.78,2,2.32,2.88a20.92,20.92,0,0,0,6.3,2.11,46,46,0,0,0,8.66.77,46.07,46.07,0,0,0,8.67-.77,20.92,20.92,0,0,0,6.3-2.11q2.31-1.32,2.31-2.88V31.39Q54.2,29.85,51.89,28.51Z"/><path class="cls-1" d="M36.92,51.56a49.08,49.08,0,0,1-10-1,19.79,19.79,0,0,1-7.32-2.86v3.82c0,1,.78,2,2.32,2.88a20.92,20.92,0,0,0,6.3,2.11,46,46,0,0,0,8.66.77,46.07,46.07,0,0,0,8.67-.77,20.92,20.92,0,0,0,6.3-2.11q2.31-1.32,2.31-2.88V47.74a19.67,19.67,0,0,1-7.31,2.86A49.11,49.11,0,0,1,36.92,51.56Z"/><path class="cls-1" d="M36.92,42.92a49.08,49.08,0,0,1-10-1,19.79,19.79,0,0,1-7.32-2.86v3.82c0,1,.78,2,2.32,2.88a20.92,20.92,0,0,0,6.3,2.11,46,46,0,0,0,8.66.77,46.07,46.07,0,0,0,8.67-.77,20.92,20.92,0,0,0,6.3-2.11q2.31-1.32,2.31-2.88V39.1A19.67,19.67,0,0,1,46.89,42,49.11,49.11,0,0,1,36.92,42.92Z"/><path class="cls-1" d="M25.67,12.44a11.28,11.28,0,0,1,4.23.8,11.13,11.13,0,0,1,3.6,2.28l-3.08,3.1a1.29,1.29,0,0,0-.31,1.56,1.33,1.33,0,0,0,1.32.9H41.51a1.43,1.43,0,0,0,1-.43,1.4,1.4,0,0,0,.42-1V9.56a1.34,1.34,0,0,0-.9-1.33,1.28,1.28,0,0,0-1.55.31l-2.92,2.91a17.34,17.34,0,0,0-5.51-3.52A17,17,0,0,0,19,8.05a19.15,19.15,0,0,0-3,1.6h0c-.43.3-.85.61-1.25.94l-.4.34h0a16.91,16.91,0,0,0-4.49,6,.8.8,0,0,0,0,.53.65.65,0,0,0,.31.39L14,20a.82.82,0,0,0,.6.05.72.72,0,0,0,.42-.4,11.46,11.46,0,0,1,1.12-2.11h0l.39-.54.24-.3c.18-.22.37-.44.57-.65L17.4,16l.45-.44.09-.09c.16-.15.33-.29.5-.43l.27-.2.21-.16a11.84,11.84,0,0,1,2.29-1.28A11.12,11.12,0,0,1,25.67,12.44Z"/></svg>
