<?xml version="1.0" encoding="utf-8"?>
<!-- Generator: Adobe Illustrator 23.1.1, SVG Export Plug-In . SVG Version: 6.00 Build 0)  -->
<svg version="1.1" id="Layer_1" xmlns="http://www.w3.org/2000/svg" xmlns:xlink="http://www.w3.org/1999/xlink" x="0px" y="0px"
	 viewBox="0 0 877.4 1000" style="enable-background:new 0 0 877.4 1000;" xml:space="preserve">
<title>commit</title>
<path d="M877.4,488.3v56.9c0,20.6-15.2,39.5-45.7,56.9c-39,20.4-81.1,34.5-124.5,41.7c-56.5,10.5-113.9,15.6-171.4,15.2
	c-57.4,0.3-114.7-4.8-171.2-15.2c-43.2-7.3-85-21.3-123.7-41.7c-30.4-17.4-45.9-36.4-45.9-56.9v-56.9c0-19.8,15.4-39.5,45.9-56.9
	c39.1-20.3,81.1-34.3,124.5-41.5c56.4-10.6,113.7-15.8,171.2-15.4c57.5-0.4,114.9,4.8,171.4,15.4c43.4,7.2,85.4,21.2,124.5,41.5
	C862.4,449,877.4,468,877.4,488.3z M535.7,887c-66.4,0.2-132.6-6.4-197.7-19.8c-51.5-9-100.7-28.2-144.7-56.5v75.5
	c0,19.8,15.4,39.5,45.9,56.9c39,20.4,81.1,34.5,124.5,41.7c56.4,10.5,113.8,15.6,171.2,15.2c57.5,0.3,114.9-4.7,171.4-15.2
	c43.5-7.2,85.5-21.3,124.5-41.7c30.4-17.4,45.7-36.4,45.7-56.9v-74.7c-43.9,28.4-93,47.6-144.5,56.5
	C667.5,881,601.6,887.4,535.7,887z M535.7,716.3c-66.4,0.2-132.6-6.4-197.7-19.8c-51.5-9-100.7-28.2-144.7-56.5v75.5
	c0,19.8,15.4,39.5,45.9,56.9c39,20.4,81.1,34.5,124.5,41.7c56.4,10.5,113.8,15.6,171.2,15.2c57.5,0.3,114.9-4.7,171.4-15.2
	c43.5-7.2,85.5-21.3,124.5-41.7c30.4-17.4,45.7-36.4,45.7-56.9v-74.7c-43.6,28.5-92.4,48-143.7,57.3
	C668,710.8,601.9,716.9,535.7,716.3z M313.4,113.7c28.6-0.1,57,5.2,83.6,15.8c26.4,10.3,50.6,25.6,71.2,45.1l-60.9,61.3
	c-8.9,7.6-11.4,20.4-6.1,30.8c3.8,11.1,14.4,18.3,26.1,17.8h199.2c7.5-0.1,14.6-3.2,19.8-8.5c5.3-5.2,8.3-12.3,8.3-19.8V56.8
	c0.6-11.7-6.7-22.4-17.8-26.3c-10.4-5.3-23.1-2.7-30.6,6.1l-57.7,57.5C516.9,64.2,480,40.6,439.6,24.5C356.6-9,263.8-8.1,181.5,26.9
	c-20.7,8.8-40.5,19.3-59.3,31.6l0,0c-8.5,5.9-16.8,12.1-24.7,18.6l-7.9,6.7l0,0c-38.1,32.4-68.4,72.9-88.7,118.6
	c-1.2,3.4-1.2,7.1,0,10.5c0.9,3.3,3.1,6.1,6.1,7.7l75.7,42.5c3.7,1.8,7.9,2.2,11.9,1c3.8-1.4,6.8-4.2,8.3-7.9
	c5.9-14.6,13.3-28.6,22.1-41.7l0,0l7.7-10.7l4.7-5.9c3.6-4.3,7.3-8.7,11.3-12.8l1.2-1l8.9-8.7l1.8-1.8c3.2-3,6.5-5.7,9.9-8.5l5.3-4
	l4.2-3.2c14.1-10.1,29.3-18.6,45.3-25.3C253,120.3,283,113.9,313.4,113.7z"/>
</svg>
