<svg id="Layer_1" data-name="Layer 1" xmlns="http://www.w3.org/2000/svg" viewBox="0 0 24 24"><defs><style>.cls-1{fill:#2c76b4;}</style></defs><title>connect</title><path class="cls-1" d="M21.27,4.25c.12-.12.12-.18,0-.29-.32-.3-.63-.61-.92-.93-.12-.13-.19-.13-.31,0-.69.71-1.4,1.4-2.1,2.11L17.7,4.9a4.22,4.22,0,0,0-5.26-.82,9.75,9.75,0,0,0-1.69,1.46l-.58.55c-.18-.18-.36-.35-.53-.53s-.14-.1-.23,0c-.31.33-.63.65-1,1-.12.12-.13.18,0,.3.69.67,1.36,1.37,2.05,2,.15.14.13.21,0,.34l-2.05,2c-.12.12-.12.18,0,.29.32.3.63.61.92.93.12.13.19.13.31,0l2-2.05c.12-.13.19-.15.33,0,.61.63,1.24,1.25,1.87,1.87.13.12.12.19,0,.31l-2.07,2.06c-.11.11-.13.17,0,.29q.47.44.91.91c.13.14.2.16.35,0,.67-.69,1.36-1.36,2-2.05.12-.13.19-.12.31,0l2.08,2.09c.09.1.15.12.25,0,.32-.34.66-.67,1-1,.1-.1.07-.15,0-.23l-.61-.6c.48-.45,1-.86,1.41-1.32a4.13,4.13,0,0,0,1.2-3.67,4,4,0,0,0-1.42-2.55c-.14-.12-.14-.19,0-.32C20,5.56,20.61,4.9,21.27,4.25Zm-3.05,7.41c-.43.39-.81.83-1.2,1.23L11.37,7.25l1.42-1.34a2.52,2.52,0,0,1,3.48-.06C17,6.55,17.74,7.27,18.43,8A2.51,2.51,0,0,1,18.22,11.67Z"/><path class="cls-1" d="M15.52,17.16c-2-1.95-8-8-9-9C6.4,8,6.34,8,6.22,8.14c-.3.32-.62.64-.94.94-.11.11-.14.17,0,.28s.35.33.6.57c-.49.45-1,.88-1.42,1.34a4.16,4.16,0,0,0-1.12,4,4.37,4.37,0,0,0,1.33,2.22c.13.13.13.2,0,.33-.65.63-1.28,1.28-1.93,1.91-.13.13-.12.19,0,.31.32.3.62.61.92.92.11.12.18.12.29,0,.53-.55,1.07-1.08,1.62-1.62.15-.15.29-.42.47-.41s.31.25.47.39a4.21,4.21,0,0,0,5.81,0c.5-.47.94-1,1.43-1.53.25.26.43.44.6.63s.14.11.24,0c.3-.32.61-.63.93-.92C15.67,17.38,15.68,17.31,15.52,17.16Zm-3-.38c-.43.43-.84.87-1.27,1.29a2.53,2.53,0,0,1-3.74-.17c-.53-.57-1.1-1.11-1.66-1.64a2.58,2.58,0,0,1,0-3.93c.41-.41.79-.84,1.19-1.27l5.52,5.52C12.57,16.66,12.58,16.7,12.49,16.78Z"/></svg>
