<svg id="Layer_1" data-name="Layer 1" xmlns="http://www.w3.org/2000/svg" viewBox="0 0 24 24"><defs><style>.cls-1{fill:#d0021b;}</style></defs><title>disconnect</title><path class="cls-1" d="M22.49,2.73c.12-.11.12-.18,0-.29-.31-.3-.62-.6-.91-.91-.12-.13-.18-.13-.31,0-.68.69-1.37,1.38-2.07,2.07L19,3.36a4.15,4.15,0,0,0-5.18-.81A9.59,9.59,0,0,0,12.14,4l-.57.54c-.18-.17-.36-.34-.53-.52s-.13-.09-.22,0c-.31.32-.62.64-.95.94-.12.11-.13.18,0,.3.68.66,1.34,1.34,2,2,.14.14.12.21,0,.34l-2,2c-.12.11-.12.18,0,.29.31.29.62.6.91.91.12.13.18.12.3,0l2-2c.12-.13.19-.15.32,0,.6.62,1.22,1.23,1.84,1.84.12.12.12.18,0,.3l-2,2c-.11.11-.13.17,0,.29q.46.43.89.89c.13.13.2.15.34,0,.66-.68,1.34-1.34,2-2,.12-.13.18-.12.3,0l2,2.05c.09.09.14.11.24,0,.32-.33.65-.66,1-1,.1-.09.07-.14,0-.22l-.6-.59c.47-.44.95-.85,1.38-1.3A4.06,4.06,0,0,0,22,7.47,4,4,0,0,0,20.56,5c-.14-.12-.14-.18,0-.31C21.2,4,21.84,3.36,22.49,2.73Zm-3,7.29c-.42.38-.8.81-1.18,1.21L12.75,5.68l1.39-1.32a2.48,2.48,0,0,1,3.42-.06C18.3,5,19,5.7,19.69,6.44A2.47,2.47,0,0,1,19.48,10Z"/><path class="cls-1" d="M14.1,18.75c-1.93-1.92-7.84-7.83-8.87-8.87-.11-.11-.16-.13-.28,0-.3.32-.61.63-.93.93-.11.1-.14.17,0,.28s.35.33.59.56c-.48.45-1,.86-1.4,1.32a4.09,4.09,0,0,0-1.1,3.93,4.3,4.3,0,0,0,1.31,2.19c.13.13.13.2,0,.33-.64.62-1.26,1.26-1.9,1.88-.13.12-.12.19,0,.3.31.29.61.6.91.91.11.12.17.12.29,0,.52-.54,1.06-1.07,1.59-1.59.15-.15.28-.41.46-.41s.31.24.46.38a4.14,4.14,0,0,0,5.72,0c.5-.46.92-1,1.4-1.51.25.26.42.43.59.62s.14.11.24,0c.3-.31.6-.62.91-.91C14.24,19,14.25,18.9,14.1,18.75Zm-3-.37c-.42.42-.82.86-1.25,1.27a2.49,2.49,0,0,1-3.68-.17c-.52-.56-1.08-1.09-1.64-1.62a2.54,2.54,0,0,1,0-3.87c.4-.4.78-.83,1.17-1.25l5.43,5.43C11.2,18.25,11.21,18.29,11.12,18.38Z"/></svg>
