<?xml version="1.0" encoding="utf-8"?>
<!-- Generator: Adobe Illustrator 23.1.1, SVG Export Plug-In . SVG Version: 6.00 Build 0)  -->
<svg version="1.1" id="Layer_1" xmlns="http://www.w3.org/2000/svg" xmlns:xlink="http://www.w3.org/1999/xlink" x="0px" y="0px"
	 viewBox="0 0 956.7 1000" style="enable-background:new 0 0 956.7 1000;" xml:space="preserve">
<title>rollback</title>
<path d="M956.7,488.3v56.9c0,20.6-15.2,39.5-45.7,56.9c-39,20.4-81.1,34.5-124.5,41.7C730,654.3,672.6,659.4,615.1,659
	c-57.4,0.3-114.7-4.8-171.2-15.2c-43.2-7.3-85-21.3-123.7-41.7c-30.4-17.4-45.9-36.4-45.9-56.9v-56.9c0-19.8,15.4-39.5,45.9-56.9
	c39.1-20.3,81.1-34.3,124.5-41.5c56.4-10.6,113.7-15.8,171.2-15.4c57.5-0.4,114.9,4.8,171.4,15.4c43.4,7.2,85.4,21.2,124.5,41.5
	C941.7,449,956.7,468,956.7,488.3z M615.1,886.9c-66.4,0.2-132.6-6.4-197.7-19.8c-51.5-9-100.7-28.2-144.7-56.5v75.5
	c0,19.8,15.4,39.5,45.9,56.9c39,20.4,81.1,34.5,124.5,41.7c56.4,10.5,113.8,15.6,171.2,15.2c57.5,0.3,114.9-4.7,171.4-15.2
	c43.5-7.2,85.5-21.3,124.5-41.7c30.4-17.4,45.7-36.4,45.7-56.9v-74.7c-43.9,28.4-93,47.6-144.5,56.5
	C746.8,880.9,681,887.3,615.1,886.9z M615.1,716.2c-66.4,0.2-132.6-6.4-197.7-19.8c-51.5-9-100.7-28.2-144.7-56.5v75.5
	c0,19.8,15.4,39.5,45.9,56.9c39,20.4,81.1,34.5,124.5,41.7c56.4,10.5,113.8,15.6,171.2,15.2c57.5,0.3,114.9-4.7,171.4-15.2
	c43.5-7.2,85.5-21.3,124.5-41.7c30.4-17.4,45.7-36.4,45.7-56.9v-74.7c-43.6,28.5-92.4,48-143.7,57.3
	C747.3,710.7,681.3,716.8,615.1,716.2z M429.7,131.7c16,6.7,31.2,15.2,45.3,25.3l4.2,3.2l5.3,4c3.4,2.8,6.7,5.5,9.9,8.5l1.8,1.8
	l8.9,8.7l2.2,2.4c4,4.2,7.7,8.5,11.3,12.8l4.7,5.9c2.5,3.4,5.1,7,7.7,10.7l0,0c8.8,13.1,16.2,27.1,22.1,41.7
	c1.5,3.7,4.5,6.6,8.3,7.9c3.9,1.2,8.2,0.8,11.9-1l75.1-42.7c3-1.7,5.2-4.4,6.1-7.7c1.2-3.4,1.2-7.1,0-10.5
	c-20.3-45.7-50.7-86.2-88.7-118.6l0,0l-7.9-6.7c-7.9-6.5-16.2-12.6-24.7-18.6l0,0c-18.8-12.3-38.6-22.9-59.3-31.6
	C391.3-8.2,298-9.1,214.9,24.8C174.5,40.8,137.5,64.5,106,94.3L48.5,36.6c-7.6-8.9-20.2-11.4-30.6-6.1C6.7,34.3-0.5,45.1,0,56.8V256
	c0,7.4,3,14.6,8.3,19.8c5.2,5.3,12.3,8.4,19.8,8.5h199.6c11.7,0.5,22.3-6.7,26.1-17.8c5.3-10.5,2.8-23.2-6.1-30.8l-60.9-61.3
	c20.6-19.5,44.8-34.8,71.2-45.1c26.6-10.6,55-16,83.6-15.8C371.9,113.4,401.9,119.6,429.7,131.7z"/>
</svg>
