<svg version="1.1" xmlns="http://www.w3.org/2000/svg" xmlns:xlink="http://www.w3.org/1999/xlink" style="enable-background:new 0 0 1792 1792;" xml:space="preserve" width="1792" height="1792"><rect id="backgroundrect" width="100%" height="100%" x="0" y="0" fill="none" stroke="none"/>
<style type="text/css">
	.st0{fill:#222222;}
	.st1{fill:#FFFFFF;}
</style>
<title>save_data_changes</title>


<g class="currentLayer" style=""><title>Layer 1</title><path class="st0 selected" d="M614.0211181640625,1381.039882183075 v-170.18182373046875 c0,-8.243182182312012 -2.6703295707702637,-15.068181991577148 -8.01098918914795,-20.386363983154297 s-12.19450569152832,-7.9772725105285645 -20.4725284576416,-7.9772725105285645 H300.70343017578125 c-8.278021812438965,0 -15.131868362426758,2.659090995788574 -20.4725284576416,7.9772725105285645 s-8.01098918914795,12.143181800842285 -8.01098918914795,20.386363983154297 v170.18182373046875 c0,8.243182182312012 2.6703295707702637,15.068181991577148 8.01098918914795,20.386363983154297 s12.19450569152832,7.9772725105285645 20.4725284576416,7.9772725105285645 h284.8351745605469 c8.278021812438965,0 15.131868362426758,-2.659090995788574 20.4725284576416,-7.9772725105285645 S614.0211181640625,1389.2831683158875 614.0211181640625,1381.039882183075 zM614.0211181640625,1040.6748919487 V870.49276304245 c0,-8.243182182312012 -2.6703295707702637,-15.068181991577148 -8.01098918914795,-20.386363983154297 s-12.19450569152832,-7.9772725105285645 -20.4725284576416,-7.9772725105285645 H300.70343017578125 c-8.278021812438965,0 -15.131868362426758,2.659090995788574 -20.4725284576416,7.9772725105285645 s-8.01098918914795,12.143181800842285 -8.01098918914795,20.386363983154297 v170.18182373046875 c0,8.243182182312012 2.6703295707702637,15.068181991577148 8.01098918914795,20.386363983154297 s12.19450569152832,7.9772725105285645 20.4725284576416,7.9772725105285645 h284.8351745605469 c8.278021812438965,0 15.131868362426758,-2.659090995788574 20.4725284576416,-7.9772725105285645 S614.0211181640625,1048.918300151825 614.0211181640625,1040.6748919487 zM1069.7584228515625,1381.039882183075 v-170.18182373046875 c0,-8.243182182312012 -2.6703295707702637,-15.068181991577148 -8.01098918914795,-20.386363983154297 s-12.19450569152832,-7.9772725105285645 -20.4725284576416,-7.9772725105285645 H756.438720703125 c-8.278021812438965,0 -15.131868362426758,2.659090995788574 -20.4725284576416,7.9772725105285645 s-8.01098918914795,12.143181800842285 -8.01098918914795,20.386363983154297 v170.18182373046875 c0,8.243182182312012 2.6703295707702637,15.068181991577148 8.01098918914795,20.386363983154297 s12.19450569152832,7.9772725105285645 20.4725284576416,7.9772725105285645 h284.8351745605469 c8.278021812438965,0 15.131868362426758,-2.659090995788574 20.4725284576416,-7.9772725105285645 S1069.7584228515625,1389.2831683158875 1069.7584228515625,1381.039882183075 zM614.0211181640625,700.3109393119812 V530.1298480033875 c0,-8.243182182312012 -2.6703295707702637,-15.068181991577148 -8.01098918914795,-20.386363983154297 s-12.19450569152832,-7.9772725105285645 -20.4725284576416,-7.9772725105285645 H300.70343017578125 c-8.278021812438965,0 -15.131868362426758,2.659090995788574 -20.4725284576416,7.9772725105285645 s-8.01098918914795,12.143181800842285 -8.01098918914795,20.386363983154297 v170.18182373046875 c0,8.243182182312012 2.6703295707702637,15.068181991577148 8.01098918914795,20.386363983154297 s12.19450569152832,7.9772725105285645 20.4725284576416,7.9772725105285645 h284.8351745605469 c8.278021812438965,0 15.131868362426758,-2.659090995788574 20.4725284576416,-7.9772725105285645 S614.0211181640625,708.5541033744812 614.0211181640625,700.3109393119812 zM1069.7584228515625,1040.6748919487 V870.49276304245 c0,-8.243182182312012 -2.6703295707702637,-15.068181991577148 -8.01098918914795,-20.386363983154297 s-12.19450569152832,-7.9772725105285645 -20.4725284576416,-7.9772725105285645 H756.438720703125 c-8.278021812438965,0 -15.131868362426758,2.659090995788574 -20.4725284576416,7.9772725105285645 s-8.01098918914795,12.143181800842285 -8.01098918914795,20.386363983154297 v170.18182373046875 c0,8.243182182312012 2.6703295707702637,15.068181991577148 8.01098918914795,20.386363983154297 s12.19450569152832,7.9772725105285645 20.4725284576416,7.9772725105285645 h284.8351745605469 c8.278021812438965,0 15.131868362426758,-2.659090995788574 20.4725284576416,-7.9772725105285645 S1069.7584228515625,1048.918300151825 1069.7584228515625,1040.6748919487 zM1525.49560546875,1381.039882183075 v-170.18182373046875 c0,-8.243182182312012 -2.6703295707702637,-15.068181991577148 -8.01098918914795,-20.386363983154297 s-12.19450569152832,-7.9772725105285645 -20.4725284576416,-7.9772725105285645 h-284.8351745605469 c-8.278021812438965,0 -15.131868362426758,2.659090995788574 -20.4725284576416,7.9772725105285645 s-8.01098918914795,12.143181800842285 -8.01098918914795,20.386363983154297 v170.18182373046875 c0,8.243182182312012 2.6703295707702637,15.068181991577148 8.01098918914795,20.386363983154297 s12.19450569152832,7.9772725105285645 20.4725284576416,7.9772725105285645 h284.8351745605469 c8.278021812438965,0 15.131868362426758,-2.659090995788574 20.4725284576416,-7.9772725105285645 S1525.49560546875,1389.2831683158875 1525.49560546875,1381.039882183075 zM1069.7584228515625,700.3109393119812 V530.1298480033875 c0,-8.243182182312012 -2.6703295707702637,-15.068181991577148 -8.01098918914795,-20.386363983154297 s-12.19450569152832,-7.9772725105285645 -20.4725284576416,-7.9772725105285645 H756.438720703125 c-8.278021812438965,0 -15.131868362426758,2.659090995788574 -20.4725284576416,7.9772725105285645 s-8.01098918914795,12.143181800842285 -8.01098918914795,20.386363983154297 v170.18182373046875 c0,8.243182182312012 2.6703295707702637,15.068181991577148 8.01098918914795,20.386363983154297 s12.19450569152832,7.9772725105285645 20.4725284576416,7.9772725105285645 h284.8351745605469 c8.278021812438965,0 15.131868362426758,-2.659090995788574 20.4725284576416,-7.9772725105285645 S1069.7584228515625,708.5541033744812 1069.7584228515625,700.3109393119812 zM1525.49560546875,1040.6748919487 V870.49276304245 c0,-8.243182182312012 -2.6703295707702637,-15.068181991577148 -8.01098918914795,-20.386363983154297 s-12.19450569152832,-7.9772725105285645 -20.4725284576416,-7.9772725105285645 h-284.8351745605469 c-8.278021812438965,0 -15.131868362426758,2.659090995788574 -20.4725284576416,7.9772725105285645 s-8.01098918914795,12.143181800842285 -8.01098918914795,20.386363983154297 v170.18182373046875 c0,8.243182182312012 2.6703295707702637,15.068181991577148 8.01098918914795,20.386363983154297 s12.19450569152832,7.9772725105285645 20.4725284576416,7.9772725105285645 h284.8351745605469 c8.278021812438965,0 15.131868362426758,-2.659090995788574 20.4725284576416,-7.9772725105285645 S1525.49560546875,1048.918300151825 1525.49560546875,1040.6748919487 zM1525.49560546875,700.3109393119812 V530.1298480033875 c0,-8.243182182312012 -2.6703295707702637,-15.068181991577148 -8.01098918914795,-20.386363983154297 s-12.19450569152832,-7.9772725105285645 -20.4725284576416,-7.9772725105285645 h-284.8351745605469 c-8.278021812438965,0 -15.131868362426758,2.659090995788574 -20.4725284576416,7.9772725105285645 s-8.01098918914795,12.143181800842285 -8.01098918914795,20.386363983154297 v170.18182373046875 c0,8.243182182312012 2.6703295707702637,15.068181991577148 8.01098918914795,20.386363983154297 s12.19450569152832,7.9772725105285645 20.4725284576416,7.9772725105285645 h284.8351745605469 c8.278021812438965,0 15.131868362426758,-2.659090995788574 20.4725284576416,-7.9772725105285645 S1525.49560546875,708.5541033744812 1525.49560546875,700.3109393119812 zM1639.4296875,416.6754412651062 v964.3636474609375 c0,39 -13.974724769592285,72.41590881347656 -41.835166931152344,100.15908813476562 s-61.41758346557617,41.65909194946289 -100.5824203491211,41.65909194946289 H300.70343017578125 c-39.16483688354492,0 -72.72197723388672,-13.915908813476562 -100.5824203491211,-41.65909194946289 s-41.835166931152344,-61.15909194946289 -41.835166931152344,-100.15908813476562 V416.6754412651062 c0,-39 13.974724769592285,-72.41590881347656 41.835166931152344,-100.15908813476562 s61.41758346557617,-41.65909194946289 100.5824203491211,-41.65909194946289 h1196.3077392578125 c39.16483688354492,0 72.72197723388672,13.915908813476562 100.5824203491211,41.65909194946289 S1639.4296875,377.6754412651062 1639.4296875,416.6754412651062 z" id="svg_1"/><g id="svg_2" class="selected">
	<path class="st0" d="M898.8562622070312,1342.7491106987 c-22.69780158996582,0 -43.081321716308594,-8.331817626953125 -58.92527389526367,-24.19772720336914 l-289.4637451171875,-288.6886291503906 c-16.378021240234375,-15.51136302947998 -25.012088775634766,-35.897727966308594 -25.012088775634766,-58.943180084228516 c0,-22.868181228637695 8.278021812438965,-42.72272872924805 24.656044006347656,-59.03181457519531 l32.84505844116211,-33.150001525878906 c0.17802198231220245,-0.1772727221250534 0.44505494832992554,-0.4431818127632141 0.6230769157409668,-0.6204545497894287 c16.46703338623047,-15.51136302947998 36.761539459228516,-23.665908813476562 58.83626174926758,-23.665908813476562 c22.69780158996582,0 43.081321716308594,8.331817626953125 58.92527389526367,24.19772720336914 l85.27252960205078,84.91363525390625 V715.5564227104187 c0,-22.247726440429688 8.545055389404297,-42.54545593261719 24.745054244995117,-58.677268981933594 s36.58351516723633,-24.640907287597656 58.92527389526367,-24.640907287597656 h56.96703338623047 c22.341758728027344,0 42.72527313232422,8.5090913772583 58.92527389526367,24.640907287597656 s24.745054244995117,36.429542541503906 24.745054244995117,58.677268981933594 v247.8272705078125 l85.27252960205078,-84.91363525390625 c15.932967185974121,-15.8659086227417 36.227474212646484,-24.19772720336914 58.92527389526367,-24.19772720336914 c22.074724197387695,0 42.45824432373047,8.154544830322266 58.83626174926758,23.665908813476562 c0.17802198231220245,0.1772727221250534 0.3560439646244049,0.3545454442501068 0.5340659618377686,0.5318182110786438 l33.379119873046875,33.2386360168457 c0.17802198231220245,0.1772727221250534 0.3560439646244049,0.3545454442501068 0.5340659618377686,0.5318182110786438 c15.576923370361328,16.397727966308594 23.765933990478516,36.606815338134766 23.765933990478516,58.5886344909668 c0,22.602272033691406 -8.367033004760742,42.900001525878906 -24.299999237060547,58.677268981933594 l-289.73077392578125,288.95452880859375 c-0.17802198231220245,0.1772727221250534 -0.3560439646244049,0.3545454442501068 -0.5340659618377686,0.5318182110786438 C941.3145141601562,1334.5058245658875 920.9309692382812,1342.7491106987 898.8562622070312,1342.7491106987 z" id="svg_3"/>
	<path class="st1" d="M927.3397827148438,658.8291277885437 c15.398900985717773,0 28.75054931640625,5.5840911865234375 40.05494689941406,16.84090805053711 s16.91208839416504,24.55227279663086 16.91208839416504,39.8863639831543 v312 l130.84616088867188,-130.2954559326172 c10.948351860046387,-10.902273178100586 24.299999237060547,-16.397727966308594 40.05494689941406,-16.397727966308594 c15.398900985717773,0 28.928571701049805,5.49545431137085 40.5,16.397727966308594 l33.379119873046875,33.2386360168457 c10.948351860046387,11.522727012634277 16.46703338623047,24.995454788208008 16.46703338623047,40.32954406738281 c0,15.688636779785156 -5.518681049346924,28.98409080505371 -16.46703338623047,39.8863639831543 l-289.73077392578125,288.95452880859375 c-11.571428298950195,10.902273178100586 -25.101099014282227,16.397727966308594 -40.5,16.397727966308594 c-15.754945755004883,0 -29.10659408569336,-5.49545431137085 -40.05494689941406,-16.397727966308594 l-289.73077392578125,-288.95452880859375 c-11.30439567565918,-10.636363983154297 -16.91208839416504,-23.93181800842285 -16.91208839416504,-39.8863639831543 c0,-15.688636779785156 5.607692718505859,-29.072725296020508 16.91208839416504,-40.32954406738281 l32.93406677246094,-33.2386360168457 c11.571428298950195,-10.902273178100586 25.101099014282227,-16.397727966308594 40.5,-16.397727966308594 c15.754945755004883,0 29.10659408569336,5.49545431137085 40.05494689941406,16.397727966308594 l130.84616088867188,130.2954559326172 v-312 c0,-15.334090232849121 5.607692718505859,-28.629545211791992 16.91208839416504,-39.8863639831543 s24.656044006347656,-16.84090805053711 40.05494689941406,-16.84090805053711 L927.3397827148438,658.8291277885437 M927.3397827148438,605.647304058075 h-56.96703338623047 c-29.64065933227539,0 -56.52198028564453,11.168182373046875 -77.79560852050781,32.4409065246582 c-21.36263656616211,21.272727966308594 -32.57802200317383,48.04090881347656 -32.57802200317383,77.46818542480469 v183.56591796875 l-39.69889831542969,-39.53181457519531 c-21.006593704223633,-20.918182373046875 -47.88791275024414,-31.997726440429688 -77.79560852050781,-31.997726440429688 c-29.017581939697266,0 -55.72087860107422,10.725000381469727 -77.17252349853516,30.934091567993164 c-0.44505494832992554,0.4431818127632141 -0.8901098966598511,0.8863636255264282 -1.3351647853851318,1.2409090995788574 l-32.84505844116211,33.150001525878906 c-21.184614181518555,21.18408966064453 -32.400001525878906,48.04090881347656 -32.400001525878906,77.8227310180664 c0,30.402271270751953 11.393406867980957,57.259090423583984 33.023075103759766,77.91136169433594 l289.28570556640625,288.5113525390625 c21.006593704223633,20.918182373046875 47.976924896240234,31.997726440429688 77.88461303710938,31.997726440429688 c29.017581939697266,0 55.72087860107422,-10.725000381469727 77.17252349853516,-30.934091567993164 c0.3560439646244049,-0.3545454442501068 0.7120879292488098,-0.7090908885002136 1.068131923675537,-1.0636364221572876 l289.73077392578125,-288.95452880859375 c21.006593704223633,-20.918182373046875 32.0439567565918,-47.686363220214844 32.0439567565918,-77.46818542480469 c0,-28.89545249938965 -10.770330429077148,-55.48636245727539 -31.064836502075195,-76.84772491455078 c-0.3560439646244049,-0.3545454442501068 -0.7120879292488098,-0.7090908885002136 -1.068131923675537,-1.0636364221572876 l-33.379119873046875,-33.2386360168457 c-0.3560439646244049,-0.3545454442501068 -0.7120879292488098,-0.7090908885002136 -1.068131923675537,-1.0636364221572876 c-21.451648712158203,-20.209089279174805 -48.154945373535156,-30.934091567993164 -77.17252349853516,-30.934091567993164 c-29.907691955566406,0 -56.78900909423828,11.079545021057129 -77.79560852050781,31.997726440429688 l-39.69889831542969,39.53181457519531 V715.5564227104187 c0,-29.515907287597656 -11.215385437011719,-56.28409194946289 -32.57802200317383,-77.46818542480469 C983.8617553710938,616.904139995575 956.98046875,605.647304058075 927.3397827148438,605.647304058075 L927.3397827148438,605.647304058075 z" id="svg_4"/>
</g></g></svg>