<svg version="1.1" xmlns="http://www.w3.org/2000/svg" xmlns:xlink="http://www.w3.org/1999/xlink" style="enable-background:new 0 0 1792 1792;" xml:space="preserve" width="1792" height="1792"><rect id="backgroundrect" width="100%" height="100%" x="0" y="0" fill="none" stroke="none"/>
<style type="text/css">
	.st0{fill:#222222;}
	.st1{fill:#FFFFFF;}
</style>
<title>save_data_changes</title>


<g class="currentLayer" style=""><title>Layer 1</title><path class="st0" d="M614.0211181640625,1381.039882183075 v-170.18182373046875 c0,-8.243182182312012 -2.6703295707702637,-15.068181991577148 -8.01098918914795,-20.386363983154297 s-12.19450569152832,-7.9772725105285645 -20.4725284576416,-7.9772725105285645 H300.70343017578125 c-8.278021812438965,0 -15.131868362426758,2.659090995788574 -20.4725284576416,7.9772725105285645 s-8.01098918914795,12.143181800842285 -8.01098918914795,20.386363983154297 v170.18182373046875 c0,8.243182182312012 2.6703295707702637,15.068181991577148 8.01098918914795,20.386363983154297 s12.19450569152832,7.9772725105285645 20.4725284576416,7.9772725105285645 h284.8351745605469 c8.278021812438965,0 15.131868362426758,-2.659090995788574 20.4725284576416,-7.9772725105285645 S614.0211181640625,1389.2831683158875 614.0211181640625,1381.039882183075 zM614.0211181640625,1040.6748919487 V870.49276304245 c0,-8.243182182312012 -2.6703295707702637,-15.068181991577148 -8.01098918914795,-20.386363983154297 s-12.19450569152832,-7.9772725105285645 -20.4725284576416,-7.9772725105285645 H300.70343017578125 c-8.278021812438965,0 -15.131868362426758,2.659090995788574 -20.4725284576416,7.9772725105285645 s-8.01098918914795,12.143181800842285 -8.01098918914795,20.386363983154297 v170.18182373046875 c0,8.243182182312012 2.6703295707702637,15.068181991577148 8.01098918914795,20.386363983154297 s12.19450569152832,7.9772725105285645 20.4725284576416,7.9772725105285645 h284.8351745605469 c8.278021812438965,0 15.131868362426758,-2.659090995788574 20.4725284576416,-7.9772725105285645 S614.0211181640625,1048.918300151825 614.0211181640625,1040.6748919487 zM1069.7584228515625,1381.039882183075 v-170.18182373046875 c0,-8.243182182312012 -2.6703295707702637,-15.068181991577148 -8.01098918914795,-20.386363983154297 s-12.19450569152832,-7.9772725105285645 -20.4725284576416,-7.9772725105285645 H756.438720703125 c-8.278021812438965,0 -15.131868362426758,2.659090995788574 -20.4725284576416,7.9772725105285645 s-8.01098918914795,12.143181800842285 -8.01098918914795,20.386363983154297 v170.18182373046875 c0,8.243182182312012 2.6703295707702637,15.068181991577148 8.01098918914795,20.386363983154297 s12.19450569152832,7.9772725105285645 20.4725284576416,7.9772725105285645 h284.8351745605469 c8.278021812438965,0 15.131868362426758,-2.659090995788574 20.4725284576416,-7.9772725105285645 S1069.7584228515625,1389.2831683158875 1069.7584228515625,1381.039882183075 zM614.0211181640625,700.3109393119812 V530.1298480033875 c0,-8.243182182312012 -2.6703295707702637,-15.068181991577148 -8.01098918914795,-20.386363983154297 s-12.19450569152832,-7.9772725105285645 -20.4725284576416,-7.9772725105285645 H300.70343017578125 c-8.278021812438965,0 -15.131868362426758,2.659090995788574 -20.4725284576416,7.9772725105285645 s-8.01098918914795,12.143181800842285 -8.01098918914795,20.386363983154297 v170.18182373046875 c0,8.243182182312012 2.6703295707702637,15.068181991577148 8.01098918914795,20.386363983154297 s12.19450569152832,7.9772725105285645 20.4725284576416,7.9772725105285645 h284.8351745605469 c8.278021812438965,0 15.131868362426758,-2.659090995788574 20.4725284576416,-7.9772725105285645 S614.0211181640625,708.5541033744812 614.0211181640625,700.3109393119812 zM1069.7584228515625,1040.6748919487 V870.49276304245 c0,-8.243182182312012 -2.6703295707702637,-15.068181991577148 -8.01098918914795,-20.386363983154297 s-12.19450569152832,-7.9772725105285645 -20.4725284576416,-7.9772725105285645 H756.438720703125 c-8.278021812438965,0 -15.131868362426758,2.659090995788574 -20.4725284576416,7.9772725105285645 s-8.01098918914795,12.143181800842285 -8.01098918914795,20.386363983154297 v170.18182373046875 c0,8.243182182312012 2.6703295707702637,15.068181991577148 8.01098918914795,20.386363983154297 s12.19450569152832,7.9772725105285645 20.4725284576416,7.9772725105285645 h284.8351745605469 c8.278021812438965,0 15.131868362426758,-2.659090995788574 20.4725284576416,-7.9772725105285645 S1069.7584228515625,1048.918300151825 1069.7584228515625,1040.6748919487 zM1525.49560546875,1381.039882183075 v-170.18182373046875 c0,-8.243182182312012 -2.6703295707702637,-15.068181991577148 -8.01098918914795,-20.386363983154297 s-12.19450569152832,-7.9772725105285645 -20.4725284576416,-7.9772725105285645 h-284.8351745605469 c-8.278021812438965,0 -15.131868362426758,2.659090995788574 -20.4725284576416,7.9772725105285645 s-8.01098918914795,12.143181800842285 -8.01098918914795,20.386363983154297 v170.18182373046875 c0,8.243182182312012 2.6703295707702637,15.068181991577148 8.01098918914795,20.386363983154297 s12.19450569152832,7.9772725105285645 20.4725284576416,7.9772725105285645 h284.8351745605469 c8.278021812438965,0 15.131868362426758,-2.659090995788574 20.4725284576416,-7.9772725105285645 S1525.49560546875,1389.2831683158875 1525.49560546875,1381.039882183075 zM1069.7584228515625,700.3109393119812 V530.1298480033875 c0,-8.243182182312012 -2.6703295707702637,-15.068181991577148 -8.01098918914795,-20.386363983154297 s-12.19450569152832,-7.9772725105285645 -20.4725284576416,-7.9772725105285645 H756.438720703125 c-8.278021812438965,0 -15.131868362426758,2.659090995788574 -20.4725284576416,7.9772725105285645 s-8.01098918914795,12.143181800842285 -8.01098918914795,20.386363983154297 v170.18182373046875 c0,8.243182182312012 2.6703295707702637,15.068181991577148 8.01098918914795,20.386363983154297 s12.19450569152832,7.9772725105285645 20.4725284576416,7.9772725105285645 h284.8351745605469 c8.278021812438965,0 15.131868362426758,-2.659090995788574 20.4725284576416,-7.9772725105285645 S1069.7584228515625,708.5541033744812 1069.7584228515625,700.3109393119812 zM1525.49560546875,1040.6748919487 V870.49276304245 c0,-8.243182182312012 -2.6703295707702637,-15.068181991577148 -8.01098918914795,-20.386363983154297 s-12.19450569152832,-7.9772725105285645 -20.4725284576416,-7.9772725105285645 h-284.8351745605469 c-8.278021812438965,0 -15.131868362426758,2.659090995788574 -20.4725284576416,7.9772725105285645 s-8.01098918914795,12.143181800842285 -8.01098918914795,20.386363983154297 v170.18182373046875 c0,8.243182182312012 2.6703295707702637,15.068181991577148 8.01098918914795,20.386363983154297 s12.19450569152832,7.9772725105285645 20.4725284576416,7.9772725105285645 h284.8351745605469 c8.278021812438965,0 15.131868362426758,-2.659090995788574 20.4725284576416,-7.9772725105285645 S1525.49560546875,1048.918300151825 1525.49560546875,1040.6748919487 zM1525.49560546875,700.3109393119812 V530.1298480033875 c0,-8.243182182312012 -2.6703295707702637,-15.068181991577148 -8.01098918914795,-20.386363983154297 s-12.19450569152832,-7.9772725105285645 -20.4725284576416,-7.9772725105285645 h-284.8351745605469 c-8.278021812438965,0 -15.131868362426758,2.659090995788574 -20.4725284576416,7.9772725105285645 s-8.01098918914795,12.143181800842285 -8.01098918914795,20.386363983154297 v170.18182373046875 c0,8.243182182312012 2.6703295707702637,15.068181991577148 8.01098918914795,20.386363983154297 s12.19450569152832,7.9772725105285645 20.4725284576416,7.9772725105285645 h284.8351745605469 c8.278021812438965,0 15.131868362426758,-2.659090995788574 20.4725284576416,-7.9772725105285645 S1525.49560546875,708.5541033744812 1525.49560546875,700.3109393119812 zM1639.4296875,416.6754412651062 v964.3636474609375 c0,39 -13.974724769592285,72.41590881347656 -41.835166931152344,100.15908813476562 s-61.41758346557617,41.65909194946289 -100.5824203491211,41.65909194946289 H300.70343017578125 c-39.16483688354492,0 -72.72197723388672,-13.915908813476562 -100.5824203491211,-41.65909194946289 s-41.835166931152344,-61.15909194946289 -41.835166931152344,-100.15908813476562 V416.6754412651062 c0,-39 13.974724769592285,-72.41590881347656 41.835166931152344,-100.15908813476562 s61.41758346557617,-41.65909194946289 100.5824203491211,-41.65909194946289 h1196.3077392578125 c39.16483688354492,0 72.72197723388672,13.915908813476562 100.5824203491211,41.65909194946289 S1639.4296875,377.6754412651062 1639.4296875,416.6754412651062 z" id="svg_1"/></g></svg>