<svg id="Layer_1" data-name="Layer 1" xmlns="http://www.w3.org/2000/svg" viewBox="0 0 16 16"><defs><style>.cls-1{fill:#def4fd;}.cls-2,.cls-3{fill:#409ff4;stroke-linecap:round;stroke-linejoin:round;stroke-width:0.75px;}.cls-2{stroke:#717f8e;}.cls-3,.cls-4{stroke:#34495e;}.cls-4{fill:#34495e;stroke-miterlimit:10;stroke-width:0.5px;}</style></defs><title>coll-edbproc</title><polygon class="cls-1" points="0.46 4.38 0.46 8.69 4.19 10.84 7.92 8.69 7.92 4.38 4.19 2.22 0.46 4.38"/><line class="cls-2" x1="4.19" y1="6.54" x2="4.19" y2="11.01"/><line class="cls-2" x1="8.07" y1="4.31" x2="8.07" y2="8.78"/><line class="cls-2" x1="0.3" y1="4.31" x2="0.3" y2="8.78"/><line class="cls-2" x1="4.19" y1="6.54" x2="8.06" y2="4.31"/><line class="cls-2" x1="0.31" y1="4.29" x2="4.18" y2="2.05"/><line class="cls-2" x1="4.19" y1="11.01" x2="8.06" y2="8.78"/><line class="cls-2" x1="4.18" y1="6.54" x2="0.31" y2="4.31"/><line class="cls-2" x1="8.06" y1="4.29" x2="4.19" y2="2.05"/><line class="cls-2" x1="4.18" y1="11.01" x2="0.31" y2="8.78"/><polygon class="cls-1" points="2.1 5.31 2.1 9.62 5.83 11.78 9.56 9.62 9.56 5.31 5.83 3.16 2.1 5.31"/><line class="cls-3" x1="5.83" y1="7.48" x2="5.83" y2="11.95"/><line class="cls-3" x1="9.72" y1="5.24" x2="9.72" y2="9.71"/><line class="cls-3" x1="1.95" y1="5.24" x2="1.95" y2="9.71"/><line class="cls-3" x1="5.84" y1="7.48" x2="9.71" y2="5.24"/><line class="cls-3" x1="1.96" y1="5.22" x2="5.83" y2="2.99"/><line class="cls-3" x1="5.84" y1="11.95" x2="9.71" y2="9.71"/><line class="cls-3" x1="5.83" y1="7.48" x2="1.96" y2="5.24"/><line class="cls-3" x1="9.71" y1="5.22" x2="5.84" y2="2.99"/><line class="cls-3" x1="5.83" y1="11.95" x2="1.96" y2="9.71"/><polygon class="cls-1" points="11.89 12.44 12.53 12.1 12.71 11.34 12.71 10.99 12.8 10.24 13.03 9.95 13.59 9.67 13.03 9.67 13.03 9.67 13.03 9.67 13.41 9.6 12.82 9.16 12.79 8.87 12.79 8.32 12.71 7.57 12.47 7.3 12.09 7.13 11.89 7.11 8.83 7.05 8.39 7.36 8.12 7.58 8.12 7.89 8.17 7.8 8.07 8.82 8.12 9.17 7.36 9.67 7.25 9.77 7.36 9.67 7.85 10.03 7.92 10.24 8.21 11 8.2 11.34 8.19 11.57 8.2 11.16 8.2 11.36 8.31 11.84 8.49 12.09 8.8 12.28 9.06 12.44 11.89 12.44"/><path class="cls-4" d="M11.67,12.33a1.24,1.24,0,0,0,.57-.14.79.79,0,0,0,.3-.3,1,1,0,0,0,.11-.39q0-.21,0-.41v.1c0-.19,0-.35,0-.48a2.6,2.6,0,0,1,0-.34.77.77,0,0,1,.07-.23.66.66,0,0,1,.12-.17.71.71,0,0,1,.17-.13l.18-.07.17,0c.05,0,.05,0,0,0l-.17,0-.18-.07a.71.71,0,0,1-.17-.13.67.67,0,0,1-.12-.17.78.78,0,0,1-.07-.23,2.61,2.61,0,0,1,0-.34q0-.2,0-.48v.1c0-.13,0-.27,0-.41a1,1,0,0,0-.11-.39.79.79,0,0,0-.3-.3,1.25,1.25,0,0,0-.57-.14V7h.15L12,7l.2.06a.81.81,0,0,1,.2.12.93.93,0,0,1,.23.25,1,1,0,0,1,.12.3,2,2,0,0,1,0,.36c0,.13,0,.53,0,.53a2.21,2.21,0,0,0,0,.42.66.66,0,0,0,.13.3.74.74,0,0,0,.28.2.19.19,0,0,1,0,.33.75.75,0,0,0-.28.2.67.67,0,0,0-.13.3,2.21,2.21,0,0,0,0,.42s0,.78-.05.89a1,1,0,0,1-.12.3.93.93,0,0,1-.23.25.81.81,0,0,1-.2.12l-.2.06-.19,0h-.15Z"/><path class="cls-4" d="M9.2,7.09a1.24,1.24,0,0,0-.57.14.79.79,0,0,0-.3.3,1,1,0,0,0-.11.39q0,.21,0,.41v-.1c0,.19,0,.35,0,.48a2.6,2.6,0,0,1,0,.34.77.77,0,0,1-.07.23A.66.66,0,0,1,8,9.45a.71.71,0,0,1-.17.13l-.18.07-.17,0c-.05,0-.05,0,0,0l.17,0,.18.07A.71.71,0,0,1,8,10a.67.67,0,0,1,.12.17.78.78,0,0,1,.07.23,2.61,2.61,0,0,1,0,.34q0,.2,0,.48v-.1c0,.13,0,.27,0,.41a1,1,0,0,0,.11.39.79.79,0,0,0,.3.3,1.25,1.25,0,0,0,.57.14v.12H9.05l-.19,0-.2-.06a.81.81,0,0,1-.2-.12A.93.93,0,0,1,8.23,12a1,1,0,0,1-.12-.3,2,2,0,0,1,0-.36c0-.13,0-.53,0-.53a2.21,2.21,0,0,0,0-.42.66.66,0,0,0-.13-.3.74.74,0,0,0-.28-.2.19.19,0,0,1,0-.33.75.75,0,0,0,.28-.2A.67.67,0,0,0,8,9a2.21,2.21,0,0,0,0-.42s0-.78.05-.89a1,1,0,0,1,.12-.3.93.93,0,0,1,.23-.25.81.81,0,0,1,.2-.12L8.86,7l.19,0H9.2Z"/></svg>