<svg xmlns="http://www.w3.org/2000/svg" viewBox="0 0 16 16"><defs><style>.cls-1{fill:#fefabf;}.cls-2{fill:#409ff4;stroke-linecap:round;stroke-linejoin:round;stroke-width:0.75px;}.cls-2,.cls-3{stroke:#b9871b;}.cls-3{fill:#34495e;stroke-miterlimit:10;stroke-width:0.5px;}</style></defs><title>coll-edbproc</title><g id="_3" data-name="3"><polygon class="cls-1" points="2.36 5.48 2.36 9.28 5.64 11.17 8.93 9.28 8.93 5.48 5.64 3.59 2.36 5.48"/><line class="cls-2" x1="5.64" y1="7.39" x2="5.64" y2="11.32"/><line class="cls-2" x1="9.06" y1="5.42" x2="9.06" y2="9.35"/><line class="cls-2" x1="2.22" y1="5.42" x2="2.22" y2="9.35"/><line class="cls-2" x1="5.65" y1="7.39" x2="9.05" y2="5.42"/><line class="cls-2" x1="2.23" y1="5.4" x2="5.64" y2="3.44"/><line class="cls-2" x1="5.65" y1="11.32" x2="9.05" y2="9.35"/><line class="cls-2" x1="5.64" y1="7.39" x2="2.23" y2="5.42"/><line class="cls-2" x1="9.05" y1="5.4" x2="5.65" y2="3.44"/><line class="cls-2" x1="5.64" y1="11.32" x2="2.23" y2="9.35"/><polygon class="cls-1" points="3.77 6.28 3.77 10.07 7.05 11.97 10.33 10.07 10.33 6.28 7.05 4.39 3.77 6.28"/><line class="cls-2" x1="7.05" y1="8.19" x2="7.05" y2="12.12"/><line class="cls-2" x1="10.47" y1="6.22" x2="10.47" y2="10.15"/><line class="cls-2" x1="3.63" y1="6.22" x2="3.63" y2="10.15"/><line class="cls-2" x1="7.06" y1="8.19" x2="10.46" y2="6.22"/><line class="cls-2" x1="3.64" y1="6.2" x2="7.05" y2="4.24"/><line class="cls-2" x1="7.06" y1="12.12" x2="10.46" y2="10.15"/><line class="cls-2" x1="7.05" y1="8.19" x2="3.64" y2="6.22"/><line class="cls-2" x1="10.46" y1="6.2" x2="7.06" y2="4.24"/><line class="cls-2" x1="7.05" y1="12.12" x2="3.64" y2="10.15"/><polygon class="cls-1" points="12.28 12.55 12.84 12.25 13 11.58 13 11.27 13.08 10.61 13.28 10.36 13.78 10.11 13.28 10.11 13.28 10.11 13.28 10.11 13.62 10.04 13.1 9.66 13.07 9.4 13.07 8.92 13 8.26 12.79 8.02 12.46 7.88 12.28 7.86 9.59 7.8 9.2 8.07 8.96 8.27 8.96 8.54 9.01 8.46 8.92 9.36 8.96 9.67 8.29 10.11 8.19 10.19 8.29 10.11 8.72 10.43 8.79 10.61 9.05 11.28 9.03 11.57 9.02 11.78 9.03 11.42 9.03 11.59 9.13 12.02 9.29 12.24 9.56 12.4 9.79 12.55 12.28 12.55"/><path class="cls-3" d="M12.09,12.45a1.09,1.09,0,0,0,.51-.13.69.69,0,0,0,.26-.27.88.88,0,0,0,.1-.34q0-.19,0-.36v.09c0-.17,0-.31,0-.42a2.29,2.29,0,0,1,0-.3.68.68,0,0,1,.06-.2.58.58,0,0,1,.11-.15.62.62,0,0,1,.15-.11l.16-.07.15,0s0,0,0,0l-.15,0L13.33,10a.62.62,0,0,1-.15-.11.59.59,0,0,1-.11-.15.68.68,0,0,1-.06-.2,2.29,2.29,0,0,1,0-.3q0-.17,0-.43v.09c0-.12,0-.24,0-.36a.88.88,0,0,0-.1-.34A.7.7,0,0,0,12.6,8a1.1,1.1,0,0,0-.51-.13V7.73h.13l.16,0,.18.06a.71.71,0,0,1,.17.1.82.82,0,0,1,.2.22.9.9,0,0,1,.1.26,1.72,1.72,0,0,1,0,.32c0,.12,0,.46,0,.46a2,2,0,0,0,0,.37.58.58,0,0,0,.12.26.65.65,0,0,0,.25.18.17.17,0,0,1,0,.29.66.66,0,0,0-.25.18.59.59,0,0,0-.12.26,2,2,0,0,0,0,.37s0,.68,0,.78a.9.9,0,0,1-.1.26.82.82,0,0,1-.2.22.71.71,0,0,1-.17.1l-.18.06-.16,0h-.13Z"/><path class="cls-3" d="M9.91,7.84A1.09,1.09,0,0,0,9.41,8a.69.69,0,0,0-.26.27.88.88,0,0,0-.1.34q0,.19,0,.36V8.85C9,9,9,9.16,9,9.27a2.29,2.29,0,0,1,0,.3.68.68,0,0,1-.06.2.58.58,0,0,1-.11.15.62.62,0,0,1-.15.11l-.16.07-.15,0s0,0,0,0l.15,0,.16.07a.62.62,0,0,1,.15.11.59.59,0,0,1,.11.15.68.68,0,0,1,.06.2A2.29,2.29,0,0,1,9,11q0,.17,0,.43v-.09c0,.12,0,.24,0,.36a.88.88,0,0,0,.1.34.7.7,0,0,0,.26.27,1.1,1.1,0,0,0,.51.13v.11H9.78l-.16,0-.18-.06a.71.71,0,0,1-.17-.1.82.82,0,0,1-.2-.22.9.9,0,0,1-.1-.26,1.72,1.72,0,0,1,0-.32c0-.12,0-.46,0-.46a2,2,0,0,0,0-.37.58.58,0,0,0-.12-.26.65.65,0,0,0-.25-.18.17.17,0,0,1,0-.29.66.66,0,0,0,.25-.18.59.59,0,0,0,.12-.26,2,2,0,0,0,0-.37s0-.68,0-.78a.9.9,0,0,1,.1-.26.82.82,0,0,1,.2-.22.71.71,0,0,1,.17-.1l.18-.06.16,0h.13Z"/></g></svg>