<svg id="Layer_1" data-name="Layer 1" xmlns="http://www.w3.org/2000/svg" viewBox="0 0 16.01 16"><defs><style>.cls-1{fill:#def4fd;}.cls-2,.cls-3{fill:#409ff4;stroke-linecap:round;stroke-linejoin:round;stroke-width:0.75px;}.cls-2{stroke:#717f8e;}.cls-3,.cls-4{stroke:#34495e;}.cls-4{fill:#34495e;stroke-miterlimit:10;stroke-width:0.5px;}</style></defs><title>coll-edbfunc</title><polygon class="cls-1" points="0.5 5.38 0.5 9.69 4.23 11.84 7.96 9.69 7.96 5.38 4.23 3.22 0.5 5.38"/><line class="cls-2" x1="4.23" y1="7.54" x2="4.23" y2="12.01"/><line class="cls-2" x1="8.11" y1="5.31" x2="8.11" y2="9.78"/><line class="cls-2" x1="0.34" y1="5.31" x2="0.34" y2="9.78"/><line class="cls-2" x1="4.23" y1="7.54" x2="8.1" y2="5.31"/><line class="cls-2" x1="0.35" y1="5.29" x2="4.22" y2="3.05"/><line class="cls-2" x1="4.23" y1="12.01" x2="8.1" y2="9.78"/><line class="cls-2" x1="4.22" y1="7.54" x2="0.35" y2="5.31"/><line class="cls-2" x1="8.1" y1="5.29" x2="4.23" y2="3.05"/><line class="cls-2" x1="4.22" y1="12.01" x2="0.35" y2="9.78"/><polygon class="cls-1" points="2.14 6.31 2.14 10.62 5.87 12.78 9.6 10.62 9.6 6.31 5.87 4.16 2.14 6.31"/><line class="cls-3" x1="5.87" y1="8.48" x2="5.87" y2="12.95"/><line class="cls-3" x1="9.76" y1="6.24" x2="9.76" y2="10.71"/><line class="cls-3" x1="1.98" y1="6.24" x2="1.98" y2="10.71"/><line class="cls-3" x1="5.88" y1="8.48" x2="9.75" y2="6.24"/><line class="cls-3" x1="2" y1="6.22" x2="5.87" y2="3.99"/><line class="cls-3" x1="5.88" y1="12.95" x2="9.75" y2="10.71"/><line class="cls-3" x1="5.87" y1="8.48" x2="2" y2="6.24"/><line class="cls-3" x1="9.75" y1="6.22" x2="5.88" y2="3.99"/><line class="cls-3" x1="5.87" y1="12.95" x2="2" y2="10.71"/><polygon class="cls-1" points="11.93 13.44 12.57 13.1 12.74 12.34 12.74 11.99 12.84 11.24 13.06 10.95 13.63 10.67 13.06 10.67 13.06 10.67 13.06 10.67 13.45 10.6 12.86 10.16 12.83 9.87 12.83 9.32 12.74 8.57 12.51 8.3 12.13 8.13 11.93 8.11 8.87 8.05 8.43 8.36 8.16 8.58 8.16 8.89 8.21 8.8 8.11 9.82 8.16 10.17 7.39 10.67 7.29 10.77 7.39 10.67 7.89 11.03 7.96 11.24 8.25 12 8.24 12.34 8.23 12.57 8.24 12.16 8.24 12.36 8.35 12.84 8.53 13.09 8.84 13.28 9.1 13.44 11.93 13.44"/><path class="cls-4" d="M11.71,13.33a1.24,1.24,0,0,0,.57-.14.79.79,0,0,0,.3-.3,1,1,0,0,0,.11-.39q0-.21,0-.41v.1c0-.19,0-.35,0-.48a2.6,2.6,0,0,1,0-.34.77.77,0,0,1,.07-.23.66.66,0,0,1,.12-.17.71.71,0,0,1,.17-.13l.18-.07.17,0c.05,0,.05,0,0,0l-.17,0-.18-.07a.71.71,0,0,1-.17-.13.67.67,0,0,1-.12-.17.78.78,0,0,1-.07-.23,2.61,2.61,0,0,1,0-.34q0-.2,0-.48v.1c0-.13,0-.27,0-.41a1,1,0,0,0-.11-.39.79.79,0,0,0-.3-.3,1.25,1.25,0,0,0-.57-.14V8h.15l.19,0,.2.06a.81.81,0,0,1,.2.12.93.93,0,0,1,.23.25,1,1,0,0,1,.12.3,2,2,0,0,1,0,.36c0,.13,0,.53,0,.53a2.21,2.21,0,0,0,0,.42.66.66,0,0,0,.13.3.74.74,0,0,0,.28.2.19.19,0,0,1,0,.33.75.75,0,0,0-.28.2.67.67,0,0,0-.13.3,2.21,2.21,0,0,0,0,.42s0,.78-.05.89a1,1,0,0,1-.12.3.93.93,0,0,1-.23.25.81.81,0,0,1-.2.12l-.2.06-.19,0h-.15Z"/><path class="cls-4" d="M9.24,8.09a1.24,1.24,0,0,0-.57.14.79.79,0,0,0-.3.3,1,1,0,0,0-.11.39q0,.21,0,.41v-.1c0,.19,0,.35,0,.48a2.6,2.6,0,0,1,0,.34.77.77,0,0,1-.07.23.66.66,0,0,1-.12.17.71.71,0,0,1-.17.13l-.18.07-.17,0c-.05,0-.05,0,0,0l.17,0,.18.07A.71.71,0,0,1,8,11a.67.67,0,0,1,.12.17.78.78,0,0,1,.07.23,2.61,2.61,0,0,1,0,.34q0,.2,0,.48v-.1c0,.13,0,.27,0,.41a1,1,0,0,0,.11.39.79.79,0,0,0,.3.3,1.25,1.25,0,0,0,.57.14v.12H9.09l-.19,0-.2-.06a.81.81,0,0,1-.2-.12A.93.93,0,0,1,8.27,13a1,1,0,0,1-.12-.3,2,2,0,0,1,0-.36c0-.13,0-.53,0-.53a2.21,2.21,0,0,0,0-.42.66.66,0,0,0-.13-.3.74.74,0,0,0-.28-.2.19.19,0,0,1,0-.33.75.75,0,0,0,.28-.2.67.67,0,0,0,.13-.3,2.21,2.21,0,0,0,0-.42s0-.78.05-.89a1,1,0,0,1,.12-.3.93.93,0,0,1,.23-.25.81.81,0,0,1,.2-.12L8.9,8l.19,0h.15Z"/><line class="cls-3" x1="9.6" y1="10.04" x2="11.32" y2="10.04"/><line class="cls-3" x1="9.6" y1="11.46" x2="11.32" y2="11.46"/></svg>