<svg xmlns="http://www.w3.org/2000/svg" viewBox="0 0 16 16"><defs><style>.cls-1{fill:#fefabf;}.cls-2{fill:#409ff4;stroke-linecap:round;stroke-linejoin:round;stroke-width:0.75px;}.cls-2,.cls-3{stroke:#b9871b;}.cls-3{fill:#34495e;stroke-miterlimit:10;stroke-width:0.5px;}</style></defs><title>edbproc</title><g id="_3" data-name="3"><polygon class="cls-1" points="2.58 5.82 2.58 10.13 6.32 12.28 10.05 10.13 10.05 5.82 6.32 3.66 2.58 5.82"/><line class="cls-2" x1="6.32" y1="7.98" x2="6.32" y2="12.45"/><line class="cls-2" x1="10.2" y1="5.75" x2="10.2" y2="10.22"/><line class="cls-2" x1="2.43" y1="5.75" x2="2.43" y2="10.22"/><line class="cls-2" x1="6.32" y1="7.98" x2="10.19" y2="5.75"/><line class="cls-2" x1="2.44" y1="5.73" x2="6.31" y2="3.49"/><line class="cls-2" x1="6.32" y1="12.45" x2="10.19" y2="10.22"/><line class="cls-2" x1="6.31" y1="7.98" x2="2.44" y2="5.75"/><line class="cls-2" x1="10.19" y1="5.73" x2="6.32" y2="3.49"/><line class="cls-2" x1="6.31" y1="12.45" x2="2.44" y2="10.22"/><polygon class="cls-1" points="12.3 12.49 12.88 12.19 13.04 11.5 13.04 11.19 13.12 10.51 13.32 10.25 13.83 10 13.32 10 13.32 10 13.32 10 13.67 9.93 13.14 9.54 13.11 9.28 13.11 8.79 13.04 8.11 12.82 7.87 12.48 7.72 12.3 7.7 9.55 7.64 9.16 7.92 8.91 8.12 8.91 8.4 8.95 8.32 8.87 9.23 8.91 9.55 8.22 10 8.12 10.08 8.22 10 8.67 10.32 8.73 10.51 8.99 11.2 8.98 11.5 8.97 11.71 8.98 11.34 8.98 11.52 9.08 11.96 9.24 12.18 9.52 12.34 9.75 12.49 12.3 12.49"/><path class="cls-3" d="M12.11,12.4a1.11,1.11,0,0,0,.52-.13.71.71,0,0,0,.27-.27.9.9,0,0,0,.1-.35q0-.19,0-.37v.09c0-.17,0-.32,0-.43a2.34,2.34,0,0,1,0-.3.69.69,0,0,1,.06-.21.6.6,0,0,1,.11-.15.64.64,0,0,1,.16-.12l.16-.07.15,0s0,0,0,0l-.15,0-.16-.07a.63.63,0,0,1-.16-.12.61.61,0,0,1-.11-.15A.7.7,0,0,1,13,9.45a2.35,2.35,0,0,1,0-.3q0-.18,0-.44V8.8c0-.12,0-.24,0-.37a.9.9,0,0,0-.1-.35.71.71,0,0,0-.27-.27,1.13,1.13,0,0,0-.52-.13V7.57h.13l.17,0,.18.06a.73.73,0,0,1,.18.1A.84.84,0,0,1,13,8a.92.92,0,0,1,.11.27,1.76,1.76,0,0,1,0,.32c0,.12,0,.47,0,.47a2,2,0,0,0,0,.38.6.6,0,0,0,.12.27.67.67,0,0,0,.25.18.17.17,0,0,1,0,.29.67.67,0,0,0-.25.18.6.6,0,0,0-.12.27,2,2,0,0,0,0,.38s0,.7,0,.8a.92.92,0,0,1-.11.27.83.83,0,0,1-.21.23.73.73,0,0,1-.18.1l-.18.06-.17,0h-.13Z"/><path class="cls-3" d="M9.88,7.68a1.11,1.11,0,0,0-.52.13.71.71,0,0,0-.27.27.9.9,0,0,0-.1.35q0,.19,0,.37V8.71C9,8.88,9,9,9,9.14a2.34,2.34,0,0,1,0,.3.69.69,0,0,1-.06.21.6.6,0,0,1-.11.15.64.64,0,0,1-.16.12L8.45,10,8.3,10s0,0,0,0l.15,0,.16.07a.63.63,0,0,1,.16.12.61.61,0,0,1,.11.15.7.7,0,0,1,.06.21,2.35,2.35,0,0,1,0,.3q0,.18,0,.44v-.09c0,.12,0,.24,0,.37a.9.9,0,0,0,.1.35.71.71,0,0,0,.27.27,1.13,1.13,0,0,0,.52.13v.11H9.75l-.17,0-.18-.06a.73.73,0,0,1-.18-.1A.84.84,0,0,1,9,12.08a.92.92,0,0,1-.11-.27,1.76,1.76,0,0,1,0-.32c0-.12,0-.47,0-.47a2,2,0,0,0,0-.38.6.6,0,0,0-.12-.27.67.67,0,0,0-.25-.18.17.17,0,0,1,0-.29.67.67,0,0,0,.25-.18.6.6,0,0,0,.12-.27,2,2,0,0,0,0-.38s0-.7,0-.8A.92.92,0,0,1,9,8a.83.83,0,0,1,.21-.23.73.73,0,0,1,.18-.1l.18-.06.17,0h.13Z"/></g></svg>