<svg id="Layer_1" data-name="Layer 1" xmlns="http://www.w3.org/2000/svg" viewBox="0 0 15.72 16"><defs><style>.cls-1{fill:#def4fd;}.cls-2{fill:#409ff4;stroke-linecap:round;stroke-linejoin:round;stroke-width:0.75px;}.cls-2,.cls-3{stroke:#34495e;}.cls-3{fill:#34495e;stroke-miterlimit:10;stroke-width:0.5px;}</style></defs><title>edbproc</title><polygon class="cls-1" points="0.56 5.31 0.56 10.1 4.7 12.49 8.85 10.1 8.85 5.31 4.7 2.92 0.56 5.31"/><line class="cls-2" x1="4.7" y1="7.71" x2="4.7" y2="12.68"/><line class="cls-2" x1="9.02" y1="5.23" x2="9.02" y2="10.2"/><line class="cls-2" x1="0.38" y1="5.23" x2="0.38" y2="10.2"/><line class="cls-2" x1="4.71" y1="7.71" x2="9.01" y2="5.23"/><line class="cls-2" x1="0.4" y1="5.21" x2="4.69" y2="2.73"/><line class="cls-2" x1="4.71" y1="12.68" x2="9.01" y2="10.2"/><line class="cls-2" x1="4.69" y1="7.71" x2="0.4" y2="5.23"/><line class="cls-2" x1="9.01" y1="5.21" x2="4.71" y2="2.73"/><line class="cls-2" x1="4.69" y1="12.68" x2="0.4" y2="10.2"/><polygon class="cls-1" points="11.22 12.5 11.86 12.15 12.04 11.4 12.04 11.05 12.13 10.29 12.36 10.01 12.92 9.72 12.36 9.72 12.36 9.72 12.36 9.72 12.75 9.65 12.15 9.22 12.12 8.92 12.12 8.38 12.04 7.63 11.8 7.35 11.42 7.19 11.22 7.17 8.16 7.11 7.72 7.41 7.45 7.64 7.45 7.94 7.5 7.86 7.41 8.87 7.45 9.23 6.69 9.72 6.58 9.82 6.69 9.72 7.18 10.09 7.25 10.29 7.55 11.06 7.53 11.39 7.52 11.62 7.53 11.22 7.53 11.41 7.64 11.9 7.82 12.14 8.13 12.33 8.39 12.5 11.22 12.5"/><path class="cls-3" d="M11,12.39a1.24,1.24,0,0,0,.57-.14.79.79,0,0,0,.3-.3,1,1,0,0,0,.11-.39q0-.21,0-.41v.1c0-.19,0-.35,0-.48a2.6,2.6,0,0,1,0-.34.77.77,0,0,1,.07-.23.66.66,0,0,1,.12-.17.71.71,0,0,1,.17-.13l.18-.07.17,0c.05,0,.05,0,0,0l-.17,0-.18-.07a.71.71,0,0,1-.17-.13.67.67,0,0,1-.12-.17A.78.78,0,0,1,12,9.11a2.61,2.61,0,0,1,0-.34q0-.2,0-.48v.1c0-.13,0-.27,0-.41a1,1,0,0,0-.11-.39.79.79,0,0,0-.3-.3A1.25,1.25,0,0,0,11,7.14V7h.15l.19,0,.2.06a.81.81,0,0,1,.2.12A.93.93,0,0,1,12,7.5a1,1,0,0,1,.12.3,2,2,0,0,1,0,.36c0,.13,0,.53,0,.53a2.21,2.21,0,0,0,0,.42.66.66,0,0,0,.13.3.74.74,0,0,0,.28.2.19.19,0,0,1,0,.33.75.75,0,0,0-.28.2.67.67,0,0,0-.13.3,2.21,2.21,0,0,0,0,.42s0,.78-.05.89A1,1,0,0,1,12,12a.93.93,0,0,1-.23.25.81.81,0,0,1-.2.12l-.2.06-.19,0H11Z"/><path class="cls-3" d="M8.53,7.14A1.24,1.24,0,0,0,8,7.29a.79.79,0,0,0-.3.3A1,1,0,0,0,7.55,8q0,.21,0,.41v-.1c0,.19,0,.35,0,.48a2.6,2.6,0,0,1,0,.34.77.77,0,0,1-.07.23.66.66,0,0,1-.12.17.71.71,0,0,1-.17.13l-.18.07-.17,0c-.05,0-.05,0,0,0l.17,0,.18.07A.71.71,0,0,1,7.3,10a.67.67,0,0,1,.12.17.78.78,0,0,1,.07.23,2.61,2.61,0,0,1,0,.34q0,.2,0,.48v-.1c0,.13,0,.27,0,.41a1,1,0,0,0,.11.39.79.79,0,0,0,.3.3,1.25,1.25,0,0,0,.57.14v.12H8.38l-.19,0L8,12.4a.81.81,0,0,1-.2-.12A.93.93,0,0,1,7.56,12a1,1,0,0,1-.12-.3,2,2,0,0,1,0-.36c0-.13,0-.53,0-.53a2.21,2.21,0,0,0,0-.42.66.66,0,0,0-.13-.3.74.74,0,0,0-.28-.2.19.19,0,0,1,0-.33.75.75,0,0,0,.28-.2.67.67,0,0,0,.13-.3,2.21,2.21,0,0,0,0-.42s0-.78.05-.89a1,1,0,0,1,.12-.3.93.93,0,0,1,.23-.25A.81.81,0,0,1,8,7.13l.2-.06.19,0h.15Z"/></svg>