<svg xmlns="http://www.w3.org/2000/svg" viewBox="0 0 16 16"><defs><style>.cls-1{fill:#def4fd;}.cls-2{fill:#2c66bd;}</style></defs><title>exclusion_constraint</title><g id="_2" data-name="2"><circle class="cls-1" cx="8" cy="8" r="5.63"/><path class="cls-2" d="M8,2.75A5.25,5.25,0,1,1,2.75,8,5.26,5.26,0,0,1,8,2.75M8,2a6,6,0,1,0,6,6A6,6,0,0,0,8,2Z"/><path class="cls-2" d="M11.08,6.23v1H8.86L8.18,8.76h2.91v1H7.72L7.09,11.2h-1l.64-1.42H4.92v-1H7.14l.69-1.54H4.92v-1H8.27L8.91,4.8h1L9.31,6.23Z"/></g></svg>