<?xml version="1.0" encoding="utf-8"?>
<!-- Generator: Adobe Illustrator 24.1.3, SVG Export Plug-In . SVG Version: 6.00 Build 0)  -->
<svg version="1.1" id="Layer_1" xmlns="http://www.w3.org/2000/svg" xmlns:xlink="http://www.w3.org/1999/xlink" x="0px" y="0px"
	 viewBox="0 0 24 24" style="enable-background:new 0 0 24 24;" xml:space="preserve">
<style type="text/css">
	.st0{fill:#DDF99D;stroke:#1A6016;stroke-width:1.131;stroke-miterlimit:10;}
	.st1{fill:#1A6016;}
</style>
<g>
	<g>
		<path class="st0" d="M6.3,9V7.2c0-2.5,1.8-4.6,4.1-4.6l0,0c2.3,0,4.1,2,4.1,4.8v1.8"/>
		<g>
			<g>
				<path class="st0" d="M16.1,20.4H4.8c-0.9,0-1.6-0.7-1.6-1.6v-8.1c0-0.9,0.7-1.6,1.6-1.6h11.3c0.9,0,1.6,0.7,1.6,1.6V19
					C17.8,19.9,17,20.4,16.1,20.4z"/>
			</g>
			<g>
				<path class="st1" d="M10.4,16.9L10.4,16.9c-1.2,0-2.1-0.9-2.1-2.1l0,0c0-1.2,0.9-2.1,2.1-2.1l0,0c1.2,0,2.1,0.9,2.1,2.1l0,0
					C12.6,16,11.6,16.9,10.4,16.9z"/>
			</g>
		</g>
	</g>
	<g>
		<path class="st0" d="M9.4,10V8.2c0-2.5,1.8-4.6,4.1-4.6l0,0c2.3,0,4.1,2,4.1,4.8v1.8"/>
		<g>
			<g>
				<path class="st0" d="M19.1,21.4H7.8c-0.9,0-1.6-0.7-1.6-1.6v-8.1c0-0.9,0.7-1.6,1.6-1.6h11.3c0.9,0,1.6,0.7,1.6,1.6V20
					C20.8,20.9,20,21.4,19.1,21.4z"/>
			</g>
			<g>
				<path class="st1" d="M13.4,17.9L13.4,17.9c-1.2,0-2.1-0.9-2.1-2.1l0,0c0-1.2,0.9-2.1,2.1-2.1l0,0c1.2,0,2.1,0.9,2.1,2.1l0,0
					C15.6,17,14.6,17.9,13.4,17.9z"/>
			</g>
		</g>
	</g>
</g>
</svg>
