<?xml version="1.0" encoding="utf-8"?>
<!-- Generator: Adobe Illustrator 24.1.3, SVG Export Plug-In . SVG Version: 6.00 Build 0)  -->
<svg version="1.1" id="Layer_1" xmlns="http://www.w3.org/2000/svg" xmlns:xlink="http://www.w3.org/1999/xlink" x="0px" y="0px"
	 viewBox="0 0 16 16" style="enable-background:new 0 0 16 16;" xml:space="preserve">
<style type="text/css">
	.st0{fill:#DDF99D;stroke:#1A6016;stroke-width:0.6165;stroke-miterlimit:10;}
	.st1{fill:#1A6016;}
</style>
<g>
	<path class="st0" d="M5.2,6.4V5.2C5.2,3.5,6.4,2,8,2l0,0c1.6,0,2.8,1.4,2.8,3.2v1.2"/>
	<g>
		<g>
			<path class="st0" d="M11.9,14H4.1C3.4,14,3,13.5,3,13V7.4c0-0.6,0.5-1,1.1-1h7.9c0.6,0,1.1,0.5,1.1,1v5.5
				C13.1,13.5,12.5,14,11.9,14z"/>
		</g>
		<g>
			<path class="st1" d="M8,11.4L8,11.4c-0.7,0-1.2-0.5-1.2-1.2l0,0C6.8,9.5,7.3,9,8,9l0,0c0.7,0,1.2,0.5,1.2,1.2l0,0
				C9.2,10.9,8.7,11.4,8,11.4z"/>
		</g>
	</g>
</g>
</svg>
