<svg id="Layer_1" data-name="Layer 1" xmlns="http://www.w3.org/2000/svg" viewBox="0 0 17 16"><defs><style>.cls-1,.cls-3,.cls-5{fill:#def4fd;}.cls-2{fill:#717f8e;}.cls-3{stroke:#34495e;}.cls-3,.cls-5{stroke-linecap:round;}.cls-3,.cls-4,.cls-5{stroke-linejoin:round;stroke-width:0.75px;}.cls-4{fill:none;}.cls-4,.cls-5{stroke:#717f8e;}</style></defs><title>coll-index</title><rect class="cls-1" x="3.23" y="1.8" width="6.26" height="4.06" rx="0.38" ry="0.38"/><path class="cls-2" d="M9.12,2.17V5.48H3.61V2.17H9.12m0-.75H3.61a.75.75,0,0,0-.75.75V5.48a.75.75,0,0,0,.75.75H9.12a.75.75,0,0,0,.75-.75V2.17a.75.75,0,0,0-.75-.75Z"/><rect class="cls-3" x="4.61" y="3.17" width="5.51" height="3.31"/><line class="cls-4" x1="7.36" y1="6.89" x2="7.36" y2="9.09"/><rect class="cls-5" x="5.71" y="10.87" width="3.31" height="2.21"/><line class="cls-4" x1="7.36" y1="9.09" x2="7.36" y2="11.29"/><rect class="cls-5" x="11.11" y="10.87" width="3.31" height="2.21"/><rect class="cls-5" x="0.31" y="10.87" width="3.31" height="2.21"/><polyline class="cls-4" points="1.96 10.74 1.96 8.72 12.91 8.72"/><polyline class="cls-4" points="12.76 10.74 12.76 8.72 11.81 8.72"/></svg>