<svg xmlns="http://www.w3.org/2000/svg" viewBox="0 0 16 16"><defs><style>.cls-1{fill:#def4fd;}.cls-2{fill:#357fd3;}.cls-3{fill:none;stroke:#357fd3;stroke-linejoin:round;stroke-width:0.75px;}</style></defs><title>coll-index</title><g id="_8" data-name="8"><path class="cls-1" d="M4.4,2.7H8.79a.44.44,0,0,1,.44.44V4.82a.44.44,0,0,1-.44.44H4.4A.43.43,0,0,1,4,4.83V3.14A.44.44,0,0,1,4.4,2.7Z"/><path class="cls-2" d="M8.79,3.08a.06.06,0,0,1,.06.06V4.83a.06.06,0,0,1-.06.06H4.4a.06.06,0,0,1-.06-.06V3.14a.06.06,0,0,1,.06-.06H8.79m0-.75H4.4a.81.81,0,0,0-.81.81V4.83a.81.81,0,0,0,.81.81H8.79a.81.81,0,0,0,.81-.81V3.14a.81.81,0,0,0-.81-.81Z"/><path class="cls-1" d="M5.81,4h4.39a.44.44,0,0,1,.44.44V6.16a.44.44,0,0,1-.44.44H5.8a.43.43,0,0,1-.43-.43V4.48A.44.44,0,0,1,5.81,4Z"/><path class="cls-2" d="M10.2,4.42a.06.06,0,0,1,.06.06V6.16a.06.06,0,0,1-.06.06H5.8a.06.06,0,0,1-.06-.06V4.48a.06.06,0,0,1,.06-.06H10.2m0-.75H5.8A.81.81,0,0,0,5,4.48V6.16A.81.81,0,0,0,5.8,7H10.2A.81.81,0,0,0,11,6.16V4.48a.81.81,0,0,0-.81-.81Z"/><rect class="cls-1" x="11.38" y="11.24" width="2.24" height="2.06" rx="0.44" ry="0.44"/><path class="cls-2" d="M13.19,11.61a.06.06,0,0,1,.06.06v1.19a.06.06,0,0,1-.06.06H11.81a.06.06,0,0,1-.06-.06V11.67a.06.06,0,0,1,.06-.06h1.37m0-.75H11.81a.81.81,0,0,0-.81.81v1.19a.81.81,0,0,0,.81.81h1.37a.81.81,0,0,0,.81-.81V11.67a.81.81,0,0,0-.81-.81Z"/><rect class="cls-1" x="2.38" y="11.24" width="2.24" height="2.06" rx="0.44" ry="0.44"/><path class="cls-2" d="M4.19,11.61a.06.06,0,0,1,.06.06v1.19a.06.06,0,0,1-.06.06H2.81a.06.06,0,0,1-.06-.06V11.67a.06.06,0,0,1,.06-.06H4.19m0-.75H2.81a.81.81,0,0,0-.81.81v1.19a.81.81,0,0,0,.81.81H4.19A.81.81,0,0,0,5,12.86V11.67a.81.81,0,0,0-.81-.81Z"/><rect class="cls-1" x="6.88" y="11.24" width="2.24" height="2.06" rx="0.44" ry="0.44"/><path class="cls-2" d="M8.69,11.61a.06.06,0,0,1,.06.06v1.19a.06.06,0,0,1-.06.06H7.32a.06.06,0,0,1-.06-.06V11.67a.06.06,0,0,1,.06-.06H8.69m0-.75H7.32a.81.81,0,0,0-.81.81v1.19a.81.81,0,0,0,.81.81H8.69a.81.81,0,0,0,.81-.81V11.67a.81.81,0,0,0-.81-.81Z"/><line class="cls-3" x1="7.98" y1="6.97" x2="7.98" y2="9.21"/><line class="cls-3" x1="7.98" y1="9.21" x2="7.98" y2="10.86"/><polyline class="cls-3" points="12.5 10.86 12.5 8.84 3.5 8.84 3.5 10.86"/></g></svg>