<svg xmlns="http://www.w3.org/2000/svg" viewBox="0 0 16 16"><defs><style>.cls-1,.cls-3{fill:#def4fd;}.cls-2{fill:#357fd3;}.cls-3,.cls-4{stroke:#357fd3;stroke-linecap:round;stroke-linejoin:round;stroke-width:0.75px;}.cls-4{fill:none;}</style></defs><title>index</title><g id="_8" data-name="8"><path class="cls-1" d="M5.81,3.37h4.39a.44.44,0,0,1,.44.44V5.49a.44.44,0,0,1-.44.44H5.8a.43.43,0,0,1-.43-.43V3.81A.44.44,0,0,1,5.81,3.37Z"/><path class="cls-2" d="M10.2,3.75a.06.06,0,0,1,.06.06V5.49a.06.06,0,0,1-.06.06H5.8a.06.06,0,0,1-.06-.06V3.81a.06.06,0,0,1,.06-.06H10.2m0-.75H5.8A.81.81,0,0,0,5,3.81V5.49a.81.81,0,0,0,.81.81H10.2A.81.81,0,0,0,11,5.49V3.81A.81.81,0,0,0,10.2,3Z"/><rect class="cls-1" x="11.38" y="10.57" width="2.24" height="2.06" rx="0.44" ry="0.44"/><path class="cls-2" d="M13.19,10.94a.06.06,0,0,1,.06.06v1.19a.06.06,0,0,1-.06.06H11.81a.06.06,0,0,1-.06-.06V11a.06.06,0,0,1,.06-.06h1.37m0-.75H11.81A.81.81,0,0,0,11,11v1.19a.81.81,0,0,0,.81.81h1.37a.81.81,0,0,0,.81-.81V11a.81.81,0,0,0-.81-.81Z"/><rect class="cls-1" x="2.38" y="10.57" width="2.24" height="2.06" rx="0.44" ry="0.44"/><path class="cls-2" d="M4.19,10.94a.06.06,0,0,1,.06.06v1.19a.06.06,0,0,1-.06.06H2.81a.06.06,0,0,1-.06-.06V11a.06.06,0,0,1,.06-.06H4.19m0-.75H2.81A.81.81,0,0,0,2,11v1.19a.81.81,0,0,0,.81.81H4.19A.81.81,0,0,0,5,12.19V11a.81.81,0,0,0-.81-.81Z"/><rect class="cls-1" x="6.88" y="10.57" width="2.24" height="2.06" rx="0.44" ry="0.44"/><path class="cls-2" d="M8.69,10.94a.06.06,0,0,1,.06.06v1.19a.06.06,0,0,1-.06.06H7.32a.06.06,0,0,1-.06-.06V11a.06.06,0,0,1,.06-.06H8.69m0-.75H7.32a.81.81,0,0,0-.81.81v1.19a.81.81,0,0,0,.81.81H8.69a.81.81,0,0,0,.81-.81V11a.81.81,0,0,0-.81-.81Z"/><line class="cls-3" x1="7.98" y1="6.3" x2="7.98" y2="8.54"/><line class="cls-3" x1="7.98" y1="8.54" x2="7.98" y2="10.19"/><polyline class="cls-4" points="12.5 10.19 12.5 8.17 3.5 8.17 3.5 10.19"/></g></svg>