<svg id="Layer_1" data-name="Layer 1" xmlns="http://www.w3.org/2000/svg" viewBox="0 0 16 17"><defs><style>.cls-1{fill:#def4fd;}.cls-2{fill:#717f8e;}.cls-3{fill:#2980b9;}.cls-4{fill:#34495e;fill-rule:evenodd;}</style></defs><title>coll-user_mapping</title><path class="cls-1" d="M.47,11a1.38,1.38,0,0,1,0-.17,4.67,4.67,0,0,1,4.8-4.53,4.67,4.67,0,0,1,4.8,4.53A1.38,1.38,0,0,1,10,11Z"/><path class="cls-2" d="M5.26,6.66A4.31,4.31,0,0,1,9.68,10.6H.84A4.31,4.31,0,0,1,5.26,6.66m0-.75a5,5,0,0,0-5.17,4.9,4.58,4.58,0,0,0,.06.54H10.37a4.58,4.58,0,0,0,.06-.54,5,5,0,0,0-5.17-4.9Z"/><circle class="cls-1" cx="5.26" cy="4.82" r="2.35"/><path class="cls-2" d="M5.26,2.85a2,2,0,1,1-2,2,2,2,0,0,1,2-2m0-.75A2.72,2.72,0,1,0,8,4.82,2.72,2.72,0,0,0,5.26,2.1Z"/><path class="cls-1" d="M3,12.15A1.39,1.39,0,0,1,3,12a4.67,4.67,0,0,1,4.8-4.53A4.67,4.67,0,0,1,12.56,12a1.62,1.62,0,0,1,0,.17Z"/><path class="cls-3" d="M7.76,7.83a4.31,4.31,0,0,1,4.42,3.95H3.34A4.31,4.31,0,0,1,7.76,7.83m0-.75A5,5,0,0,0,2.59,12a4.58,4.58,0,0,0,.06.54H12.87a4.57,4.57,0,0,0,.06-.54,5,5,0,0,0-5.17-4.9Z"/><circle class="cls-1" cx="7.76" cy="5.99" r="2.35"/><path class="cls-3" d="M7.76,4a2,2,0,1,1-2,2,2,2,0,0,1,2-2m0-.75A2.72,2.72,0,1,0,10.48,6,2.72,2.72,0,0,0,7.76,3.26Z"/><circle class="cls-1" cx="7.7" cy="11.94" r="3"/><path class="cls-4" d="M8.12,11.94a.42.42,0,1,0-.41.41.43.43,0,0,0,.41-.41ZM10,11.52h0l-.59-.1a1.37,1.37,0,0,0-.16-.36l.35-.5a.11.11,0,0,0,0-.15L9.23,10a.12.12,0,0,0-.16,0l-.5.35a1.67,1.67,0,0,0-.36-.16l-.1-.59A.14.14,0,0,0,8,9.49H7.4a.13.13,0,0,0-.12.1l-.11.6a1.38,1.38,0,0,0-.34.14L6.33,10a.11.11,0,0,0-.16,0l-.41.41a.11.11,0,0,0,0,.15l.33.49a2.09,2.09,0,0,0-.14.36l-.59.1a.11.11,0,0,0-.1.12v.6a.1.1,0,0,0,.1.1l.59.12a1.1,1.1,0,0,0,.16.34l-.33.49a.11.11,0,0,0,0,.16l.41.42a.12.12,0,0,0,.16,0l.48-.33a1.3,1.3,0,0,0,.34.13l.11.6a.12.12,0,0,0,.12.1H8a.13.13,0,0,0,.13-.1l.1-.59c.12,0,.24-.08.36-.13l.49.33a.12.12,0,0,0,.15,0l.41-.42a.11.11,0,0,0,0-.16l-.33-.5a1.1,1.1,0,0,0,.16-.34l.59-.12a.1.1,0,0,0,.1-.1v-.6a.11.11,0,0,0-.1-.12ZM7.71,13h0a1,1,0,1,1,1-1,1,1,0,0,1-1,1Z"/></svg>