<svg id="Layer_1" data-name="Layer 1" xmlns="http://www.w3.org/2000/svg" viewBox="0 0 16 16"><defs><style>.cls-1{fill:#def4fd;}.cls-2{fill:#2980b9;}.cls-3{fill:#34495e;fill-rule:evenodd;}</style></defs><title>user_mapping</title><path class="cls-1" d="M.5,11.46a1.78,1.78,0,0,1,0-.23A5.23,5.23,0,0,1,5.86,6.17a5.23,5.23,0,0,1,5.37,5.07,1.78,1.78,0,0,1,0,.23Z"/><path class="cls-2" d="M5.86,6.54a4.87,4.87,0,0,1,5,4.55H.86a4.87,4.87,0,0,1,5-4.55m0-.75A5.6,5.6,0,0,0,.11,11.23a5.08,5.08,0,0,0,.06.61H11.54a5.09,5.09,0,0,0,.06-.61A5.6,5.6,0,0,0,5.86,5.79Z"/><circle class="cls-1" cx="5.86" cy="4.58" r="2.65"/><path class="cls-2" d="M5.86,2.3A2.28,2.28,0,1,1,3.58,4.58,2.28,2.28,0,0,1,5.86,2.3m0-.75a3,3,0,1,0,3,3,3,3,0,0,0-3-3Z"/><circle class="cls-1" cx="5.8" cy="11.19" r="3.33"/><path class="cls-3" d="M6.27,11.2a.47.47,0,1,0-.46.46.47.47,0,0,0,.46-.46Zm2.14-.47h0l-.65-.12a1.52,1.52,0,0,0-.17-.4L8,9.66a.13.13,0,0,0,0-.16L7.49,9a.14.14,0,0,0-.17,0l-.55.39a1.86,1.86,0,0,0-.4-.17l-.12-.65a.16.16,0,0,0-.14-.11H5.46a.14.14,0,0,0-.13.11l-.12.67a1.53,1.53,0,0,0-.38.16L4.27,9A.12.12,0,0,0,4.1,9l-.46.46a.13.13,0,0,0,0,.16l.37.54a2.32,2.32,0,0,0-.16.4l-.65.12a.13.13,0,0,0-.11.13v.67a.12.12,0,0,0,.11.12l.65.13a1.22,1.22,0,0,0,.17.38l-.37.54a.12.12,0,0,0,0,.17l.46.47a.14.14,0,0,0,.17,0L4.83,13a1.44,1.44,0,0,0,.38.15l.12.67a.13.13,0,0,0,.13.11h.66a.15.15,0,0,0,.14-.11l.12-.65c.13,0,.27-.09.4-.15l.54.36a.14.14,0,0,0,.16,0l.46-.47a.12.12,0,0,0,0-.17l-.37-.56a1.22,1.22,0,0,0,.17-.38l.65-.13a.12.12,0,0,0,.11-.12v-.67a.13.13,0,0,0-.11-.13Zm-2.6,1.6h0A1.14,1.14,0,1,1,6.93,11.2a1.14,1.14,0,0,1-1.13,1.13Z"/></svg>