<svg id="Layer_1" data-name="Layer 1" xmlns="http://www.w3.org/2000/svg" viewBox="0 0 16 16"><defs><style>.cls-1{fill:#def4fd;}.cls-2{fill:#717f8e;}.cls-3{fill:#2980b9;}</style></defs><title>coll-role</title><path class="cls-1" d="M.26,9.63s0-.08,0-.12A4.26,4.26,0,0,1,4.63,5.38,4.26,4.26,0,0,1,9,9.5s0,.08,0,.13Z"/><path class="cls-2" d="M4.63,5.75a3.91,3.91,0,0,1,4,3.5h-8a3.91,3.91,0,0,1,4-3.5m0-.75A4.63,4.63,0,0,0-.12,9.5a4.2,4.2,0,0,0,.05.5H9.32a4.2,4.2,0,0,0,.05-.5A4.63,4.63,0,0,0,4.63,5Z"/><circle class="cls-1" cx="4.63" cy="4.5" r="2.13"/><path class="cls-2" d="M4.63,2.75A1.75,1.75,0,1,1,2.88,4.5,1.75,1.75,0,0,1,4.63,2.75m0-.75a2.5,2.5,0,1,0,2.5,2.5A2.5,2.5,0,0,0,4.63,2Z"/><path class="cls-1" d="M4.26,13.63s0-.08,0-.12A4.26,4.26,0,0,1,8.63,9.38,4.26,4.26,0,0,1,13,13.5s0,.08,0,.13Z"/><path class="cls-3" d="M8.63,9.75a3.91,3.91,0,0,1,4,3.5h-8a3.91,3.91,0,0,1,4-3.5m0-.75a4.63,4.63,0,0,0-4.75,4.5,4.2,4.2,0,0,0,.05.5h9.39a4.2,4.2,0,0,0,.05-.5A4.63,4.63,0,0,0,8.63,9Z"/><circle class="cls-1" cx="8.63" cy="8.5" r="2.13"/><path class="cls-3" d="M8.63,6.75A1.75,1.75,0,1,1,6.88,8.5,1.75,1.75,0,0,1,8.63,6.75m0-.75a2.5,2.5,0,1,0,2.5,2.5A2.5,2.5,0,0,0,8.63,6Z"/></svg>