<svg xmlns="http://www.w3.org/2000/svg" viewBox="0 0 16 16"><defs><style>.cls-1{fill:#fee;}.cls-2{fill:#bd4949;}.cls-3{fill:#bfe1f1;}.cls-4{fill:#2c66bd;}</style></defs><title>coll-role</title><g id="_2" data-name="2"><path class="cls-1" d="M1.63,9.63s0-.08,0-.12A4.26,4.26,0,0,1,6,5.38,4.26,4.26,0,0,1,10.38,9.5s0,.08,0,.13Z"/><path class="cls-2" d="M6,5.75a3.91,3.91,0,0,1,4,3.5H2a3.91,3.91,0,0,1,4-3.5M6,5A4.63,4.63,0,0,0,1.25,9.5a4.2,4.2,0,0,0,.05.5H10.7a4.2,4.2,0,0,0,.05-.5A4.63,4.63,0,0,0,6,5Z"/><circle class="cls-1" cx="6" cy="4.5" r="2.13"/><path class="cls-2" d="M6,2.75A1.75,1.75,0,1,1,4.25,4.5,1.75,1.75,0,0,1,6,2.75M6,2A2.5,2.5,0,1,0,8.5,4.5,2.5,2.5,0,0,0,6,2Z"/><path class="cls-3" d="M5.63,13.63s0-.08,0-.12A4.26,4.26,0,0,1,10,9.38a4.26,4.26,0,0,1,4.38,4.13s0,.08,0,.13Z"/><path class="cls-4" d="M10,9.75a3.91,3.91,0,0,1,4,3.5H6a3.91,3.91,0,0,1,4-3.5M10,9a4.63,4.63,0,0,0-4.75,4.5,4.2,4.2,0,0,0,.05.5H14.7a4.2,4.2,0,0,0,.05-.5A4.63,4.63,0,0,0,10,9Z"/><circle class="cls-3" cx="10" cy="8.5" r="2.13"/><path class="cls-4" d="M10,6.75A1.75,1.75,0,1,1,8.25,8.5,1.75,1.75,0,0,1,10,6.75M10,6a2.5,2.5,0,1,0,2.5,2.5A2.5,2.5,0,0,0,10,6Z"/></g></svg>