<svg id="Layer_1" data-name="Layer 1" xmlns="http://www.w3.org/2000/svg" viewBox="0 0 16 16"><defs><style>.cls-1{fill:#def4fd;}.cls-2{fill:#717f8e;}.cls-3{fill:#2980b9;}.cls-4{fill:#34495e;}</style></defs><title>group</title><path class="cls-1" d="M3.75,8.45a3.11,3.11,0,0,1,3.19-3,3.11,3.11,0,0,1,3.19,3H3.75Z"/><path class="cls-2" d="M6.94,5.82A2.77,2.77,0,0,1,9.73,8.08H4.15A2.77,2.77,0,0,1,6.94,5.82m0-.75A3.48,3.48,0,0,0,3.37,8.45a3.15,3.15,0,0,0,0,.38h7.06a3.15,3.15,0,0,0,0-.38A3.48,3.48,0,0,0,6.94,5.07Z"/><circle class="cls-1" cx="6.94" cy="4.7" r="1.5"/><path class="cls-2" d="M6.94,3.57A1.13,1.13,0,1,1,5.81,4.7,1.13,1.13,0,0,1,6.94,3.57m0-.75A1.88,1.88,0,1,0,8.82,4.7,1.88,1.88,0,0,0,6.94,2.82Z"/><path class="cls-1" d="M7.24,12.78a3.11,3.11,0,0,1,3.19-3,3.11,3.11,0,0,1,3.19,3H7.24Z"/><path class="cls-3" d="M10.43,10.15a2.77,2.77,0,0,1,2.79,2.26H7.64a2.77,2.77,0,0,1,2.79-2.26m0-.75a3.48,3.48,0,0,0-3.57,3.38,3.16,3.16,0,0,0,0,.38H14a3.16,3.16,0,0,0,0-.38A3.48,3.48,0,0,0,10.43,9.4Z"/><circle class="cls-1" cx="10.43" cy="9.03" r="1.5"/><path class="cls-3" d="M10.43,7.9A1.13,1.13,0,1,1,9.3,9,1.13,1.13,0,0,1,10.43,7.9m0-.75A1.88,1.88,0,1,0,12.31,9a1.88,1.88,0,0,0-1.88-1.88Z"/><path class="cls-1" d="M.25,12.78a3.11,3.11,0,0,1,3.19-3,3.11,3.11,0,0,1,3.19,3H.25Z"/><path class="cls-4" d="M3.44,10.15a2.77,2.77,0,0,1,2.79,2.26H.65a2.77,2.77,0,0,1,2.79-2.26m0-.75A3.48,3.48,0,0,0-.12,12.78a3.16,3.16,0,0,0,0,.38H7a3.16,3.16,0,0,0,0-.38A3.48,3.48,0,0,0,3.44,9.4Z"/><circle class="cls-1" cx="3.44" cy="9.03" r="1.5"/><path class="cls-4" d="M3.44,7.9A1.13,1.13,0,1,1,2.31,9,1.13,1.13,0,0,1,3.44,7.9m0-.75A1.88,1.88,0,1,0,5.32,9,1.88,1.88,0,0,0,3.44,7.15Z"/></svg>