<svg xmlns="http://www.w3.org/2000/svg" viewBox="0 0 16 16"><defs><style>.cls-1{fill:#fee;}.cls-2{fill:#bd4949;}.cls-3{fill:#c7fa65;}.cls-4{fill:#1a6016;}.cls-5{fill:#bfe1f1;}.cls-6{fill:#2c66bd;}</style></defs><title>group</title><g id="_2" data-name="2"><path class="cls-1" d="M4.81,8.46A3.11,3.11,0,0,1,8,5.46a3.11,3.11,0,0,1,3.19,3H4.81Z"/><path class="cls-2" d="M8,5.83a2.77,2.77,0,0,1,2.79,2.26H5.21A2.77,2.77,0,0,1,8,5.83m0-.75A3.48,3.48,0,0,0,4.43,8.46a3.15,3.15,0,0,0,0,.38h7.06a3.15,3.15,0,0,0,0-.38A3.48,3.48,0,0,0,8,5.08Z"/><circle class="cls-1" cx="8" cy="4.71" r="1.5"/><path class="cls-2" d="M8,3.58A1.13,1.13,0,1,1,6.87,4.71,1.13,1.13,0,0,1,8,3.58m0-.75A1.88,1.88,0,1,0,9.88,4.71,1.88,1.88,0,0,0,8,2.83Z"/><path class="cls-3" d="M8.3,12.79a3.11,3.11,0,0,1,3.19-3,3.11,3.11,0,0,1,3.19,3H8.3Z"/><path class="cls-4" d="M11.49,10.16a2.77,2.77,0,0,1,2.79,2.26H8.71a2.77,2.77,0,0,1,2.79-2.26m0-.75a3.48,3.48,0,0,0-3.57,3.38,3.15,3.15,0,0,0,0,.38H15a3.18,3.18,0,0,0,0-.38,3.48,3.48,0,0,0-3.57-3.38Z"/><circle class="cls-3" cx="11.49" cy="9.04" r="1.5"/><path class="cls-4" d="M11.49,7.91A1.13,1.13,0,1,1,10.37,9a1.13,1.13,0,0,1,1.13-1.13m0-.75A1.88,1.88,0,1,0,13.37,9a1.88,1.88,0,0,0-1.88-1.88Z"/><path class="cls-5" d="M1.31,12.79a3.11,3.11,0,0,1,3.19-3,3.11,3.11,0,0,1,3.19,3H1.31Z"/><path class="cls-6" d="M4.51,10.16a2.77,2.77,0,0,1,2.79,2.26H1.72a2.77,2.77,0,0,1,2.79-2.26m0-.75A3.48,3.48,0,0,0,.94,12.79a3.18,3.18,0,0,0,0,.38H8a3.15,3.15,0,0,0,0-.38A3.48,3.48,0,0,0,4.51,9.41Z"/><circle class="cls-5" cx="4.51" cy="9.04" r="1.5"/><path class="cls-6" d="M4.51,7.91A1.13,1.13,0,1,1,3.38,9,1.13,1.13,0,0,1,4.51,7.91m0-.75A1.88,1.88,0,1,0,6.38,9,1.88,1.88,0,0,0,4.51,7.16Z"/></g></svg>