<svg id="Layer_1" data-name="Layer 1" xmlns="http://www.w3.org/2000/svg" viewBox="0 0 16 16"><defs><style>.cls-1{fill:#def4fd;}.cls-2{fill:#2980b9;}</style></defs><title>role</title><path class="cls-1" d="M1.05,12a1.78,1.78,0,0,1,0-.23A5.23,5.23,0,0,1,6.41,6.67a5.23,5.23,0,0,1,5.37,5.07,1.78,1.78,0,0,1,0,.23Z"/><path class="cls-2" d="M6.41,7a4.87,4.87,0,0,1,5,4.55h-10A4.87,4.87,0,0,1,6.41,7m0-.75A5.6,5.6,0,0,0,.66,11.74a5.09,5.09,0,0,0,.06.6H12.09a5.09,5.09,0,0,0,.06-.6A5.6,5.6,0,0,0,6.41,6.29Z"/><circle class="cls-1" cx="6.41" cy="5.68" r="2.65"/><path class="cls-2" d="M6.41,3.41A2.27,2.27,0,1,1,4.13,5.68,2.28,2.28,0,0,1,6.41,3.41m0-.75a3,3,0,1,0,3,3,3,3,0,0,0-3-3Z"/></svg>