<svg xmlns="http://www.w3.org/2000/svg" viewBox="0 0 16 16"><defs><style>.cls-1{fill:#bfe1f1;}.cls-2{fill:#2c66bd;}</style></defs><title>role</title><g id="_2" data-name="2"><path class="cls-1" d="M2.64,12.46a1.79,1.79,0,0,1,0-.23A5.23,5.23,0,0,1,8,7.17a5.23,5.23,0,0,1,5.37,5.07,1.79,1.79,0,0,1,0,.23Z"/><path class="cls-2" d="M8,7.54a4.87,4.87,0,0,1,5,4.55H3A4.87,4.87,0,0,1,8,7.54m0-.75a5.6,5.6,0,0,0-5.75,5.44,5.08,5.08,0,0,0,.06.61H13.68a5.08,5.08,0,0,0,.06-.61A5.6,5.6,0,0,0,8,6.79Z"/><circle class="cls-1" cx="8" cy="6.19" r="2.65"/><path class="cls-2" d="M8,3.91A2.27,2.27,0,1,1,5.72,6.18,2.28,2.28,0,0,1,8,3.91m0-.75a3,3,0,1,0,3,3,3,3,0,0,0-3-3Z"/></g></svg>