<?xml version="1.0" encoding="utf-8"?>
<!-- Generator: Adobe Illustrator 24.0.1, SVG Export Plug-In . SVG Version: 6.00 Build 0)  -->
<svg version="1.1" id="Layer_1" xmlns="http://www.w3.org/2000/svg" xmlns:xlink="http://www.w3.org/1999/xlink" x="0px" y="0px"
	 viewBox="0 0 16 16" style="enable-background:new 0 0 16 16;" xml:space="preserve">
<g>
	<path d="M13.1,9.2c0.4-0.3,0.6-0.6,0.6-0.9v-3C12.6,6,10.8,6.5,8.9,6.6L13.1,9.2z"/>
	<path d="M7.2,5.8c3.6,0,6.5-1,6.5-2.1V2.4c0-1.2-2.9-2.1-6.5-2.1s-6.5,1-6.5,2.1v1.3C0.7,4.9,3.6,5.8,7.2,5.8z"/>
	<path d="M0.7,10v3c0,1.2,2.9,2.1,6.5,2.1c0.1,0,0.2,0,0.2,0v-3.7c-0.1,0-0.2,0-0.2,0C4.6,11.4,2.1,11,0.7,10z"/>
	<path d="M0.7,5.4v3c0,1.2,2.9,2.1,6.5,2.1c0.1,0,0.2,0,0.2,0v-3c0-0.3,0.1-0.6,0.3-0.7c-0.2,0-0.4,0-0.6,0C4.6,6.8,2.1,6.3,0.7,5.4
		z"/>
	<path d="M14.9,11.2L9.4,8C9,7.7,8.3,7.9,8.3,8.6V15c0,0.6,0.6,0.9,1.1,0.6l5.5-3.2C15.4,12.2,15.4,11.5,14.9,11.2z"/>
</g>
</svg>
