<?xml version="1.0" encoding="utf-8"?>
<!-- Generator: Adobe Illustrator 24.0.1, SVG Export Plug-In . SVG Version: 6.00 Build 0)  -->
<svg version="1.1" id="Layer_1" xmlns="http://www.w3.org/2000/svg" xmlns:xlink="http://www.w3.org/1999/xlink" x="0px" y="0px"
	 viewBox="0 0 16 16" style="enable-background:new 0 0 16 16;" xml:space="preserve">
<g>
	<path d="M12.5,3.1c0.4-0.4,0.1-1-0.4-1H0.6c-0.5,0-0.8,0.6-0.4,1l4.6,4.6v5.1c0,0.2,0.1,0.4,0.3,0.5c0,0,1.5,0.9,1.5,0.5V6.5
		c0-0.5,0.4-1,1-1h2.6L12.5,3.1z"/>
	<path d="M15.2,6.5H8.3c-0.4,0-0.8,0.4-0.8,0.8v5.8c0,0.4,0.4,0.8,0.8,0.8h6.9c0.4,0,0.8-0.4,0.8-0.8V7.3C16,6.8,15.6,6.5,15.2,6.5z
		 M11.2,12.8H8.6v-1.6h2.6V12.8z M11.2,10.2H8.6V8.6h2.6V10.2z M14.9,12.8h-2.6v-1.6h2.6V12.8z M14.9,10.2h-2.6V8.6h2.6V10.2z"/>
</g>
</svg>
