<svg id="Layer_1" data-name="Layer 1" xmlns="http://www.w3.org/2000/svg" viewBox="0 0 16 16"><defs><style>.cls-1{fill:#def4fd;}.cls-2{fill:#2980b9;}</style></defs><title>coll-database</title><path class="cls-1" d="M10.82,4.5A.87.87,0,0,0,11,4c0-1.1-2.46-2-5.5-2S0,2.9,0,4a.87.87,0,0,0,.18.5A.87.87,0,0,0,0,5a.87.87,0,0,0,.18.5.78.78,0,0,0,0,1,.78.78,0,0,0,0,1,.78.78,0,0,0,0,1,.78.78,0,0,0,0,1A.87.87,0,0,0,0,10c0,1.1,2.46,2,5.5,2s5.5-.9,5.5-2a.87.87,0,0,0-.18-.5.78.78,0,0,0,0-1,.78.78,0,0,0,0-1,.78.78,0,0,0,0-1,.78.78,0,0,0,0-1A.87.87,0,0,0,11,5,.87.87,0,0,0,10.82,4.5Z"/><ellipse class="cls-2" cx="5.5" cy="4" rx="5.5" ry="2"/><path class="cls-2" d="M5.5,11C2.94,11,.79,10.36.18,9.5A.87.87,0,0,0,0,10c0,1.1,2.46,2,5.5,2s5.5-.9,5.5-2a.87.87,0,0,0-.18-.5C10.21,10.36,8.06,11,5.5,11Z"/><path class="cls-2" d="M5.5,8C2.94,8,.79,7.36.18,6.5A.87.87,0,0,0,0,7C0,8.1,2.46,9,5.5,9S11,8.1,11,7a.87.87,0,0,0-.18-.5C10.21,7.36,8.06,8,5.5,8Z"/></svg>