<svg id="Layer_1" data-name="Layer 1" xmlns="http://www.w3.org/2000/svg" viewBox="0 0 16 16"><defs><style>.cls-1{fill:#def4fd;}.cls-2{fill:#2980b9;}</style></defs><title>coll-database</title><path class="cls-1" d="M11,5.5a.87.87,0,0,0,.18-.5c0-1.1-2.46-2-5.5-2S.16,3.9.16,5a.87.87,0,0,0,.18.5.78.78,0,0,0,0,1,.78.78,0,0,0,0,1,.78.78,0,0,0,0,1,.78.78,0,0,0,0,1,.78.78,0,0,0,0,1,.87.87,0,0,0-.18.5c0,1.1,2.46,2,5.5,2s5.5-.9,5.5-2a.87.87,0,0,0-.18-.5.78.78,0,0,0,0-1,.78.78,0,0,0,0-1,.78.78,0,0,0,0-1,.78.78,0,0,0,0-1,.78.78,0,0,0,0-1Z"/><ellipse class="cls-2" cx="5.66" cy="5" rx="5.5" ry="2"/><path class="cls-2" d="M5.66,12C3.09,12,.95,11.36.34,10.5a.87.87,0,0,0-.18.5c0,1.1,2.46,2,5.5,2s5.5-.9,5.5-2a.87.87,0,0,0-.18-.5C10.36,11.36,8.22,12,5.66,12Z"/><path class="cls-2" d="M5.66,8C3.09,8,.95,7.36.34,6.5A.87.87,0,0,0,.16,7c0,1.1,2.46,2,5.5,2s5.5-.9,5.5-2A.87.87,0,0,0,11,6.5C10.36,7.36,8.22,8,5.66,8Z"/><path class="cls-2" d="M5.66,10C3.09,10,.95,9.36.34,8.5A.87.87,0,0,0,.16,9c0,1.1,2.46,2,5.5,2s5.5-.9,5.5-2A.87.87,0,0,0,11,8.5C10.36,9.36,8.22,10,5.66,10Z"/></svg>