<svg xmlns="http://www.w3.org/2000/svg" viewBox="0 0 16 16"><defs><style>.cls-1{fill:#f9f9d1;}.cls-2{fill:#ac9230;}</style></defs><title>coll-database</title><g id="_3" data-name="3"><path class="cls-1" d="M13.32,5.5A.87.87,0,0,0,13.5,5C13.5,3.9,11,3,8,3s-5.5.9-5.5,2a.87.87,0,0,0,.18.5.78.78,0,0,0,0,1,.78.78,0,0,0,0,1,.78.78,0,0,0,0,1,.78.78,0,0,0,0,1,.78.78,0,0,0,0,1,.87.87,0,0,0-.18.5C2.5,12.1,5,13,8,13s5.5-.9,5.5-2a.87.87,0,0,0-.18-.5.78.78,0,0,0,0-1,.78.78,0,0,0,0-1,.78.78,0,0,0,0-1,.78.78,0,0,0,0-1,.78.78,0,0,0,0-1Z"/><ellipse class="cls-2" cx="8" cy="5" rx="5.5" ry="2"/><path class="cls-2" d="M8,12c-2.56,0-4.71-.64-5.32-1.5a.87.87,0,0,0-.18.5C2.5,12.1,5,13,8,13s5.5-.9,5.5-2a.87.87,0,0,0-.18-.5C12.71,11.36,10.56,12,8,12Z"/><path class="cls-2" d="M8,8C5.44,8,3.29,7.36,2.68,6.5A.87.87,0,0,0,2.5,7C2.5,8.1,5,9,8,9s5.5-.9,5.5-2a.87.87,0,0,0-.18-.5C12.71,7.36,10.56,8,8,8Z"/><path class="cls-2" d="M8,10c-2.56,0-4.71-.64-5.32-1.5A.87.87,0,0,0,2.5,9C2.5,10.1,5,11,8,11s5.5-.9,5.5-2a.87.87,0,0,0-.18-.5C12.71,9.36,10.56,10,8,10Z"/></g></svg>