<svg id="Layer_1" data-name="Layer 1" xmlns="http://www.w3.org/2000/svg" viewBox="0 0 16 16"><defs><style>.cls-1{fill:#f2f2f2;}.cls-2{fill:#717f8e;}.cls-3{fill:none;stroke:#d0021b;stroke-linecap:round;stroke-linejoin:round;stroke-width:1.5px;}</style></defs><title>databasebad</title><path class="cls-1" d="M10.9,5.5a.87.87,0,0,0,.18-.5c0-1.1-2.46-2-5.5-2S.08,3.9.08,5a.87.87,0,0,0,.18.5.78.78,0,0,0,0,1,.78.78,0,0,0,0,1,.78.78,0,0,0,0,1,.78.78,0,0,0,0,1,.78.78,0,0,0,0,1,.87.87,0,0,0-.18.5c0,1.1,2.46,2,5.5,2s5.5-.9,5.5-2a.87.87,0,0,0-.18-.5.78.78,0,0,0,0-1,.78.78,0,0,0,0-1,.78.78,0,0,0,0-1,.78.78,0,0,0,0-1,.78.78,0,0,0,0-1Z"/><ellipse class="cls-2" cx="5.58" cy="5" rx="5.5" ry="2"/><path class="cls-2" d="M5.58,12C3,12,.88,11.36.26,10.5a.87.87,0,0,0-.18.5c0,1.1,2.46,2,5.5,2s5.5-.9,5.5-2a.87.87,0,0,0-.18-.5C10.29,11.36,8.15,12,5.58,12Z"/><line class="cls-3" x1="11.58" y1="2.5" x2="8.58" y2="5.5"/><line class="cls-3" x1="11.58" y1="5.5" x2="8.58" y2="2.5"/><path class="cls-2" d="M5.58,9C3,9,.87,8.4.26,7.54A.87.87,0,0,0,.08,8c0,1.1,2.46,2,5.5,2s5.5-.9,5.5-2a.87.87,0,0,0-.18-.5C10.29,8.4,8.14,9,5.58,9Z"/></svg>