<svg xmlns="http://www.w3.org/2000/svg" viewBox="0 0 16 16"><defs><style>.cls-1{fill:#f2f2f2;}.cls-2{fill:#717f8e;}.cls-3{fill:none;stroke:#d0021b;stroke-linecap:round;stroke-linejoin:round;stroke-width:1.5px;}</style></defs><title>databasebad</title><g id="_3" data-name="3"><path class="cls-1" d="M13.07,5.75a.87.87,0,0,0,.18-.5c0-1.1-2.46-2-5.5-2s-5.5.9-5.5,2a.87.87,0,0,0,.18.5.78.78,0,0,0,0,1,.78.78,0,0,0,0,1,.78.78,0,0,0,0,1,.78.78,0,0,0,0,1,.78.78,0,0,0,0,1,.87.87,0,0,0-.18.5c0,1.1,2.46,2,5.5,2s5.5-.9,5.5-2a.87.87,0,0,0-.18-.5.78.78,0,0,0,0-1,.78.78,0,0,0,0-1,.78.78,0,0,0,0-1,.78.78,0,0,0,0-1,.78.78,0,0,0,0-1Z"/><ellipse class="cls-2" cx="7.75" cy="5.25" rx="5.5" ry="2"/><path class="cls-2" d="M7.75,12.25c-2.56,0-4.71-.64-5.32-1.5a.87.87,0,0,0-.18.5c0,1.1,2.46,2,5.5,2s5.5-.9,5.5-2a.87.87,0,0,0-.18-.5C12.46,11.61,10.31,12.25,7.75,12.25Z"/><path class="cls-2" d="M7.75,9.29c-2.56,0-4.71-.64-5.32-1.5a.87.87,0,0,0-.18.5c0,1.1,2.46,2,5.5,2s5.5-.9,5.5-2a.87.87,0,0,0-.18-.5C12.46,8.65,10.31,9.29,7.75,9.29Z"/><line class="cls-3" x1="13.75" y1="2.75" x2="10.75" y2="5.75"/><line class="cls-3" x1="13.75" y1="5.75" x2="10.75" y2="2.75"/></g></svg>