<svg width="24" height="24" viewBox="0 0 24 24" fill="none" xmlns="http://www.w3.org/2000/svg">
<path d="M19.232 8.625C19.398 8.40928 19.4924 8.14704 19.502 7.875C19.502 6.225 15.812 4.875 11.252 4.875C6.692 4.875 3.002 6.225 3.002 7.875C3.01158 8.14704 3.10598 8.40928 3.272 8.625C3.09627 8.83541 3 9.10085 3 9.375C3 9.64915 3.09627 9.91459 3.272 10.125C3.09627 10.3354 3 10.6009 3 10.875C3 11.1491 3.09627 11.4146 3.272 11.625C3.09627 11.8354 3 12.1009 3 12.375C3 12.6491 3.09627 12.9146 3.272 13.125C3.09627 13.3354 3 13.6009 3 13.875C3 14.1491 3.09627 14.4146 3.272 14.625C3.09627 14.8354 3 15.1009 3 15.375C3 15.6491 3.09627 15.9146 3.272 16.125C3.10598 16.3407 3.01158 16.603 3.002 16.875C3.002 18.525 6.692 19.875 11.252 19.875C15.812 19.875 19.502 18.525 19.502 16.875C19.4924 16.603 19.398 16.3407 19.232 16.125C19.4077 15.9146 19.504 15.6491 19.504 15.375C19.504 15.1009 19.4077 14.8354 19.232 14.625C19.4077 14.4146 19.504 14.1491 19.504 13.875C19.504 13.6009 19.4077 13.3354 19.232 13.125C19.4077 12.9146 19.504 12.6491 19.504 12.375C19.504 12.1009 19.4077 11.8354 19.232 11.625C19.4077 11.4146 19.504 11.1491 19.504 10.875C19.504 10.6009 19.4077 10.3354 19.232 10.125C19.4077 9.91459 19.504 9.64915 19.504 9.375C19.504 9.10085 19.4077 8.83541 19.232 8.625Z" fill="#F2F2F2"/>
<path d="M11.2518 10.875C15.8081 10.875 19.502 9.53185 19.502 7.875C19.502 6.21815 15.8084 4.875 11.252 4.875C6.69565 4.875 3.002 6.21815 3.002 7.875C3.002 9.53185 6.69542 10.875 11.2518 10.875Z" fill="#717F8E"/>
<path d="M15.2732 17.993C14.0839 18.2361 12.7123 18.375 11.2518 18.375C7.41177 18.375 4.187 17.415 3.272 16.125C3.10598 16.3407 3.01158 16.603 3.002 16.875C3.002 18.525 6.692 19.875 11.252 19.875C12.7126 19.875 14.0838 19.7365 15.2732 19.494V17.993Z" fill="#717F8E"/>
<path d="M3.27177 11.6852C4.18677 12.9752 7.41177 13.9352 11.2518 13.9352C11.7206 13.9352 12.1802 13.9209 12.6276 13.8934C12.627 13.9271 12.6268 13.9612 12.6268 13.9959C12.6268 14.6297 12.7097 15.09 12.8756 15.3769C12.3507 15.4151 11.8077 15.4352 11.2518 15.4352C6.69177 15.4352 3.00177 14.0852 3.00177 12.4352C3.01134 12.1631 3.10575 11.9009 3.27177 11.6852Z" fill="#717F8E"/>
<path d="M19.4107 12C19.3662 11.8879 19.3062 11.7819 19.2318 11.6852C19.1556 11.7925 19.0635 11.8976 18.9563 12H19.4107Z" fill="#717F8E"/>
<path d="M20.2728 13C20.4067 13 20.5336 13.0106 20.6535 13.0317C20.7733 13.0529 20.872 13.1198 20.9495 13.2326C21.0341 13.3453 21.0764 13.5391 21.0764 13.8139C21.0764 14.0817 21.0341 14.2755 20.9495 14.3953C20.872 14.5081 20.7698 14.575 20.6429 14.5962C20.523 14.6173 20.3962 14.6279 20.2622 14.6279H18.8032V19.4692C18.8032 19.6243 18.7891 19.7758 18.7609 19.9238C18.7327 20.0647 18.6516 20.181 18.5177 20.2726C18.3908 20.3642 18.1652 20.41 17.841 20.41C17.5309 20.41 17.3088 20.3642 17.1749 20.2726C17.041 20.1739 16.9599 20.0541 16.9317 19.9132C16.9106 19.7652 16.9 19.6137 16.9 19.4586V14.6279H15.4303C15.3034 14.6279 15.1766 14.6173 15.0497 14.5962C14.9299 14.568 14.8277 14.4975 14.7431 14.3848C14.6655 14.272 14.6268 14.0782 14.6268 13.8034C14.6268 13.5356 14.6655 13.3453 14.7431 13.2326C14.8277 13.1198 14.9334 13.0529 15.0603 13.0317C15.1871 13.0106 15.314 13 15.4409 13H20.2728Z" fill="#717F8E"/>
<path fill-rule="evenodd" clip-rule="evenodd" d="M21.0474 3.3295C21.4868 3.76884 21.4868 4.48116 21.0474 4.9205L16.5474 9.4205C16.1081 9.85984 15.3958 9.85984 14.9565 9.4205C14.5171 8.98116 14.5171 8.26884 14.9565 7.8295L19.4565 3.3295C19.8958 2.89017 20.6081 2.89017 21.0474 3.3295Z" fill="#D0021B"/>
<path fill-rule="evenodd" clip-rule="evenodd" d="M14.9565 3.3295C15.3958 2.89017 16.1081 2.89017 16.5474 3.3295L21.0474 7.8295C21.4868 8.26884 21.4868 8.98116 21.0474 9.4205C20.6081 9.85984 19.8958 9.85984 19.4565 9.4205L14.9565 4.9205C14.5171 4.48116 14.5171 3.76884 14.9565 3.3295Z" fill="#D0021B"/>
</svg>
