<svg width="61" height="61" viewBox="0 0 61 61" fill="none" xmlns="http://www.w3.org/2000/svg">
<path d="M49.2595 21.6709C49.6766 21.1289 49.9138 20.47 49.9379 19.7865C49.9379 15.6407 40.6665 12.2488 29.2093 12.2488C17.752 12.2488 8.48062 15.6407 8.48062 19.7865C8.50468 20.47 8.74188 21.1289 9.15901 21.6709C8.71746 22.1996 8.47559 22.8665 8.47559 23.5553C8.47559 24.2441 8.71746 24.9111 9.15901 25.4397C8.71746 25.9684 8.47559 26.6353 8.47559 27.3242C8.47559 28.013 8.71746 28.6799 9.15901 29.2086C8.71746 29.7373 8.47559 30.4042 8.47559 31.093C8.47559 31.7818 8.71746 32.4487 9.15901 32.9774C8.71746 33.5061 8.47559 34.173 8.47559 34.8618C8.47559 35.5507 8.71746 36.2176 9.15901 36.7463C8.71746 37.2749 8.47559 37.9419 8.47559 38.6307C8.47559 39.3195 8.71746 39.9864 9.15901 40.5151C8.74188 41.0571 8.50468 41.716 8.48062 42.3995C8.48062 46.5453 17.752 49.9372 29.2093 49.9372C40.6665 49.9372 49.9379 46.5453 49.9379 42.3995C49.9138 41.716 49.6766 41.0571 49.2595 40.5151C49.7011 39.9864 49.9429 39.3195 49.9429 38.6307C49.9429 37.9419 49.7011 37.2749 49.2595 36.7463C49.7011 36.2176 49.9429 35.5507 49.9429 34.8618C49.9429 34.173 49.7011 33.5061 49.2595 32.9774C49.7011 32.4487 49.9429 31.7818 49.9429 31.093C49.9429 30.4042 49.7011 29.7373 49.2595 29.2086C49.7011 28.6799 49.9429 28.013 49.9429 27.3242C49.9429 26.6353 49.7011 25.9684 49.2595 25.4397C49.7011 24.9111 49.9429 24.2441 49.9429 23.5553C49.9429 22.8665 49.7011 22.1996 49.2595 21.6709Z" fill="#F9F9D1"/>
<path d="M29.2087 27.3242C40.6568 27.3242 49.9379 23.9494 49.9379 19.7865C49.9379 15.6235 40.6574 12.2488 29.2093 12.2488C17.7611 12.2488 8.48062 15.6235 8.48062 19.7865C8.48062 23.9494 17.7606 27.3242 29.2087 27.3242Z" fill="#AC9230"/>
<path d="M39.3128 45.2087C36.3245 45.8194 32.8783 46.1684 29.2087 46.1684C19.5604 46.1684 11.458 43.7563 9.15901 40.5151C8.74188 41.0571 8.50468 41.716 8.48062 42.3995C8.48062 46.5453 17.752 49.9372 29.2093 49.9372C32.8792 49.9372 36.3243 49.5892 39.3128 48.9799V45.2087Z" fill="#AC9230"/>
<path d="M9.15842 29.3598C11.4574 32.601 19.5604 35.0131 29.2087 35.0131C30.3865 35.0131 31.5414 34.9771 32.6654 34.9081C32.6641 34.9926 32.6634 35.0785 32.6634 35.1657C32.6634 36.7581 32.8719 37.9147 33.2888 38.6354C31.9698 38.7315 30.6055 38.7819 29.2087 38.7819C17.7514 38.7819 8.48002 35.3899 8.48002 31.2442C8.50409 30.5607 8.74128 29.9018 9.15842 29.3598Z" fill="#AC9230"/>
<path d="M49.7084 30.1508C49.5967 29.8692 49.4459 29.6027 49.2589 29.3598C49.0676 29.6295 48.8361 29.8935 48.5669 30.1508H49.7084Z" fill="#AC9230"/>
<path d="M51.8746 32.6634C52.2111 32.6634 52.5299 32.6899 52.831 32.743C53.1321 32.7961 53.38 32.9644 53.5748 33.2477C53.7873 33.531 53.8936 34.0179 53.8936 34.7084C53.8936 35.3813 53.7873 35.8682 53.5748 36.1692C53.38 36.4525 53.1232 36.6207 52.8044 36.6738C52.5033 36.7269 52.1846 36.7535 51.8481 36.7535H48.182V48.9177C48.182 49.3072 48.1466 49.6879 48.0757 50.0597C48.0049 50.4138 47.8012 50.706 47.4647 50.9362C47.1459 51.1664 46.5792 51.2814 45.7645 51.2814C44.9853 51.2814 44.4274 51.1664 44.0909 50.9362C43.7544 50.6883 43.5507 50.3873 43.4799 50.0331C43.4267 49.6613 43.4002 49.2806 43.4002 48.8911V36.7535H39.7076C39.3888 36.7535 39.07 36.7269 38.7512 36.6738C38.4501 36.603 38.1933 36.4259 37.9808 36.1426C37.786 35.8593 37.6886 35.3724 37.6886 34.6819C37.6886 34.009 37.786 33.531 37.9808 33.2477C38.1933 32.9644 38.459 32.7961 38.7778 32.743C39.0965 32.6899 39.4153 32.6634 39.7341 32.6634H51.8746Z" fill="#AB6A0C"/>
</svg>
