<svg xmlns="http://www.w3.org/2000/svg" viewBox="0 0 16 16"><defs><style>.cls-1{fill:#f2f2f2;}.cls-2,.cls-4{fill:#737373;}.cls-3{fill:none;stroke:#737373;stroke-linejoin:round;stroke-width:0.75px;}.cls-4{fill-rule:evenodd;}</style></defs><title>coll-fts_configuration</title><g id="_2" data-name="2"><path class="cls-1" d="M4.46,12.13a.71.71,0,0,1-.71-.71V2.58a.71.71,0,0,1,.71-.71H8l3.26,3.26v6.28a.71.71,0,0,1-.7.71Z"/><path class="cls-2" d="M7.87,2.25l3,3v6.13a.33.33,0,0,1-.33.33H4.46a.33.33,0,0,1-.33-.33V2.58a.33.33,0,0,1,.33-.33H7.87m.31-.75H4.46A1.08,1.08,0,0,0,3.38,2.58v8.84A1.08,1.08,0,0,0,4.46,12.5h6.12a1.08,1.08,0,0,0,1.08-1.08V5L8.18,1.5Z"/><polyline class="cls-3" points="11.25 5.82 7.59 5.82 7.59 1.5"/><path class="cls-1" d="M6.46,14.13a.71.71,0,0,1-.71-.71V4.58a.71.71,0,0,1,.71-.71H10l3.26,3.26v6.28a.71.71,0,0,1-.7.71Z"/><path class="cls-2" d="M9.87,4.25l3,3v6.13a.33.33,0,0,1-.33.33H6.46a.33.33,0,0,1-.33-.33V4.58a.33.33,0,0,1,.33-.33H9.87m.31-.75H6.46A1.08,1.08,0,0,0,5.38,4.58v8.84A1.08,1.08,0,0,0,6.46,14.5h6.12a1.08,1.08,0,0,0,1.08-1.08V7L10.18,3.5Z"/><polyline class="cls-3" points="13.25 7.82 9.59 7.82 9.59 3.5"/><path class="cls-4" d="M9.88,11a.39.39,0,1,0-.38.38A.4.4,0,0,0,9.88,11Zm1.78-.39h0l-.54-.1a1.27,1.27,0,0,0-.14-.33l.32-.47a.11.11,0,0,0,0-.14l-.38-.38a.11.11,0,0,0-.14,0l-.46.32A1.55,1.55,0,0,0,10,9.35l-.1-.54a.13.13,0,0,0-.12-.09H9.21a.12.12,0,0,0-.11.09L9,9.37a1.28,1.28,0,0,0-.32.13l-.46-.31a.1.1,0,0,0-.14,0l-.38.38a.11.11,0,0,0,0,.14l.31.45a1.93,1.93,0,0,0-.13.33l-.54.1a.11.11,0,0,0-.09.11v.56a.1.1,0,0,0,.09.1l.54.11a1,1,0,0,0,.14.32l-.31.45a.1.1,0,0,0,0,.14l.38.39a.11.11,0,0,0,.14,0l.45-.31A1.2,1.2,0,0,0,9,12.6l.1.56a.11.11,0,0,0,.11.09h.55a.12.12,0,0,0,.12-.09l.1-.54.33-.12.45.3a.11.11,0,0,0,.14,0l.38-.39a.1.1,0,0,0,0-.14L11,11.79a1,1,0,0,0,.14-.32l.54-.11a.1.1,0,0,0,.09-.1v-.56a.11.11,0,0,0-.09-.11ZM9.5,11.93h0a.95.95,0,1,1,.94-.94.95.95,0,0,1-.94.94Z"/></g></svg>