<svg id="Layer_1" data-name="Layer 1" xmlns="http://www.w3.org/2000/svg" viewBox="0 0 16 16"><defs><style>.cls-1{fill:#def4fd;}.cls-2{fill:#717f8e;}.cls-3{fill:none;stroke:#717f8e;stroke-linejoin:round;stroke-width:0.75px;}.cls-4{fill:#34495e;fill-rule:evenodd;}</style></defs><title>coll-fts_configuration</title><path class="cls-1" d="M1.05,12.12a.71.71,0,0,1-.71-.71V2.57a.71.71,0,0,1,.71-.71H4.62L7.88,5.13v6.28a.71.71,0,0,1-.71.71Z"/><path class="cls-2" d="M4.46,2.24l3,3v6.13a.33.33,0,0,1-.33.33H1.05a.33.33,0,0,1-.33-.33V2.57a.33.33,0,0,1,.33-.33H4.46m.31-.75H1.05A1.08,1.08,0,0,0,0,2.57v8.84a1.08,1.08,0,0,0,1.08,1.08H7.17a1.08,1.08,0,0,0,1.08-1.08V5L4.77,1.49Z"/><polyline class="cls-3" points="7.84 5.81 4.18 5.81 4.18 1.49"/><path class="cls-1" d="M3.05,14.12a.71.71,0,0,1-.71-.71V4.57a.71.71,0,0,1,.71-.71H6.62L9.88,7.13v6.28a.71.71,0,0,1-.71.71Z"/><path class="cls-2" d="M6.46,4.24l3,3v6.13a.33.33,0,0,1-.33.33H3.05a.33.33,0,0,1-.33-.33V4.57a.33.33,0,0,1,.33-.33H6.46m.31-.75H3.05A1.08,1.08,0,0,0,2,4.57v8.84a1.08,1.08,0,0,0,1.08,1.08H9.17a1.08,1.08,0,0,0,1.08-1.08V7L6.77,3.49Z"/><polyline class="cls-3" points="9.84 7.81 6.18 7.81 6.18 3.49"/><path class="cls-4" d="M6.47,11a.39.39,0,1,0-.38.38A.4.4,0,0,0,6.47,11Zm1.78-.39h0l-.54-.1a1.27,1.27,0,0,0-.14-.33l.32-.47a.11.11,0,0,0,0-.14L7.5,9.18a.11.11,0,0,0-.14,0l-.46.32a1.55,1.55,0,0,0-.33-.14l-.1-.54a.13.13,0,0,0-.12-.09H5.8a.12.12,0,0,0-.11.09l-.1.56a1.28,1.28,0,0,0-.32.13l-.46-.31a.1.1,0,0,0-.14,0l-.38.38a.11.11,0,0,0,0,.14l.31.45a1.93,1.93,0,0,0-.13.33l-.54.1a.11.11,0,0,0-.09.11v.56a.1.1,0,0,0,.09.1l.54.11a1,1,0,0,0,.14.32l-.31.45a.1.1,0,0,0,0,.14l.38.39a.11.11,0,0,0,.14,0l.45-.31a1.2,1.2,0,0,0,.32.12l.1.56a.11.11,0,0,0,.11.09h.55a.12.12,0,0,0,.12-.09l.1-.54.33-.12.45.3a.11.11,0,0,0,.14,0l.38-.39a.1.1,0,0,0,0-.14l-.31-.47a1,1,0,0,0,.14-.32l.54-.11a.1.1,0,0,0,.09-.1V10.7a.11.11,0,0,0-.09-.11ZM6.09,11.92h0A.95.95,0,1,1,7,11a.95.95,0,0,1-.94.94Z"/></svg>