<svg id="Layer_1" data-name="Layer 1" xmlns="http://www.w3.org/2000/svg" viewBox="0 0 16 16"><defs><style>.cls-1{fill:#def4fd;}.cls-2{fill:#717f8e;}.cls-3{fill:none;stroke:#717f8e;stroke-linejoin:round;stroke-width:0.75px;}.cls-4{fill:#34495e;fill-rule:evenodd;}</style></defs><title>fts_configuration</title><path class="cls-1" d="M1.77,13.63a.71.71,0,0,1-.71-.71V3.08a.71.71,0,0,1,.71-.71H5.34L8.6,5.64v7.28a.71.71,0,0,1-.7.71Z"/><path class="cls-2" d="M5.18,2.75l3,3v7.13a.33.33,0,0,1-.33.33H1.77a.33.33,0,0,1-.33-.33V3.08a.33.33,0,0,1,.33-.33H5.18M5.49,2H1.77A1.08,1.08,0,0,0,.69,3.08v9.84A1.08,1.08,0,0,0,1.77,14H7.89A1.08,1.08,0,0,0,9,12.92V5.48L5.49,2Z"/><polyline class="cls-3" points="8.56 6.32 4.9 6.32 4.9 2"/><path class="cls-4" d="M5.19,10.49a.39.39,0,1,0-.38.38.4.4,0,0,0,.38-.38ZM7,10.1H7L6.43,10a1.27,1.27,0,0,0-.14-.33l.32-.47a.11.11,0,0,0,0-.14l-.38-.38a.11.11,0,0,0-.14,0L5.61,9a1.55,1.55,0,0,0-.33-.14l-.1-.54a.13.13,0,0,0-.12-.09H4.52a.12.12,0,0,0-.11.09l-.1.56A1.28,1.28,0,0,0,4,9l-.46-.31a.1.1,0,0,0-.14,0L3,9.09a.11.11,0,0,0,0,.14l.31.45a1.93,1.93,0,0,0-.13.33l-.54.1a.11.11,0,0,0-.09.11v.56a.1.1,0,0,0,.09.1l.54.11a1,1,0,0,0,.14.32L3,11.74a.1.1,0,0,0,0,.14l.38.39a.11.11,0,0,0,.14,0L4,12a1.2,1.2,0,0,0,.32.12l.1.56a.11.11,0,0,0,.11.09h.55a.12.12,0,0,0,.12-.09l.1-.54L5.61,12l.45.3a.11.11,0,0,0,.14,0l.38-.39a.1.1,0,0,0,0-.14l-.31-.47A1,1,0,0,0,6.43,11L7,10.86a.1.1,0,0,0,.09-.1v-.56A.11.11,0,0,0,7,10.1ZM4.81,11.43h0a.95.95,0,1,1,.94-.94.95.95,0,0,1-.94.94Z"/></svg>