<svg xmlns="http://www.w3.org/2000/svg" viewBox="0 0 16 16"><defs><style>.cls-1{fill:#f2f2f2;}.cls-2,.cls-4{fill:#737373;}.cls-3{fill:none;stroke:#737373;stroke-linejoin:round;stroke-width:0.75px;}.cls-4{fill-rule:evenodd;}</style></defs><title>fts_configuration</title><g id="_2" data-name="2"><path class="cls-1" d="M4.94,13.63a.71.71,0,0,1-.71-.71V3.08a.71.71,0,0,1,.71-.71H8.5l3.26,3.26v7.28a.71.71,0,0,1-.71.71Z"/><path class="cls-2" d="M8.35,2.75l3,3v7.13a.33.33,0,0,1-.33.33H4.94a.33.33,0,0,1-.33-.33V3.08a.33.33,0,0,1,.33-.33H8.35M8.66,2H4.94A1.08,1.08,0,0,0,3.86,3.08v9.84A1.08,1.08,0,0,0,4.94,14h6.12a1.08,1.08,0,0,0,1.08-1.08V5.48L8.66,2Z"/><polyline class="cls-3" points="11.73 6.32 8.07 6.32 8.07 2"/><path class="cls-4" d="M8.36,10.49a.39.39,0,1,0-.38.38.4.4,0,0,0,.38-.38Zm1.78-.39h0L9.6,10a1.27,1.27,0,0,0-.14-.33l.32-.47a.11.11,0,0,0,0-.14l-.38-.38a.11.11,0,0,0-.14,0L8.78,9a1.55,1.55,0,0,0-.33-.14l-.1-.54a.13.13,0,0,0-.12-.09H7.69a.12.12,0,0,0-.11.09l-.1.56A1.28,1.28,0,0,0,7.16,9L6.7,8.69a.1.1,0,0,0-.14,0l-.38.38a.11.11,0,0,0,0,.14l.31.45a1.93,1.93,0,0,0-.13.33l-.54.1a.11.11,0,0,0-.09.11v.56a.1.1,0,0,0,.09.1l.54.11a1,1,0,0,0,.14.32l-.31.45a.1.1,0,0,0,0,.14l.38.39a.11.11,0,0,0,.14,0L7.16,12a1.2,1.2,0,0,0,.32.12l.1.56a.11.11,0,0,0,.11.09h.55a.12.12,0,0,0,.12-.09l.1-.54L8.78,12l.45.3a.11.11,0,0,0,.14,0l.38-.39a.1.1,0,0,0,0-.14l-.31-.47A1,1,0,0,0,9.6,11l.54-.11a.1.1,0,0,0,.09-.1v-.56a.11.11,0,0,0-.09-.11ZM8,11.43H8a.95.95,0,1,1,.94-.94.95.95,0,0,1-.94.94Z"/></g></svg>