<svg xmlns="http://www.w3.org/2000/svg" viewBox="0 0 16 16"><defs><style>.cls-1{fill:#e0fffb;}.cls-2{fill:#2f91a3;}.cls-2,.cls-3,.cls-4,.cls-5{stroke:#2f91a3;}.cls-2,.cls-3{stroke-miterlimit:10;stroke-width:0.5px;}.cls-3{fill:#34495e;}.cls-4,.cls-5{fill:#2980b9;stroke-linecap:round;stroke-linejoin:round;}.cls-4{stroke-width:0.75px;}</style></defs><title>coll-trigger_function</title><g id="_2" data-name="2"><polygon class="cls-1" points="9.2 11.01 10.21 10.47 10.49 9.27 10.49 8.71 10.64 7.51 11 7.06 11.9 6.61 11 6.61 11 6.61 11 6.61 11.62 6.5 10.68 5.8 10.62 5.34 10.62 4.47 10.49 3.28 10.12 2.85 9.52 2.59 9.2 2.55 4.34 2.46 3.65 2.94 3.22 3.3 3.22 3.79 3.29 3.65 3.14 5.26 3.22 5.82 2 6.61 1.82 6.76 2 6.61 2.78 7.19 2.9 7.51 3.36 8.72 3.33 9.26 3.32 9.62 3.33 8.98 3.33 9.29 3.51 10.06 3.79 10.45 4.29 10.75 4.7 11.01 9.2 11.01"/><path class="cls-2" d="M11.37,6.59a1.62,1.62,0,0,1-.29-.12,1.12,1.12,0,0,1-.28-.2A1.07,1.07,0,0,1,10.61,6a1.23,1.23,0,0,1-.11-.37,4.14,4.14,0,0,1,0-.53q0-.31,0-.77v.16c0-.21,0-.42,0-.65a1.59,1.59,0,0,0-.18-.62,1.25,1.25,0,0,0-.47-.48,2,2,0,0,0-.91-.23V2.32l.24,0,.3,0,.32.1a1.28,1.28,0,0,1,.31.18,1.48,1.48,0,0,1,.37.4,1.63,1.63,0,0,1,.19.48,3.1,3.1,0,0,1,.07.57c0,.21,0,.84,0,.84a3.51,3.51,0,0,0,.05.66,1.05,1.05,0,0,0,.21.47,1.18,1.18,0,0,0,.44.32C11.56,6.51,11.46,6.62,11.37,6.59Z"/><path class="cls-2" d="M4.93,2.52A2,2,0,0,0,4,2.74a1.25,1.25,0,0,0-.47.48,1.6,1.6,0,0,0-.18.62q0,.33,0,.65V4.34c0,.3,0,.56,0,.77a4.12,4.12,0,0,1,0,.53A1.22,1.22,0,0,1,3.17,6,1.05,1.05,0,0,1,3,6.27a1.12,1.12,0,0,1-.28.21l-.29.12-.26.06c-.08,0-.08,0,0,.05l.26.06a1.62,1.62,0,0,1,.29.12,1.12,1.12,0,0,1,.28.2,1.07,1.07,0,0,1,.19.26,1.23,1.23,0,0,1,.11.37,4.14,4.14,0,0,1,0,.53q0,.31,0,.77V8.86c0,.21,0,.42,0,.65a1.59,1.59,0,0,0,.18.62,1.25,1.25,0,0,0,.47.48,2,2,0,0,0,.91.23V11l-.24,0-.3,0-.32-.1a1.28,1.28,0,0,1-.31-.18,1.48,1.48,0,0,1-.37-.4A1.63,1.63,0,0,1,3.2,9.8a3.1,3.1,0,0,1-.07-.57c0-.21,0-.84,0-.84a3.51,3.51,0,0,0-.05-.66,1.05,1.05,0,0,0-.21-.47,1.18,1.18,0,0,0-.44-.32.31.31,0,0,1,0-.52,1.18,1.18,0,0,0,.44-.32,1.06,1.06,0,0,0,.21-.47A3.51,3.51,0,0,0,3.12,5s0-1.24.08-1.41a1.62,1.62,0,0,1,.19-.47,1.47,1.47,0,0,1,.37-.4,1.29,1.29,0,0,1,.31-.18l.32-.1.3,0,.24,0Z"/><polygon class="cls-1" points="11.48 12.55 12.49 12.01 12.77 10.81 12.77 10.25 12.92 9.05 13.28 8.6 14.18 8.15 13.28 8.15 13.28 8.15 13.28 8.15 13.89 8.04 12.96 7.35 12.9 6.88 12.9 6.01 12.77 4.83 12.39 4.39 11.79 4.13 11.48 4.09 6.62 4 5.93 4.48 5.49 4.84 5.49 5.33 5.57 5.19 5.42 6.8 5.49 7.37 4.28 8.15 4.1 8.3 4.28 8.15 5.06 8.73 5.18 9.05 5.64 10.27 5.61 10.8 5.6 11.16 5.61 10.52 5.61 10.83 5.79 11.6 6.07 11.99 6.57 12.29 6.98 12.55 11.48 12.55"/><path class="cls-3" d="M13.09,8.63a1.12,1.12,0,0,1,.28-.21l.29-.12.26-.06c.08,0,.08,0,0-.05l-.26-.06A1.62,1.62,0,0,1,13.36,8a1.12,1.12,0,0,1-.28-.2,1.07,1.07,0,0,1-.19-.26,1.23,1.23,0,0,1-.11-.37,4.14,4.14,0,0,1,0-.53q0-.31,0-.77V6c0-.21,0-.42,0-.65a1.59,1.59,0,0,0-.18-.62A1.25,1.25,0,0,0,12,4.28a2,2,0,0,0-.91-.23V3.86l.24,0,.3,0L12,4a1.28,1.28,0,0,1,.31.18,1.48,1.48,0,0,1,.37.4,1.63,1.63,0,0,1,.19.48,3.1,3.1,0,0,1,.07.57c0,.21,0,.84,0,.84a3.51,3.51,0,0,0,.05.66,1.05,1.05,0,0,0,.21.47,1.18,1.18,0,0,0,.44.32.31.31,0,0,1,0,.52C13.45,8.57,13,8.71,13.09,8.63Z"/><path class="cls-3" d="M7.21,4.06a2,2,0,0,0-.91.23,1.25,1.25,0,0,0-.47.48,1.6,1.6,0,0,0-.18.62q0,.33,0,.65V5.88c0,.3,0,.56,0,.77a4.12,4.12,0,0,1,0,.53,1.22,1.22,0,0,1-.11.37,1.05,1.05,0,0,1-.19.26A1.12,1.12,0,0,1,5,8l-.29.12-.26.06c-.08,0-.08,0,0,.05l.26.06A1.62,1.62,0,0,1,5,8.43a1.12,1.12,0,0,1,.28.2,1.07,1.07,0,0,1,.19.26,1.23,1.23,0,0,1,.11.37,4.14,4.14,0,0,1,0,.53q0,.31,0,.77v-.16c0,.21,0,.42,0,.65a1.59,1.59,0,0,0,.18.62,1.25,1.25,0,0,0,.47.48,2,2,0,0,0,.91.23v.19l-.24,0-.3,0-.32-.1A1.28,1.28,0,0,1,6,12.22a1.48,1.48,0,0,1-.37-.4,1.63,1.63,0,0,1-.19-.48,3.1,3.1,0,0,1-.07-.57c0-.21,0-.84,0-.84a3.51,3.51,0,0,0-.05-.66,1.05,1.05,0,0,0-.21-.47,1.18,1.18,0,0,0-.44-.32.31.31,0,0,1,0-.52,1.18,1.18,0,0,0,.44-.32,1.06,1.06,0,0,0,.21-.47A3.51,3.51,0,0,0,5.4,6.5s0-1.24.08-1.41a1.62,1.62,0,0,1,.19-.47A1.47,1.47,0,0,1,6,4.22,1.29,1.29,0,0,1,6.35,4l.32-.1.3,0,.24,0Z"/><line class="cls-4" x1="7.73" y1="6.15" x2="10.73" y2="6.15"/><line class="cls-4" x1="7.73" y1="8.15" x2="10.73" y2="8.15"/><line class="cls-4" x1="7.73" y1="10.15" x2="9.73" y2="10.15"/><line class="cls-5" x1="10.87" y1="12.09" x2="12.37" y2="12.09"/><polygon class="cls-5" points="13.8 12.11 12.35 13.52 12.4 10.65 13.8 12.11"/></g></svg>