<svg xmlns="http://www.w3.org/2000/svg" viewBox="0 0 16 16"><defs><style>.cls-1{fill:#edfffd;}.cls-2{fill:#34495e;stroke-miterlimit:10;stroke-width:0.5px;}.cls-2,.cls-3{stroke:#2f91a3;}.cls-3{fill:#2980b9;stroke-linecap:round;stroke-linejoin:round;stroke-width:0.75px;}</style></defs><title>coll-function</title><g id="_2" data-name="2"><polygon class="cls-1" points="9.04 11.48 10.05 10.94 10.33 9.74 10.33 9.19 10.48 7.99 10.84 7.54 11.74 7.08 10.84 7.08 10.84 7.08 10.84 7.08 11.46 6.97 10.52 6.28 10.46 5.81 10.46 4.95 10.33 3.76 9.96 3.32 9.36 3.06 9.04 3.03 4.19 2.93 3.49 3.42 3.06 3.77 3.06 4.26 3.13 4.12 2.98 5.74 3.06 6.3 1.84 7.08 1.67 7.24 1.84 7.08 2.63 7.66 2.74 7.99 3.21 9.2 3.18 9.73 3.16 10.1 3.18 9.46 3.18 9.77 3.35 10.54 3.64 10.92 4.14 11.22 4.54 11.48 9.04 11.48"/><path class="cls-2" d="M11.21,7.07a1.62,1.62,0,0,1-.29-.12,1.12,1.12,0,0,1-.28-.2,1.07,1.07,0,0,1-.19-.26,1.23,1.23,0,0,1-.11-.37,4.14,4.14,0,0,1,0-.53q0-.31,0-.77V5c0-.21,0-.42,0-.65a1.59,1.59,0,0,0-.18-.62,1.25,1.25,0,0,0-.47-.48A2,2,0,0,0,8.7,3V2.8l.24,0,.3,0,.32.1a1.28,1.28,0,0,1,.31.18,1.48,1.48,0,0,1,.37.4,1.63,1.63,0,0,1,.19.48,3.1,3.1,0,0,1,.07.57c0,.21,0,.84,0,.84a3.51,3.51,0,0,0,.05.66,1.05,1.05,0,0,0,.21.47,1.18,1.18,0,0,0,.44.32C11.4,7,11.31,7.09,11.21,7.07Z"/><path class="cls-2" d="M4.77,3a2,2,0,0,0-.91.23,1.25,1.25,0,0,0-.47.48,1.6,1.6,0,0,0-.18.62q0,.33,0,.65V4.81c0,.3,0,.56,0,.77a4.12,4.12,0,0,1,0,.53A1.22,1.22,0,0,1,3,6.48a1.05,1.05,0,0,1-.19.26,1.12,1.12,0,0,1-.28.21l-.29.12L2,7.13c-.08,0-.08,0,0,.05l.26.06a1.62,1.62,0,0,1,.29.12,1.12,1.12,0,0,1,.28.2A1.07,1.07,0,0,1,3,7.83a1.23,1.23,0,0,1,.11.37,4.14,4.14,0,0,1,0,.53q0,.31,0,.77V9.34c0,.21,0,.42,0,.65a1.59,1.59,0,0,0,.18.62,1.25,1.25,0,0,0,.47.48,2,2,0,0,0,.91.23v.19l-.24,0-.3,0-.32-.1a1.28,1.28,0,0,1-.31-.18,1.48,1.48,0,0,1-.37-.4A1.63,1.63,0,0,1,3,10.28,3.1,3.1,0,0,1,3,9.71c0-.21,0-.84,0-.84a3.51,3.51,0,0,0-.05-.66,1.05,1.05,0,0,0-.21-.47,1.18,1.18,0,0,0-.44-.32.31.31,0,0,1,0-.52,1.18,1.18,0,0,0,.44-.32,1.06,1.06,0,0,0,.21-.47A3.51,3.51,0,0,0,3,5.44S3,4.2,3,4a1.62,1.62,0,0,1,.19-.47,1.47,1.47,0,0,1,.37-.4A1.29,1.29,0,0,1,3.92,3l.32-.1.3,0,.24,0Z"/><polygon class="cls-1" points="11.63 13.18 12.64 12.64 12.93 11.44 12.93 10.88 13.08 9.68 13.43 9.23 14.33 8.78 13.43 8.78 13.43 8.78 13.43 8.78 14.05 8.67 13.11 7.97 13.06 7.5 13.06 6.64 12.93 5.45 12.55 5.02 11.95 4.75 11.63 4.72 6.78 4.63 6.08 5.11 5.65 5.47 5.65 5.95 5.73 5.82 5.58 7.43 5.65 7.99 4.43 8.78 4.26 8.93 4.43 8.78 5.22 9.36 5.33 9.68 5.8 10.89 5.77 11.42 5.76 11.79 5.77 11.15 5.77 11.46 5.95 12.23 6.23 12.62 6.73 12.91 7.13 13.18 11.63 13.18"/><path class="cls-2" d="M11.29,13a2,2,0,0,0,.91-.23,1.25,1.25,0,0,0,.47-.48,1.6,1.6,0,0,0,.18-.62q0-.33,0-.65v.16c0-.3,0-.56,0-.77a4.12,4.12,0,0,1,0-.53,1.22,1.22,0,0,1,.11-.37,1.05,1.05,0,0,1,.19-.26,1.12,1.12,0,0,1,.28-.21l.29-.12.26-.06c.08,0,.08,0,0-.05l-.26-.06a1.62,1.62,0,0,1-.29-.12,1.12,1.12,0,0,1-.28-.2,1.07,1.07,0,0,1-.19-.26,1.23,1.23,0,0,1-.11-.37,4.14,4.14,0,0,1,0-.53q0-.31,0-.77v.16c0-.21,0-.42,0-.65a1.59,1.59,0,0,0-.18-.62,1.25,1.25,0,0,0-.47-.48,2,2,0,0,0-.91-.23V4.49l.24,0,.3,0,.32.1a1.28,1.28,0,0,1,.31.18,1.48,1.48,0,0,1,.37.4,1.63,1.63,0,0,1,.19.48,3.1,3.1,0,0,1,.07.57c0,.21,0,.84,0,.84a3.51,3.51,0,0,0,.05.66,1.05,1.05,0,0,0,.21.47,1.18,1.18,0,0,0,.44.32.31.31,0,0,1,0,.52,1.18,1.18,0,0,0-.44.32,1.06,1.06,0,0,0-.21.47,3.51,3.51,0,0,0-.05.66s0,1.24-.08,1.41a1.62,1.62,0,0,1-.19.47,1.47,1.47,0,0,1-.37.4,1.29,1.29,0,0,1-.31.18l-.32.1-.3,0-.24,0Z"/><path class="cls-2" d="M7.36,4.69a2,2,0,0,0-.91.23A1.25,1.25,0,0,0,6,5.39,1.6,1.6,0,0,0,5.8,6q0,.33,0,.65V6.5c0,.3,0,.56,0,.77a4.12,4.12,0,0,1,0,.53,1.22,1.22,0,0,1-.11.37,1.05,1.05,0,0,1-.19.26,1.12,1.12,0,0,1-.28.21l-.29.12-.26.06c-.08,0-.08,0,0,.05l.26.06a1.62,1.62,0,0,1,.29.12,1.12,1.12,0,0,1,.28.2,1.07,1.07,0,0,1,.19.26,1.23,1.23,0,0,1,.11.37,4.14,4.14,0,0,1,0,.53q0,.31,0,.77V11c0,.21,0,.42,0,.65A1.59,1.59,0,0,0,6,12.3a1.25,1.25,0,0,0,.47.48,2,2,0,0,0,.91.23v.19l-.24,0-.3,0L6.51,13a1.28,1.28,0,0,1-.31-.18,1.48,1.48,0,0,1-.37-.4A1.63,1.63,0,0,1,5.64,12a3.1,3.1,0,0,1-.07-.57c0-.21,0-.84,0-.84a3.51,3.51,0,0,0-.05-.66,1.05,1.05,0,0,0-.21-.47,1.18,1.18,0,0,0-.44-.32.31.31,0,0,1,0-.52,1.18,1.18,0,0,0,.44-.32,1.06,1.06,0,0,0,.21-.47,3.51,3.51,0,0,0,.05-.66s0-1.24.08-1.41a1.62,1.62,0,0,1,.19-.47,1.47,1.47,0,0,1,.37-.4,1.29,1.29,0,0,1,.31-.18l.32-.1.3,0,.24,0Z"/><line class="cls-3" x1="7.89" y1="6.78" x2="10.89" y2="6.78"/><line class="cls-3" x1="7.89" y1="8.78" x2="10.89" y2="8.78"/><line class="cls-3" x1="7.89" y1="10.78" x2="9.89" y2="10.78"/></g></svg>