<svg id="Layer_1" data-name="Layer 1" xmlns="http://www.w3.org/2000/svg" viewBox="0 0 16 16"><defs><style>.cls-1{fill:#def4fd;}.cls-2,.cls-3{fill:#34495e;stroke-miterlimit:10;stroke-width:0.5px;}.cls-2{stroke:#717f8e;}.cls-3{stroke:#34495e;}</style></defs><title>coll-procedure</title><polygon class="cls-1" points="7.74 11.4 8.76 10.86 9.04 9.66 9.04 9.1 9.19 7.9 9.54 7.45 10.44 7 9.54 7 9.54 7 9.54 7 10.16 6.89 9.22 6.2 9.17 5.73 9.17 4.86 9.04 3.67 8.66 3.24 8.06 2.98 7.74 2.94 2.89 2.85 2.19 3.33 1.76 3.69 1.76 4.18 1.84 4.04 1.69 5.65 1.76 6.21 0.54 7 0.37 7.15 0.54 7 1.33 7.58 1.44 7.9 1.91 9.12 1.88 9.64 1.87 10.01 1.88 9.37 1.88 9.68 2.06 10.45 2.34 10.84 2.84 11.14 3.24 11.4 7.74 11.4"/><path class="cls-2" d="M9.92,7a1.62,1.62,0,0,1-.29-.12,1.12,1.12,0,0,1-.28-.2,1.07,1.07,0,0,1-.19-.26A1.23,1.23,0,0,1,9,6a4.14,4.14,0,0,1,0-.53q0-.31,0-.77v.16c0-.21,0-.42,0-.65a1.59,1.59,0,0,0-.18-.62,1.25,1.25,0,0,0-.47-.48,2,2,0,0,0-.91-.23V2.71l.24,0,.3,0,.32.1a1.28,1.28,0,0,1,.31.18,1.48,1.48,0,0,1,.37.4,1.63,1.63,0,0,1,.19.48,3.1,3.1,0,0,1,.07.57c0,.21,0,.84,0,.84A3.51,3.51,0,0,0,9.26,6a1.05,1.05,0,0,0,.21.47,1.18,1.18,0,0,0,.44.32C10.1,6.9,10,7,9.92,7Z"/><path class="cls-2" d="M3.47,2.91a2,2,0,0,0-.91.23,1.25,1.25,0,0,0-.47.48,1.6,1.6,0,0,0-.18.62q0,.33,0,.65V4.73c0,.3,0,.56,0,.77a4.12,4.12,0,0,1,0,.53,1.22,1.22,0,0,1-.11.37,1.05,1.05,0,0,1-.19.26,1.12,1.12,0,0,1-.28.21L1,7,.69,7c-.08,0-.08,0,0,.05L1,7.16a1.62,1.62,0,0,1,.29.12,1.12,1.12,0,0,1,.28.2,1.07,1.07,0,0,1,.19.26,1.23,1.23,0,0,1,.11.37,4.14,4.14,0,0,1,0,.53q0,.31,0,.77V9.26c0,.21,0,.42,0,.65a1.59,1.59,0,0,0,.18.62,1.25,1.25,0,0,0,.47.48,2,2,0,0,0,.91.23v.19l-.24,0-.3,0-.32-.1a1.28,1.28,0,0,1-.31-.18,1.48,1.48,0,0,1-.37-.4,1.63,1.63,0,0,1-.19-.48,3.1,3.1,0,0,1-.07-.57c0-.21,0-.84,0-.84a3.51,3.51,0,0,0-.05-.66,1.05,1.05,0,0,0-.21-.47A1.18,1.18,0,0,0,1,7.33a.31.31,0,0,1,0-.52,1.18,1.18,0,0,0,.44-.32A1.06,1.06,0,0,0,1.62,6a3.51,3.51,0,0,0,.05-.66s0-1.24.08-1.41a1.62,1.62,0,0,1,.19-.47,1.47,1.47,0,0,1,.37-.4,1.29,1.29,0,0,1,.31-.18l.32-.1.3,0,.24,0Z"/><polygon class="cls-1" points="10.74 13.4 11.76 12.86 12.04 11.66 12.04 11.1 12.19 9.9 12.54 9.45 13.44 9 12.54 9 12.54 9 12.54 9 13.16 8.89 12.22 8.2 12.17 7.73 12.17 6.86 12.04 5.67 11.66 5.24 11.06 4.98 10.74 4.94 5.89 4.85 5.19 5.33 4.76 5.69 4.76 6.18 4.84 6.04 4.69 7.65 4.76 8.21 3.54 9 3.37 9.15 3.54 9 4.33 9.58 4.44 9.9 4.91 11.12 4.88 11.64 4.87 12.01 4.88 11.37 4.88 11.68 5.06 12.45 5.34 12.84 5.84 13.14 6.24 13.4 10.74 13.4"/><path class="cls-3" d="M10.4,13.23a2,2,0,0,0,.91-.23,1.25,1.25,0,0,0,.47-.48A1.6,1.6,0,0,0,12,11.9q0-.33,0-.65v.16c0-.3,0-.56,0-.77a4.12,4.12,0,0,1,0-.53,1.22,1.22,0,0,1,.11-.37,1.05,1.05,0,0,1,.19-.26,1.12,1.12,0,0,1,.28-.21l.29-.12.26-.06c.08,0,.08,0,0-.05L12.92,9a1.62,1.62,0,0,1-.29-.12,1.12,1.12,0,0,1-.28-.2,1.07,1.07,0,0,1-.19-.26A1.23,1.23,0,0,1,12,8a4.14,4.14,0,0,1,0-.53q0-.31,0-.77v.16c0-.21,0-.42,0-.65a1.59,1.59,0,0,0-.18-.62,1.25,1.25,0,0,0-.47-.48,2,2,0,0,0-.91-.23V4.71l.24,0,.3,0,.32.1a1.28,1.28,0,0,1,.31.18,1.48,1.48,0,0,1,.37.4,1.63,1.63,0,0,1,.19.48,3.1,3.1,0,0,1,.07.57c0,.21,0,.84,0,.84a3.51,3.51,0,0,0,.05.66,1.05,1.05,0,0,0,.21.47,1.18,1.18,0,0,0,.44.32.31.31,0,0,1,0,.52,1.18,1.18,0,0,0-.44.32,1.06,1.06,0,0,0-.21.47,3.51,3.51,0,0,0-.05.66s0,1.24-.08,1.41a1.62,1.62,0,0,1-.19.47,1.47,1.47,0,0,1-.37.4,1.29,1.29,0,0,1-.31.18l-.32.1-.3,0-.24,0Z"/><path class="cls-3" d="M6.47,4.91a2,2,0,0,0-.91.23,1.25,1.25,0,0,0-.47.48,1.6,1.6,0,0,0-.18.62q0,.33,0,.65V6.73c0,.3,0,.56,0,.77a4.12,4.12,0,0,1,0,.53,1.22,1.22,0,0,1-.11.37,1.05,1.05,0,0,1-.19.26,1.12,1.12,0,0,1-.28.21L4,9,3.69,9c-.08,0-.08,0,0,.05L4,9.16a1.62,1.62,0,0,1,.29.12,1.12,1.12,0,0,1,.28.2,1.07,1.07,0,0,1,.19.26,1.23,1.23,0,0,1,.11.37,4.14,4.14,0,0,1,0,.53q0,.31,0,.77v-.16c0,.21,0,.42,0,.65a1.59,1.59,0,0,0,.18.62,1.25,1.25,0,0,0,.47.48,2,2,0,0,0,.91.23v.19l-.24,0-.3,0-.32-.1a1.28,1.28,0,0,1-.31-.18,1.48,1.48,0,0,1-.37-.4,1.63,1.63,0,0,1-.19-.48,3.1,3.1,0,0,1-.07-.57c0-.21,0-.84,0-.84a3.51,3.51,0,0,0-.05-.66,1.05,1.05,0,0,0-.21-.47A1.18,1.18,0,0,0,4,9.33a.31.31,0,0,1,0-.52,1.18,1.18,0,0,0,.44-.32A1.06,1.06,0,0,0,4.62,8a3.51,3.51,0,0,0,.05-.66s0-1.24.08-1.41a1.62,1.62,0,0,1,.19-.47,1.47,1.47,0,0,1,.37-.4,1.29,1.29,0,0,1,.31-.18l.32-.1.3,0,.24,0Z"/></svg>