<svg id="Layer_1" data-name="Layer 1" xmlns="http://www.w3.org/2000/svg" viewBox="0 0 16 16"><defs><style>.cls-1{fill:#def4fd;}.cls-2,.cls-3{fill:#34495e;stroke-miterlimit:10;stroke-width:0.5px;}.cls-2{stroke:#717f8e;}.cls-3{stroke:#34495e;}.cls-4,.cls-5{fill:#2980b9;stroke:#2980b9;stroke-linecap:round;stroke-linejoin:round;}.cls-4{stroke-width:0.75px;}</style></defs><title>coll-trigger_function</title><polygon class="cls-1" points="7.74 10.4 8.76 9.86 9.04 8.66 9.04 8.1 9.19 6.9 9.54 6.45 10.44 6 9.54 6 9.54 6 9.54 6 10.16 5.89 9.22 5.2 9.17 4.73 9.17 3.86 9.04 2.67 8.66 2.24 8.06 1.98 7.74 1.94 2.89 1.85 2.19 2.33 1.76 2.69 1.76 3.18 1.84 3.04 1.69 4.65 1.76 5.21 0.54 6 0.37 6.15 0.54 6 1.33 6.58 1.44 6.9 1.91 8.12 1.88 8.64 1.87 9.01 1.88 8.37 1.88 8.68 2.06 9.45 2.34 9.84 2.84 10.14 3.24 10.4 7.74 10.4"/><path class="cls-2" d="M9.92,6a1.62,1.62,0,0,1-.29-.12,1.12,1.12,0,0,1-.28-.2,1.07,1.07,0,0,1-.19-.26A1.23,1.23,0,0,1,9,5a4.14,4.14,0,0,1,0-.53q0-.31,0-.77v.16c0-.21,0-.42,0-.65a1.59,1.59,0,0,0-.18-.62,1.25,1.25,0,0,0-.47-.48,2,2,0,0,0-.91-.23V1.71l.24,0,.3,0,.32.1a1.28,1.28,0,0,1,.31.18,1.48,1.48,0,0,1,.37.4,1.63,1.63,0,0,1,.19.48,3.1,3.1,0,0,1,.07.57c0,.21,0,.84,0,.84A3.51,3.51,0,0,0,9.26,5a1.05,1.05,0,0,0,.21.47,1.18,1.18,0,0,0,.44.32C10.1,5.9,10,6,9.92,6Z"/><path class="cls-2" d="M3.47,1.91a2,2,0,0,0-.91.23,1.25,1.25,0,0,0-.47.48,1.6,1.6,0,0,0-.18.62q0,.33,0,.65V3.73c0,.3,0,.56,0,.77a4.12,4.12,0,0,1,0,.53,1.22,1.22,0,0,1-.11.37,1.05,1.05,0,0,1-.19.26,1.12,1.12,0,0,1-.28.21L1,6,.69,6c-.08,0-.08,0,0,.05L1,6.16a1.62,1.62,0,0,1,.29.12,1.12,1.12,0,0,1,.28.2,1.07,1.07,0,0,1,.19.26,1.23,1.23,0,0,1,.11.37,4.14,4.14,0,0,1,0,.53q0,.31,0,.77V8.26c0,.21,0,.42,0,.65a1.59,1.59,0,0,0,.18.62,1.25,1.25,0,0,0,.47.48,2,2,0,0,0,.91.23v.19l-.24,0-.3,0-.32-.1a1.28,1.28,0,0,1-.31-.18,1.48,1.48,0,0,1-.37-.4,1.63,1.63,0,0,1-.19-.48,3.1,3.1,0,0,1-.07-.57c0-.21,0-.84,0-.84a3.51,3.51,0,0,0-.05-.66,1.05,1.05,0,0,0-.21-.47A1.18,1.18,0,0,0,1,6.33a.31.31,0,0,1,0-.52,1.18,1.18,0,0,0,.44-.32A1.06,1.06,0,0,0,1.62,5a3.51,3.51,0,0,0,.05-.66s0-1.24.08-1.41a1.62,1.62,0,0,1,.19-.47,1.47,1.47,0,0,1,.37-.4,1.29,1.29,0,0,1,.31-.18l.32-.1.3,0,.24,0Z"/><polygon class="cls-1" points="10.74 12.4 11.76 11.86 12.04 10.66 12.04 10.1 12.19 8.9 12.54 8.45 13.44 8 12.54 8 12.54 8 12.54 8 13.16 7.89 12.22 7.2 12.17 6.73 12.17 5.86 12.04 4.67 11.66 4.24 11.06 3.98 10.74 3.94 5.89 3.85 5.19 4.33 4.76 4.69 4.76 5.18 4.84 5.04 4.69 6.65 4.76 7.21 3.54 8 3.37 8.15 3.54 8 4.33 8.58 4.44 8.9 4.91 10.12 4.88 10.64 4.87 11.01 4.88 10.37 4.88 10.68 5.06 11.45 5.34 11.84 5.84 12.14 6.24 12.4 10.74 12.4"/><path class="cls-3" d="M12.36,8.48a1.12,1.12,0,0,1,.28-.21l.29-.12.26-.06c.08,0,.08,0,0-.05L12.92,8a1.62,1.62,0,0,1-.29-.12,1.12,1.12,0,0,1-.28-.2,1.07,1.07,0,0,1-.19-.26A1.23,1.23,0,0,1,12,7a4.14,4.14,0,0,1,0-.53q0-.31,0-.77v.16c0-.21,0-.42,0-.65a1.59,1.59,0,0,0-.18-.62,1.25,1.25,0,0,0-.47-.48,2,2,0,0,0-.91-.23V3.71l.24,0,.3,0,.32.1a1.28,1.28,0,0,1,.31.18,1.48,1.48,0,0,1,.37.4,1.63,1.63,0,0,1,.19.48,3.1,3.1,0,0,1,.07.57c0,.21,0,.84,0,.84a3.51,3.51,0,0,0,.05.66,1.05,1.05,0,0,0,.21.47,1.18,1.18,0,0,0,.44.32.31.31,0,0,1,0,.52C12.72,8.41,12.28,8.56,12.36,8.48Z"/><path class="cls-3" d="M6.47,3.91a2,2,0,0,0-.91.23,1.25,1.25,0,0,0-.47.48,1.6,1.6,0,0,0-.18.62q0,.33,0,.65V5.73c0,.3,0,.56,0,.77a4.12,4.12,0,0,1,0,.53,1.22,1.22,0,0,1-.11.37,1.05,1.05,0,0,1-.19.26,1.12,1.12,0,0,1-.28.21L4,8,3.69,8c-.08,0-.08,0,0,.05L4,8.16a1.62,1.62,0,0,1,.29.12,1.12,1.12,0,0,1,.28.2,1.07,1.07,0,0,1,.19.26,1.23,1.23,0,0,1,.11.37,4.14,4.14,0,0,1,0,.53q0,.31,0,.77v-.16c0,.21,0,.42,0,.65a1.59,1.59,0,0,0,.18.62,1.25,1.25,0,0,0,.47.48,2,2,0,0,0,.91.23v.19l-.24,0-.3,0-.32-.1a1.28,1.28,0,0,1-.31-.18,1.48,1.48,0,0,1-.37-.4,1.63,1.63,0,0,1-.19-.48,3.1,3.1,0,0,1-.07-.57c0-.21,0-.84,0-.84a3.51,3.51,0,0,0-.05-.66,1.05,1.05,0,0,0-.21-.47A1.18,1.18,0,0,0,4,8.33a.31.31,0,0,1,0-.52,1.18,1.18,0,0,0,.44-.32A1.06,1.06,0,0,0,4.62,7a3.51,3.51,0,0,0,.05-.66s0-1.24.08-1.41a1.62,1.62,0,0,1,.19-.47,1.47,1.47,0,0,1,.37-.4,1.29,1.29,0,0,1,.31-.18l.32-.1.3,0,.24,0Z"/><line class="cls-4" x1="7" y1="6" x2="10" y2="6"/><line class="cls-4" x1="7" y1="8" x2="10" y2="8"/><line class="cls-4" x1="7" y1="10" x2="9" y2="10"/><line class="cls-5" x1="9.93" y1="11.94" x2="12.28" y2="11.94"/><polygon class="cls-5" points="14.52 11.98 12.24 14.18 12.32 9.7 14.52 11.98"/></svg>