<svg xmlns="http://www.w3.org/2000/svg" viewBox="0 0 16 16"><defs><style>.cls-1{fill:#def4fd;}.cls-2,.cls-3{fill:#34495e;stroke-miterlimit:10;stroke-width:0.5px;}.cls-2{stroke:#717f8e;}.cls-3{stroke:#34495e;}.cls-4{fill:#2980b9;stroke:#2980b9;stroke-linecap:round;stroke-linejoin:round;stroke-width:0.75px;}</style></defs><title>coll-function</title><g id="_2" data-name="2"><polygon class="cls-1" points="8.91 11.33 9.92 10.79 10.2 9.59 10.2 9.03 10.35 7.83 10.71 7.38 11.61 6.93 10.71 6.93 10.71 6.93 10.71 6.93 11.33 6.82 10.39 6.13 10.34 5.66 10.34 4.79 10.2 3.6 9.83 3.17 9.23 2.91 8.91 2.87 4.06 2.78 3.36 3.26 2.93 3.62 2.93 4.11 3 3.97 2.85 5.58 2.93 6.14 1.71 6.93 1.54 7.08 1.71 6.93 2.5 7.51 2.61 7.83 3.08 9.05 3.05 9.58 3.03 9.94 3.05 9.3 3.05 9.61 3.23 10.38 3.51 10.77 4.01 11.07 4.41 11.33 8.91 11.33"/><path class="cls-2" d="M11.08,6.91a1.62,1.62,0,0,1-.29-.12,1.12,1.12,0,0,1-.28-.2,1.07,1.07,0,0,1-.19-.26A1.23,1.23,0,0,1,10.21,6a4.14,4.14,0,0,1,0-.53q0-.31,0-.77v.16c0-.21,0-.42,0-.65A1.59,1.59,0,0,0,10,3.54a1.25,1.25,0,0,0-.47-.48,2,2,0,0,0-.91-.23V2.64l.24,0,.3,0,.32.1A1.28,1.28,0,0,1,9.73,3a1.48,1.48,0,0,1,.37.4,1.63,1.63,0,0,1,.19.48,3.1,3.1,0,0,1,.07.57c0,.21,0,.84,0,.84a3.51,3.51,0,0,0,.05.66,1.05,1.05,0,0,0,.21.47,1.18,1.18,0,0,0,.44.32C11.27,6.83,11.18,6.94,11.08,6.91Z"/><path class="cls-2" d="M4.64,2.84a2,2,0,0,0-.91.23,1.25,1.25,0,0,0-.47.48,1.6,1.6,0,0,0-.18.62q0,.33,0,.65V4.66c0,.3,0,.56,0,.77A4.12,4.12,0,0,1,3,6a1.22,1.22,0,0,1-.11.37,1.05,1.05,0,0,1-.19.26,1.12,1.12,0,0,1-.28.21l-.29.12L1.86,7c-.08,0-.08,0,0,.05l.26.06a1.62,1.62,0,0,1,.29.12,1.12,1.12,0,0,1,.28.2,1.07,1.07,0,0,1,.19.26A1.23,1.23,0,0,1,3,8a4.14,4.14,0,0,1,0,.53q0,.31,0,.77V9.19c0,.21,0,.42,0,.65a1.59,1.59,0,0,0,.18.62,1.25,1.25,0,0,0,.47.48,2,2,0,0,0,.91.23v.19l-.24,0-.3,0-.32-.1A1.28,1.28,0,0,1,3.47,11a1.48,1.48,0,0,1-.37-.4,1.63,1.63,0,0,1-.19-.48,3.1,3.1,0,0,1-.07-.57c0-.21,0-.84,0-.84a3.51,3.51,0,0,0-.05-.66,1.05,1.05,0,0,0-.21-.47,1.18,1.18,0,0,0-.44-.32.31.31,0,0,1,0-.52,1.18,1.18,0,0,0,.44-.32,1.06,1.06,0,0,0,.21-.47,3.51,3.51,0,0,0,.05-.66s0-1.24.08-1.41a1.62,1.62,0,0,1,.19-.47A1.47,1.47,0,0,1,3.47,3a1.29,1.29,0,0,1,.31-.18l.32-.1.3,0,.24,0Z"/><polygon class="cls-1" points="11.91 13.33 12.92 12.79 13.2 11.59 13.2 11.03 13.35 9.83 13.71 9.38 14.61 8.93 13.71 8.93 13.71 8.93 13.71 8.93 14.33 8.82 13.39 8.13 13.34 7.66 13.34 6.79 13.2 5.61 12.83 5.17 12.23 4.91 11.91 4.87 7.06 4.78 6.36 5.26 5.93 5.62 5.93 6.11 6 5.97 5.85 7.58 5.93 8.14 4.71 8.93 4.54 9.08 4.71 8.93 5.5 9.51 5.61 9.83 6.08 11.05 6.05 11.58 6.03 11.94 6.05 11.3 6.05 11.61 6.22 12.38 6.51 12.77 7.01 13.07 7.41 13.33 11.91 13.33"/><path class="cls-3" d="M11.57,13.16a2,2,0,0,0,.91-.23,1.25,1.25,0,0,0,.47-.48,1.6,1.6,0,0,0,.18-.62q0-.33,0-.65v.16c0-.3,0-.56,0-.77a4.12,4.12,0,0,1,0-.53,1.22,1.22,0,0,1,.11-.37,1.05,1.05,0,0,1,.19-.26,1.12,1.12,0,0,1,.28-.21l.29-.12L14.35,9c.08,0,.08,0,0-.05l-.26-.06a1.62,1.62,0,0,1-.29-.12,1.12,1.12,0,0,1-.28-.2,1.07,1.07,0,0,1-.19-.26A1.23,1.23,0,0,1,13.21,8a4.14,4.14,0,0,1,0-.53q0-.31,0-.77v.16c0-.21,0-.42,0-.65A1.59,1.59,0,0,0,13,5.54a1.25,1.25,0,0,0-.47-.48,2,2,0,0,0-.91-.23V4.64l.24,0,.3,0,.32.1a1.28,1.28,0,0,1,.31.18,1.48,1.48,0,0,1,.37.4,1.63,1.63,0,0,1,.19.48,3.1,3.1,0,0,1,.07.57c0,.21,0,.84,0,.84a3.51,3.51,0,0,0,.05.66,1.05,1.05,0,0,0,.21.47,1.18,1.18,0,0,0,.44.32.31.31,0,0,1,0,.52,1.18,1.18,0,0,0-.44.32,1.06,1.06,0,0,0-.21.47,3.51,3.51,0,0,0-.05.66s0,1.24-.08,1.41a1.62,1.62,0,0,1-.19.47,1.47,1.47,0,0,1-.37.4,1.29,1.29,0,0,1-.31.18l-.32.1-.3,0-.24,0Z"/><path class="cls-3" d="M7.64,4.84a2,2,0,0,0-.91.23,1.25,1.25,0,0,0-.47.48,1.6,1.6,0,0,0-.18.62q0,.33,0,.65V6.66c0,.3,0,.56,0,.77A4.12,4.12,0,0,1,6,8a1.22,1.22,0,0,1-.11.37,1.05,1.05,0,0,1-.19.26,1.12,1.12,0,0,1-.28.21l-.29.12L4.86,9c-.08,0-.08,0,0,.05l.26.06a1.62,1.62,0,0,1,.29.12,1.12,1.12,0,0,1,.28.2,1.07,1.07,0,0,1,.19.26A1.23,1.23,0,0,1,6,10a4.14,4.14,0,0,1,0,.53q0,.31,0,.77v-.16c0,.21,0,.42,0,.65a1.59,1.59,0,0,0,.18.62,1.25,1.25,0,0,0,.47.48,2,2,0,0,0,.91.23v.19l-.24,0-.3,0-.32-.1A1.28,1.28,0,0,1,6.47,13a1.48,1.48,0,0,1-.37-.4,1.63,1.63,0,0,1-.19-.48,3.1,3.1,0,0,1-.07-.57c0-.21,0-.84,0-.84a3.51,3.51,0,0,0-.05-.66,1.05,1.05,0,0,0-.21-.47,1.18,1.18,0,0,0-.44-.32.31.31,0,0,1,0-.52,1.18,1.18,0,0,0,.44-.32,1.06,1.06,0,0,0,.21-.47,3.51,3.51,0,0,0,.05-.66s0-1.24.08-1.41a1.62,1.62,0,0,1,.19-.47A1.47,1.47,0,0,1,6.47,5a1.29,1.29,0,0,1,.31-.18l.32-.1.3,0,.24,0Z"/><line class="cls-4" x1="8.17" y1="6.93" x2="11.17" y2="6.93"/><line class="cls-4" x1="8.17" y1="8.93" x2="11.17" y2="8.93"/><line class="cls-4" x1="8.17" y1="10.93" x2="10.17" y2="10.93"/></g></svg>