<svg xmlns="http://www.w3.org/2000/svg" viewBox="0 0 16 16"><defs><style>.cls-1{fill:#edfffd;}.cls-2{fill:#34495e;stroke-miterlimit:10;stroke-width:0.5px;}.cls-2,.cls-3{stroke:#2f91a3;}.cls-3{fill:#2980b9;stroke-linecap:round;stroke-linejoin:round;stroke-width:0.75px;}</style></defs><title>function</title><g id="_2" data-name="2"><polygon class="cls-1" points="10.99 13.41 12.26 12.74 12.61 11.24 12.61 10.54 12.8 9.04 13.24 8.48 14.37 7.92 13.24 7.92 13.24 7.92 13.24 7.92 14.02 7.78 12.85 6.91 12.78 6.32 12.78 5.24 12.61 3.76 12.14 3.21 11.39 2.88 10.99 2.84 4.93 2.72 4.06 3.33 3.52 3.77 3.52 4.38 3.61 4.21 3.42 6.23 3.52 6.93 2 7.92 1.78 8.11 2 7.92 2.98 8.63 3.12 9.04 3.7 10.56 3.67 11.22 3.65 11.68 3.67 10.88 3.67 11.27 3.89 12.23 4.24 12.71 4.87 13.09 5.37 13.41 10.99 13.41"/><path class="cls-2" d="M10.57,13.2a2.46,2.46,0,0,0,1.14-.28,1.56,1.56,0,0,0,.59-.6,2,2,0,0,0,.22-.78q0-.42,0-.81v.2c0-.38,0-.7,0-1a5.15,5.15,0,0,1,.06-.67,1.53,1.53,0,0,1,.14-.46A1.32,1.32,0,0,1,13,8.51a1.4,1.4,0,0,1,.34-.26,2.21,2.21,0,0,1,.36-.15A2,2,0,0,1,14,8c.1,0,.1-.05,0-.07a2,2,0,0,1-.33-.07,2,2,0,0,1-.36-.15A1.4,1.4,0,0,1,13,7.49a1.34,1.34,0,0,1-.24-.33,1.54,1.54,0,0,1-.14-.46A5.17,5.17,0,0,1,12.56,6q0-.39,0-1v.2c0-.26,0-.53,0-.81a2,2,0,0,0-.22-.78,1.57,1.57,0,0,0-.59-.6,2.48,2.48,0,0,0-1.14-.28V2.55l.3,0a2.29,2.29,0,0,1,.37.06,2.84,2.84,0,0,1,.4.13A1.61,1.61,0,0,1,12,3a1.85,1.85,0,0,1,.46.5,2,2,0,0,1,.24.59,3.87,3.87,0,0,1,.09.72c0,.26,0,1,0,1a4.39,4.39,0,0,0,.07.83,1.32,1.32,0,0,0,.26.59,1.47,1.47,0,0,0,.55.41.38.38,0,0,1,0,.65,1.48,1.48,0,0,0-.55.4,1.33,1.33,0,0,0-.26.59,4.39,4.39,0,0,0-.07.83s-.05,1.54-.1,1.76a2,2,0,0,1-.24.59A1.84,1.84,0,0,1,12,13a1.61,1.61,0,0,1-.39.23,3,3,0,0,1-.4.13,2.41,2.41,0,0,1-.37.06l-.3,0Z"/><path class="cls-2" d="M5.66,2.8a2.46,2.46,0,0,0-1.14.28,1.56,1.56,0,0,0-.59.6,2,2,0,0,0-.22.78q0,.42,0,.81v-.2c0,.38,0,.7,0,1a5.15,5.15,0,0,1-.06.67,1.53,1.53,0,0,1-.14.46,1.32,1.32,0,0,1-.24.33,1.4,1.4,0,0,1-.34.26,2.21,2.21,0,0,1-.36.15A2,2,0,0,1,2.18,8c-.1,0-.1.05,0,.07a2,2,0,0,1,.33.07,2,2,0,0,1,.36.15,1.4,1.4,0,0,1,.34.26,1.34,1.34,0,0,1,.24.33,1.54,1.54,0,0,1,.14.46,5.17,5.17,0,0,1,.06.67q0,.39,0,1v-.2c0,.26,0,.53,0,.81a2,2,0,0,0,.22.78,1.57,1.57,0,0,0,.59.6,2.48,2.48,0,0,0,1.14.28v.24l-.3,0A2.29,2.29,0,0,1,5,13.36a2.84,2.84,0,0,1-.4-.13A1.61,1.61,0,0,1,4.2,13a1.85,1.85,0,0,1-.46-.5,2,2,0,0,1-.24-.59,3.87,3.87,0,0,1-.09-.72c0-.26,0-1,0-1a4.39,4.39,0,0,0-.07-.83,1.32,1.32,0,0,0-.26-.59,1.47,1.47,0,0,0-.55-.41.38.38,0,0,1,0-.65,1.48,1.48,0,0,0,.55-.4,1.33,1.33,0,0,0,.26-.59,4.39,4.39,0,0,0,.07-.83s.05-1.54.1-1.76a2,2,0,0,1,.24-.59A1.84,1.84,0,0,1,4.2,3a1.61,1.61,0,0,1,.39-.23A3,3,0,0,1,5,2.64a2.41,2.41,0,0,1,.37-.06l.3,0Z"/><line class="cls-3" x1="6.32" y1="5.41" x2="10.07" y2="5.41"/><line class="cls-3" x1="6.32" y1="7.91" x2="10.07" y2="7.91"/><line class="cls-3" x1="6.32" y1="10.41" x2="8.82" y2="10.41"/></g></svg>