<svg xmlns="http://www.w3.org/2000/svg" viewBox="0 0 16 16"><defs><style>.cls-1{fill:#edfffd;}.cls-2{fill:#34495e;stroke:#2f91a3;stroke-miterlimit:10;stroke-width:0.5px;}</style></defs><title>procedure</title><g id="_2" data-name="2"><polygon class="cls-1" points="10.92 13.41 12.19 12.74 12.54 11.24 12.54 10.54 12.72 9.04 13.17 8.48 14.3 7.92 13.17 7.92 13.17 7.92 13.17 7.92 13.94 7.78 12.77 6.91 12.7 6.32 12.7 5.24 12.54 3.76 12.07 3.21 11.32 2.88 10.92 2.84 4.85 2.72 3.98 3.33 3.44 3.77 3.44 4.38 3.54 4.21 3.35 6.23 3.44 6.93 1.92 7.92 1.7 8.11 1.92 7.92 2.9 8.63 3.05 9.04 3.63 10.56 3.59 11.22 3.58 11.68 3.59 10.88 3.59 11.27 3.81 12.23 4.17 12.71 4.79 13.09 5.3 13.41 10.92 13.41"/><path class="cls-2" d="M10.49,13.2a2.46,2.46,0,0,0,1.14-.28,1.56,1.56,0,0,0,.59-.6,2,2,0,0,0,.22-.78q0-.42,0-.81v.2c0-.38,0-.7,0-1a5.15,5.15,0,0,1,.06-.67,1.53,1.53,0,0,1,.14-.46,1.32,1.32,0,0,1,.24-.33,1.4,1.4,0,0,1,.34-.26,2.21,2.21,0,0,1,.36-.15A2,2,0,0,1,14,8c.1,0,.1-.05,0-.07a2,2,0,0,1-.33-.07,2,2,0,0,1-.36-.15,1.4,1.4,0,0,1-.34-.26,1.34,1.34,0,0,1-.24-.33,1.54,1.54,0,0,1-.14-.46A5.17,5.17,0,0,1,12.49,6q0-.39,0-1v.2c0-.26,0-.53,0-.81a2,2,0,0,0-.22-.78,1.57,1.57,0,0,0-.59-.6,2.48,2.48,0,0,0-1.14-.28V2.55l.3,0a2.29,2.29,0,0,1,.37.06,2.84,2.84,0,0,1,.4.13A1.61,1.61,0,0,1,12,3a1.85,1.85,0,0,1,.46.5,2,2,0,0,1,.24.59,3.87,3.87,0,0,1,.09.72c0,.26,0,1,0,1a4.39,4.39,0,0,0,.07.83,1.32,1.32,0,0,0,.26.59,1.47,1.47,0,0,0,.55.41.38.38,0,0,1,0,.65,1.48,1.48,0,0,0-.55.4,1.33,1.33,0,0,0-.26.59,4.39,4.39,0,0,0-.07.83s-.05,1.54-.1,1.76a2,2,0,0,1-.24.59A1.84,1.84,0,0,1,12,13a1.61,1.61,0,0,1-.39.23,3,3,0,0,1-.4.13,2.41,2.41,0,0,1-.37.06l-.3,0Z"/><path class="cls-2" d="M5.58,2.8a2.46,2.46,0,0,0-1.14.28,1.56,1.56,0,0,0-.59.6,2,2,0,0,0-.22.78q0,.42,0,.81v-.2c0,.38,0,.7,0,1a5.15,5.15,0,0,1-.06.67,1.53,1.53,0,0,1-.14.46,1.32,1.32,0,0,1-.24.33,1.4,1.4,0,0,1-.34.26,2.21,2.21,0,0,1-.36.15A2,2,0,0,1,2.11,8C2,8,2,8,2.11,8a2,2,0,0,1,.33.07,2,2,0,0,1,.36.15,1.4,1.4,0,0,1,.34.26,1.34,1.34,0,0,1,.24.33,1.54,1.54,0,0,1,.14.46,5.17,5.17,0,0,1,.06.67q0,.39,0,1v-.2c0,.26,0,.53,0,.81a2,2,0,0,0,.22.78,1.57,1.57,0,0,0,.59.6,2.48,2.48,0,0,0,1.14.28v.24l-.3,0a2.29,2.29,0,0,1-.37-.06,2.84,2.84,0,0,1-.4-.13A1.61,1.61,0,0,1,4.12,13a1.85,1.85,0,0,1-.46-.5,2,2,0,0,1-.24-.59,3.87,3.87,0,0,1-.09-.72c0-.26,0-1,0-1a4.39,4.39,0,0,0-.07-.83A1.32,1.32,0,0,0,3,8.73a1.47,1.47,0,0,0-.55-.41.38.38,0,0,1,0-.65A1.48,1.48,0,0,0,3,7.27a1.33,1.33,0,0,0,.26-.59,4.39,4.39,0,0,0,.07-.83s.05-1.54.1-1.76a2,2,0,0,1,.24-.59A1.84,1.84,0,0,1,4.12,3a1.61,1.61,0,0,1,.39-.23,3,3,0,0,1,.4-.13,2.41,2.41,0,0,1,.37-.06l.3,0Z"/></g></svg>