<svg id="Layer_1" data-name="Layer 1" xmlns="http://www.w3.org/2000/svg" viewBox="0 0 16 16"><defs><style>.cls-1{fill:#def4fd;}.cls-2{fill:#34495e;stroke:#34495e;stroke-miterlimit:10;stroke-width:0.5px;}</style></defs><title>procedure</title><polygon class="cls-1" points="9.33 13.48 10.59 12.8 10.94 11.3 10.94 10.61 11.13 9.11 11.58 8.55 12.7 7.98 11.58 7.98 11.58 7.98 11.58 7.98 12.35 7.84 11.18 6.98 11.11 6.39 11.11 5.31 10.94 3.83 10.48 3.28 9.73 2.95 9.33 2.91 3.26 2.79 2.39 3.4 1.85 3.84 1.85 4.45 1.94 4.28 1.76 6.3 1.85 7 0.33 7.98 0.11 8.17 0.33 7.98 1.31 8.7 1.45 9.11 2.04 10.63 2 11.29 1.98 11.75 2 10.95 2 11.34 2.22 12.3 2.57 12.78 3.2 13.15 3.7 13.48 9.33 13.48"/><path class="cls-2" d="M8.9,13.27A2.46,2.46,0,0,0,10,13a1.56,1.56,0,0,0,.59-.6,2,2,0,0,0,.22-.78q0-.42,0-.81V11c0-.38,0-.7,0-1A5.15,5.15,0,0,1,11,9.37a1.53,1.53,0,0,1,.14-.46,1.32,1.32,0,0,1,.24-.33,1.4,1.4,0,0,1,.34-.26A2.21,2.21,0,0,1,12,8.18a2,2,0,0,1,.33-.07c.1,0,.1-.05,0-.07A2,2,0,0,1,12,8a2,2,0,0,1-.36-.15,1.4,1.4,0,0,1-.34-.26,1.34,1.34,0,0,1-.24-.33A1.54,1.54,0,0,1,11,6.77a5.17,5.17,0,0,1-.06-.67q0-.39,0-1v.2c0-.26,0-.53,0-.81a2,2,0,0,0-.22-.78,1.57,1.57,0,0,0-.59-.6A2.48,2.48,0,0,0,8.9,2.87V2.62l.3,0a2.29,2.29,0,0,1,.37.06,2.84,2.84,0,0,1,.4.13,1.61,1.61,0,0,1,.39.23,1.85,1.85,0,0,1,.46.5,2,2,0,0,1,.24.59,3.87,3.87,0,0,1,.09.72c0,.26,0,1,0,1a4.39,4.39,0,0,0,.07.83,1.32,1.32,0,0,0,.26.59,1.47,1.47,0,0,0,.55.41.38.38,0,0,1,0,.65,1.48,1.48,0,0,0-.55.4,1.33,1.33,0,0,0-.26.59,4.39,4.39,0,0,0-.07.83s-.05,1.54-.1,1.76a2,2,0,0,1-.24.59,1.84,1.84,0,0,1-.46.5,1.61,1.61,0,0,1-.39.23,3,3,0,0,1-.4.13,2.41,2.41,0,0,1-.37.06l-.3,0Z"/><path class="cls-2" d="M4,2.87a2.46,2.46,0,0,0-1.14.28,1.56,1.56,0,0,0-.59.6A2,2,0,0,0,2,4.53q0,.42,0,.81v-.2c0,.38,0,.7,0,1a5.15,5.15,0,0,1-.06.67,1.53,1.53,0,0,1-.14.46,1.32,1.32,0,0,1-.24.33,1.4,1.4,0,0,1-.34.26A2.21,2.21,0,0,1,.84,8,2,2,0,0,1,.51,8c-.1,0-.1.05,0,.07a2,2,0,0,1,.33.07,2,2,0,0,1,.36.15,1.4,1.4,0,0,1,.34.26,1.34,1.34,0,0,1,.24.33,1.54,1.54,0,0,1,.14.46A5.17,5.17,0,0,1,2,10q0,.39,0,1v-.2c0,.26,0,.53,0,.81a2,2,0,0,0,.22.78,1.57,1.57,0,0,0,.59.6A2.48,2.48,0,0,0,4,13.27v.24l-.3,0a2.29,2.29,0,0,1-.37-.06,2.84,2.84,0,0,1-.4-.13,1.61,1.61,0,0,1-.39-.23,1.85,1.85,0,0,1-.46-.5A2,2,0,0,1,1.84,12a3.87,3.87,0,0,1-.09-.72c0-.26,0-1,0-1a4.39,4.39,0,0,0-.07-.83A1.32,1.32,0,0,0,1.4,8.8a1.47,1.47,0,0,0-.55-.41.38.38,0,0,1,0-.65,1.48,1.48,0,0,0,.55-.4,1.33,1.33,0,0,0,.26-.59,4.39,4.39,0,0,0,.07-.83s.05-1.54.1-1.76a2,2,0,0,1,.24-.59,1.84,1.84,0,0,1,.46-.5,1.61,1.61,0,0,1,.39-.23,3,3,0,0,1,.4-.13,2.41,2.41,0,0,1,.37-.06l.3,0Z"/></svg>