<svg id="Layer_1" data-name="Layer 1" xmlns="http://www.w3.org/2000/svg" viewBox="0 0 16 16"><defs><style>.cls-1{fill:#def4fd;}.cls-2{fill:#34495e;stroke:#34495e;stroke-miterlimit:10;stroke-width:0.5px;}.cls-3,.cls-4{fill:#2980b9;stroke:#2980b9;stroke-linecap:round;stroke-linejoin:round;}.cls-3{stroke-width:0.75px;}</style></defs><title>trigger_function</title><path class="cls-1" d="M9.33,13.48a1.26,1.26,0,0,0,1.27-.68,3.1,3.1,0,0,0,.35-1.5v-.7l.19-1.5.45-.56L12.7,8H11.58l.77-.14L11.18,7l-.07-.59V5.31l-.16-1.49-.47-.54L9.73,3l-.4,0L3.26,2.79l-.87.61-.54.45v.61l.09-.17-.19,2,.09.7L.33,8l-.22.19L.33,8l1,.72.14.41L2,10.63l0,.66,0,.46,0-.8v.39l.22,1,.35.49.63.37.5.33Z"/><path class="cls-2" d="M11.69,8.33A2.21,2.21,0,0,1,12,8.18a2,2,0,0,1,.33-.07c.1,0,.1-.05,0-.07A2,2,0,0,1,12,8a2,2,0,0,1-.36-.15,1.4,1.4,0,0,1-.34-.26,1.34,1.34,0,0,1-.24-.33A1.54,1.54,0,0,1,11,6.77a5.17,5.17,0,0,1-.06-.67q0-.39,0-1v.2c0-.26,0-.53,0-.81a2,2,0,0,0-.22-.78,1.57,1.57,0,0,0-.59-.6A2.48,2.48,0,0,0,8.9,2.87V2.62l.3,0a2.29,2.29,0,0,1,.37.06,2.84,2.84,0,0,1,.4.13,1.61,1.61,0,0,1,.39.23,1.85,1.85,0,0,1,.46.5,2,2,0,0,1,.24.59,3.87,3.87,0,0,1,.09.72c0,.26,0,1,0,1a4.39,4.39,0,0,0,.07.83,1.32,1.32,0,0,0,.26.59,1.47,1.47,0,0,0,.55.41.38.38,0,0,1,0,.65C11.8,8.5,11.57,8.39,11.69,8.33Z"/><path class="cls-2" d="M4,2.87a2.46,2.46,0,0,0-1.14.28,1.56,1.56,0,0,0-.59.6A2,2,0,0,0,2,4.53q0,.42,0,.81v-.2c0,.38,0,.7,0,1a5.15,5.15,0,0,1-.06.67,1.53,1.53,0,0,1-.14.46,1.32,1.32,0,0,1-.24.33,1.4,1.4,0,0,1-.34.26A2.21,2.21,0,0,1,.84,8,2,2,0,0,1,.51,8c-.1,0-.1.05,0,.07a2,2,0,0,1,.33.07,2,2,0,0,1,.36.15,1.4,1.4,0,0,1,.34.26,1.34,1.34,0,0,1,.24.33,1.54,1.54,0,0,1,.14.46A5.17,5.17,0,0,1,2,10q0,.39,0,1v-.2c0,.26,0,.53,0,.81a2,2,0,0,0,.22.78,1.57,1.57,0,0,0,.59.6A2.48,2.48,0,0,0,4,13.27v.24l-.3,0a2.29,2.29,0,0,1-.37-.06,2.84,2.84,0,0,1-.4-.13,1.61,1.61,0,0,1-.39-.23,1.85,1.85,0,0,1-.46-.5A2,2,0,0,1,1.84,12a3.87,3.87,0,0,1-.09-.72c0-.26,0-1,0-1a4.39,4.39,0,0,0-.07-.83A1.32,1.32,0,0,0,1.4,8.8a1.47,1.47,0,0,0-.55-.41.38.38,0,0,1,0-.65,1.48,1.48,0,0,0,.55-.4,1.33,1.33,0,0,0,.26-.59,4.39,4.39,0,0,0,.07-.83s.05-1.54.1-1.76a2,2,0,0,1,.24-.59,1.84,1.84,0,0,1,.46-.5,1.61,1.61,0,0,1,.39-.23,3,3,0,0,1,.4-.13,2.41,2.41,0,0,1,.37-.06l.3,0Z"/><line class="cls-3" x1="4.65" y1="5.48" x2="8.4" y2="5.48"/><line class="cls-3" x1="4.65" y1="7.98" x2="8.4" y2="7.98"/><line class="cls-3" x1="4.65" y1="10.48" x2="7.15" y2="10.48"/><line class="cls-4" x1="8.93" y1="11.94" x2="11.28" y2="11.94"/><polygon class="cls-4" points="13.52 11.98 11.24 14.18 11.32 9.7 13.52 11.98"/></svg>