<svg xmlns="http://www.w3.org/2000/svg" viewBox="0 0 16 16"><defs><style>.cls-1{fill:#edfffd;}.cls-2{fill:#34495e;stroke-miterlimit:10;stroke-width:0.5px;}.cls-2,.cls-3,.cls-4{stroke:#2f91a3;}.cls-3,.cls-4{fill:#2980b9;stroke-linecap:round;stroke-linejoin:round;}.cls-3{stroke-width:0.75px;}</style></defs><title>trigger_function</title><g id="_2" data-name="2"><path class="cls-1" d="M10.92,13.42a1.26,1.26,0,0,0,1.27-.68,3.1,3.1,0,0,0,.35-1.5v-.7L12.73,9l.45-.56,1.13-.56H13.17l.77-.14-1.17-.87-.07-.59V5.24l-.16-1.49-.47-.54-.75-.33-.4,0L4.85,2.72,4,3.33l-.54.45v.61l.09-.17-.19,2,.09.7-1.52,1-.22.19.22-.19,1,.72L3,9l.58,1.52,0,.66,0,.46,0-.8v.39l.22,1,.35.49.63.37.5.33Z"/><path class="cls-2" d="M13.28,8.26a2.21,2.21,0,0,1,.36-.15A2,2,0,0,1,14,8c.1,0,.1-.05,0-.07a2,2,0,0,1-.33-.07,2,2,0,0,1-.36-.15,1.4,1.4,0,0,1-.34-.26,1.34,1.34,0,0,1-.24-.33,1.54,1.54,0,0,1-.14-.46A5.17,5.17,0,0,1,12.49,6q0-.39,0-1v.2c0-.26,0-.53,0-.81a2,2,0,0,0-.22-.78,1.57,1.57,0,0,0-.59-.6,2.48,2.48,0,0,0-1.14-.28V2.55l.3,0a2.29,2.29,0,0,1,.37.06,2.84,2.84,0,0,1,.4.13A1.61,1.61,0,0,1,12,3a1.85,1.85,0,0,1,.46.5,2,2,0,0,1,.24.59,3.87,3.87,0,0,1,.09.72c0,.26,0,1,0,1a4.39,4.39,0,0,0,.07.83,1.32,1.32,0,0,0,.26.59,1.47,1.47,0,0,0,.55.41.38.38,0,0,1,0,.65C13.39,8.43,13.16,8.32,13.28,8.26Z"/><path class="cls-2" d="M5.58,2.8a2.46,2.46,0,0,0-1.14.28,1.56,1.56,0,0,0-.59.6,2,2,0,0,0-.22.78q0,.42,0,.81v-.2c0,.38,0,.7,0,1a5.15,5.15,0,0,1-.06.67,1.53,1.53,0,0,1-.14.46,1.32,1.32,0,0,1-.24.33,1.4,1.4,0,0,1-.34.26,2.21,2.21,0,0,1-.36.15A2,2,0,0,1,2.11,8C2,8,2,8,2.11,8a2,2,0,0,1,.33.07,2,2,0,0,1,.36.15,1.4,1.4,0,0,1,.34.26,1.34,1.34,0,0,1,.24.33,1.54,1.54,0,0,1,.14.46,5.17,5.17,0,0,1,.06.67q0,.39,0,1v-.2c0,.26,0,.53,0,.81a2,2,0,0,0,.22.78,1.57,1.57,0,0,0,.59.6,2.48,2.48,0,0,0,1.14.28v.24l-.3,0a2.29,2.29,0,0,1-.37-.06,2.84,2.84,0,0,1-.4-.13A1.61,1.61,0,0,1,4.12,13a1.85,1.85,0,0,1-.46-.5,2,2,0,0,1-.24-.59,3.87,3.87,0,0,1-.09-.72c0-.26,0-1,0-1a4.39,4.39,0,0,0-.07-.83A1.32,1.32,0,0,0,3,8.73a1.47,1.47,0,0,0-.55-.41.38.38,0,0,1,0-.65A1.48,1.48,0,0,0,3,7.27a1.33,1.33,0,0,0,.26-.59,4.39,4.39,0,0,0,.07-.83s.05-1.54.1-1.76a2,2,0,0,1,.24-.59A1.84,1.84,0,0,1,4.12,3a1.61,1.61,0,0,1,.39-.23,3,3,0,0,1,.4-.13,2.41,2.41,0,0,1,.37-.06l.3,0Z"/><line class="cls-3" x1="6.24" y1="5.41" x2="9.99" y2="5.41"/><line class="cls-3" x1="6.24" y1="7.91" x2="9.99" y2="7.91"/><line class="cls-3" x1="6.24" y1="10.41" x2="9.99" y2="10.41"/><line class="cls-4" x1="10.52" y1="11.87" x2="12.87" y2="11.87"/><polygon class="cls-4" points="13.6 11.89 12.14 13.3 12.19 10.44 13.6 11.89"/></g></svg>