<svg id="Layer_1" data-name="Layer 1" xmlns="http://www.w3.org/2000/svg" viewBox="0 0 16 16"><defs><style>.cls-1{fill:#def4fd;}.cls-2{fill:#717f8e;}.cls-3{fill:#2880b9;}</style></defs><title>coll-type</title><path class="cls-1" d="M1.55,3h7.1a.53.53,0,0,1,.53.53V9.7a.52.52,0,0,1-.52.52H1.55A.52.52,0,0,1,1,9.7V3.5A.52.52,0,0,1,1.55,3Z"/><path class="cls-2" d="M8.65,3.35a.15.15,0,0,1,.15.15V9.7a.15.15,0,0,1-.15.15H1.55A.15.15,0,0,1,1.4,9.7V3.5a.15.15,0,0,1,.15-.15h7.1m0-.75H1.55a.9.9,0,0,0-.9.9V9.7a.9.9,0,0,0,.9.9h7.1a.9.9,0,0,0,.9-.9V3.5a.9.9,0,0,0-.9-.9Z"/><path class="cls-1" d="M3.35,4.78h7.1A.52.52,0,0,1,11,5.3v6.2a.52.52,0,0,1-.52.52H3.35a.52.52,0,0,1-.52-.52V5.3A.53.53,0,0,1,3.35,4.78Z"/><path class="cls-3" d="M10.45,5.15a.15.15,0,0,1,.15.15v6.2a.15.15,0,0,1-.15.15H3.35a.15.15,0,0,1-.15-.15V5.3a.15.15,0,0,1,.15-.15h7.1m0-.75H3.35a.9.9,0,0,0-.9.9v6.2a.9.9,0,0,0,.9.9h7.1a.9.9,0,0,0,.9-.9V5.3a.9.9,0,0,0-.9-.9Z"/></svg>