<svg xmlns="http://www.w3.org/2000/svg" viewBox="0 0 16 16"><defs><style>.cls-1{fill:#d6ffea;}.cls-2{fill:#5acb9a;}</style></defs><title>coll-type</title><g id="_2" data-name="2"><rect class="cls-1" x="3.45" y="3.45" width="7.1" height="7.1" rx="0.27" ry="0.27"/><path class="cls-2" d="M10.17,3.83v6.35H3.83V3.83h6.35m.1-.75H3.72a.65.65,0,0,0-.65.65v6.55a.65.65,0,0,0,.65.65h6.55a.65.65,0,0,0,.65-.65V3.72a.65.65,0,0,0-.65-.65Z"/><rect class="cls-1" x="5.45" y="5.45" width="7.1" height="7.1" rx="0.27" ry="0.27"/><path class="cls-2" d="M12.17,5.83v6.35H5.83V5.83h6.35m.1-.75H5.72a.65.65,0,0,0-.65.65v6.55a.65.65,0,0,0,.65.65h6.55a.65.65,0,0,0,.65-.65V5.72a.65.65,0,0,0-.65-.65Z"/></g></svg>