<svg id="Layer_1" data-name="Layer 1" xmlns="http://www.w3.org/2000/svg" viewBox="0 0 16 16"><defs><style>.cls-1{fill:#def4fd;}.cls-2{fill:#2880b9;}</style></defs><title>type</title><path class="cls-1" d="M1.35,3.78h9.1A.52.52,0,0,1,11,4.3v8.2a.52.52,0,0,1-.52.52H1.35a.53.53,0,0,1-.53-.53V4.3a.52.52,0,0,1,.52-.52Z"/><path class="cls-2" d="M10.45,4.15a.15.15,0,0,1,.15.15v8.2a.15.15,0,0,1-.15.15H1.35a.15.15,0,0,1-.15-.15V4.3a.15.15,0,0,1,.15-.15h9.1m0-.75H1.35a.9.9,0,0,0-.9.9v8.2a.9.9,0,0,0,.9.9h9.1a.9.9,0,0,0,.9-.9V4.3a.9.9,0,0,0-.9-.9Z"/></svg>