<svg xmlns="http://www.w3.org/2000/svg" viewBox="0 0 16 16"><defs><style>.cls-1{fill:#d6ffea;}.cls-2{fill:#5acb9a;}</style></defs><title>type</title><g id="_2" data-name="2"><path class="cls-1" d="M3.9,3.47h8.19a.44.44,0,0,1,.44.44V12.1a.43.43,0,0,1-.43.43H3.91a.44.44,0,0,1-.44-.44V3.9A.43.43,0,0,1,3.9,3.47Z"/><path class="cls-2" d="M12.1,3.85a.06.06,0,0,1,.06.06V12.1a.06.06,0,0,1-.06.06H3.9a.06.06,0,0,1-.06-.06V3.91a.06.06,0,0,1,.06-.06H12.1m0-.75H3.9a.81.81,0,0,0-.81.81V12.1a.81.81,0,0,0,.81.81H12.1a.81.81,0,0,0,.81-.81V3.91a.81.81,0,0,0-.81-.81Z"/></g></svg>