<svg xmlns="http://www.w3.org/2000/svg" viewBox="0 0 16 16"><defs><style>.cls-1{fill:#def4fd;}.cls-2{fill:#2195e7;}</style></defs><title>coll-resource_group</title><g id="_2" data-name="2"><rect class="cls-1" x="2.4" y="2.4" width="8.21" height="8.21" rx="1" ry="1"/><rect class="cls-1" x="3.12" y="7.12" width="2.77" height="2.77" rx="0.63" ry="0.63"/><path class="cls-2" d="M5.26,7.49a.25.25,0,0,1,.25.25V9.26a.25.25,0,0,1-.25.25H3.74a.25.25,0,0,1-.25-.25V7.74a.25.25,0,0,1,.25-.25H5.26m0-.75H3.74a1,1,0,0,0-1,1V9.26a1,1,0,0,0,1,1H5.26a1,1,0,0,0,1-1V7.74a1,1,0,0,0-1-1Z"/><rect class="cls-1" x="3.12" y="3.12" width="2.77" height="2.77" rx="0.63" ry="0.63"/><path class="cls-2" d="M5.26,3.49a.25.25,0,0,1,.25.25V5.26a.25.25,0,0,1-.25.25H3.74a.25.25,0,0,1-.25-.25V3.74a.25.25,0,0,1,.25-.25H5.26m0-.75H3.74a1,1,0,0,0-1,1V5.26a1,1,0,0,0,1,1H5.26a1,1,0,0,0,1-1V3.74a1,1,0,0,0-1-1Z"/><rect class="cls-1" x="7.12" y="7.12" width="2.77" height="2.77" rx="0.63" ry="0.63"/><path class="cls-2" d="M9.26,7.49a.25.25,0,0,1,.25.25V9.26a.25.25,0,0,1-.25.25H7.74a.25.25,0,0,1-.25-.25V7.74a.25.25,0,0,1,.25-.25H9.26m0-.75H7.74a1,1,0,0,0-1,1V9.26a1,1,0,0,0,1,1H9.26a1,1,0,0,0,1-1V7.74a1,1,0,0,0-1-1Z"/><rect class="cls-1" x="7.12" y="3.12" width="2.77" height="2.77" rx="0.63" ry="0.63"/><path class="cls-2" d="M9.26,3.49a.25.25,0,0,1,.25.25V5.26a.25.25,0,0,1-.25.25H7.74a.25.25,0,0,1-.25-.25V3.74a.25.25,0,0,1,.25-.25H9.26m0-.75H7.74a1,1,0,0,0-1,1V5.26a1,1,0,0,0,1,1H9.26a1,1,0,0,0,1-1V3.74a1,1,0,0,0-1-1Z"/><rect class="cls-1" x="5.4" y="5.4" width="8.21" height="8.21" rx="1" ry="1"/><rect class="cls-1" x="6.12" y="10.12" width="2.77" height="2.77" rx="0.63" ry="0.63"/><path class="cls-2" d="M8.26,10.49a.25.25,0,0,1,.25.25v1.52a.25.25,0,0,1-.25.25H6.74a.25.25,0,0,1-.25-.25V10.74a.25.25,0,0,1,.25-.25H8.26m0-.75H6.74a1,1,0,0,0-1,1v1.52a1,1,0,0,0,1,1H8.26a1,1,0,0,0,1-1V10.74a1,1,0,0,0-1-1Z"/><rect class="cls-1" x="6.12" y="6.12" width="2.77" height="2.77" rx="0.63" ry="0.63"/><path class="cls-2" d="M8.26,6.49a.25.25,0,0,1,.25.25V8.26a.25.25,0,0,1-.25.25H6.74a.25.25,0,0,1-.25-.25V6.74a.25.25,0,0,1,.25-.25H8.26m0-.75H6.74a1,1,0,0,0-1,1V8.26a1,1,0,0,0,1,1H8.26a1,1,0,0,0,1-1V6.74a1,1,0,0,0-1-1Z"/><rect class="cls-1" x="10.12" y="10.12" width="2.77" height="2.77" rx="0.63" ry="0.63"/><path class="cls-2" d="M12.26,10.49a.25.25,0,0,1,.25.25v1.52a.25.25,0,0,1-.25.25H10.74a.25.25,0,0,1-.25-.25V10.74a.25.25,0,0,1,.25-.25h1.52m0-.75H10.74a1,1,0,0,0-1,1v1.52a1,1,0,0,0,1,1h1.52a1,1,0,0,0,1-1V10.74a1,1,0,0,0-1-1Z"/><rect class="cls-1" x="10.12" y="6.12" width="2.77" height="2.77" rx="0.63" ry="0.63"/><path class="cls-2" d="M12.26,6.49a.25.25,0,0,1,.25.25V8.26a.25.25,0,0,1-.25.25H10.74a.25.25,0,0,1-.25-.25V6.74a.25.25,0,0,1,.25-.25h1.52m0-.75H10.74a1,1,0,0,0-1,1V8.26a1,1,0,0,0,1,1h1.52a1,1,0,0,0,1-1V6.74a1,1,0,0,0-1-1Z"/></g></svg>