<svg id="Layer_1" data-name="Layer 1" xmlns="http://www.w3.org/2000/svg" viewBox="0 0 16 16"><defs><style>.cls-1{fill:#def4fd;}.cls-2{fill:#717f8e;}.cls-3{fill:#34495e;}</style></defs><title>coll-resource_ group</title><rect class="cls-1" x="1.05" y="2.8" width="8.21" height="8.21" rx="1" ry="1"/><rect class="cls-1" x="1.76" y="7.51" width="2.77" height="2.77" rx="0.63" ry="0.63"/><path class="cls-2" d="M3.91,7.89a.25.25,0,0,1,.25.25V9.66a.25.25,0,0,1-.25.25H2.39a.25.25,0,0,1-.25-.25V8.14a.25.25,0,0,1,.25-.25H3.91m0-.75H2.39a1,1,0,0,0-1,1V9.66a1,1,0,0,0,1,1H3.91a1,1,0,0,0,1-1V8.14a1,1,0,0,0-1-1Z"/><rect class="cls-1" x="1.76" y="3.51" width="2.77" height="2.77" rx="0.63" ry="0.63"/><path class="cls-2" d="M3.91,3.89a.25.25,0,0,1,.25.25V5.66a.25.25,0,0,1-.25.25H2.39a.25.25,0,0,1-.25-.25V4.14a.25.25,0,0,1,.25-.25H3.91m0-.75H2.39a1,1,0,0,0-1,1V5.66a1,1,0,0,0,1,1H3.91a1,1,0,0,0,1-1V4.14a1,1,0,0,0-1-1Z"/><rect class="cls-1" x="5.76" y="7.51" width="2.77" height="2.77" rx="0.63" ry="0.63"/><path class="cls-2" d="M7.91,7.89a.25.25,0,0,1,.25.25V9.66a.25.25,0,0,1-.25.25H6.39a.25.25,0,0,1-.25-.25V8.14a.25.25,0,0,1,.25-.25H7.91m0-.75H6.39a1,1,0,0,0-1,1V9.66a1,1,0,0,0,1,1H7.91a1,1,0,0,0,1-1V8.14a1,1,0,0,0-1-1Z"/><rect class="cls-1" x="5.76" y="3.51" width="2.77" height="2.77" rx="0.63" ry="0.63"/><path class="cls-2" d="M7.91,3.89a.25.25,0,0,1,.25.25V5.66a.25.25,0,0,1-.25.25H6.39a.25.25,0,0,1-.25-.25V4.14a.25.25,0,0,1,.25-.25H7.91m0-.75H6.39a1,1,0,0,0-1,1V5.66a1,1,0,0,0,1,1H7.91a1,1,0,0,0,1-1V4.14a1,1,0,0,0-1-1Z"/><rect class="cls-1" x="4.05" y="5.8" width="8.21" height="8.21" rx="1" ry="1"/><rect class="cls-1" x="4.76" y="10.51" width="2.77" height="2.77" rx="0.63" ry="0.63"/><path class="cls-3" d="M6.91,10.89a.25.25,0,0,1,.25.25v1.52a.25.25,0,0,1-.25.25H5.39a.25.25,0,0,1-.25-.25V11.14a.25.25,0,0,1,.25-.25H6.91m0-.75H5.39a1,1,0,0,0-1,1v1.52a1,1,0,0,0,1,1H6.91a1,1,0,0,0,1-1V11.14a1,1,0,0,0-1-1Z"/><rect class="cls-1" x="4.76" y="6.51" width="2.77" height="2.77" rx="0.63" ry="0.63"/><path class="cls-3" d="M6.91,6.89a.25.25,0,0,1,.25.25V8.66a.25.25,0,0,1-.25.25H5.39a.25.25,0,0,1-.25-.25V7.14a.25.25,0,0,1,.25-.25H6.91m0-.75H5.39a1,1,0,0,0-1,1V8.66a1,1,0,0,0,1,1H6.91a1,1,0,0,0,1-1V7.14a1,1,0,0,0-1-1Z"/><rect class="cls-1" x="8.76" y="10.51" width="2.77" height="2.77" rx="0.63" ry="0.63"/><path class="cls-3" d="M10.91,10.89a.25.25,0,0,1,.25.25v1.52a.25.25,0,0,1-.25.25H9.39a.25.25,0,0,1-.25-.25V11.14a.25.25,0,0,1,.25-.25h1.52m0-.75H9.39a1,1,0,0,0-1,1v1.52a1,1,0,0,0,1,1h1.52a1,1,0,0,0,1-1V11.14a1,1,0,0,0-1-1Z"/><rect class="cls-1" x="8.76" y="6.51" width="2.77" height="2.77" rx="0.63" ry="0.63"/><path class="cls-3" d="M10.91,6.89a.25.25,0,0,1,.25.25V8.66a.25.25,0,0,1-.25.25H9.39a.25.25,0,0,1-.25-.25V7.14a.25.25,0,0,1,.25-.25h1.52m0-.75H9.39a1,1,0,0,0-1,1V8.66a1,1,0,0,0,1,1h1.52a1,1,0,0,0,1-1V7.14a1,1,0,0,0-1-1Z"/></svg>