<svg xmlns="http://www.w3.org/2000/svg" viewBox="0 0 16 16"><defs><style>.cls-1{fill:#def4fd;}.cls-2{fill:#2195e7;}.cls-3{fill:#fee;}.cls-4{fill:#bd4949;}</style></defs><title>resource_group</title><g id="_2" data-name="2"><rect class="cls-1" x="3.27" y="9.08" width="4.53" height="4.53" rx="0.63" ry="0.63"/><path class="cls-2" d="M7.17,9.46a.25.25,0,0,1,.25.25V13a.25.25,0,0,1-.25.25H3.89A.25.25,0,0,1,3.64,13V9.71a.25.25,0,0,1,.25-.25H7.17m0-.75H3.89a1,1,0,0,0-1,1V13a1,1,0,0,0,1,1H7.17a1,1,0,0,0,1-1V9.71a1,1,0,0,0-1-1Z"/><rect class="cls-1" x="3.27" y="3.08" width="4.53" height="4.53" rx="0.63" ry="0.63"/><path class="cls-2" d="M7.17,3.46a.25.25,0,0,1,.25.25V7a.25.25,0,0,1-.25.25H3.89A.25.25,0,0,1,3.64,7V3.71a.25.25,0,0,1,.25-.25H7.17m0-.75H3.89a1,1,0,0,0-1,1V7a1,1,0,0,0,1,1H7.17a1,1,0,0,0,1-1V3.71a1,1,0,0,0-1-1Z"/><rect class="cls-1" x="9.27" y="9.08" width="4.53" height="4.53" rx="0.63" ry="0.63"/><path class="cls-2" d="M13.17,9.46a.25.25,0,0,1,.25.25V13a.25.25,0,0,1-.25.25H9.89A.25.25,0,0,1,9.64,13V9.71a.25.25,0,0,1,.25-.25h3.28m0-.75H9.89a1,1,0,0,0-1,1V13a1,1,0,0,0,1,1h3.28a1,1,0,0,0,1-1V9.71a1,1,0,0,0-1-1Z"/><rect class="cls-3" x="9.27" y="3.08" width="4.53" height="4.53" rx="0.63" ry="0.63"/><path class="cls-4" d="M13.17,3.46a.25.25,0,0,1,.25.25V7a.25.25,0,0,1-.25.25H9.89A.25.25,0,0,1,9.64,7V3.71a.25.25,0,0,1,.25-.25h3.28m0-.75H9.89a1,1,0,0,0-1,1V7a1,1,0,0,0,1,1h3.28a1,1,0,0,0,1-1V3.71a1,1,0,0,0-1-1Z"/></g></svg>