<svg id="Layer_1" data-name="Layer 1" xmlns="http://www.w3.org/2000/svg" viewBox="0 0 16 16"><defs><style>.cls-1{fill:#def4fd;}.cls-2{fill:#34495e;}</style></defs><title>resource_group</title><rect class="cls-1" x="0.88" y="8.63" width="4.53" height="4.53" rx="0.63" ry="0.63"/><path class="cls-2" d="M4.79,9A.25.25,0,0,1,5,9.26v3.28a.25.25,0,0,1-.25.25H1.51a.25.25,0,0,1-.25-.25V9.26A.25.25,0,0,1,1.51,9H4.79m0-.75H1.51a1,1,0,0,0-1,1v3.28a1,1,0,0,0,1,1H4.79a1,1,0,0,0,1-1V9.26a1,1,0,0,0-1-1Z"/><rect class="cls-1" x="0.88" y="2.63" width="4.53" height="4.53" rx="0.63" ry="0.63"/><path class="cls-2" d="M4.79,3A.25.25,0,0,1,5,3.26V6.54a.25.25,0,0,1-.25.25H1.51a.25.25,0,0,1-.25-.25V3.26A.25.25,0,0,1,1.51,3H4.79m0-.75H1.51a1,1,0,0,0-1,1V6.54a1,1,0,0,0,1,1H4.79a1,1,0,0,0,1-1V3.26a1,1,0,0,0-1-1Z"/><rect class="cls-1" x="6.88" y="8.63" width="4.53" height="4.53" rx="0.63" ry="0.63"/><path class="cls-2" d="M10.79,9a.25.25,0,0,1,.25.25v3.28a.25.25,0,0,1-.25.25H7.51a.25.25,0,0,1-.25-.25V9.26A.25.25,0,0,1,7.51,9h3.28m0-.75H7.51a1,1,0,0,0-1,1v3.28a1,1,0,0,0,1,1h3.28a1,1,0,0,0,1-1V9.26a1,1,0,0,0-1-1Z"/><rect class="cls-1" x="6.88" y="2.63" width="4.53" height="4.53" rx="0.63" ry="0.63"/><path class="cls-2" d="M10.79,3a.25.25,0,0,1,.25.25V6.54a.25.25,0,0,1-.25.25H7.51a.25.25,0,0,1-.25-.25V3.26A.25.25,0,0,1,7.51,3h3.28m0-.75H7.51a1,1,0,0,0-1,1V6.54a1,1,0,0,0,1,1h3.28a1,1,0,0,0,1-1V3.26a1,1,0,0,0-1-1Z"/></svg>