<svg xmlns="http://www.w3.org/2000/svg" viewBox="0 0 16 16" width="20" height="20"><defs><style>.cls-1{fill:#f2f2f2;stroke:#797979;stroke-linecap:round;stroke-linejoin:round;stroke-width:0.75px;}</style></defs><title>foreign_key</title><g id="_2" data-name="2"><path class="cls-1" d="M11.41,3.41A2.69,2.69,0,0,0,7.07,6.48L2.85,10.75A.9.9,0,0,0,4.12,12l.77-.8L7,12.46l-.92-2.32L8,10.66,7.07,9,8.34,7.75a2.69,2.69,0,0,0,3.07-4.34Z"/><path class="cls-1" d="M12.62,4.33A2.69,2.69,0,0,0,8.29,7.4L4.07,11.67a.9.9,0,1,0,1.27,1.27l.77-.8,2.12,1.24-.92-2.32,1.87.52L8.29,9.93,9.56,8.67a2.69,2.69,0,0,0,3.07-4.34ZM11.34,6.89a.9.9,0,1,1,0-1.27A.9.9,0,0,1,11.34,6.89Z"/></g></svg>
