<svg id="Layer_1" data-name="Layer 1" xmlns="http://www.w3.org/2000/svg" viewBox="0 0 16 16"><defs><style>.cls-1{fill:#def4fd;}.cls-1,.cls-2{stroke:#2980b9;stroke-linecap:round;stroke-linejoin:round;stroke-width:0.75px;}.cls-2{fill:none;}</style></defs><title>primary_key</title><path class="cls-1" d="M12.5,5.5H6.32a3,3,0,1,0,0,2H12.5a1,1,0,0,0,0-2Z"/><line class="cls-2" x1="10.5" y1="7.5" x2="10.5" y2="8.5"/><line class="cls-2" x1="9.5" y1="7.5" x2="9.5" y2="8.5"/><line class="cls-2" x1="11.5" y1="7.5" x2="11.5" y2="9.5"/><circle class="cls-2" cx="3.5" cy="6.5" r="1"/><path class="cls-1" d="M13.5,7.5H7.32a3,3,0,1,0,0,2H13.5a1,1,0,0,0,0-2Z"/><line class="cls-2" x1="11.5" y1="9.5" x2="11.5" y2="10.5"/><line class="cls-2" x1="10.5" y1="9.5" x2="10.5" y2="10.5"/><line class="cls-2" x1="12.5" y1="9.5" x2="12.5" y2="11.5"/><circle class="cls-2" cx="4.5" cy="8.5" r="1"/></svg>