<svg id="Layer_1" data-name="Layer 1" xmlns="http://www.w3.org/2000/svg" viewBox="0 0 16 16"><defs><style>.cls-1{fill:#717f8e;}.cls-2{fill:#def4fd;}.cls-3,.cls-5,.cls-6,.cls-7{fill:none;stroke-width:0.75px;}.cls-3{stroke:#717f8e;}.cls-3,.cls-6,.cls-7{stroke-miterlimit:10;}.cls-4{fill:#34495e;stroke-linecap:round;}.cls-4,.cls-6{stroke:#2880b9;}.cls-4,.cls-5{stroke-linejoin:round;}.cls-5{stroke:#c1cbd5;}.cls-7{stroke:#34495e;}</style></defs><title>coll-foreign_table</title><path class="cls-1" d="M7,6v7.33H2V6H7M7,5H2A1,1,0,0,0,1,6v7.33a1,1,0,0,0,1,1H7a1,1,0,0,0,1-1V6A1,1,0,0,0,7,5Z"/><rect class="cls-2" x="1" y="5" width="7" height="9.33" rx="1" ry="1"/><path class="cls-3" d="M7,5H2A1,1,0,0,0,1,6v7.33a1,1,0,0,0,1,1H7a1,1,0,0,0,1-1V6A1,1,0,0,0,7,5Z"/><rect class="cls-2" x="3" y="3" width="7" height="9" rx="1" ry="1"/><line class="cls-4" x1="9.5" y1="3.5" x2="11.5" y2="1.5"/><line class="cls-4" x1="9.5" y1="1.5" x2="11.5" y2="1.5"/><line class="cls-4" x1="11.5" y1="3.5" x2="11.5" y2="1.5"/><line class="cls-5" x1="6.5" y1="6" x2="6.5" y2="12"/><line class="cls-5" x1="3" y1="9.5" x2="10" y2="9.5"/><line class="cls-6" x1="6.5" y1="3" x2="6.5" y2="6"/><path class="cls-7" d="M10,6.5v4.83a1,1,0,0,1-1,1H4a1,1,0,0,1-1-1V6.5Z"/><path class="cls-6" d="M3,6.33V4A1,1,0,0,1,4,3H9a1,1,0,0,1,1,1V6.33Z"/></svg>