<svg xmlns="http://www.w3.org/2000/svg" viewBox="0 0 16 16"><defs><style>.cls-1,.cls-7{fill:#def4fd;}.cls-2{fill:#717f8e;}.cls-3,.cls-4{fill:#34495e;}.cls-3,.cls-7{stroke:#2880b9;}.cls-3{stroke-linecap:round;}.cls-3,.cls-6{stroke-linejoin:round;}.cls-5{fill:#2880b9;}.cls-6{fill:none;stroke:#c1cbd5;}.cls-6,.cls-7{stroke-width:0.75px;}.cls-7{stroke-miterlimit:1;}</style></defs><title>coll-foreign_table</title><g id="_2" data-name="2"><rect class="cls-1" x="3.08" y="3.32" width="6.47" height="7.56" rx="0.52" ry="0.52"/><path class="cls-2" d="M9,3.69a.15.15,0,0,1,.15.15v6.51A.15.15,0,0,1,9,10.5H3.61a.15.15,0,0,1-.15-.15V3.84a.15.15,0,0,1,.15-.15H9m0-.75H3.61a.9.9,0,0,0-.9.9v6.51a.9.9,0,0,0,.9.9H9a.9.9,0,0,0,.9-.9V3.84a.9.9,0,0,0-.9-.9Z"/><line class="cls-3" x1="11.71" y1="5.13" x2="13.29" y2="3.55"/><line class="cls-3" x1="11.29" y1="3.55" x2="13.29" y2="3.55"/><line class="cls-3" x1="13.29" y1="5.55" x2="13.29" y2="3.55"/><path class="cls-1" d="M5.77,12.68a.53.53,0,0,1-.52-.52V7.86h6.47v4.3a.53.53,0,0,1-.52.52Z"/><path class="cls-4" d="M11.34,8.23v3.92a.15.15,0,0,1-.15.15H5.77a.15.15,0,0,1-.15-.15V8.23h5.72m.75-.75H4.87v4.67a.9.9,0,0,0,.9.9h5.42a.9.9,0,0,0,.9-.9V7.48Z"/><path class="cls-1" d="M5.25,7.85V5.65a.53.53,0,0,1,.52-.52h5.42a.53.53,0,0,1,.52.52v2.2Z"/><path class="cls-5" d="M11.19,5.5a.15.15,0,0,1,.15.15V7.48H5.62V5.65a.15.15,0,0,1,.15-.15h5.42m0-.75H5.77a.9.9,0,0,0-.9.9V8.23h7.22V5.65a.9.9,0,0,0-.9-.9Z"/><line class="cls-6" x1="5.64" y1="10.22" x2="11.33" y2="10.22"/><line class="cls-6" x1="8.56" y1="8.25" x2="8.55" y2="12.3"/><line class="cls-7" x1="8.56" y1="5.42" x2="8.55" y2="7.48"/></g></svg>