<svg id="Layer_1" data-name="Layer 1" xmlns="http://www.w3.org/2000/svg" viewBox="0 0 16 16"><defs><style>.cls-1{fill:#def4fd;}.cls-2,.cls-4{fill:#34495e;}.cls-2,.cls-5{stroke:#2880b9;}.cls-2{stroke-linecap:round;}.cls-2,.cls-3{stroke-linejoin:round;}.cls-3,.cls-5{fill:none;stroke-width:0.75px;}.cls-3{stroke:#c1cbd5;}.cls-5{stroke-miterlimit:10;}.cls-6{fill:#2880b9;}</style></defs><title>foreign_table</title><rect class="cls-1" y="4" width="11" height="10" rx="1" ry="1"/><line class="cls-2" x1="10.5" y1="4.5" x2="12.5" y2="2.5"/><line class="cls-2" x1="10.5" y1="2.5" x2="12.5" y2="2.5"/><line class="cls-2" x1="12.5" y1="4.5" x2="12.5" y2="2.5"/><line class="cls-3" x1="5.5" y1="7" x2="5.5" y2="14"/><line class="cls-3" x1="0.5" y1="10.5" x2="10.5" y2="10.5"/><path class="cls-4" d="M.75,8l9.5,0v5a.25.25,0,0,1-.25.25H1A.25.25,0,0,1,.75,13V8M0,7.25V13a1,1,0,0,0,1,1h9a1,1,0,0,0,1-1V7.28l-11,0Z"/><line class="cls-5" x1="5.5" y1="4" x2="5.5" y2="8"/><path class="cls-6" d="M10,4.75a.25.25,0,0,1,.25.25V7.25H.75V5A.25.25,0,0,1,1,4.75h9M10,4H1A1,1,0,0,0,0,5V8H11V5a1,1,0,0,0-1-1Z"/></svg>