<svg xmlns="http://www.w3.org/2000/svg" viewBox="0 0 16 16"><defs><style>.cls-1,.cls-2,.cls-4,.cls-5{fill:#f2f2f2;}.cls-1,.cls-5{stroke:#2195e7;}.cls-1{stroke-linecap:round;stroke-linejoin:round;}.cls-1,.cls-4,.cls-5{stroke-width:0.75px;}.cls-3{fill:#2195e7;}.cls-4{stroke:#c1cbd5;}.cls-4,.cls-5{stroke-miterlimit:1;}</style></defs><title>foreign_table</title><g id="_2" data-name="2"><line class="cls-1" x1="11.46" y1="4.26" x2="13.05" y2="2.67"/><line class="cls-1" x1="11.05" y1="2.67" x2="13.05" y2="2.67"/><line class="cls-1" x1="13.05" y1="4.67" x2="13.05" y2="2.67"/><path class="cls-2" d="M3.85,13a.53.53,0,0,1-.52-.53V7.6h8.15v4.83A.53.53,0,0,1,11,13Z"/><path class="cls-3" d="M11.1,8v4.45a.15.15,0,0,1-.15.15H3.85a.15.15,0,0,1-.15-.15V8h7.4m.75-.75H3v5.2a.9.9,0,0,0,.9.9H11a.9.9,0,0,0,.9-.9V7.23Z"/><path class="cls-2" d="M3.33,7.6V4.77a.53.53,0,0,1,.52-.53H11a.53.53,0,0,1,.52.53V7.6Z"/><path class="cls-3" d="M11,4.62a.15.15,0,0,1,.15.15V7.22H3.7V4.77a.15.15,0,0,1,.15-.15H11m0-.75H3.85a.9.9,0,0,0-.9.9V8h8.9V4.77a.9.9,0,0,0-.9-.9Z"/><line class="cls-4" x1="3.72" y1="10.25" x2="11.09" y2="10.25"/><line class="cls-4" x1="7.41" y1="7.99" x2="7.4" y2="12.57"/><line class="cls-5" x1="7.41" y1="4.55" x2="7.4" y2="7.23"/></g></svg>