<svg xmlns="http://www.w3.org/2000/svg" viewBox="0 0 16 16"><defs><style>.cls-1{fill:#def4fd;}.cls-2{fill:#354a5f;}.cls-3{fill:#2880b9;}.cls-4,.cls-6{fill:#2980b9;}.cls-4,.cls-5{stroke:#2980b9;}.cls-4,.cls-5,.cls-6,.cls-7{stroke-linecap:round;stroke-linejoin:round;stroke-width:0.75px;}.cls-5,.cls-7{fill:none;}.cls-6,.cls-7{stroke:#354a5f;}</style></defs><title>cast</title><g id="_3" data-name="3"><rect class="cls-1" x="8.99" y="2.39" width="4.65" height="4.65" rx="0.63" ry="0.63"/><path class="cls-2" d="M13,2.77a.25.25,0,0,1,.25.25v3.4a.25.25,0,0,1-.25.25H9.62a.25.25,0,0,1-.25-.25V3a.25.25,0,0,1,.25-.25H13M13,2H9.62a1,1,0,0,0-1,1v3.4a1,1,0,0,0,1,1H13a1,1,0,0,0,1-1V3a1,1,0,0,0-1-1Z"/><rect class="cls-1" x="2.36" y="8.96" width="4.65" height="4.65" rx="0.63" ry="0.63"/><path class="cls-3" d="M6.38,9.33a.25.25,0,0,1,.25.25V13a.25.25,0,0,1-.25.25H3A.25.25,0,0,1,2.73,13V9.58A.25.25,0,0,1,3,9.33h3.4m0-.75H3a1,1,0,0,0-1,1V13a1,1,0,0,0,1,1h3.4a1,1,0,0,0,1-1V9.58a1,1,0,0,0-1-1Z"/><polygon class="cls-4" points="4.67 7.83 3.69 6.82 5.68 6.85 4.67 7.83"/><path class="cls-5" d="M4.77,7.33c-.65-2.21,1-3.5,2.92-2.7"/><polygon class="cls-6" points="11.25 8.23 12.23 9.25 10.23 9.21 11.25 8.23"/><path class="cls-7" d="M11.14,8.74c.65,2.21-1,3.5-2.92,2.7"/></g></svg>