<svg id="Layer_1" data-name="Layer 1" xmlns="http://www.w3.org/2000/svg" viewBox="0 0 16 16"><defs><style>.cls-1{fill:#def4fd;}.cls-2{fill:#354a5f;}.cls-3{fill:#2880b9;}.cls-4,.cls-6{fill:#2980b9;}.cls-4,.cls-5{stroke:#2980b9;}.cls-4,.cls-5,.cls-6,.cls-7{stroke-linecap:round;stroke-linejoin:round;stroke-width:0.75px;}.cls-5,.cls-7{fill:none;}.cls-6,.cls-7{stroke:#354a5f;}</style></defs><title>coll-cast</title><rect class="cls-1" x="7.24" y="2.38" width="4.65" height="4.65" rx="0.63" ry="0.63"/><path class="cls-2" d="M11.27,2.75a.25.25,0,0,1,.25.25V6.4a.25.25,0,0,1-.25.25H7.87a.25.25,0,0,1-.25-.25V3a.25.25,0,0,1,.25-.25h3.4m0-.75H7.87a1,1,0,0,0-1,1V6.4a1,1,0,0,0,1,1h3.4a1,1,0,0,0,1-1V3a1,1,0,0,0-1-1Z"/><path class="cls-1" d="M1.23,8.94h3.4a.62.62,0,0,1,.62.62V13a.63.63,0,0,1-.62.63H1.23A.63.63,0,0,1,.61,13V9.56A.63.63,0,0,1,1.23,8.94Z"/><path class="cls-3" d="M4.63,9.31a.25.25,0,0,1,.25.25V13a.25.25,0,0,1-.25.25H1.23A.25.25,0,0,1,1,13V9.56a.25.25,0,0,1,.25-.25h3.4m0-.75H1.23a1,1,0,0,0-1,1V13a1,1,0,0,0,1,1h3.4a1,1,0,0,0,1-1V9.56a1,1,0,0,0-1-1Z"/><polygon class="cls-4" points="2.92 7.81 1.94 6.8 3.93 6.84 2.92 7.81"/><path class="cls-5" d="M3,7.31c-.65-2.21,1-3.5,2.92-2.7"/><polygon class="cls-6" points="9.5 8.22 10.48 9.23 8.48 9.2 9.5 8.22"/><path class="cls-7" d="M9.39,8.72c.65,2.21-1,3.5-2.92,2.7"/></svg>