<svg xmlns="http://www.w3.org/2000/svg" viewBox="0 0 16 16"><defs><style>.cls-1{fill:#e6e6ff;}.cls-2{fill:#594fba;}.cls-3{fill:#2980b9;}.cls-3,.cls-4{stroke:#594fba;stroke-linecap:round;stroke-linejoin:round;stroke-width:0.75px;}.cls-4{fill:none;}</style></defs><title>coll-cast</title><g id="_3" data-name="3"><rect class="cls-1" x="2.26" y="2.25" width="10.53" height="10.53" rx="0.75" ry="0.75"/><path class="cls-2" d="M12,2.5a.5.5,0,0,1,.5.5v9a.5.5,0,0,1-.5.5H3a.5.5,0,0,1-.5-.5V3A.5.5,0,0,1,3,2.5h9M12,2H3A1,1,0,0,0,2,3v9a1,1,0,0,0,1,1h9a1,1,0,0,0,1-1V3a1,1,0,0,0-1-1Z"/><rect class="cls-1" x="3.21" y="3.21" width="10.53" height="10.53" rx="0.75" ry="0.75"/><path class="cls-2" d="M13,3.46a.5.5,0,0,1,.5.5v9a.5.5,0,0,1-.5.5H4a.5.5,0,0,1-.5-.5V4a.5.5,0,0,1,.5-.5h9M13,3H4A1,1,0,0,0,3,4v9a1,1,0,0,0,1,1h9a1,1,0,0,0,1-1V4a1,1,0,0,0-1-1Z"/><rect class="cls-1" x="9.28" y="4.67" width="3.03" height="3.03" rx="0.63" ry="0.63"/><path class="cls-2" d="M11.69,5a.25.25,0,0,1,.25.25V7.07a.25.25,0,0,1-.25.25H9.91a.25.25,0,0,1-.25-.25V5.29A.25.25,0,0,1,9.91,5h1.78m0-.75H9.91a1,1,0,0,0-1,1V7.07a1,1,0,0,0,1,1h1.78a1,1,0,0,0,1-1V5.29a1,1,0,0,0-1-1Z"/><rect class="cls-1" x="4.64" y="9.26" width="3.03" height="3.03" rx="0.63" ry="0.63"/><path class="cls-2" d="M7,9.64a.25.25,0,0,1,.25.25v1.78a.25.25,0,0,1-.25.25H5.26A.25.25,0,0,1,5,11.67V9.89a.25.25,0,0,1,.25-.25H7m0-.75H5.26a1,1,0,0,0-1,1v1.78a1,1,0,0,0,1,1H7a1,1,0,0,0,1-1V9.89a1,1,0,0,0-1-1Z"/><polygon class="cls-3" points="6.14 8.36 5.46 7.66 6.85 7.68 6.14 8.36"/><path class="cls-4" d="M6.21,8c-.45-1.55.71-2.45,2-1.89"/><polygon class="cls-3" points="10.75 8.65 11.43 9.36 10.04 9.33 10.75 8.65"/><path class="cls-4" d="M10.67,9c.45,1.55-.71,2.45-2,1.89"/></g></svg>