<svg id="Layer_1" data-name="Layer 1" xmlns="http://www.w3.org/2000/svg" viewBox="0 0 16 16"><defs><style>.cls-1{fill:#def4fd;}.cls-2,.cls-7{fill:#354a5f;}.cls-3{fill:#2880b9;}.cls-4,.cls-6{fill:none;stroke-miterlimit:10;}.cls-4,.cls-5{stroke:#2980b9;}.cls-4,.cls-5,.cls-6,.cls-7{stroke-linecap:round;stroke-width:0.75px;}.cls-5{fill:#2980b9;}.cls-5,.cls-7{stroke-linejoin:round;}.cls-6,.cls-7{stroke:#354a5f;}</style></defs><title>coll-cast</title><rect class="cls-1" x="9.03" y="1.27" width="3.65" height="3.65" rx="0.63" ry="0.63"/><path class="cls-2" d="M12.05,1.65a.25.25,0,0,1,.25.25V4.3a.25.25,0,0,1-.25.25H9.65A.25.25,0,0,1,9.4,4.3V1.9a.25.25,0,0,1,.25-.25h2.4m0-.75H9.65a1,1,0,0,0-1,1V4.3a1,1,0,0,0,1,1h2.4a1,1,0,0,0,1-1V1.9a1,1,0,0,0-1-1Z"/><path class="cls-1" d="M2,10.08h2.4A.63.63,0,0,1,5,10.7v2.4a.63.63,0,0,1-.62.63H2a.62.62,0,0,1-.62-.62V10.7A.62.62,0,0,1,2,10.08Z"/><path class="cls-3" d="M4.35,10.45a.25.25,0,0,1,.25.25v2.4a.25.25,0,0,1-.25.25H1.95a.25.25,0,0,1-.25-.25V10.7a.25.25,0,0,1,.25-.25h2.4m0-.75H1.95a1,1,0,0,0-1,1v2.4a1,1,0,0,0,1,1h2.4a1,1,0,0,0,1-1V10.7a1,1,0,0,0-1-1Z"/><line class="cls-4" x1="6.45" y1="3.1" x2="3.15" y2="3.1"/><line class="cls-4" x1="3.15" y1="3.1" x2="3.15" y2="6.4"/><polygon class="cls-5" points="3.12 7.96 1.59 6.37 4.71 6.43 3.12 7.96"/><line class="cls-6" x1="7.55" y1="11.9" x2="10.85" y2="11.9"/><line class="cls-6" x1="10.85" y1="11.9" x2="10.85" y2="8.6"/><polygon class="cls-7" points="10.88 7.04 12.4 8.63 9.29 8.57 10.88 7.04"/></svg>