<svg id="Layer_1" data-name="Layer 1" xmlns="http://www.w3.org/2000/svg" viewBox="0 0 16 16"><defs><style>.cls-1{fill:#def4fd;}.cls-2{fill:#717f8e;}.cls-3{fill:#354a5f;}.cls-4{fill:#2880b9;}.cls-5,.cls-7{fill:#2980b9;}.cls-5,.cls-6{stroke:#2980b9;}.cls-5,.cls-6,.cls-7,.cls-8{stroke-linecap:round;stroke-linejoin:round;stroke-width:0.75px;}.cls-6,.cls-8{fill:none;}.cls-7,.cls-8{stroke:#354a5f;}</style></defs><title>cast</title><rect class="cls-1" x="0.51" y="2.26" width="10.54" height="10.54" rx="0.75" ry="0.75"/><path class="cls-2" d="M10.29,2.51a.5.5,0,0,1,.5.5v9a.5.5,0,0,1-.5.5h-9a.5.5,0,0,1-.5-.5V3a.5.5,0,0,1,.5-.5h9m0-.5h-9a1,1,0,0,0-1,1v9a1,1,0,0,0,1,1h9a1,1,0,0,0,1-1V3a1,1,0,0,0-1-1Z"/><rect class="cls-1" x="1.46" y="3.23" width="10.54" height="10.54" rx="0.75" ry="0.75"/><path class="cls-3" d="M11.24,3.48a.5.5,0,0,1,.5.5v9a.5.5,0,0,1-.5.5h-9a.5.5,0,0,1-.5-.5V4a.5.5,0,0,1,.5-.5h9m0-.5h-9a1,1,0,0,0-1,1v9a1,1,0,0,0,1,1h9a1,1,0,0,0,1-1V4a1,1,0,0,0-1-1Z"/><path class="cls-1" d="M8.16,4.68H9.94a.63.63,0,0,1,.63.63V7.09a.63.63,0,0,1-.62.63H8.16a.62.62,0,0,1-.62-.62V5.31A.63.63,0,0,1,8.16,4.68Z"/><path class="cls-3" d="M9.94,5.06a.25.25,0,0,1,.25.25V7.09a.25.25,0,0,1-.25.25H8.16a.25.25,0,0,1-.25-.25V5.31a.25.25,0,0,1,.25-.25H9.94m0-.75H8.16a1,1,0,0,0-1,1V7.09a1,1,0,0,0,1,1H9.94a1,1,0,0,0,1-1V5.31a1,1,0,0,0-1-1Z"/><rect class="cls-1" x="2.89" y="9.28" width="3.03" height="3.03" rx="0.63" ry="0.63"/><path class="cls-4" d="M5.29,9.65a.25.25,0,0,1,.25.25v1.78a.25.25,0,0,1-.25.25H3.51a.25.25,0,0,1-.25-.25V9.9a.25.25,0,0,1,.25-.25H5.29m0-.75H3.51a1,1,0,0,0-1,1v1.78a1,1,0,0,0,1,1H5.29a1,1,0,0,0,1-1V9.9a1,1,0,0,0-1-1Z"/><polygon class="cls-5" points="4.39 8.38 3.71 7.67 5.1 7.69 4.39 8.38"/><path class="cls-6" d="M4.46,8c-.45-1.55.71-2.45,2-1.89"/><polygon class="cls-7" points="9 8.66 9.68 9.37 8.29 9.34 9 8.66"/><path class="cls-8" d="M8.92,9c.45,1.55-.71,2.45-2,1.89"/></svg>