<svg xmlns="http://www.w3.org/2000/svg" viewBox="0 0 16 16"><defs><style>.cls-1{fill:#cbdff1;}.cls-2,.cls-4{fill:none;stroke-linecap:round;stroke-linejoin:round;stroke-width:0.75px;}.cls-2{stroke:#6f6f6f;}.cls-3{fill:#81602b;}.cls-4{stroke:#c42e2e;}</style></defs><title>coll-domains</title><g id="_2" data-name="2"><polygon class="cls-1" points="8.72 9.96 3.68 9.96 3.68 5.55 6.2 3.03 8.72 5.55 8.72 9.96"/><line class="cls-2" x1="3.37" y1="5.86" x2="3.37" y2="10.27"/><line class="cls-2" x1="3.37" y1="10.27" x2="9.04" y2="10.27"/><line class="cls-2" x1="9.04" y1="10.27" x2="9.04" y2="5.86"/><rect class="cls-3" x="4.94" y="6.81" width="2.52" height="3.15"/><line class="cls-4" x1="2.42" y1="6.81" x2="6.2" y2="3.03"/><line class="cls-4" x1="6.2" y1="3.03" x2="9.98" y2="6.81"/><polygon class="cls-1" points="12.32 12.66 7.28 12.66 7.28 8.25 9.8 5.73 12.32 8.25 12.32 12.66"/><line class="cls-2" x1="6.97" y1="8.56" x2="6.97" y2="12.97"/><line class="cls-2" x1="6.97" y1="12.97" x2="12.64" y2="12.97"/><line class="cls-2" x1="12.64" y1="12.97" x2="12.64" y2="8.56"/><rect class="cls-3" x="8.54" y="9.51" width="2.52" height="3.15"/><line class="cls-4" x1="6.02" y1="9.51" x2="9.8" y2="5.73"/><line class="cls-4" x1="9.8" y1="5.73" x2="13.58" y2="9.51"/></g></svg>