<svg id="Layer_1" data-name="Layer 1" xmlns="http://www.w3.org/2000/svg" viewBox="0 0 16 16"><defs><style>.cls-1{fill:#def4fd;}.cls-2{fill:none;stroke:#34495e;stroke-linecap:round;stroke-linejoin:round;stroke-width:0.75px;}.cls-3{fill:#2980b9;}</style></defs><title>coll-domain</title><polygon class="cls-1" points="6.72 10.21 1.68 10.21 1.68 5.8 4.2 3.28 6.72 5.8 6.72 10.21"/><line class="cls-2" x1="0.42" y1="7.06" x2="4.2" y2="3.28"/><line class="cls-2" x1="4.2" y1="3.28" x2="7.98" y2="7.06"/><line class="cls-2" x1="1.37" y1="6.11" x2="1.37" y2="10.52"/><line class="cls-2" x1="1.37" y1="10.52" x2="7.04" y2="10.52"/><line class="cls-2" x1="7.04" y1="10.52" x2="7.04" y2="6.11"/><rect class="cls-3" x="2.94" y="7.06" width="2.52" height="3.15"/><polygon class="cls-1" points="10.32 12.91 5.28 12.91 5.28 8.5 7.8 5.98 10.32 8.5 10.32 12.91"/><line class="cls-2" x1="4.02" y1="9.76" x2="7.8" y2="5.98"/><line class="cls-2" x1="7.8" y1="5.98" x2="11.58" y2="9.76"/><line class="cls-2" x1="4.97" y1="8.81" x2="4.97" y2="13.22"/><line class="cls-2" x1="4.97" y1="13.22" x2="10.64" y2="13.22"/><line class="cls-2" x1="10.64" y1="13.22" x2="10.64" y2="8.81"/><rect class="cls-3" x="6.54" y="9.76" width="2.52" height="3.15"/></svg>