<svg xmlns="http://www.w3.org/2000/svg" viewBox="0 0 16 16"><defs><style>.cls-1{fill:#5997ab;}.cls-2,.cls-4,.cls-5,.cls-6{fill:none;stroke-width:0.75px;}.cls-2{stroke:#c8faff;stroke-linecap:round;}.cls-2,.cls-4,.cls-6{stroke-linejoin:round;}.cls-3{fill:#c8faff;}.cls-4{stroke:#9ec3cc;}.cls-5,.cls-6{stroke:#5997ab;}.cls-5{stroke-miterlimit:10;}</style></defs><title>coll-synonym</title><g id="_3" data-name="3"><rect class="cls-1" x="2.01" y="7.56" width="4.5" height="4.79" rx="1" ry="1"/><line class="cls-2" x1="3.39" y1="10.81" x2="4.92" y2="9.31"/><line class="cls-2" x1="4.92" y1="10.78" x2="4.92" y2="9.31"/><line class="cls-2" x1="4.92" y1="9.31" x2="3.42" y2="9.27"/><rect class="cls-3" x="5.77" y="2.37" width="6.21" height="5.61" rx="0.63" ry="0.63"/><path class="cls-1" d="M11.35,2.75A.25.25,0,0,1,11.6,3V7.36a.25.25,0,0,1-.25.25h-5a.25.25,0,0,1-.25-.25V3a.25.25,0,0,1,.25-.25h5m0-.75h-5a1,1,0,0,0-1,1V7.36a1,1,0,0,0,1,1h5a1,1,0,0,0,1-1V3a1,1,0,0,0-1-1Z"/><rect class="cls-1" x="3.65" y="9.21" width="4.5" height="4.79" rx="1" ry="1"/><line class="cls-2" x1="5.02" y1="12.46" x2="6.55" y2="10.96"/><line class="cls-2" x1="6.55" y1="12.43" x2="6.55" y2="10.96"/><line class="cls-2" x1="6.55" y1="10.96" x2="5.05" y2="10.91"/><rect class="cls-3" x="7.4" y="4.02" width="6.21" height="5.61" rx="0.63" ry="0.63"/><path class="cls-1" d="M13,4.39a.25.25,0,0,1,.25.25V9a.25.25,0,0,1-.25.25H8A.25.25,0,0,1,7.78,9V4.64A.25.25,0,0,1,8,4.39h5m0-.75H8a1,1,0,0,0-1,1V9a1,1,0,0,0,1,1h5a1,1,0,0,0,1-1V4.64a1,1,0,0,0-1-1Z"/><line class="cls-4" x1="10.51" y1="6.62" x2="10.51" y2="9.25"/><line class="cls-5" x1="10.51" y1="4.39" x2="10.51" y2="5.97"/><line class="cls-6" x1="13.62" y1="6.31" x2="7.4" y2="6.31"/></g></svg>