<svg id="Layer_1" data-name="Layer 1" xmlns="http://www.w3.org/2000/svg" viewBox="0 0 16 16"><defs><style>.cls-1{fill:#def4fd;}.cls-2{fill:#717f8e;}.cls-3,.cls-4,.cls-6,.cls-7{fill:none;stroke-width:0.75px;}.cls-3{stroke:#c1cbd5;}.cls-3,.cls-6,.cls-7{stroke-linejoin:round;}.cls-4,.cls-6{stroke:#34495e;}.cls-4{stroke-miterlimit:10;}.cls-5{fill:#34495e;}.cls-7{stroke:#def4fd;stroke-linecap:round;}</style></defs><title>coll-synonym</title><rect class="cls-1" x="3.5" y="2.06" width="9" height="7" rx="1" ry="1"/><path class="cls-2" d="M11.5,2.81a.25.25,0,0,1,.25.25v5a.25.25,0,0,1-.25.25h-7a.25.25,0,0,1-.25-.25v-5a.25.25,0,0,1,.25-.25h7m0-.75h-7a1,1,0,0,0-1,1v5a1,1,0,0,0,1,1h7a1,1,0,0,0,1-1v-5A1,1,0,0,0,11.5,2.06Z"/><rect class="cls-1" x="0.54" y="8.42" width="3.75" height="4.04" rx="0.63" ry="0.63"/><path class="cls-2" d="M3.67,8.79A.25.25,0,0,1,3.92,9v2.79a.25.25,0,0,1-.25.25H1.17a.25.25,0,0,1-.25-.25V9a.25.25,0,0,1,.25-.25h2.5m0-.75H1.17a1,1,0,0,0-1,1v2.79a1,1,0,0,0,1,1h2.5a1,1,0,0,0,1-1V9a1,1,0,0,0-1-1Z"/><rect class="cls-1" x="4.9" y="3.16" width="9" height="7" rx="1" ry="1"/><line class="cls-3" x1="9.4" y1="6.16" x2="9.4" y2="10.16"/><line class="cls-4" x1="9.4" y1="3.16" x2="9.4" y2="6.66"/><path class="cls-5" d="M12.9,3.91a.25.25,0,0,1,.25.25v5a.25.25,0,0,1-.25.25h-7a.25.25,0,0,1-.25-.25v-5a.25.25,0,0,1,.25-.25h7m0-.75h-7a1,1,0,0,0-1,1v5a1,1,0,0,0,1,1h7a1,1,0,0,0,1-1v-5A1,1,0,0,0,12.9,3.16Z"/><line class="cls-6" x1="13.4" y1="6.66" x2="5.4" y2="6.66"/><rect class="cls-5" x="1.56" y="9.14" width="4.5" height="4.79" rx="1" ry="1"/><line class="cls-7" x1="2.94" y1="12.39" x2="4.47" y2="10.89"/><line class="cls-7" x1="4.47" y1="12.36" x2="4.47" y2="10.89"/><line class="cls-7" x1="4.47" y1="10.89" x2="2.97" y2="10.85"/></svg>