<svg id="Layer_1" data-name="Layer 1" xmlns="http://www.w3.org/2000/svg" viewBox="0 0 16 16"><defs><style>.cls-1{fill:#def4fd;}.cls-2,.cls-3,.cls-5,.cls-6{fill:none;stroke-width:0.75px;}.cls-2{stroke:#c1cbd5;}.cls-2,.cls-5,.cls-6{stroke-linejoin:round;}.cls-3,.cls-5{stroke:#34495e;}.cls-3{stroke-miterlimit:10;}.cls-4{fill:#34495e;}.cls-6{stroke:#def4fd;stroke-linecap:round;}</style></defs><title>synonym</title><rect class="cls-1" x="3.69" y="2.62" width="9" height="7" rx="1" ry="1"/><line class="cls-2" x1="8.19" y1="5.62" x2="8.19" y2="9.62"/><line class="cls-3" x1="8.19" y1="2.62" x2="8.19" y2="6.12"/><path class="cls-4" d="M11.69,3.37a.25.25,0,0,1,.25.25v5a.25.25,0,0,1-.25.25h-7a.25.25,0,0,1-.25-.25v-5a.25.25,0,0,1,.25-.25h7m0-.75h-7a1,1,0,0,0-1,1v5a1,1,0,0,0,1,1h7a1,1,0,0,0,1-1v-5A1,1,0,0,0,11.69,2.62Z"/><line class="cls-5" x1="12.19" y1="6.12" x2="4.19" y2="6.12"/><rect class="cls-4" x="0.35" y="8.6" width="4.5" height="4.79" rx="1" ry="1"/><line class="cls-6" x1="1.73" y1="11.85" x2="3.26" y2="10.35"/><line class="cls-6" x1="3.26" y1="11.82" x2="3.26" y2="10.35"/><line class="cls-6" x1="3.26" y1="10.35" x2="1.76" y2="10.31"/></svg>