<svg xmlns="http://www.w3.org/2000/svg" viewBox="0 0 16 16"><defs><style>.cls-1{fill:#c8faff;}.cls-2,.cls-3,.cls-5{fill:none;stroke-width:0.75px;}.cls-2,.cls-3{stroke:#5997ab;}.cls-2,.cls-5{stroke-linejoin:round;}.cls-3{stroke-miterlimit:10;}.cls-4{fill:#5997ab;}.cls-5{stroke:#c8faff;stroke-linecap:round;}</style></defs><title>synonym</title><g id="_3" data-name="3"><rect class="cls-1" x="5.35" y="2.61" width="8.67" height="7" rx="1" ry="1"/><line class="cls-2" x1="9.7" y1="5.61" x2="9.7" y2="9.61"/><line class="cls-3" x1="9.7" y1="2.61" x2="9.7" y2="6.11"/><path class="cls-4" d="M13,3.36a.25.25,0,0,1,.25.25v5a.25.25,0,0,1-.25.25H6.35a.25.25,0,0,1-.25-.25v-5a.25.25,0,0,1,.25-.25H13m0-.75H6.35a1,1,0,0,0-1,1v5a1,1,0,0,0,1,1H13a1,1,0,0,0,1-1v-5A1,1,0,0,0,13,2.61Z"/><line class="cls-2" x1="13.51" y1="6.11" x2="5.85" y2="6.11"/><rect class="cls-4" x="2.01" y="8.59" width="4.5" height="4.79" rx="1" ry="1"/><line class="cls-5" x1="3.39" y1="11.84" x2="4.92" y2="10.34"/><line class="cls-5" x1="4.92" y1="11.82" x2="4.92" y2="10.34"/><line class="cls-5" x1="4.92" y1="10.34" x2="3.42" y2="10.3"/></g></svg>