<svg width="24" height="24" viewBox="0 0 24 24" fill="none" xmlns="http://www.w3.org/2000/svg">
<path d="M13.9703 3.5697H3.51531C2.9934 3.5697 2.57031 3.99279 2.57031 4.5147V17.9997C2.57031 18.5216 2.9934 18.9447 3.51531 18.9447H13.9703C14.4922 18.9447 14.9153 18.5216 14.9153 17.9997V4.5147C14.9153 3.99279 14.4922 3.5697 13.9703 3.5697Z" fill="#DEF4FD"/>
<path d="M13.97 4.125C14.0695 4.125 14.1648 4.16451 14.2352 4.23484C14.3055 4.30516 14.345 4.40054 14.345 4.5V18C14.345 18.0995 14.3055 18.1948 14.2352 18.2652C14.1648 18.3355 14.0695 18.375 13.97 18.375H3.47C3.37583 18.3674 3.28799 18.3246 3.22402 18.2551C3.16006 18.1856 3.1247 18.0945 3.125 18V4.5C3.125 4.40054 3.16451 4.30516 3.23484 4.23484C3.30516 4.16451 3.40054 4.125 3.5 4.125H14H13.97ZM14 3H3.5C3.10218 3 2.72064 3.15804 2.43934 3.43934C2.15804 3.72064 2 4.10218 2 4.5V18C2 18.3978 2.15804 18.7794 2.43934 19.0607C2.72064 19.342 3.10218 19.5 3.5 19.5H14C14.3978 19.5 14.7794 19.342 15.0607 19.0607C15.342 18.7794 15.5 18.3978 15.5 18V4.5C15.5 4.10218 15.342 3.72064 15.0607 3.43934C14.7794 3.15804 14.3978 3 14 3V3Z" fill="#34495E"/>
<path d="M6.30469 3.9447V2.9997C6.30855 2.75426 6.40778 2.51995 6.58135 2.34637C6.75493 2.17279 6.98924 2.07357 7.23469 2.0697H10.2347C10.4827 2.06967 10.7209 2.16717 10.8977 2.34116C11.0745 2.51515 11.1758 2.75168 11.1797 2.9997V3.9447H6.30469Z" fill="#DEF4FD"/>
<path d="M10.2344 2.625C10.3338 2.625 10.4292 2.66451 10.4995 2.73484C10.5699 2.80516 10.6094 2.90054 10.6094 3V3.375H6.85938V3C6.85938 2.90054 6.89888 2.80516 6.96921 2.73484C7.03954 2.66451 7.13492 2.625 7.23438 2.625H10.2344ZM10.2344 1.5H7.23438C6.83655 1.5 6.45502 1.65804 6.17372 1.93934C5.89241 2.22064 5.73438 2.60218 5.73438 3V4.5H11.7344V3C11.7344 2.60218 11.5763 2.22064 11.295 1.93934C11.0137 1.65804 10.6322 1.5 10.2344 1.5V1.5Z" fill="#34495E"/>
<path d="M7.92578 8.41502V7.39502H12.7258V8.43002L7.92578 8.41502Z" fill="#2195E7"/>
<path d="M4.91016 8.60982V7.31982H6.20016V8.60982H4.91016Z" fill="#2195E7"/>
<path d="M7.92578 11.9998V10.9198H12.7258V11.9998H7.92578Z" fill="#2195E7"/>
<path d="M4.91016 12.1351V10.8601H6.20016V12.1501L4.91016 12.1351Z" fill="#2195E7"/>
<path d="M7.92578 15.4653V14.4303H12.7258V15.4653H7.92578Z" fill="#2195E7"/>
<path d="M4.91016 15.5848V14.2948H6.20016V15.5848H4.91016Z" fill="#2195E7"/>
<path d="M15.6705 21.9956C19.2854 21.9956 22.2159 19.0651 22.2159 15.4501C22.2159 11.8352 19.2854 8.90466 15.6705 8.90466C12.0555 8.90466 9.125 11.8352 9.125 15.4501C9.125 19.0651 12.0555 21.9956 15.6705 21.9956Z" fill="#E3F3F9"/>
<path fill-rule="evenodd" clip-rule="evenodd" d="M15.6719 9.35916C12.308 9.35916 9.58097 12.0862 9.58097 15.4501C9.58097 18.814 12.308 21.541 15.6719 21.541C19.0358 21.541 21.7628 18.814 21.7628 15.4501C21.7628 12.0862 19.0358 9.35916 15.6719 9.35916ZM8.67188 15.4501C8.67188 11.5841 11.8059 8.45007 15.6719 8.45007C19.5379 8.45007 22.6719 11.5841 22.6719 15.4501C22.6719 19.3161 19.5379 22.4501 15.6719 22.4501C11.8059 22.4501 8.67188 19.3161 8.67188 15.4501Z" fill="#BD4949"/>
<path fill-rule="evenodd" clip-rule="evenodd" d="M15.6725 10.4805C16.0072 10.4805 16.2785 10.7518 16.2785 11.0865V15.4502C16.2785 15.7849 16.0072 16.0562 15.6725 16.0562C15.3377 16.0562 15.0664 15.7849 15.0664 15.4502V11.0865C15.0664 10.7518 15.3377 10.4805 15.6725 10.4805Z" fill="#1E50AD"/>
<path fill-rule="evenodd" clip-rule="evenodd" d="M15.0664 15.4502C15.0664 15.1155 15.3377 14.8441 15.6725 14.8441H18.9452C19.2799 14.8441 19.5513 15.1155 19.5513 15.4502C19.5513 15.7849 19.2799 16.0562 18.9452 16.0562H15.6725C15.3377 16.0562 15.0664 15.7849 15.0664 15.4502Z" fill="#1E50AD"/>
</svg>
