<?xml version="1.0" encoding="utf-8"?>
<!-- Generator: Adobe Illustrator 25.4.1, SVG Export Plug-In . SVG Version: 6.00 Build 0)  -->
<svg version="1.1" id="Layer_1" xmlns="http://www.w3.org/2000/svg" xmlns:xlink="http://www.w3.org/1999/xlink" x="0px" y="0px"
	 viewBox="0 0 16 16" style="enable-background:new 0 0 16 16;" xml:space="preserve">
<style type="text/css">
	.st0{fill:#FEE07B;stroke:#DDA91D;stroke-width:0.75;stroke-linecap:round;stroke-linejoin:round;}
	.st1{fill:none;stroke:#DDA91D;stroke-width:0.75;stroke-linecap:round;stroke-linejoin:round;}
	.st2{fill:#D0021B;}
</style>
<g>
	<g id="_8">
		<rect x="2.4" y="5" class="st0" width="11.1" height="6"/>
		<line class="st1" x1="10.9" y1="5.4" x2="10.9" y2="8.9"/>
		<line class="st1" x1="6.9" y1="5.4" x2="6.9" y2="8.9"/>
		<line class="st1" x1="8.9" y1="5.4" x2="8.9" y2="7.9"/>
		<line class="st1" x1="4.9" y1="5.4" x2="4.9" y2="7.9"/>
	</g>
	<path class="st2" d="M14,5.1l1-1c0.3-0.3,0.3-0.8,0-1.1s-0.8-0.3-1.1,0l-1,1l-1-1c-0.3-0.3-0.8-0.3-1.1,0s-0.3,0.8,0,1.1l1,1l-1,1
		c-0.3,0.3-0.3,0.8,0,1.1c0.1,0.1,0.3,0.2,0.5,0.2s0.6-0.1,0.7-0.3l1-1l1,1c0.1,0.1,0.3,0.2,0.5,0.2s0.4,0,0.5-0.2
		c0.3-0.3,0.3-0.8,0-1.1L14,5.1z"/>
</g>
</svg>
