<svg xmlns="http://www.w3.org/2000/svg" xmlns:xlink="http://www.w3.org/1999/xlink" viewBox="0 0 768 668"><defs><style>.cls-1{fill:#e9f8ff;opacity:0.9;}.cls-2{fill:url(#linear-gradient);}.cls-3{fill:url(#linear-gradient-2);}.cls-4{fill:url(#linear-gradient-3);}.cls-5{fill:url(#linear-gradient-4);}.cls-6{fill:url(#linear-gradient-5);}.cls-7{fill:url(#linear-gradient-6);}.cls-8{fill:url(#linear-gradient-7);}.cls-9{fill:url(#linear-gradient-8);}.cls-10{fill:url(#linear-gradient-9);}.cls-11{fill:url(#linear-gradient-10);}.cls-12{fill:url(#linear-gradient-11);}.cls-13{fill:url(#linear-gradient-12);}.cls-14{fill:url(#linear-gradient-13);}.cls-15{stroke:#000;stroke-width:5.11px;}.cls-16{fill:#336791;}.cls-17,.cls-18{fill:none;stroke-linecap:round;stroke-width:1.7px;}.cls-17,.cls-18,.cls-19,.cls-20{stroke:#fff;}.cls-17{stroke-linejoin:round;}.cls-18{stroke-linejoin:bevel;}.cls-19,.cls-20,.cls-21,.cls-23{fill:#fff;}.cls-19{stroke-width:0.57px;}.cls-20{stroke-width:0.29px;}.cls-21{font-size:35px;}.cls-21,.cls-23{font-family:Helvetica-Light, Helvetica;font-weight:300;}.cls-22{font-family:Helvetica-Bold, Helvetica;font-weight:700;}.cls-23{font-size:16px;}</style><linearGradient id="linear-gradient" x1="206.44" y1="286.69" x2="130.27" y2="158.12" gradientUnits="userSpaceOnUse"><stop offset="0" stop-color="#4a519d"/><stop offset="1" stop-color="#643e99"/></linearGradient><linearGradient id="linear-gradient-2" x1="507.22" y1="289.91" x2="430.57" y2="160.52" xlink:href="#linear-gradient"/><linearGradient id="linear-gradient-3" x1="505.78" y1="463.51" x2="655.22" y2="463.51" gradientUnits="userSpaceOnUse"><stop offset="0" stop-color="#5a96bd"/><stop offset="1" stop-color="#5997bd"/></linearGradient><linearGradient id="linear-gradient-4" x1="282.24" y1="332.89" x2="360.13" y2="204.7" gradientUnits="userSpaceOnUse"><stop offset="0" stop-color="#47539d"/><stop offset="1" stop-color="#534b9b"/></linearGradient><linearGradient id="linear-gradient-5" x1="285.87" y1="154.1" x2="210.32" y2="283.03" gradientUnits="userSpaceOnUse"><stop offset="0" stop-color="#7c5da9"/><stop offset="1" stop-color="#686cac"/></linearGradient><linearGradient id="linear-gradient-6" x1="733.76" y1="142.12" x2="658.21" y2="271.05" gradientTransform="translate(1310.01 397) rotate(180)" xlink:href="#linear-gradient-5"/><linearGradient id="linear-gradient-7" x1="655.22" y1="345.3" x2="710.53" y2="345.3" gradientUnits="userSpaceOnUse"><stop offset="0" stop-color="#4e5ea3"/><stop offset="1" stop-color="#4e5ea3"/></linearGradient><linearGradient id="linear-gradient-8" x1="91.81" y1="377.04" x2="147.13" y2="377.04" xlink:href="#linear-gradient-7"/><linearGradient id="linear-gradient-9" x1="206.9" y1="377.04" x2="356.34" y2="377.04" gradientUnits="userSpaceOnUse"><stop offset="0" stop-color="#3e6ba6"/><stop offset="1" stop-color="#3d6ba6"/></linearGradient><linearGradient id="linear-gradient-10" x1="356.34" y1="377.04" x2="505.78" y2="377.04" gradientUnits="userSpaceOnUse"><stop offset="0" stop-color="#4773ab"/><stop offset="1" stop-color="#4a71ab"/></linearGradient><linearGradient id="linear-gradient-11" x1="505.78" y1="377.04" x2="655.22" y2="377.04" gradientUnits="userSpaceOnUse"><stop offset="0" stop-color="#396ea7"/><stop offset="1" stop-color="#3e6aa6"/></linearGradient><linearGradient id="linear-gradient-12" x1="356.34" y1="290.76" x2="505.78" y2="290.76" gradientUnits="userSpaceOnUse"><stop offset="0" stop-color="#535ba3"/><stop offset="1" stop-color="#535ca3"/></linearGradient><linearGradient id="linear-gradient-13" x1="356.34" y1="463.32" x2="505.78" y2="463.32" gradientUnits="userSpaceOnUse"><stop offset="0" stop-color="#1a73a6"/><stop offset="1" stop-color="#1e71a5"/></linearGradient></defs><g id="Layer_2" data-name="Layer 2"><rect class="cls-1" width="768" height="668" rx="10"/></g><g id="Layer_1" data-name="Layer 1"><polygon class="cls-2" points="206.9 204.49 206.9 290.76 132.19 247.63 57.47 204.49 132.19 161.35 206.9 118.21 206.9 204.49"/><polygon class="cls-3" points="505.78 204.49 505.78 290.76 431.06 247.63 356.34 204.49 431.06 161.35 505.78 118.21 505.78 204.49"/><polygon class="cls-4" points="655.22 463.51 655.22 549.79 580.5 506.65 505.78 463.51 580.5 420.37 655.22 377.24 655.22 463.51"/><polygon class="cls-5" points="356.34 290.76 356.34 377.04 281.62 333.9 206.9 290.76 281.62 247.63 356.34 204.49 356.34 290.76"/><polygon class="cls-6" points="206.9 204.49 206.9 118.21 281.62 161.35 356.34 204.49 281.62 247.63 206.9 290.76 206.9 204.49"/><polygon class="cls-7" points="655.22 204.49 655.22 290.76 580.5 247.63 505.78 204.49 580.5 161.35 655.22 118.21 655.22 204.49"/><polygon class="cls-8" points="655.22 345.3 655.22 313.36 682.88 329.33 710.53 345.3 682.88 361.27 655.22 377.24 655.22 345.3"/><polygon class="cls-9" points="91.81 377.04 91.81 345.11 119.47 361.08 147.13 377.04 119.47 393.01 91.81 408.98 91.81 377.04"/><polygon class="cls-10" points="206.9 377.04 206.9 290.76 281.62 333.9 356.34 377.04 281.62 420.18 206.9 463.32 206.9 377.04"/><polygon class="cls-11" points="505.78 377.04 505.78 463.32 431.06 420.18 356.34 377.04 431.06 333.9 505.78 290.76 505.78 377.04"/><polygon class="cls-12" points="505.78 377.04 505.78 290.76 580.5 333.9 655.22 377.04 580.5 420.18 505.78 463.32 505.78 377.04"/><polygon class="cls-13" points="356.34 290.76 356.34 204.49 431.06 247.63 505.78 290.76 431.06 333.9 356.34 377.04 356.34 290.76"/><polygon class="cls-14" points="356.34 463.32 356.34 377.04 431.06 420.18 505.78 463.32 431.06 506.46 356.34 549.6 356.34 463.32"/><g id="Layer_1-2" data-name="Layer 1"><g id="Layer_3" data-name="Layer 3"><path class="cls-15" d="M286.79,347.86c.38-3.23.27-3.7,2.67-3.18l.61.06a13.8,13.8,0,0,0,5.68-1c3.05-1.42,4.87-3.78,1.86-3.16-6.88,1.42-7.35-.91-7.35-.91,7.26-10.77,10.27-24.44,7.67-27.77-7.14-9.14-19.51-4.83-19.71-4.71h-.07a23.5,23.5,0,0,0-4.58-.48,11.36,11.36,0,0,0-7.26,2.18s-22.06-9.08-21,11.43c.22,4.36,6.26,33,13.46,24.37,2.63-3.17,5.2-5.84,5.2-5.84a6.73,6.73,0,0,0,4.34,1.13l.12-.11a4.6,4.6,0,0,0,.05,1.23c-1.85,2.08-1.31,2.44-5,3.2s-1.55,2.15-.11,2.51a7.64,7.64,0,0,0,8.52-2.77l-.11.44c.73.58.68,4.19.78,6.76a23.87,23.87,0,0,0,.81,6.39c.52,1.41,1.14,5.06,6,4,4.06-.88,7.16-2.11,7.46-13.82"/><path class="cls-16" d="M297.61,340.62c-6.88,1.42-7.35-.91-7.35-.91,7.26-10.77,10.27-24.44,7.67-27.77-7.14-9.14-19.51-4.83-19.71-4.71h-.07a23.5,23.5,0,0,0-4.58-.48,11.36,11.36,0,0,0-7.26,2.18s-22.06-9.08-21,11.43c.22,4.36,6.26,33,13.46,24.37,2.63-3.17,5.2-5.84,5.2-5.84a6.73,6.73,0,0,0,4.34,1.13l.12-.11a5,5,0,0,0,.05,1.22c-1.85,2.07-1.31,2.44-5,3.2s-1.55,2.15-.11,2.5a7.65,7.65,0,0,0,8.53-2.76l-.11.43c.72.59,1.23,3.79,1.15,6.7s-.14,4.9.43,6.45,1.14,5.07,6,4c4.05-.87,6.15-3.1,6.45-6.9.2-2.69.7-2.28.7-4.69l.38-1.13c.43-3.64.07-4.81,2.58-4.27l.61.06a13.8,13.8,0,0,0,5.68-1c3.05-1.42,4.87-3.78,1.86-3.16Z"/><path class="cls-17" d="M272.12,342.7c-.19,6.77,0,13.59.7,15.24s2.08,4.88,7,3.83c4.07-.87,5.56-2.56,6.2-6.29.47-2.74,1.39-10.36,1.5-11.93m-21.21-34.77s-22.06-9-21.06,11.5c.22,4.36,6.26,33,13.46,24.36,2.63-3.16,5-5.65,5-5.65m14.51-31.85c-.76.23,12.28-4.77,19.7,4.7,2.61,3.34-.42,17-7.68,27.79"/><path class="cls-18" d="M290.21,339.63s.47,2.32,7.35.9c3-.62,1.2,1.75-1.86,3.17-2.51,1.16-8.13,1.46-8.22-.15-.23-4.15,3-2.89,2.73-3.92s-1.63-1.86-2.58-4.15c-.82-2-11.32-17.34,2.91-15,.5-.11-3.71-13.54-17-13.75S260.65,323,260.65,323"/><path class="cls-17" d="M268.39,341c-1.85,2.07-1.31,2.44-5,3.2s-1.55,2.15-.11,2.51a7.64,7.64,0,0,0,8.52-2.77,2.57,2.57,0,0,0-1.14-3.51,1.7,1.7,0,0,0-2.24.55Z"/><path class="cls-17" d="M268.27,341c-.19-1.22.4-2.67,1-4.37.95-2.55,3.15-5.1,1.38-13.18-1.3-6-10-1.25-10-.43a41.35,41.35,0,0,1-.15,8c-.71,5,3.21,9.31,7.72,8.87"/><path class="cls-19" d="M266.19,322.92c0,.28.5,1,1.23,1.12a1.32,1.32,0,0,0,1.36-.76c0-.28-.5-.59-1.22-.69S266.23,322.64,266.19,322.92Z"/><path class="cls-20" d="M288,322.35c0,.28-.51,1-1.23,1.12a1.32,1.32,0,0,1-1.37-.76c0-.28.5-.58,1.23-.68S288,322.07,288,322.35Z"/><path class="cls-17" d="M290.54,320.42c.12,2.19-.47,3.68-.54,6-.11,3.38,1.61,7.25-1,11.12"/></g></g><text class="cls-21" transform="translate(312.69 329.31)">pg<tspan class="cls-22" x="42.77" y="0">Admin</tspan></text><text class="cls-23" transform="translate(315.51 357.36)">Management Tools for PostgreSQL</text></g></svg>