<svg xmlns="http://www.w3.org/2000/svg" viewBox="0 0 16 16"><defs><style>.cls-1{fill:#fee;}.cls-2{fill:#bd4949;}.cls-3{fill:#bfe1f1;}.cls-4{fill:#2c66bd;}.cls-5{fill:#34495e;fill-rule:evenodd;}</style></defs><title>coll-user_mapping</title><g id="_2" data-name="2"><path class="cls-1" d="M2.28,10.32a1.37,1.37,0,0,1,0-.14A4.42,4.42,0,0,1,6.81,5.9a4.42,4.42,0,0,1,4.54,4.28,1.37,1.37,0,0,1,0,.14Z"/><path class="cls-2" d="M6.81,6.27A4.06,4.06,0,0,1,11,9.95H2.66A4.06,4.06,0,0,1,6.81,6.27m0-.75A4.79,4.79,0,0,0,1.9,10.18,4.34,4.34,0,0,0,2,10.7h9.72a4.36,4.36,0,0,0,.06-.52A4.79,4.79,0,0,0,6.81,5.52Z"/><circle class="cls-1" cx="6.81" cy="4.49" r="2.21"/><path class="cls-2" d="M6.81,2.65A1.84,1.84,0,1,1,5,4.49,1.84,1.84,0,0,1,6.81,2.65m0-.75A2.59,2.59,0,1,0,9.4,4.49,2.59,2.59,0,0,0,6.81,1.9Z"/><path class="cls-3" d="M4.66,11.43a1.37,1.37,0,0,1,0-.14A4.42,4.42,0,0,1,9.19,7a4.42,4.42,0,0,1,4.54,4.28,1.37,1.37,0,0,1,0,.14Z"/><path class="cls-4" d="M9.19,7.38a4.06,4.06,0,0,1,4.16,3.67H5A4.06,4.06,0,0,1,9.19,7.38m0-.75a4.79,4.79,0,0,0-4.91,4.66,4.36,4.36,0,0,0,.06.52H14a4.34,4.34,0,0,0,.06-.52A4.79,4.79,0,0,0,9.19,6.63Z"/><circle class="cls-3" cx="9.19" cy="5.6" r="2.21"/><path class="cls-4" d="M9.19,3.76A1.84,1.84,0,1,1,7.35,5.6,1.84,1.84,0,0,1,9.19,3.76m0-.75A2.59,2.59,0,1,0,11.77,5.6,2.59,2.59,0,0,0,9.19,3Z"/><circle class="cls-3" cx="9.13" cy="11.25" r="2.85"/><path class="cls-5" d="M9.54,11.26a.4.4,0,1,0-.39.39.41.41,0,0,0,.39-.39Zm1.83-.4h0l-.56-.1a1.3,1.3,0,0,0-.15-.34L11,9.94a.11.11,0,0,0,0-.14l-.39-.39a.12.12,0,0,0-.15,0L10,9.72a1.59,1.59,0,0,0-.34-.15L9.53,9a.14.14,0,0,0-.12-.09H8.85A.12.12,0,0,0,8.73,9l-.11.57a1.31,1.31,0,0,0-.32.13l-.47-.32a.1.1,0,0,0-.15,0l-.39.39a.11.11,0,0,0,0,.14l.32.46a2,2,0,0,0-.13.34l-.56.1a.11.11,0,0,0-.09.11v.57a.1.1,0,0,0,.09.1l.56.11a1,1,0,0,0,.15.32l-.32.46a.1.1,0,0,0,0,.15l.39.4a.12.12,0,0,0,.15,0l.46-.32a1.23,1.23,0,0,0,.32.13l.11.57a.11.11,0,0,0,.11.09h.56a.13.13,0,0,0,.12-.09l.1-.56L10,12.8l.46.31a.12.12,0,0,0,.14,0l.39-.4a.1.1,0,0,0,0-.15l-.32-.48a1,1,0,0,0,.15-.32l.56-.11a.1.1,0,0,0,.09-.1V11a.11.11,0,0,0-.09-.11ZM9.14,12.22h0a1,1,0,1,1,1-1,1,1,0,0,1-1,1Z"/></g></svg>