<svg xmlns="http://www.w3.org/2000/svg" viewBox="0 0 16 16"><defs><style>.cls-1{fill:#bfe1f1;}.cls-2{fill:#2c66bd;}.cls-3{fill:#34495e;fill-rule:evenodd;}</style></defs><title>user_mapping</title><g id="_2" data-name="2"><path class="cls-1" d="M2.64,11.43a1.8,1.8,0,0,1,0-.23A5.23,5.23,0,0,1,8,6.13a5.23,5.23,0,0,1,5.37,5.07,1.8,1.8,0,0,1,0,.23Z"/><path class="cls-2" d="M8,6.5a4.87,4.87,0,0,1,5,4.55H3A4.87,4.87,0,0,1,8,6.5m0-.75A5.6,5.6,0,0,0,2.25,11.2a5.08,5.08,0,0,0,.06.6H13.68a5.08,5.08,0,0,0,.06-.6A5.6,5.6,0,0,0,8,5.75Z"/><circle class="cls-1" cx="8" cy="4.54" r="2.65"/><path class="cls-2" d="M8,2.27A2.27,2.27,0,1,1,5.72,4.54,2.28,2.28,0,0,1,8,2.27m0-.75a3,3,0,1,0,3,3,3,3,0,0,0-3-3Z"/><circle class="cls-1" cx="7.94" cy="11.15" r="3.33"/><path class="cls-3" d="M8.41,11.16a.47.47,0,1,0-.46.46.47.47,0,0,0,.46-.46Zm2.14-.47h0l-.65-.12a1.52,1.52,0,0,0-.17-.4l.39-.56a.13.13,0,0,0,0-.16L9.63,9a.14.14,0,0,0-.17,0l-.55.39a1.86,1.86,0,0,0-.4-.17L8.4,8.54a.16.16,0,0,0-.14-.11H7.6a.14.14,0,0,0-.13.11l-.12.67A1.53,1.53,0,0,0,7,9.36L6.42,9a.12.12,0,0,0-.17,0l-.46.46a.13.13,0,0,0,0,.16l.37.54a2.32,2.32,0,0,0-.16.4l-.65.12a.13.13,0,0,0-.11.13v.67a.12.12,0,0,0,.11.12l.65.13a1.22,1.22,0,0,0,.17.38l-.37.54a.12.12,0,0,0,0,.17l.46.47a.14.14,0,0,0,.17,0L7,12.94a1.44,1.44,0,0,0,.38.15l.12.67a.13.13,0,0,0,.13.11h.66a.15.15,0,0,0,.14-.11l.12-.65c.13,0,.27-.09.4-.15l.54.36a.14.14,0,0,0,.16,0l.46-.47a.12.12,0,0,0,0-.17l-.37-.56a1.22,1.22,0,0,0,.17-.38l.65-.13a.12.12,0,0,0,.11-.12v-.67a.13.13,0,0,0-.11-.13Zm-2.6,1.6h0a1.14,1.14,0,1,1,1.13-1.13,1.14,1.14,0,0,1-1.13,1.13Z"/></g></svg>