<svg id="Layer_1" data-name="Layer 1" xmlns="http://www.w3.org/2000/svg" viewBox="0 0 16 16"><defs><style>.cls-1{fill:#def4fd;}.cls-2{fill:#2980b9;}.cls-3{fill:#34495e;stroke:#2880b9;stroke-linecap:round;stroke-linejoin:round;}</style></defs><title>coll-foreign_data_wrapper</title><path class="cls-1" d="M10.82,6.5A.87.87,0,0,0,11,6c0-1.1-2.46-2-5.5-2S0,4.9,0,6a.87.87,0,0,0,.18.5.78.78,0,0,0,0,1,.78.78,0,0,0,0,1,.78.78,0,0,0,0,1,.78.78,0,0,0,0,1,.78.78,0,0,0,0,1A.87.87,0,0,0,0,12c0,1.1,2.46,2,5.5,2s5.5-.9,5.5-2a.87.87,0,0,0-.18-.5.78.78,0,0,0,0-1,.78.78,0,0,0,0-1,.78.78,0,0,0,0-1,.78.78,0,0,0,0-1,.78.78,0,0,0,0-1Z"/><ellipse class="cls-2" cx="5.5" cy="6" rx="5.5" ry="2"/><path class="cls-2" d="M5.5,13C2.94,13,.79,12.36.18,11.5A.87.87,0,0,0,0,12c0,1.1,2.46,2,5.5,2s5.5-.9,5.5-2a.87.87,0,0,0-.18-.5C10.21,12.36,8.06,13,5.5,13Z"/><path class="cls-2" d="M5.5,10C2.94,10,.79,9.36.18,8.5A.87.87,0,0,0,0,9c0,1.1,2.46,2,5.5,2S11,10.1,11,9a.87.87,0,0,0-.18-.5C10.21,9.36,8.06,10,5.5,10Z"/><line class="cls-3" x1="9.5" y1="4.5" x2="11.5" y2="2.5"/><line class="cls-3" x1="9.5" y1="2.5" x2="11.5" y2="2.5"/><line class="cls-3" x1="11.5" y1="4.5" x2="11.5" y2="2.5"/></svg>