<svg xmlns="http://www.w3.org/2000/svg" viewBox="0 0 16 16"><defs><style>.cls-1{fill:#34495e;stroke:#ac9230;stroke-linecap:round;stroke-linejoin:round;}.cls-2{fill:#f2f2f2;}.cls-3{fill:#ac9230;}</style></defs><title>coll-foreign_data_wrapper</title><g id="_2" data-name="2"><line class="cls-1" x1="11.5" y1="4.25" x2="13.5" y2="2.25"/><line class="cls-1" x1="11.5" y1="2.25" x2="13.5" y2="2.25"/><line class="cls-1" x1="13.5" y1="4.25" x2="13.5" y2="2.25"/></g><g id="_3" data-name="3"><path class="cls-2" d="M12.82,6.25a.87.87,0,0,0,.18-.5c0-1.1-2.46-2-5.5-2s-5.5.9-5.5,2a.87.87,0,0,0,.18.5.78.78,0,0,0,0,1,.78.78,0,0,0,0,1,.78.78,0,0,0,0,1,.78.78,0,0,0,0,1,.78.78,0,0,0,0,1,.87.87,0,0,0-.18.5c0,1.1,2.46,2,5.5,2s5.5-.9,5.5-2a.87.87,0,0,0-.18-.5.78.78,0,0,0,0-1,.78.78,0,0,0,0-1,.78.78,0,0,0,0-1,.78.78,0,0,0,0-1,.78.78,0,0,0,0-1Z"/><ellipse class="cls-3" cx="7.5" cy="5.75" rx="5.5" ry="2"/><path class="cls-3" d="M7.5,12.75c-2.56,0-4.71-.64-5.32-1.5a.87.87,0,0,0-.18.5c0,1.1,2.46,2,5.5,2s5.5-.9,5.5-2a.87.87,0,0,0-.18-.5C12.21,12.11,10.07,12.75,7.5,12.75Z"/><path class="cls-3" d="M7.5,8.75c-2.56,0-4.71-.64-5.32-1.5a.87.87,0,0,0-.18.5c0,1.1,2.46,2,5.5,2s5.5-.9,5.5-2a.87.87,0,0,0-.18-.5C12.21,8.11,10.07,8.75,7.5,8.75Z"/><path class="cls-3" d="M7.5,10.75c-2.56,0-4.71-.64-5.32-1.5a.87.87,0,0,0-.18.5c0,1.1,2.46,2,5.5,2s5.5-.9,5.5-2a.87.87,0,0,0-.18-.5C12.21,10.11,10.07,10.75,7.5,10.75Z"/></g></svg>