<svg id="Layer_1" data-name="Layer 1" xmlns="http://www.w3.org/2000/svg" viewBox="0 0 17 15"><defs><style>.cls-1{fill:#def4fd;}.cls-2{fill:#2980b9;}.cls-3{fill:#34495e;stroke:#2880b9;stroke-linecap:round;stroke-linejoin:round;}</style></defs><title>foreign_data_wrapper</title><path class="cls-1" d="M10.82,5.5A.87.87,0,0,0,11,5c0-1.1-2.46-2-5.5-2S0,3.9,0,5a.87.87,0,0,0,.18.5.78.78,0,0,0,0,1,.78.78,0,0,0,0,1,.78.78,0,0,0,0,1,.78.78,0,0,0,0,1,.78.78,0,0,0,0,1A.87.87,0,0,0,0,11c0,1.1,2.46,2,5.5,2s5.5-.9,5.5-2a.87.87,0,0,0-.18-.5.78.78,0,0,0,0-1,.78.78,0,0,0,0-1,.78.78,0,0,0,0-1,.78.78,0,0,0,0-1,.78.78,0,0,0,0-1Z"/><ellipse class="cls-2" cx="5.5" cy="5" rx="5.5" ry="2"/><path class="cls-2" d="M5.5,12C2.94,12,.79,11.36.18,10.5A.87.87,0,0,0,0,11c0,1.1,2.46,2,5.5,2s5.5-.9,5.5-2a.87.87,0,0,0-.18-.5C10.21,11.36,8.06,12,5.5,12Z"/><line class="cls-3" x1="9.5" y1="3.5" x2="11.5" y2="1.5"/><line class="cls-3" x1="9.5" y1="1.5" x2="11.5" y2="1.5"/><line class="cls-3" x1="11.5" y1="3.5" x2="11.5" y2="1.5"/></svg>