<svg xmlns="http://www.w3.org/2000/svg" viewBox="0 0 16 16"><defs><style>.cls-1{fill:#f9f9d1;}.cls-2,.cls-3{fill:#ac9230;}.cls-3{stroke:#ac9230;stroke-linecap:round;stroke-linejoin:round;}</style></defs><title>foreign_data_wrapper</title><g id="_2" data-name="2"><path class="cls-1" d="M13.07,6.25a.87.87,0,0,0,.18-.5c0-1.1-2.46-2-5.5-2s-5.5.9-5.5,2a.87.87,0,0,0,.18.5.78.78,0,0,0,0,1,.78.78,0,0,0,0,1,.78.78,0,0,0,0,1,.78.78,0,0,0,0,1,.78.78,0,0,0,0,1,.87.87,0,0,0-.18.5c0,1.1,2.46,2,5.5,2s5.5-.9,5.5-2a.87.87,0,0,0-.18-.5.78.78,0,0,0,0-1,.78.78,0,0,0,0-1,.78.78,0,0,0,0-1,.78.78,0,0,0,0-1,.78.78,0,0,0,0-1Z"/><ellipse class="cls-2" cx="7.75" cy="5.75" rx="5.5" ry="2"/><path class="cls-2" d="M7.75,12.75c-2.56,0-4.71-.64-5.32-1.5a.87.87,0,0,0-.18.5c0,1.1,2.46,2,5.5,2s5.5-.9,5.5-2a.87.87,0,0,0-.18-.5C12.46,12.11,10.31,12.75,7.75,12.75Z"/><path class="cls-2" d="M7.75,9.75c-2.56,0-4.71-.64-5.32-1.5a.87.87,0,0,0-.18.5c0,1.1,2.46,2,5.5,2s5.5-.9,5.5-2a.87.87,0,0,0-.18-.5C12.46,9.11,10.31,9.75,7.75,9.75Z"/><line class="cls-3" x1="11.75" y1="4.25" x2="13.75" y2="2.25"/><line class="cls-3" x1="11.75" y1="2.25" x2="13.75" y2="2.25"/><line class="cls-3" x1="13.75" y1="4.25" x2="13.75" y2="2.25"/></g></svg>