<svg xmlns="http://www.w3.org/2000/svg" viewBox="0 0 16 16"><defs><style>.cls-1{fill:#e1fff9;}.cls-2{fill:none;stroke:#aecec8;stroke-linejoin:round;stroke-width:0.75px;}.cls-3{fill:#16a085;}</style></defs><title>coll-catalog_object_column</title><g id="_2" data-name="2"><rect class="cls-1" x="4.15" y="1.95" width="5.5" height="9.9" rx="1" ry="1"/><line class="cls-2" x1="4.7" y1="6.9" x2="9.1" y2="6.9"/><line class="cls-2" x1="4.7" y1="9.1" x2="9.1" y2="9.1"/><path class="cls-3" d="M4.9,5.18l4,0v5.55a.35.35,0,0,1-.35.35H5.25a.35.35,0,0,1-.35-.35V5.18m-.75-.75v6.32a1.1,1.1,0,0,0,1.1,1.1h3.3a1.1,1.1,0,0,0,1.1-1.1V4.46l-5.5,0Z"/><path class="cls-3" d="M8.55,2.7A.35.35,0,0,1,8.9,3V4.5h-4V3a.35.35,0,0,1,.35-.35h3.3m0-.75H5.25A1.1,1.1,0,0,0,4.15,3v2.2h5.5V3A1.1,1.1,0,0,0,8.55,2Z"/><rect class="cls-1" x="6.35" y="4.15" width="5.5" height="9.9" rx="1" ry="1"/><line class="cls-2" x1="6.9" y1="9.1" x2="11.3" y2="9.1"/><line class="cls-2" x1="6.9" y1="11.3" x2="11.3" y2="11.3"/><path class="cls-3" d="M7.1,7.38l4,0V13a.35.35,0,0,1-.35.35H7.45A.35.35,0,0,1,7.1,13V7.38m-.75-.75V13A1.1,1.1,0,0,0,7.45,14h3.3a1.1,1.1,0,0,0,1.1-1.1V6.66l-5.5,0Z"/><path class="cls-3" d="M10.75,4.9a.35.35,0,0,1,.35.35V6.7h-4V5.25a.35.35,0,0,1,.35-.35h3.3m0-.75H7.45a1.1,1.1,0,0,0-1.1,1.1v2.2h5.5V5.25a1.1,1.1,0,0,0-1.1-1.1Z"/></g></svg>