<svg xmlns="http://www.w3.org/2000/svg" viewBox="0 0 16 16"><defs><style>.cls-1{fill:#fefabf;}.cls-2{fill:none;}.cls-2,.cls-3{stroke:#b9871b;stroke-linecap:round;stroke-linejoin:round;stroke-width:0.75px;}.cls-3{fill:#409ff4;}</style></defs><title>coll-package</title><g id="_2" data-name="2"><polygon class="cls-1" points="2.34 3.92 2.34 6.66 4.72 8.04 7.1 6.66 7.1 3.92 4.72 2.54 2.34 3.92"/><polygon class="cls-1" points="8.89 3.9 8.89 6.65 11.27 8.02 13.65 6.65 13.65 3.9 11.27 2.53 8.89 3.9"/><polygon class="cls-1" points="5.63 9.37 5.63 12.11 8.01 13.49 10.39 12.11 10.39 9.37 8.01 7.99 5.63 9.37"/><line class="cls-2" x1="8" y1="10.73" x2="8" y2="13.87"/><line class="cls-2" x1="10.73" y1="9.17" x2="10.73" y2="12.3"/><line class="cls-2" x1="5.27" y1="9.17" x2="5.27" y2="12.3"/><line class="cls-2" x1="8" y1="10.73" x2="10.72" y2="9.17"/><line class="cls-2" x1="5.28" y1="9.15" x2="8" y2="7.58"/><line class="cls-2" x1="8" y1="13.87" x2="10.72" y2="12.3"/><line class="cls-2" x1="8" y1="10.73" x2="5.28" y2="9.17"/><line class="cls-2" x1="10.72" y1="9.15" x2="8" y2="7.58"/><line class="cls-2" x1="8" y1="13.87" x2="5.28" y2="12.3"/><line class="cls-3" x1="11.27" y1="5.28" x2="11.27" y2="8.42"/><line class="cls-3" x1="14" y1="3.72" x2="14" y2="6.85"/><line class="cls-3" x1="8.54" y1="3.72" x2="8.54" y2="6.85"/><line class="cls-3" x1="11.27" y1="5.28" x2="13.99" y2="3.72"/><line class="cls-3" x1="8.55" y1="3.7" x2="11.27" y2="2.13"/><line class="cls-3" x1="11.27" y1="8.42" x2="13.99" y2="6.85"/><line class="cls-3" x1="11.27" y1="5.28" x2="8.55" y2="3.72"/><line class="cls-3" x1="13.99" y1="3.7" x2="11.27" y2="2.13"/><line class="cls-3" x1="11.27" y1="8.42" x2="8.55" y2="6.85"/><line class="cls-2" x1="4.73" y1="5.28" x2="4.73" y2="8.42"/><line class="cls-2" x1="7.46" y1="3.72" x2="7.46" y2="6.85"/><line class="cls-2" x1="2" y1="3.72" x2="2" y2="6.85"/><line class="cls-2" x1="4.73" y1="5.28" x2="7.45" y2="3.72"/><line class="cls-2" x1="2.01" y1="3.7" x2="4.73" y2="2.13"/><line class="cls-2" x1="4.73" y1="8.42" x2="7.45" y2="6.85"/><line class="cls-2" x1="4.73" y1="5.28" x2="2.01" y2="3.72"/><line class="cls-2" x1="7.45" y1="3.7" x2="4.73" y2="2.13"/><line class="cls-2" x1="4.73" y1="8.42" x2="2.01" y2="6.85"/></g></svg>