<svg id="Layer_1" data-name="Layer 1" xmlns="http://www.w3.org/2000/svg" viewBox="0 0 16 16"><defs><style>.cls-1{fill:#def4fd;}.cls-2{fill:none;}.cls-2,.cls-3{stroke:#34495e;stroke-linecap:round;stroke-linejoin:round;stroke-width:0.75px;}.cls-3{fill:#409ff4;}</style></defs><title>coll-package</title><polygon class="cls-1" points="0.78 4.44 0.78 7.19 3.16 8.56 5.54 7.19 5.54 4.44 3.16 3.07 0.78 4.44"/><polygon class="cls-1" points="7.33 4.43 7.33 7.17 9.71 8.55 12.09 7.17 12.09 4.43 9.71 3.05 7.33 4.43"/><polygon class="cls-1" points="4.07 9.89 4.07 12.64 6.45 14.01 8.82 12.64 8.82 9.89 6.45 8.52 4.07 9.89"/><line class="cls-2" x1="6.44" y1="11.26" x2="6.44" y2="14.39"/><line class="cls-2" x1="9.16" y1="9.69" x2="9.16" y2="12.83"/><line class="cls-2" x1="3.71" y1="9.69" x2="3.71" y2="12.83"/><line class="cls-2" x1="6.44" y1="11.26" x2="9.16" y2="9.69"/><line class="cls-2" x1="3.72" y1="9.68" x2="6.43" y2="8.11"/><line class="cls-2" x1="6.44" y1="14.39" x2="9.16" y2="12.83"/><line class="cls-2" x1="6.43" y1="11.26" x2="3.72" y2="9.69"/><line class="cls-2" x1="9.16" y1="9.68" x2="6.44" y2="8.11"/><line class="cls-2" x1="6.43" y1="14.39" x2="3.72" y2="12.83"/><line class="cls-3" x1="9.71" y1="5.81" x2="9.71" y2="8.94"/><line class="cls-3" x1="12.43" y1="4.24" x2="12.43" y2="7.37"/><line class="cls-3" x1="6.98" y1="4.24" x2="6.98" y2="7.37"/><line class="cls-3" x1="9.71" y1="5.81" x2="12.43" y2="4.24"/><line class="cls-3" x1="6.99" y1="4.23" x2="9.7" y2="2.66"/><line class="cls-3" x1="9.71" y1="8.94" x2="12.43" y2="7.37"/><line class="cls-3" x1="9.7" y1="5.81" x2="6.99" y2="4.24"/><line class="cls-3" x1="12.43" y1="4.23" x2="9.71" y2="2.66"/><line class="cls-3" x1="9.7" y1="8.94" x2="6.99" y2="7.37"/><line class="cls-2" x1="3.17" y1="5.81" x2="3.17" y2="8.94"/><line class="cls-2" x1="5.89" y1="4.24" x2="5.89" y2="7.37"/><line class="cls-2" x1="0.44" y1="4.24" x2="0.44" y2="7.37"/><line class="cls-2" x1="3.17" y1="5.81" x2="5.89" y2="4.24"/><line class="cls-2" x1="0.45" y1="4.23" x2="3.16" y2="2.66"/><line class="cls-2" x1="3.17" y1="8.94" x2="5.89" y2="7.37"/><line class="cls-2" x1="3.16" y1="5.81" x2="0.45" y2="4.24"/><line class="cls-2" x1="5.89" y1="4.23" x2="3.17" y2="2.66"/><line class="cls-2" x1="3.16" y1="8.94" x2="0.45" y2="7.37"/></svg>