<svg id="Layer_1" data-name="Layer 1" xmlns="http://www.w3.org/2000/svg" viewBox="0 0 16 16"><defs><style>.cls-1{fill:#d4e3f3;}.cls-2{fill:#6f6f6f;}</style></defs><polygon class="cls-1" points="2.15 7.15 2.15 4.65 4.65 4.65 4.65 2.15 7.15 2.15 7.15 7.15 2.15 7.15"/><path class="cls-2" d="M6.65,2.65v4h-4V5.15h2.5V2.65h1.5m1-1H4.15v2.5H1.65v3.5h6v-6Z"/><polygon class="cls-1" points="4.15 9.15 4.15 6.65 6.65 6.65 6.65 4.15 9.15 4.15 9.15 9.15 4.15 9.15"/><path class="cls-2" d="M8.65,4.65v4h-4V7.15h2.5V4.65h1.5m1-1H6.15v2.5H3.65v3.5h6v-6Z"/><polygon class="cls-1" points="8.85 13.85 8.85 11.35 6.35 11.35 6.35 8.85 8.85 8.85 8.85 6.35 11.35 6.35 11.35 8.85 13.85 8.85 13.85 11.35 11.35 11.35 11.35 13.85 8.85 13.85"/><path class="cls-2" d="M10.85,6.85v2.5h2.5v1.5h-2.5v2.5H9.35v-2.5H6.85V9.35h2.5V6.85h1.5m1-1H8.35v2.5H5.85v3.5h2.5v2.5h3.5v-2.5h2.5V8.35h-2.5V5.85Z"/></svg>