<svg id="Layer_1" data-name="Layer 1" xmlns="http://www.w3.org/2000/svg" viewBox="0 0 16 16"><defs><style>.cls-1{fill:#def4fd;}.cls-2,.cls-3{fill:#2980b9;}.cls-3{stroke:#2980b9;stroke-miterlimit:1;stroke-width:0.5px;}.cls-4{fill:#34495e;stroke:#2880b9;stroke-linecap:round;stroke-linejoin:round;}</style></defs><title>coll-foreign_server</title><path class="cls-1" d="M2.2,3.1H9.8a1.13,1.13,0,0,1,1.13,1.13v.85A1.12,1.12,0,0,1,9.8,6.2H2.2A1.13,1.13,0,0,1,1.08,5.08V4.22A1.13,1.13,0,0,1,2.2,3.1Z"/><path class="cls-2" d="M9.8,3.48a.75.75,0,0,1,.75.75v.85a.75.75,0,0,1-.75.75H2.2a.75.75,0,0,1-.75-.75V4.23a.75.75,0,0,1,.75-.75H9.8m0-.75H2.2A1.5,1.5,0,0,0,.7,4.23v.85a1.5,1.5,0,0,0,1.5,1.5H9.8a1.5,1.5,0,0,0,1.5-1.5V4.23a1.5,1.5,0,0,0-1.5-1.5Z"/><line class="cls-3" x1="4.38" y1="4.65" x2="2.27" y2="4.65"/><path class="cls-1" d="M2.2,7H9.8a1.12,1.12,0,0,1,1.12,1.12v.85A1.13,1.13,0,0,1,9.8,10H2.2A1.13,1.13,0,0,1,1.08,8.92V8.08A1.12,1.12,0,0,1,2.2,7Z"/><path class="cls-2" d="M9.8,7.32a.75.75,0,0,1,.75.75v.85a.75.75,0,0,1-.75.75H2.2a.75.75,0,0,1-.75-.75V8.07a.75.75,0,0,1,.75-.75H9.8m0-.75H2.2A1.5,1.5,0,0,0,.7,8.07v.85a1.5,1.5,0,0,0,1.5,1.5H9.8a1.5,1.5,0,0,0,1.5-1.5V8.07a1.5,1.5,0,0,0-1.5-1.5Z"/><line class="cls-3" x1="4.38" y1="8.5" x2="2.27" y2="8.5"/><path class="cls-1" d="M2.2,10.8H9.8a1.13,1.13,0,0,1,1.13,1.13v.85A1.12,1.12,0,0,1,9.8,13.9H2.2a1.13,1.13,0,0,1-1.12-1.12v-.85A1.13,1.13,0,0,1,2.2,10.8Z"/><path class="cls-2" d="M9.8,11.18a.75.75,0,0,1,.75.75v.85a.75.75,0,0,1-.75.75H2.2a.75.75,0,0,1-.75-.75v-.85a.75.75,0,0,1,.75-.75H9.8m0-.75H2.2a1.5,1.5,0,0,0-1.5,1.5v.85a1.5,1.5,0,0,0,1.5,1.5H9.8a1.5,1.5,0,0,0,1.5-1.5v-.85a1.5,1.5,0,0,0-1.5-1.5Z"/><line class="cls-3" x1="4.38" y1="12.35" x2="2.27" y2="12.35"/><line class="cls-4" x1="10.5" y1="3.5" x2="12.5" y2="1.5"/><line class="cls-4" x1="10.5" y1="1.5" x2="12.5" y2="1.5"/><line class="cls-4" x1="12.5" y1="3.5" x2="12.5" y2="1.5"/></svg>