<svg id="Layer_1" data-name="Layer 1" xmlns="http://www.w3.org/2000/svg" viewBox="0 0 16 16"><defs><style>.cls-1{fill:#def4fd;}.cls-2,.cls-3{fill:#2980b9;}.cls-3{stroke:#2980b9;stroke-miterlimit:1;stroke-width:0.5px;}.cls-4{fill:#34495e;stroke:#2880b9;stroke-linecap:round;stroke-linejoin:round;}</style></defs><title>foreign_server</title><rect class="cls-1" x="1.08" y="3.1" width="9.85" height="10.1" rx="1.13" ry="1.13"/><path class="cls-2" d="M9.8,3.48a.75.75,0,0,1,.75.75v7.85a.75.75,0,0,1-.75.75H2.2a.75.75,0,0,1-.75-.75V4.23a.75.75,0,0,1,.75-.75H9.8m0-.75H2.2A1.5,1.5,0,0,0,.7,4.23v7.85a1.5,1.5,0,0,0,1.5,1.5H9.8a1.5,1.5,0,0,0,1.5-1.5V4.23a1.5,1.5,0,0,0-1.5-1.5Z"/><line class="cls-3" x1="4.38" y1="4.65" x2="2.27" y2="4.65"/><line class="cls-4" x1="10.5" y1="3.5" x2="12.5" y2="1.5"/><line class="cls-4" x1="10.5" y1="1.5" x2="12.5" y2="1.5"/><line class="cls-4" x1="12.5" y1="3.5" x2="12.5" y2="1.5"/></svg>