<?xml version="1.0" encoding="UTF-8"?>
<svg xmlns="http://www.w3.org/2000/svg" xmlns:xlink="http://www.w3.org/1999/xlink" width="150px" height="150px" viewBox="0 0 128 128" version="1.1">
<g id="surface1">
<path style=" stroke:none;fill-rule:nonzero;fill:rgb(0%,0%,0%);fill-opacity:1;" d="M 64 2 C 29.734375 2 2 29.730469 2 64 C 2 98.265625 29.730469 126 64 126 C 76.039062 126 87.835938 122.464844 97.851562 115.945312 C 100.851562 113.992188 101.507812 109.871094 99.238281 107.101562 L 96.695312 103.992188 C 94.777344 101.648438 91.402344 101.078125 88.851562 102.710938 C 81.480469 107.4375 72.828125 110 64 110 C 38.636719 110 18 89.363281 18 64 C 18 38.636719 38.636719 18 64 18 C 89.035156 18 110 32.40625 110 58 C 110 67.695312 104.726562 77.933594 95.457031 78.921875 C 91.121094 78.808594 91.230469 75.710938 92.089844 71.417969 L 97.945312 41.140625 C 98.664062 37.4375 95.828125 34 92.054688 34 L 80.8125 34 C 79.09375 34 77.648438 35.289062 77.453125 37 L 77.449219 37.019531 C 73.777344 32.546875 67.339844 31.578125 62.457031 31.578125 C 43.8125 31.578125 28 47.136719 28 69.441406 C 28 85.769531 37.195312 95.910156 52 95.910156 C 58.746094 95.910156 66.34375 92 70.746094 86.328125 C 73.128906 94.851562 80.902344 94.851562 88.425781 94.851562 C 115.652344 94.851562 126 76.949219 126 58 C 126 23.914062 98.503906 2 64 2 Z M 58.578125 78.109375 C 53.019531 78.109375 49.5625 74.203125 49.5625 67.914062 C 49.5625 56.667969 57.257812 49.734375 64.21875 49.734375 C 69.792969 49.734375 73.121094 53.542969 73.121094 59.925781 C 73.121094 71.191406 64.652344 78.109375 58.578125 78.109375 Z M 58.578125 78.109375 "/>
</g>
</svg>
