<svg id="Layer_1" data-name="Layer 1" xmlns="http://www.w3.org/2000/svg" viewBox="0 0 211.57 125.21"><defs><style>.cls-1{fill:#121646;}</style></defs><path class="cls-1" d="M141.73,43.38a6,6,0,1,0,6,6A6,6,0,0,0,141.73,43.38Z"/><path class="cls-1" d="M97.09,106.6a18.56,18.56,0,0,0-18.56,18.57v0h37.13v0A18.56,18.56,0,0,0,97.09,106.6Z"/><path class="cls-1" d="M177.75,52.41V52.3A52.29,52.29,0,0,0,85.5,18.56,36.45,36.45,0,0,0,35.26,52.3v0a36.45,36.45,0,0,0,1.19,72.88H56.67V74.73c0-5.86,0-30.38,30.34-30.42V54.67c0,9.63,6.55,20,15.23,24.2l31.29,15a7.18,7.18,0,0,1,4,6.27v25h37.6a36.45,36.45,0,0,0,2.63-72.8ZM166.06,95.6a21.28,21.28,0,0,1-6.33,2.22v18.46h-12.3v-16c0-5.87-4.33-12.75-9.62-15.29L106.52,70c-5.28-2.54-9.61-9.42-9.61-15.28V33.31a10.7,10.7,0,0,1,10.67-10.67h21.73c30.42,0,30.42,24.55,30.42,30.42V89.94c.64.11,1.27.21,1.93.27A26.57,26.57,0,0,0,176,87.45,27,27,0,0,1,166.06,95.6Z"/></svg>
