<?xml version="1.0" encoding="utf-8"?>
<!-- Generator: Adobe Illustrator 22.1.0, SVG Export Plug-In . SVG Version: 6.00 Build 0)  -->
<svg version="1.1" id="Layer_1" xmlns="http://www.w3.org/2000/svg" xmlns:xlink="http://www.w3.org/1999/xlink" x="0px" y="0px"
	 viewBox="0 0 32 32" style="enable-background:new 0 0 32 32;" xml:space="preserve">
<style type="text/css">
	.st0{fill:none;stroke:#000000;stroke-width:2;stroke-miterlimit:10;}
</style>
<g>
	<g>
		<line class="st0" x1="25.7" y1="22.4" x2="25.7" y2="9.4"/>
		<polyline class="st0" points="29.7,18.6 25.7,22.6 21.7,18.6 		"/>
	</g>
	<g>
		<path d="M18.7,10.1C18.6,10,18.5,10,18.4,10h-3.6l-0.8-2c-0.1-0.3-0.3-0.5-0.6-0.7C13,7.1,12.7,7,12.4,7H8.6C8.3,7,8,7.1,7.7,7.3
			C7.4,7.5,7.2,7.8,7.1,8.1l-0.8,2H2.6c-0.1,0-0.2,0-0.3,0.1c-0.1,0.1-0.1,0.2-0.1,0.3v0.7c0,0.1,0,0.2,0.1,0.3
			c0.1,0.1,0.2,0.1,0.3,0.1h1.1v11.1c0,0.6,0.2,1.2,0.6,1.7C4.7,24.8,5.1,25,5.6,25h9.7c0.5,0,1-0.2,1.3-0.7c0.4-0.5,0.6-1,0.6-1.7
			V11.5h1.1c0.1,0,0.2,0,0.3-0.1c0.1-0.1,0.1-0.2,0.1-0.3v-0.7C18.8,10.3,18.7,10.2,18.7,10.1z M8.5,8.6c0.1-0.1,0.1-0.1,0.2-0.1
			h3.7c0.1,0,0.1,0.1,0.2,0.1l0.6,1.4H7.9L8.5,8.6z M15.8,22.6c0,0.2,0,0.3-0.1,0.5c-0.1,0.1-0.1,0.3-0.2,0.3
			c-0.1,0.1-0.1,0.1-0.1,0.1H5.6c0,0-0.1,0-0.1-0.1c-0.1-0.1-0.1-0.2-0.2-0.3c-0.1-0.1-0.1-0.3-0.1-0.5V11.5h10.5V22.6z"/>
		<path d="M13.1,21.2h0.7c0.1,0,0.2,0,0.3-0.1c0.1-0.1,0.1-0.2,0.1-0.3v-6.7c0-0.1,0-0.2-0.1-0.3c-0.1-0.1-0.2-0.1-0.3-0.1h-0.7
			c-0.1,0-0.2,0-0.3,0.1c-0.1,0.1-0.1,0.2-0.1,0.3v6.7c0,0.1,0,0.2,0.1,0.3C12.9,21.2,13,21.2,13.1,21.2z"/>
		<path d="M7.1,21.2h0.7c0.1,0,0.2,0,0.3-0.1c0.1-0.1,0.1-0.2,0.1-0.3v-6.7c0-0.1,0-0.2-0.1-0.3c-0.1-0.1-0.2-0.1-0.3-0.1H7.1
			c-0.1,0-0.2,0-0.3,0.1c-0.1,0.1-0.1,0.2-0.1,0.3v6.7c0,0.1,0,0.2,0.1,0.3C6.9,21.2,7,21.2,7.1,21.2z"/>
		<path d="M10.1,21.2h0.7c0.1,0,0.2,0,0.3-0.1c0.1-0.1,0.1-0.2,0.1-0.3v-6.7c0-0.1,0-0.2-0.1-0.3c-0.1-0.1-0.2-0.1-0.3-0.1h-0.7
			c-0.1,0-0.2,0-0.3,0.1c-0.1,0.1-0.1,0.2-0.1,0.3v6.7c0,0.1,0,0.2,0.1,0.3C9.9,21.2,10,21.2,10.1,21.2z"/>
	</g>
</g>
</svg>
