<?xml version="1.0" encoding="UTF-8"?>
<svg xmlns="http://www.w3.org/2000/svg" xmlns:xlink="http://www.w3.org/1999/xlink" width="15px" height="15px" viewBox="0 0 15 15" version="1.1">
<g id="surface1">
<path d="M 1.5625 2.144531 L 1.5625 13.011719 C 1.5625 13.308594 1.679688 13.558594 1.910156 13.761719 C 2.140625 13.960938 2.410156 14.0625 2.71875 14.0625 C 2.816406 14.0625 2.917969 14.050781 3.023438 14.023438 C 3.128906 13.996094 3.230469 13.957031 3.328125 13.90625 L 5.53125 12.636719 L 5.53125 9.910156 L 4.0625 10.339844 L 4.0625 7.609375 L 7.535156 6.40625 L 8.585938 6.40625 L 8.585938 10.875 L 12.761719 8.472656 C 12.933594 8.367188 13.0625 8.234375 13.152344 8.078125 C 13.238281 7.917969 13.28125 7.753906 13.28125 7.578125 C 13.28125 7.402344 13.238281 7.238281 13.152344 7.078125 C 13.0625 6.921875 12.933594 6.789062 12.761719 6.683594 L 3.328125 1.25 C 3.230469 1.199219 3.128906 1.160156 3.023438 1.132812 C 2.917969 1.105469 2.816406 1.09375 2.71875 1.09375 C 2.410156 1.09375 2.140625 1.195312 1.910156 1.394531 C 1.679688 1.597656 1.5625 1.847656 1.5625 2.144531 Z M 7.804688 11.324219 L 7.804688 7.1875 L 7.667969 7.1875 L 4.84375 8.164062 L 4.84375 9.296875 L 6.3125 8.867188 L 6.3125 12.183594 Z M 7.804688 11.324219 "/>
<path d="M 7.804688 7.1875 L 7.804688 13.628906 L 6.3125 13.628906 L 6.3125 8.867188 L 4.84375 9.296875 L 4.84375 8.164062 L 7.667969 7.1875 Z M 7.804688 7.1875 "/>
</g>
</svg>
