<?xml version="1.0" encoding="UTF-8"?>
<svg xmlns="http://www.w3.org/2000/svg" xmlns:xlink="http://www.w3.org/1999/xlink" width="100px" height="100px" viewBox="0 0 25 25" version="1.1">
<g id="surface1">
<path style=" stroke:none;fill-rule:nonzero;fill:rgb(0%,0%,0%);fill-opacity:1;" d="M 25 8.59375 C 25 13.339844 21.152344 17.1875 16.40625 17.1875 C 15.859375 17.1875 15.320312 17.136719 14.804688 17.039062 L 13.632812 18.355469 C 13.40625 18.605469 13.089844 18.75 12.753906 18.75 L 10.9375 18.75 L 10.9375 20.703125 C 10.9375 21.351562 10.414062 21.875 9.765625 21.875 L 7.8125 21.875 L 7.8125 23.828125 C 7.8125 24.476562 7.289062 25 6.640625 25 L 1.171875 25 C 0.523438 25 0 24.476562 0 23.828125 L 0 20.015625 C 0 19.707031 0.125 19.40625 0.34375 19.1875 L 8.242188 11.289062 C 7.964844 10.441406 7.8125 9.535156 7.8125 8.59375 C 7.8125 3.847656 11.660156 0 16.40625 0 C 21.164062 0 25 3.835938 25 8.59375 Z M 16.40625 6.25 C 16.40625 7.546875 17.453125 8.59375 18.75 8.59375 C 20.046875 8.59375 21.09375 7.546875 21.09375 6.25 C 21.09375 4.953125 20.046875 3.90625 18.75 3.90625 C 17.453125 3.90625 16.40625 4.953125 16.40625 6.25 Z M 16.40625 6.25 "/>
</g>
</svg>
