<?xml version="1.0" encoding="utf-8"?>
<!-- Generator: Adobe Illustrator 26.0.3, SVG Export Plug-In . SVG Version: 6.00 Build 0)  -->
<svg version="1.0" id="katman_1" xmlns="http://www.w3.org/2000/svg" xmlns:xlink="http://www.w3.org/1999/xlink" x="0px" y="0px"
	 viewBox="0 0 800 600" style="enable-background:new 0 0 800 600;" xml:space="preserve">
<style type="text/css">
	.st0{fill:#706D6E;}
	.st1{fill:#F1511B;}
	.st2{fill:#80CC28;}
	.st3{fill:#00ADEF;}
	.st4{fill:#FBBC09;}
</style>
<g>
	<path class="st0" d="M367.7,261.5l-3.3,9.3h-0.2c-0.6-2.2-1.6-5.3-3.1-9.2l-17.7-44.4h-17.3v70.6h11.4v-43.4c0-2.7-0.1-5.9-0.2-9.6
		c0-1.9-0.3-3.4-0.3-4.5h0.3c0.4,2,1,4.1,1.6,6l21.2,51.5h8l21.1-52c0.5-1.2,1-3.5,1.4-5.6h0.2c-0.3,5.1-0.5,9.8-0.5,12.7v44.8h12.2
		v-70.6h-16.6L367.7,261.5z M413.9,287.8h11.9v-50.6h-11.9V287.8z M420,215.7c-2,0-3.7,0.7-5.1,2c-1.4,1.3-2.1,3-2.1,5
		c0,1.9,0.7,3.6,2.1,4.9c1.4,1.3,3.1,1.9,5.1,1.9c2,0,3.7-0.6,5.1-1.9c1.4-1.3,2.1-2.9,2.1-4.9c0-1.9-0.7-3.5-2.1-4.9
		C423.8,216.4,422.1,215.7,420,215.7 M468,236.7c-2.2-0.5-4.4-0.7-6.7-0.7c-5.4,0-10.3,1.2-14.5,3.5c-4.1,2.3-7.3,5.6-9.5,9.8
		c-2.2,4.2-3.3,9.1-3.3,14.5c0,4.8,1.1,9.1,3.2,13c2.1,3.9,5.1,6.9,8.9,9c3.8,2.1,8.2,3.2,13,3.2c5.7,0,10.5-1.1,14.3-3.3l0.2-0.1
		v-10.9l-0.5,0.4c-1.8,1.3-3.8,2.3-5.8,3c-2.1,0.7-4,1.1-5.7,1.1c-4.7,0-8.4-1.5-11.1-4.3c-2.7-2.9-4.1-6.9-4.1-12
		c0-5.1,1.4-9.3,4.3-12.4c2.8-3.1,6.6-4.6,11.1-4.6c3.9,0,7.7,1.3,11.3,3.9l0.5,0.4v-11.5l-0.2-0.1
		C472.1,237.8,470.2,237.2,468,236.7 M507.2,236.3c-3,0-5.7,1-8,2.8c-2,1.7-3.5,3.9-4.6,6.8h-0.1v-8.7h-11.9v50.6h11.9v-25.9
		c0-4.4,1-8,3-10.7c1.9-2.7,4.5-4.1,7.7-4.1c1.1,0,2.3,0.2,3.6,0.5c1.3,0.3,2.2,0.7,2.8,1.1l0.5,0.4v-12l-0.2-0.1
		C510.7,236.6,509.1,236.3,507.2,236.3 M549,274.9c-2.2,2.8-5.6,4.2-10,4.2c-4.4,0-7.8-1.4-10.2-4.3c-2.5-2.9-3.7-7-3.7-12.2
		c0-5.4,1.2-9.6,3.7-12.5c2.4-2.9,5.8-4.4,10.1-4.4c4.2,0,7.5,1.4,9.9,4.2c2.4,2.8,3.6,7,3.6,12.4
		C552.3,267.9,551.2,272.1,549,274.9 M539.5,236c-8.3,0-14.9,2.5-19.7,7.3c-4.7,4.8-7.1,11.5-7.1,19.8c0,7.9,2.3,14.3,6.9,18.9
		c4.6,4.6,10.9,7,18.6,7c8.1,0,14.6-2.5,19.3-7.4c4.7-4.9,7.1-11.5,7.1-19.6c0-8-2.2-14.5-6.7-19.1C553.6,238.3,547.3,236,539.5,236
		 M591.1,258.1c-3.8-1.5-6.2-2.8-7.1-3.7c-1-0.9-1.4-2.2-1.4-3.9c0-1.5,0.6-2.6,1.8-3.6c1.2-1,2.9-1.4,5.1-1.4c2,0,4.1,0.3,6.1,0.9
		c2,0.6,3.8,1.4,5.3,2.5l0.5,0.3v-11l-0.2-0.1c-1.3-0.6-3.2-1.1-5.4-1.5c-2.2-0.4-4.2-0.6-5.9-0.6c-5.7,0-10.4,1.5-13.9,4.3
		c-3.6,2.9-5.5,6.7-5.5,11.2c0,2.4,0.4,4.5,1.2,6.3c0.8,1.8,2,3.4,3.6,4.7c1.6,1.3,4,2.7,7.3,4.1c2.7,1.1,4.8,2.1,6.1,2.8
		c1.3,0.7,2.2,1.5,2.7,2.2c0.5,0.7,0.8,1.7,0.8,2.9c0,3.4-2.5,5.1-7.8,5.1c-2,0-4.2-0.4-6.6-1.2c-2.4-0.8-4.7-1.9-6.7-3.4l-0.5-0.4
		v11.6l0.2,0.1c1.7,0.8,3.9,1.5,6.4,2c2.5,0.5,4.8,0.8,6.8,0.8c6.2,0,11.1-1.5,14.7-4.3c3.7-2.9,5.5-6.8,5.5-11.5c0-3.4-1-6.3-3-8.7
		C599.1,262.1,595.8,260,591.1,258.1 M645.5,274.9c-2.2,2.8-5.6,4.2-10,4.2c-4.4,0-7.8-1.4-10.3-4.3c-2.5-2.9-3.7-7-3.7-12.2
		c0-5.4,1.2-9.6,3.7-12.5c2.4-2.9,5.8-4.4,10.1-4.4c4.2,0,7.5,1.4,9.9,4.2c2.4,2.8,3.6,7,3.6,12.4
		C648.9,267.9,647.7,272.1,645.5,274.9 M636,236c-8.3,0-15,2.5-19.7,7.3c-4.7,4.8-7.1,11.5-7.1,19.8c0,7.9,2.3,14.3,6.9,18.9
		c4.6,4.6,10.9,7,18.6,7c8.1,0,14.6-2.5,19.3-7.4c4.7-4.9,7.1-11.5,7.1-19.6c0-8-2.2-14.5-6.7-19.1C650.1,238.3,643.9,236,636,236
		 M724.7,246.9v-9.7h-12v-15.1l-0.4,0.1l-11.3,3.5l-0.2,0.1v11.4h-17.8v-6.4c0-3,0.7-5.2,2-6.7c1.3-1.5,3.2-2.2,5.5-2.2
		c1.7,0,3.5,0.4,5.2,1.2l0.4,0.2V213l-0.2-0.1c-1.6-0.6-3.9-0.9-6.7-0.9c-3.5,0-6.7,0.8-9.5,2.3c-2.8,1.5-5,3.7-6.5,6.4
		c-1.5,2.7-2.3,5.9-2.3,9.4v7h-8.4v9.7h8.4v40.9h12v-40.9h17.9v26c0,10.7,5,16.1,15,16.1c1.6,0,3.4-0.2,5.1-0.6
		c1.8-0.4,3-0.8,3.7-1.2l0.2-0.1v-9.8l-0.5,0.3c-0.7,0.4-1.5,0.8-2.4,1c-1,0.3-1.8,0.4-2.4,0.4c-2.3,0-4.1-0.6-5.1-1.9
		c-1.1-1.3-1.6-3.4-1.6-6.5v-23.9L724.7,246.9z"/>
	<path class="st1" d="M186.5,296.9H107v-79.5h79.4L186.5,296.9z"/>
	<path class="st2" d="M274.2,296.9h-79.5v-79.5h79.5V296.9z"/>
	<path class="st3" d="M186.5,384.6H107v-79.5h79.4L186.5,384.6z"/>
	<path class="st4" d="M274.2,384.6h-79.5v-79.5h79.5V384.6z"/>
	<path class="st0" d="M365.8,356.2l-9.9-28.4c-0.3-0.9-0.6-2.4-0.9-4.5h-0.2c-0.3,1.9-0.6,3.4-1,4.5l-9.8,28.4H365.8z M388.2,384
		h-12.9l-6.4-18.1h-28l-6.1,18.1h-12.9l26.6-71.1h13.3L388.2,384z M432.2,338l-27.4,37h27.3v9h-43.4v-4.3l28-37.5h-25.3v-9h40.9
		L432.2,338z M484.1,384h-11.5v-8h-0.2c-3.3,6.2-8.5,9.2-15.6,9.2c-12,0-18-7.2-18-21.6v-30.4h11.5v29.2c0,9.1,3.5,13.7,10.6,13.7
		c3.4,0,6.2-1.3,8.4-3.8c2.2-2.5,3.3-5.8,3.3-9.9v-29.2h11.5L484.1,384z M526.5,344.1c-1.4-1.1-3.4-1.6-6-1.6
		c-3.4,0-6.2,1.5-8.5,4.6c-2.3,3.1-3.4,7.3-3.4,12.5V384h-11.5v-50.8h11.5v10.5h0.2c1.1-3.6,2.9-6.4,5.2-8.4c2.3-2,4.9-3,7.8-3
		c2.1,0,3.7,0.3,4.8,0.9V344.1z M563.6,353.6c0-4.1-1-7.4-2.9-9.6c-1.9-2.3-4.6-3.4-7.9-3.4c-3.3,0-6.1,1.2-8.4,3.6
		c-2.3,2.4-3.7,5.6-4.2,9.5L563.6,353.6z M574.7,361.7h-34.6c0.1,4.7,1.6,8.3,4.3,10.9c2.8,2.5,6.6,3.8,11.4,3.8
		c5.4,0,10.4-1.6,14.9-4.9v9.3c-4.6,2.9-10.7,4.4-18.3,4.4c-7.5,0-13.3-2.3-17.6-6.9c-4.2-4.6-6.4-11.1-6.4-19.5
		c0-7.9,2.3-14.3,7-19.3c4.7-5,10.5-7.5,17.4-7.5c6.9,0,12.3,2.2,16.1,6.7c3.8,4.5,5.7,10.7,5.7,18.6V361.7z"/>
</g>
</svg>
