<svg id="Layer_1" data-name="Layer 1" xmlns="http://www.w3.org/2000/svg" viewBox="0 0 48 48"><defs></defs><path class="cls-1" d="M5.42,15.76A21.75,21.75,0,0,0,12,18a47.55,47.55,0,0,0,9.06.81l1,0a16.63,16.63,0,0,1,14.8-3.11c1.48-.89,2.23-1.85,2.23-2.89v-3c0-1.08-.81-2.08-2.42-3a22,22,0,0,0-6.58-2.19,47.44,47.44,0,0,0-9-.81A47.55,47.55,0,0,0,12,4.54,22,22,0,0,0,5.42,6.73C3.81,7.66,3,8.66,3,9.74v3C3,13.83,3.81,14.84,5.42,15.76Z"/><path class="cls-1" d="M15.89,30.58a45.4,45.4,0,0,1-5.25-.77,20.41,20.41,0,0,1-7.64-3v4c0,1.08.81,2.08,2.42,3A22,22,0,0,0,12,36a44.81,44.81,0,0,0,4.56.62,16.69,16.69,0,0,1-.73-4.87C15.83,31.37,15.86,31,15.89,30.58Z"/><path class="cls-1" d="M3,17.8v4c0,1.08.81,2.09,2.42,3A21.75,21.75,0,0,0,12,27c1.4.27,2.86.47,4.38.61a16.74,16.74,0,0,1,2.81-5.86,50,50,0,0,1-8.55-1A20.58,20.58,0,0,1,3,17.8Z"/><path class="cls-1" d="M32.3,18.88A12.7,12.7,0,1,0,45,31.58,12.74,12.74,0,0,0,32.3,18.88Zm7.94,10-9.36,9.36a1,1,0,0,1-1.11.16L24.37,33a.76.76,0,0,1,0-1.11l1.11-1.27a.76.76,0,0,1,1.11,0l3.65,3.65L38,26.65a.78.78,0,0,1,1.11,0l1.11,1.12A.76.76,0,0,1,40.24,28.88Z"/></svg>
