<?xml version="1.0" encoding="utf-8"?>
<!-- Generator: Adobe Illustrator 23.1.1, SVG Export Plug-In . SVG Version: 6.00 Build 0)  -->
<svg version="1.1" id="Layer_1" xmlns="http://www.w3.org/2000/svg" xmlns:xlink="http://www.w3.org/1999/xlink" x="0px" y="0px"
	 viewBox="0 0 1033.2 1000" style="enable-background:new 0 0 1033.2 1000;" xml:space="preserve">
<title>connect</title>
<path d="M1029.1,70.6c5.5-5.5,5.5-11.1,0-16.6c-16.6-11.1-38.8-33.2-55.4-49.9c-5.5-5.5-11.1-5.5-16.6,0
	c-38.8,38.8-77.6,77.6-116.3,116.3l-11.1-11.1C757.6,26.3,635.7,9.7,536,65.1c-33.2,22.2-66.5,49.9-94.2,83.1l-33.2,27.7
	c-5.5-11.1-16.6-22.2-27.7-27.7c-11.1-11.1-5.5-5.5-11.1,0c-16.6,16.6-33.2,33.2-55.4,55.4c-5.5,5.5-5.5,11.1,0,16.6
	C353.2,259,392,297.8,430.7,331c5.5,5.5,5.5,11.1,0,16.6l-83.1,77.6c-66.5-60.9-116.3-116.3-138.5-133c-5.5-11.1-11.1-11.1-16.6-5.5
	c-16.6,22.2-33.2,38.8-49.9,55.4c-5.5,5.5-5.5,11.1,0,16.6s16.6,16.6,33.2,33.2c-27.7,27.7-55.4,49.9-77.6,72
	c-60.9,55.4-83.1,144-60.9,221.6c11.1,49.9,38.8,88.6,72,121.9c5.5,5.5,5.5,11.1,0,16.6c-33.2,33.2-72,72-105.3,105.3
	c-5.5,5.5-5.5,11.1,0,16.6c16.6,16.6,33.2,33.2,49.9,49.9c5.5,5.5,11.1,5.5,16.6,0c27.7-27.7,60.9-60.9,88.6-88.6
	c5.5-5.5,16.6-22.2,27.7-22.2s16.6,11.1,27.7,22.2c88.6,88.6,232.7,88.6,321.3,0c27.7-27.7,49.9-55.4,77.6-83.1
	c11.1,16.6,22.2,22.2,33.2,33.2c11.1,11.1,5.5,5.5,11.1,0c16.6-16.6,33.2-33.2,49.9-49.9c5.5-5.5,11.1-11.1,0-16.6
	c-27.7-27.7-66.5-60.9-105.3-105.3c27.7-27.7,55.4-55.4,77.6-83.1c5.5-5.5,11.1-5.5,16.6,0L813,718.8c5.5,5.5,11.1,5.5,11.1,0
	c16.6-16.6,38.8-38.8,55.4-55.4c5.5-5.5,5.5-5.5,0-11.1l-27.7-38.8c27.7-22.2,55.4-49.9,77.6-72c55.4-49.9,77.6-127.4,66.5-205
	c-5.5-55.4-33.2-105.3-77.6-138.5c-5.5-5.5-5.5-11.1,0-16.6C957.1,148.2,990.3,109.4,1029.1,70.6z M541.6,768.7
	c-22.2,22.2-44.3,49.9-72,72c-55.4,55.4-144,55.4-199.4,0c-33.2-27.8-48.6-44.9-99.7-99.7c-57.2-53.5-66.5-144-16.6-199.4
	c5.5-5.5,11.1-11.1,16.6-16.6c22.2-22.2,44.3-44.3,66.5-72l304.7,304.7C547.1,763.2,547.1,763.2,541.6,768.7L541.6,768.7z
	 M613.6,530.5L536,613.6c-38.8-38.8-83.1-83.1-121.9-121.9l77.6-83.1c5.5-5.5,11.1-11.1,16.6,0c33.2,33.2,66.5,66.5,105.3,105.3
	C624.7,524.9,624.7,524.9,613.6,530.5z M868.4,475.1l-5.5,5.5l0,0c-22.2,22.2-44.3,44.3-66.5,66.5L480.6,236.8l77.6-72
	c55.4-49.9,138.5-55.4,193.9-5.5c38.8,38.8,77.6,83.1,116.3,121.9C923.8,336.6,923.8,425.2,868.4,475.1z"/>
</svg>
