<?xml version="1.0" encoding="utf-8"?>
<!-- Generator: Adobe Illustrator 23.1.1, SVG Export Plug-In . SVG Version: 6.00 Build 0)  -->
<svg version="1.1" id="Layer_1" xmlns="http://www.w3.org/2000/svg" xmlns:xlink="http://www.w3.org/1999/xlink" x="0px" y="0px"
	 viewBox="0 0 16 16" style="enable-background:new 0 0 16 16;" xml:space="preserve">
<g>
	<polygon points="15,9 13.6,10.4 13.6,3.9 12.4,3.9 12.4,10.4 11,9 10.2,9.8 13,12.6 15.8,9.8 	"/>
	<path d="M9.8,4.2H7.6L7.2,3C7.1,2.8,7,2.7,6.8,2.6C6.6,2.5,6.4,2.4,6.2,2.4H3.9c-0.2,0-0.4,0.1-0.5,0.2C3.2,2.7,3.1,2.9,3,3.1
		L2.5,4.3H0.3c-0.1,0-0.1,0-0.2,0.1S0.1,4.5,0.1,4.5v0.4c0,0.1,0,0.1,0.1,0.2s0.1,0.1,0.2,0.1H1v6.7c0,0.4,0.1,0.7,0.4,1
		c0.2,0.2,0.5,0.4,0.8,0.4h5.8c0.3,0,0.6-0.1,0.8-0.4c0.2-0.3,0.4-0.6,0.4-1V5.1h0.7c0.1,0,0.1,0,0.2-0.1C10,5,10,4.9,10,4.9V4.5
		c0.1-0.1,0-0.1,0-0.2C9.9,4.2,9.9,4.2,9.8,4.2z M3.8,3.4C3.9,3.3,3.9,3.3,4,3.3h2.2c0.1,0,0.1,0.1,0.1,0.1l0.4,0.8H3.5L3.8,3.4z
		 M8.2,12.1c-0.1,0.1-0.1,0.2-0.1,0.2C8,12.3,8,12.3,8,12.3H2.1c0,0-0.1,0-0.1-0.1C2,12.2,2,12.2,1.9,12.1c-0.1-0.1-0.1-0.2-0.1-0.3
		V5.1h6.3v6.7h0.1C8.2,11.9,8.2,12,8.2,12.1z"/>
	<path d="M7,6.4H6.6c-0.1,0-0.1,0-0.2,0.1S6.4,6.6,6.4,6.7v4c0,0.1,0,0.1,0.1,0.2S6.6,11,6.6,11H7c0.1,0,0.1,0,0.2-0.1
		c0.1-0.1,0.1-0.1,0.1-0.2v-4c0-0.1,0-0.1-0.1-0.2C7.2,6.4,7.1,6.4,7,6.4z"/>
	<path d="M3.4,6.4H3c-0.1,0-0.1,0-0.2,0.1C2.8,6.6,2.8,6.6,2.8,6.7v4c0,0.1,0,0.1,0.1,0.2C2.9,11,2.9,11,3,11h0.4
		c0.1,0,0.1,0,0.2-0.1c0.1-0.1,0.1-0.1,0.1-0.2v-4c0-0.1,0-0.1-0.1-0.2C3.5,6.4,3.5,6.4,3.4,6.4z"/>
	<path d="M5.2,6.4H4.8c-0.1,0-0.1,0-0.2,0.1S4.6,6.6,4.6,6.7v4c0,0.1,0,0.1,0.1,0.2S4.8,11,4.8,11h0.4c0.1,0,0.1,0,0.2-0.1
		c0.1-0.1,0.1-0.1,0.1-0.2v-4c0-0.1,0-0.1-0.1-0.2C5.4,6.4,5.3,6.4,5.2,6.4z"/>
</g>
</svg>
