<?xml version="1.0" encoding="utf-8"?>
<!-- Generator: Adobe Illustrator 25.2.0, SVG Export Plug-In . SVG Version: 6.00 Build 0)  -->
<svg version="1.1" id="Layer_1" xmlns="http://www.w3.org/2000/svg" xmlns:xlink="http://www.w3.org/1999/xlink" x="0px" y="0px"
	 viewBox="0 0 42 48" style="enable-background:new 0 0 42 48;" xml:space="preserve">
<g>
	<path d="M40.3,27.6l-4.5-4.5c-0.5-0.5-1.2-0.8-1.8-0.8H19.5c-1.3,0-2.6,1.2-2.6,2.6v19c0,1.3,1.2,2.6,2.6,2.6h19
		c1.3,0,2.6-1.2,2.6-2.6V29.5C41.1,28.7,40.9,28.2,40.3,27.6z M29,43.2c-1.8,0-3.6-1.5-3.6-3.6c0-1.8,1.5-3.6,3.6-3.6
		c2.1,0,3.6,1.5,3.6,3.6C32.5,41.5,30.8,43.2,29,43.2z M34.5,32.1h-0.3c0,0.4-0.3,0.7-0.7,0.7H21.1c-0.4,0-0.7-0.3-0.7-0.7v-5.7
		c0-0.4,0.3-0.7,0.7-0.7h12.4c0.1,0,0.4,0.1,0.5,0.3l0.3,0.3c0.1,0.1,0.3,0.3,0.3,0.5V32.1z"/>
	<path d="M19.3,17.2c10.2,0,18.5-2.7,18.5-6V7.4c0-3.3-8.3-6-18.5-6S0.9,4.1,0.9,7.4v3.8C0.9,14.5,9.1,17.2,19.3,17.2z"/>
	<path d="M34.5,21.4c0.7,0,1.5,0.3,2,0.9l1.3,1.3v-7.7c-4,2.7-11.2,4-18.5,4c-7.2,0-14.5-1.3-18.5-4v8.5c0,2.9,6.3,5.3,14.8,5.9v-6
		c0-1.6,1.5-2.9,2.9-2.9H34.5z"/>
	<path d="M0.9,37.6c0,2.9,6.3,5.3,14.8,5.9V33c-5.9-0.4-11.5-1.6-14.8-3.9V37.6z"/>
</g>
</svg>
