<?xml version="1.0" encoding="utf-8"?>
<!-- Generator: Adobe Illustrator 23.1.1, SVG Export Plug-In . SVG Version: 6.00 Build 0)  -->
<svg version="1.1" id="Layer_1" xmlns="http://www.w3.org/2000/svg" xmlns:xlink="http://www.w3.org/1999/xlink" x="0px" y="0px"
	 viewBox="0 0 1181.8 1000" style="enable-background:new 0 0 1181.8 1000;" xml:space="preserve">
<style type="text/css">
	.st0{fill:#222222;}
</style>
<title>save_data_changes</title>
<path class="st0" d="M869.8,510.7c12.4,13.1,19,29.3,19,46.9c0,18.1-6.7,34.4-19.4,47L638.2,836.2c-0.1,0.1-0.3,0.3-0.4,0.4
	c-13,12.4-29.3,19-46.9,19c-18.1,0-34.4-6.7-47-19.4L312.9,605c-13.1-12.4-20-28.8-20-47.2c0-18.3,6.6-34.2,19.7-47.3l26.2-26.6
	c0.1-0.1,0.4-0.4,0.5-0.5c13.1-12.4,29.3-19,46.9-19c18.1,0,34.4,6.7,47,19.4l68,68V353.1c0-17.8,6.8-34.1,19.7-47
	c12.9-12.9,29.2-19.7,47-19.7h45.5c17.8,0,34.1,6.8,47,19.7c12.9,12.9,19.7,29.2,19.7,47v198.6l68-68c12.7-12.7,28.9-19.4,47-19.4
	c17.6,0,33.9,6.5,46.9,19c0.1,0.1,0.3,0.3,0.4,0.4l26.6,26.6C869.5,510.4,869.7,510.6,869.8,510.7z M1181.8,113.6v772.7
	c0,31.2-11.2,58-33.4,80.3c-22.2,22.2-49,33.4-80.3,33.4H113.6c-31.2,0-58-11.2-80.3-33.4S0,917.6,0,886.4V113.6
	c0-31.2,11.2-58,33.4-80.3S82.4,0,113.6,0h954.5c31.2,0,58,11.2,80.3,33.4C1170.7,55.6,1181.8,82.4,1181.8,113.6z M90.9,340.9
	c0,6.6,2.1,12.1,6.4,16.3c4.3,4.3,9.7,6.4,16.3,6.4h227.3c6.6,0,12.1-2.1,16.3-6.4c4.3-4.3,6.4-9.7,6.4-16.3V204.5
	c0-6.6-2.1-12.1-6.4-16.3c-4.3-4.3-9.7-6.4-16.3-6.4H113.6c-6.6,0-12.1,2.1-16.3,6.4c-4.3,4.3-6.4,9.7-6.4,16.3V340.9z M363.6,750
	c0-6.6-2.1-12.1-6.4-16.3c-4.3-4.3-9.7-6.4-16.3-6.4H113.6c-6.6,0-12.1,2.1-16.3,6.4c-4.3,4.3-6.4,9.7-6.4,16.3v136.4
	c0,6.6,2.1,12.1,6.4,16.3c4.3,4.3,9.7,6.4,16.3,6.4h227.3c6.6,0,12.1-2.1,16.3-6.4c4.3-4.3,6.4-9.7,6.4-16.3V750z M1090.9,750
	c0-6.6-2.1-12.1-6.4-16.3c-4.3-4.3-9.7-6.4-16.3-6.4H840.9c-6.6,0-12.1,2.1-16.3,6.4c-4.3,4.3-6.4,9.7-6.4,16.3v136.4
	c0,6.6,2.1,12.1,6.4,16.3s9.7,6.4,16.3,6.4h227.3c6.6,0,12.1-2.1,16.3-6.4s6.4-9.7,6.4-16.3V750z M1090.9,477.3
	c0-6.6-2.1-12.1-6.4-16.3s-9.7-6.4-16.3-6.4H840.9c-0.5,0-0.9,0-1.4,0.1c-13.4-7.7-28.3-11.7-44-11.7c-23.9,0-45.3,8.9-62.1,25.6
	l-6.2,6.2c-0.5-5.5-2.6-10.1-6.3-13.8c-4.3-4.3-9.7-6.4-16.3-6.4h-2.8v-90.9h2.8c6.6,0,12.1-2.1,16.3-6.4c4.3-4.3,6.4-9.7,6.4-16.3
	V204.5c0-6.6-2.1-12.1-6.4-16.3c-4.3-4.3-9.7-6.4-16.3-6.4H477.3c-6.6,0-12.1,2.1-16.3,6.4c-4.3,4.3-6.4,9.7-6.4,16.3v136.4
	c0,6.6,2.1,12.1,6.4,16.3c4.3,4.3,9.7,6.4,16.3,6.4h2.8v90.9h-2.8c-6.6,0-12.1,2.1-16.3,6.4c-3.7,3.7-5.8,8.3-6.2,13.8l-6.2-6.2
	c-16.8-16.8-38.2-25.6-62.1-25.6c-15.8,0-30.8,4-44,11.7c-0.4,0-0.9-0.1-1.4-0.1H113.6c-6.6,0-12.1,2.1-16.3,6.4
	c-4.3,4.3-6.4,9.7-6.4,16.3v136.4c0,6.6,2.1,12.1,6.4,16.3c4.3,4.3,9.7,6.4,16.3,6.4h200.7l140.2,140.4v109.6
	c0,6.6,2.1,12.1,6.4,16.3s9.7,6.4,16.3,6.4h227.3c6.6,0,12.1-2.1,16.3-6.4c4.3-4.3,6.4-9.7,6.4-16.3V777.2l140.6-140.8h200.3
	c6.6,0,12.1-2.1,16.3-6.4c4.3-4.3,6.4-9.7,6.4-16.3V477.3z M1090.9,204.5c0-6.6-2.1-12.1-6.4-16.3c-4.3-4.3-9.7-6.4-16.3-6.4H840.9
	c-6.6,0-12.1,2.1-16.3,6.4c-4.3,4.3-6.4,9.7-6.4,16.3v136.4c0,6.6,2.1,12.1,6.4,16.3c4.3,4.3,9.7,6.4,16.3,6.4h227.3
	c6.6,0,12.1-2.1,16.3-6.4c4.3-4.3,6.4-9.7,6.4-16.3V204.5z"/>
</svg>
