<?xml version="1.0" encoding="utf-8"?>
<!-- Generator: Adobe Illustrator 24.3.0, SVG Export Plug-In . SVG Version: 6.00 Build 0)  -->
<svg version="1.1" id="Layer_1" xmlns="http://www.w3.org/2000/svg" xmlns:xlink="http://www.w3.org/1999/xlink" x="0px" y="0px"
	 viewBox="0 0 16 16" style="enable-background:new 0 0 16 16;" xml:space="preserve">
<g>
	<path d="M4.3,5.3h8.8V4c0-0.7-0.6-1.3-1.3-1.3H7.5L5.8,1H1.5C0.8,1,0.2,1.6,0.2,2.3v7.4L2,6.5C2.6,5.8,3.4,5.3,4.3,5.3z"/>
	<path d="M7.5,8.9c0-1.2,0.7-2.3,1.6-2.8H4.3C3.7,6.1,3.1,6.4,2.8,7l-1.9,3.3c-0.2,0.4,0.1,1,0.6,1h7C7.8,10.7,7.5,9.8,7.5,8.9z"/>
	<path d="M15,6.1h-2.6c1,0.6,1.6,1.6,1.6,2.8c0,0.3-0.1,0.6-0.1,0.9L15.5,7C15.8,6.7,15.5,6.1,15,6.1z"/>
	<circle cx="10.8" cy="8.9" r="2.8"/>
</g>
<path d="M14,11.8l-1.2-0.3c-1.3,0.9-2.9,0.8-3.8,0l-1.2,0.3C7,12,6.5,12.7,6.5,13.5v0.7c0,0.4,0.3,0.9,0.9,0.9h2.3l1.1-2.4l1.3,2.4
	h2.4c0.4,0,0.9-0.3,0.9-0.9v-0.8C15.2,12.6,14.8,11.9,14,11.8z"/>
</svg>
