<?xml version="1.0" encoding="utf-8"?>
<!-- Generator: Adobe Illustrator 23.1.1, SVG Export Plug-In . SVG Version: 6.00 Build 0)  -->
<svg version="1.1" id="Layer_1" xmlns="http://www.w3.org/2000/svg" xmlns:xlink="http://www.w3.org/1999/xlink" x="0px" y="0px"
	 viewBox="0 0 1181.8 1000" style="enable-background:new 0 0 1181.8 1000;" xml:space="preserve">
<path d="M1148.4,33.4c-22.3-22.3-49-33.4-80.3-33.4H113.6c-31.2,0-58,11.1-80.3,33.4C11.1,55.6,0,82.4,0,113.6v772.7
	c0,31.2,11.1,58,33.4,80.3c22.3,22.3,49,33.4,80.3,33.4h954.5c31.2,0,58-11.1,80.3-33.4c22.3-22.3,33.4-49,33.4-80.3V113.6
	C1181.8,82.4,1170.7,55.6,1148.4,33.4z M363.6,886.4c0,6.6-2.1,12.1-6.4,16.3c-4.3,4.3-9.7,6.4-16.3,6.4H113.6
	c-6.6,0-12.1-2.1-16.3-6.4s-6.4-9.7-6.4-16.3V750c0-6.6,2.1-12.1,6.4-16.3c4.3-4.3,9.7-6.4,16.3-6.4h227.3c6.6,0,12.1,2.1,16.3,6.4
	c4.3,4.3,6.4,9.7,6.4,16.3V886.4z M363.6,613.6c0,6.6-2.1,12.1-6.4,16.3c-4.3,4.3-9.7,6.4-16.3,6.4H113.6c-6.6,0-12.1-2.1-16.3-6.4
	c-4.3-4.3-6.4-9.7-6.4-16.3V477.3c0-6.6,2.1-12.1,6.4-16.3s9.7-6.4,16.3-6.4h227.3c6.6,0,12.1,2.1,16.3,6.4
	c4.3,4.3,6.4,9.7,6.4,16.3V613.6z M363.6,340.9c0,6.6-2.1,12.1-6.4,16.3c-4.3,4.3-9.7,6.4-16.3,6.4H113.6c-6.6,0-12.1-2.1-16.3-6.4
	c-4.3-4.3-6.4-9.7-6.4-16.3V204.5c0-6.6,2.1-12.1,6.4-16.3c4.3-4.3,9.7-6.4,16.3-6.4h227.3c6.6,0,12.1,2.1,16.3,6.4
	c4.3,4.3,6.4,9.7,6.4,16.3V340.9z M727.3,886.4c0,6.6-2.1,12.1-6.4,16.3c-4.3,4.3-9.7,6.4-16.3,6.4H477.3c-6.6,0-12.1-2.1-16.3-6.4
	c-4.3-4.3-6.4-9.7-6.4-16.3V750c0-6.6,2.1-12.1,6.4-16.3c4.3-4.3,9.7-6.4,16.3-6.4h227.3c6.6,0,12.1,2.1,16.3,6.4
	c4.3,4.3,6.4,9.7,6.4,16.3V886.4z M727.3,613.6c0,6.6-2.1,12.1-6.4,16.3c-4.3,4.3-9.7,6.4-16.3,6.4H477.3c-6.6,0-12.1-2.1-16.3-6.4
	c-4.3-4.3-6.4-9.7-6.4-16.3V477.3c0-6.6,2.1-12.1,6.4-16.3c4.3-4.3,9.7-6.4,16.3-6.4h227.3c6.6,0,12.1,2.1,16.3,6.4
	c4.3,4.3,6.4,9.7,6.4,16.3V613.6z M727.3,340.9c0,6.6-2.1,12.1-6.4,16.3c-4.3,4.3-9.7,6.4-16.3,6.4H477.3c-6.6,0-12.1-2.1-16.3-6.4
	c-4.3-4.3-6.4-9.7-6.4-16.3V204.5c0-6.6,2.1-12.1,6.4-16.3c4.3-4.3,9.7-6.4,16.3-6.4h227.3c6.6,0,12.1,2.1,16.3,6.4
	c4.3,4.3,6.4,9.7,6.4,16.3V340.9z M1090.9,886.4c0,6.6-2.1,12.1-6.4,16.3c-4.3,4.3-9.7,6.4-16.3,6.4H840.9c-6.6,0-12.1-2.1-16.3-6.4
	c-4.3-4.3-6.4-9.7-6.4-16.3V750c0-6.6,2.1-12.1,6.4-16.3c4.3-4.3,9.7-6.4,16.3-6.4h227.3c6.6,0,12.1,2.1,16.3,6.4
	c4.3,4.3,6.4,9.7,6.4,16.3V886.4z M1090.9,613.6c0,6.6-2.1,12.1-6.4,16.3c-4.3,4.3-9.7,6.4-16.3,6.4H840.9c-6.6,0-12.1-2.1-16.3-6.4
	c-4.3-4.3-6.4-9.7-6.4-16.3V477.3c0-6.6,2.1-12.1,6.4-16.3c4.3-4.3,9.7-6.4,16.3-6.4h227.3c6.6,0,12.1,2.1,16.3,6.4
	c4.3,4.3,6.4,9.7,6.4,16.3V613.6z M1090.9,340.9c0,6.6-2.1,12.1-6.4,16.3c-4.3,4.3-9.7,6.4-16.3,6.4H840.9c-6.6,0-12.1-2.1-16.3-6.4
	c-4.3-4.3-6.4-9.7-6.4-16.3V204.5c0-6.6,2.1-12.1,6.4-16.3c4.3-4.3,9.7-6.4,16.3-6.4h227.3c6.6,0,12.1,2.1,16.3,6.4
	c4.3,4.3,6.4,9.7,6.4,16.3V340.9z"/>
</svg>
