<svg width="96" height="96" viewBox="0 0 96 96" fill="none" xmlns="http://www.w3.org/2000/svg">
<path fill-rule="evenodd" clip-rule="evenodd" d="M8 89L8 23L10 23L10 89L8 89Z" fill="#AAAAAA"/>
<path fill-rule="evenodd" clip-rule="evenodd" d="M18.7778 77.6944H9.30554V75.1111H18.7778V77.6944Z" fill="#AAAAAA"/>
<circle cx="8.87497" cy="76.4028" r="3.01389" fill="#AAAAAA"/>
<path fill-rule="evenodd" clip-rule="evenodd" d="M18.7778 38.6944H9.30554V36.1111H18.7778V38.6944Z" fill="#AAAAAA"/>
<circle cx="8.87497" cy="37.4028" r="3.01389" fill="#AAAAAA"/>
<path fill-rule="evenodd" clip-rule="evenodd" d="M19.6389 58.2222H9.30554V55.6389H19.6389V58.2222Z" fill="#AAAAAA"/>
<circle cx="8.875" cy="56.9305" r="3.875" fill="#AAAAAA"/>
<path d="M64.3586 29.2649H25.6925C22.5132 29.2649 19.9359 31.8422 19.9359 35.0215V39.3008C19.9359 42.4801 22.5132 45.0574 25.6925 45.0574H64.3586C67.5378 45.0574 70.1152 42.4801 70.1152 39.3008V35.0215C70.1152 31.8422 67.5378 29.2649 64.3586 29.2649Z" fill="#F2F2F2"/>
<path d="M64.3585 31.3026C65.3718 31.3026 66.3436 31.7052 67.0602 32.4217C67.7767 33.1382 68.1792 34.1101 68.1792 35.1234V39.4536C68.1792 40.4669 67.7767 41.4387 67.0602 42.1553C66.3436 42.8718 65.3718 43.2743 64.3585 43.2743H25.6415C24.6282 43.2743 23.6564 42.8718 22.9398 42.1553C22.2233 41.4387 21.8208 40.4669 21.8208 39.4536V35.0215C21.8473 34.0259 22.2615 33.0801 22.9752 32.3855C23.6889 31.6908 24.6456 31.3023 25.6415 31.3026H64.3585ZM64.3585 27.4819H25.6415C23.6149 27.4819 21.6712 28.287 20.2381 29.72C18.8051 31.1531 18 33.0967 18 35.1234V39.4536C18 41.4802 18.8051 43.4239 20.2381 44.857C21.6712 46.29 23.6149 47.0951 25.6415 47.0951H64.3585C66.3851 47.0951 68.3288 46.29 69.7619 44.857C71.1949 43.4239 72 41.4802 72 39.4536V35.0215C72 32.9949 71.1949 31.0512 69.7619 29.6182C68.3288 28.1851 66.3851 27.38 64.3585 27.38V27.4819Z" fill="#AAAAAA"/>
<path d="M36.6963 37.1611H25.9982" stroke="#AAAAAA" stroke-width="0.75" stroke-miterlimit="1"/>
<path d="M25.6416 48.8781H64.3585C65.8853 48.8781 67.3495 49.4846 68.4291 50.5642C69.5086 51.6438 70.1151 53.108 70.1151 54.6347V58.9649C70.1152 59.7185 69.9659 60.4646 69.676 61.1602C69.3861 61.8558 68.9612 62.487 68.426 63.0175C67.8908 63.548 67.2558 63.9672 66.5576 64.251C65.8595 64.5347 65.1121 64.6773 64.3585 64.6706H25.6416C24.888 64.6706 24.1418 64.5213 23.4463 64.2314C22.7507 63.9415 22.1194 63.5167 21.5889 62.9814C21.0584 62.4462 20.6392 61.8112 20.3555 61.1131C20.0718 60.4149 19.9292 59.6675 19.9359 58.914V54.6347C19.9358 53.1168 20.5353 51.6602 21.6039 50.5821C22.6725 49.504 24.1237 48.8915 25.6416 48.8781Z" fill="#F2F2F2"/>
<path d="M64.3585 50.763C65.3718 50.763 66.3436 51.1656 67.0602 51.8821C67.7767 52.5986 68.1792 53.5704 68.1792 54.5838V58.914C68.1792 59.9273 67.7767 60.8991 67.0602 61.6156C66.3436 62.3322 65.3718 62.7347 64.3585 62.7347H25.6415C24.6282 62.7347 23.6564 62.3322 22.9398 61.6156C22.2233 60.8991 21.8208 59.9273 21.8208 58.914V54.5838C21.8208 53.5704 22.2233 52.5986 22.9398 51.8821C23.6564 51.1656 24.6282 50.763 25.6415 50.763H64.3585ZM64.3585 46.9423H25.6415C23.6149 46.9423 21.6712 47.7473 20.2381 49.1804C18.8051 50.6135 18 52.5571 18 54.5838V58.914C18 60.9406 18.8051 62.8843 20.2381 64.3173C21.6712 65.7504 23.6149 66.5555 25.6415 66.5555H64.3585C66.3851 66.5555 68.3288 65.7504 69.7619 64.3173C71.1949 62.8843 72 60.9406 72 58.914V54.5838C72 52.5571 71.1949 50.6135 69.7619 49.1804C68.3288 47.7473 66.3851 46.9423 64.3585 46.9423Z" fill="#7B7B97"/>
<path d="M36.6963 56.7744H25.9982" stroke="#7B7B97" stroke-width="0.75" stroke-miterlimit="1"/>
<path d="M25.6415 68.4913H64.3585C65.8717 68.4913 67.323 69.0924 68.393 70.1625C69.463 71.2325 70.0641 72.6837 70.0641 74.197V78.5272C70.0709 79.2807 69.9282 80.0281 69.6445 80.7263C69.3608 81.4244 68.9416 82.0594 68.4111 82.5946C67.8806 83.1299 67.2493 83.5547 66.5538 83.8446C65.8582 84.1345 65.1121 84.2838 64.3585 84.2838H25.6415C24.1147 84.2838 22.6505 83.6773 21.571 82.5977C20.4914 81.5181 19.8849 80.0539 19.8849 78.5272V74.197C19.8849 73.4434 20.0341 72.6973 20.324 72.0017C20.6139 71.3061 21.0388 70.6748 21.574 70.1443C22.1092 69.6139 22.7442 69.1946 23.4424 68.9109C24.1405 68.6272 24.8879 68.4846 25.6415 68.4913Z" fill="#F2F2F2"/>
<path d="M64.3585 70.4272C65.3718 70.4272 66.3436 70.8297 67.0602 71.5462C67.7767 72.2628 68.1792 73.2346 68.1792 74.2479V78.5781C68.1792 79.5914 67.7767 80.5633 67.0602 81.2798C66.3436 81.9963 65.3718 82.3989 64.3585 82.3989H25.6415C24.6282 82.3989 23.6564 81.9963 22.9398 81.2798C22.2233 80.5633 21.8208 79.5914 21.8208 78.5781V74.2479C21.8208 73.2346 22.2233 72.2628 22.9398 71.5462C23.6564 70.8297 24.6282 70.4272 25.6415 70.4272H64.3585ZM64.3585 66.6064H25.6415C23.6149 66.6064 21.6712 67.4115 20.2381 68.8446C18.8051 70.2776 18 72.2213 18 74.2479V78.5781C18 80.6048 18.8051 82.5484 20.2381 83.9815C21.6712 85.4145 23.6149 86.2196 25.6415 86.2196H64.3585C66.3851 86.2196 68.3288 85.4145 69.7619 83.9815C71.1949 82.5484 72 80.6048 72 78.5781V74.2479C72 72.2213 71.1949 70.2776 69.7619 68.8446C68.3288 67.4115 66.3851 66.6064 64.3585 66.6064Z" fill="#AAAAAA"/>
<path d="M36.6963 76.3875H25.9982" stroke="#AAAAAA" stroke-width="0.75" stroke-miterlimit="1"/>
<path d="M70.6 50C58.6 50 49 40.4 49 29C49 17 58.6 8 70.6 8C82 8 91.6 17 91.6 29C91.6 40.4 82 50 70.6 50Z" fill="#F2F2F2" stroke="#34495E" stroke-width="0.5" stroke-miterlimit="10" stroke-linejoin="bevel"/>
<path d="M79.033 37.7198V41H66.9835V37.7198H79.033ZM68.1374 17V41H64V17H68.1374Z" fill="#34495E"/>
<g clip-path="url(#clip0_35_1055)">
<mask id="mask0_35_1055" style="mask-type:luminance" maskUnits="userSpaceOnUse" x="53" y="54" width="32" height="32">
<path fill-rule="evenodd" clip-rule="evenodd" d="M53 54H85V86H53V54Z" fill="white"/>
</mask>
<g mask="url(#mask0_35_1055)">
<path d="M84.876 69.938C84.876 78.7403 77.7403 85.876 68.938 85.876C60.1357 85.876 53 78.7403 53 69.938C53 61.1357 60.1357 54 68.938 54C77.7403 54 84.876 61.1357 84.876 69.938Z" fill="#0A8A8A"/>
<path d="M78.5011 69.1575C79.1 68.5683 79.4772 67.7622 79.4772 66.9069C79.4772 65.3122 78.167 64.1517 76.5509 64.3148L74.0936 64.5629C73.8346 64.589 73.6246 64.8173 73.6246 65.0729V69.3773V69.9223V74.2265C73.6246 74.4821 73.8346 74.6681 74.0936 74.642L76.5509 74.3939C78.167 74.2308 79.4772 72.8058 79.4772 71.2111C79.4772 70.3559 79.1 69.6258 78.5011 69.1575Z" fill="#0A8A8A"/>
<path d="M63.8498 64.5631L61.3926 64.3148C59.7764 64.1515 58.4663 65.313 58.4663 66.9091C58.4663 67.7651 58.8435 68.572 59.4423 69.1617C58.8435 69.6304 58.4663 70.3611 58.4663 71.2171V71.2171C58.4663 72.8131 59.7764 74.2394 61.3926 74.4027L63.8498 74.6509C64.1088 74.6771 64.3188 74.4909 64.3188 74.2351V69.9271V69.3816V65.0736C64.3188 64.8178 64.1088 64.5892 63.8498 64.5631Z" fill="#0A8A8A"/>
<path d="M68.9443 66.6082H66.4877C66.2287 66.6082 66.0187 66.8186 66.0187 67.0781V73.4717V74.121C66.0187 74.3952 66.2074 74.6708 66.4796 74.6708H68.9449C68.919 75.1833 68.2171 75.8044 66.5711 75.9877L66.3845 76.0043C66.2735 76.0163 66.0187 76.0043 66.0187 76.4861V76.6139C66.0187 76.8736 66.2219 77.1019 66.4811 77.1019H68.938C70.5541 77.1019 71.8712 75.5367 71.8712 73.9167V69.5423C71.8712 67.9218 70.5608 66.6082 68.9443 66.6082Z" fill="#0A8A8A"/>
</g>
<path d="M75.1872 67.5902V67.5926C74.9352 67.5844 74.6833 67.5949 74.4336 67.6252C74.4579 67.4247 74.4706 67.2207 74.4706 67.0132C74.4694 64.2443 72.2445 62 69.4994 62C66.7544 62 64.5294 64.2443 64.5294 67.0132C64.5294 67.2195 64.5421 67.4235 64.5664 67.6241C64.3156 67.5949 64.0636 67.5844 63.8128 67.5926C63.8128 67.5926 63.8128 67.5902 63.8128 67.5891C61.1406 67.6742 59 69.8846 59 72.6011C59 75.3175 61.2249 77.6142 63.97 77.6142C65.2807 77.6142 66.4562 77.1607 67.3612 76.2665L67.3635 76.2688L69.5179 74.0957C69.5295 74.1062 69.5399 74.1178 69.5503 74.1295C70.1686 74.7532 70.7743 75.3909 71.403 76.0053C72.4144 76.994 73.5979 77.6154 75.03 77.6154C77.7751 77.6154 80 75.3711 80 72.6022C80 69.8333 77.8594 67.6754 75.1883 67.5914M69.4994 64.0892C71.1002 64.0892 72.3982 65.3985 72.3982 67.0132C72.3982 67.7756 72.1081 68.4705 71.6342 68.9916L69.5191 71.1787L67.375 69.0044C66.8942 68.4821 66.5995 67.7826 66.5995 67.0143C66.5995 65.3996 67.8975 64.0904 69.4983 64.0904M66.0331 74.6973C65.4402 75.1869 64.749 75.525 63.97 75.525C62.3692 75.525 61.0712 74.2158 61.0712 72.6011C61.0712 71.3839 61.8086 70.3405 62.857 69.901C62.8697 69.901 62.8824 69.8986 62.8939 69.894C64.0278 69.43 65.2194 69.7541 66.0667 70.6028C66.744 71.2813 67.4166 71.9645 68.0893 72.6489C67.8651 72.9158 66.1684 74.5865 66.0331 74.6984M75.0288 75.525C74.3065 75.525 73.6476 75.2884 73.1402 74.8488C73.1356 74.8453 73.1079 74.8185 73.1079 74.8185L70.9592 72.6395C71.0864 72.5101 72.9911 70.5737 73.3714 70.1983C74.1839 69.6293 75.2207 69.5267 76.1142 69.8928C76.1234 69.8963 76.1315 69.8986 76.1407 69.8986C77.1902 70.3382 77.9276 71.3828 77.9276 72.5999C77.9276 74.2146 76.6296 75.5239 75.0277 75.5239" fill="white"/>
</g>
<defs>
<clipPath id="clip0_35_1055">
<rect width="32" height="32" fill="white" transform="translate(53 54)"/>
</clipPath>
</defs>
</svg>
