<svg xmlns="http://www.w3.org/2000/svg" viewBox="0 0 64 64"><defs><style>.cls-1{fill:#528d19;}.cls-1,.cls-2{stroke:#528d19;}.cls-1,.cls-11,.cls-2,.cls-8{stroke-linejoin:round;}.cls-11,.cls-2,.cls-8{fill:none;}.cls-2{stroke-linecap:round;stroke-width:2px;}.cls-3{fill:#f0ecb6;}.cls-4{fill:#3588c1;}.cls-5{fill:#addff3;}.cls-6{fill:#2980b9;}.cls-7{opacity:0.7;}.cls-8{stroke:#c18f35;}.cls-9{fill:#d3d4f3;}.cls-10{fill:#666bd1;}.cls-11{stroke:#666bd1;}</style></defs><title>ex_append</title><g id="ex_append"><polygon class="cls-1" points="23.04 38.11 25.57 41.49 20.51 41.49 23.04 38.11"/><line class="cls-2" x1="23.04" y1="41.49" x2="23.04" y2="44.47"/><polygon class="cls-1" points="40.98 38.11 43.5 41.49 38.45 41.49 40.98 38.11"/><line class="cls-2" x1="40.97" y1="41.49" x2="40.97" y2="44.47"/><path class="cls-3" d="M8,34.5c-1.37,0-1.5-.13-1.5-1.5V12.5h51V33c0,1.37-.13,1.5-1.5,1.5Z"/><path class="cls-4" d="M57,13V33a3.28,3.28,0,0,1-.08.9A2.18,2.18,0,0,1,56,34H8a3.25,3.25,0,0,1-.9-.08h0A2.18,2.18,0,0,1,7,33V13H57m1-1H6V33c0,1.65.35,2,2,2H56c1.65,0,2-.35,2-2V12Z"/><path class="cls-5" d="M46.38,12.5v-6H56c1.37,0,1.5.13,1.5,1.5v4.5Z"/><path class="cls-6" d="M56,7a3.25,3.25,0,0,1,.9.08h0A2.18,2.18,0,0,1,57,8v4H46.88V7H56m0-1H45.88v7H58V8c0-1.65-.35-2-2-2Z"/><path class="cls-5" d="M6.52,12.5V8c0-1.37.13-1.5,1.5-1.5H17.6v6Z"/><path class="cls-6" d="M17.1,7v5H7V8a3.28,3.28,0,0,1,.08-.9A2.18,2.18,0,0,1,8,7H17.1m1-1H8C6.37,6,6,6.35,6,8v5H18.1V6Z"/><rect class="cls-5" x="36.82" y="6.5" width="9.56" height="6"/><path class="cls-6" d="M45.88,7v5H37.31V7h8.56m1-1H36.32v7H46.88V6Z"/><rect class="cls-5" x="27.25" y="6.5" width="9.56" height="6"/><path class="cls-6" d="M36.32,7v5H27.75V7h8.56m1-1H26.76v7H37.32V6Z"/><rect class="cls-5" x="17.62" y="6.5" width="9.62" height="6"/><path class="cls-6" d="M26.74,7v5H18.12V7h8.61m1-1H17.13v7H27.74V6Z"/><g class="cls-7"><line class="cls-8" x1="17.61" y1="34" x2="17.61" y2="13"/><line class="cls-8" x1="36.8" y1="34" x2="36.8" y2="13"/><line class="cls-8" x1="27.21" y1="34" x2="27.21" y2="13"/><line class="cls-8" x1="46.39" y1="34" x2="46.39" y2="13"/><line class="cls-8" x1="7" y1="19.85" x2="57.25" y2="19.85"/><line class="cls-8" x1="7" y1="27.23" x2="57.25" y2="27.23"/></g><rect class="cls-9" x="6.52" y="48.5" width="50.98" height="9" rx="1.5" ry="1.5"/><path class="cls-10" d="M56,49a3.25,3.25,0,0,1,.9.08h0A2.18,2.18,0,0,1,57,50v6a3.28,3.28,0,0,1-.08.9A2.18,2.18,0,0,1,56,57H8a3.25,3.25,0,0,1-.9-.08h0A2.18,2.18,0,0,1,7,56V50a3.28,3.28,0,0,1,.08-.9A2.18,2.18,0,0,1,8,49H56m0-1H8c-1.65,0-2,.35-2,2v6c0,1.65.35,2,2,2H56c1.65,0,2-.35,2-2V50c0-1.65-.35-2-2-2Z"/><g class="cls-7"><line class="cls-11" x1="17.6" y1="57.06" x2="17.6" y2="48.83"/><line class="cls-11" x1="27.2" y1="57.06" x2="27.2" y2="48.83"/><line class="cls-11" x1="36.8" y1="57.06" x2="36.8" y2="48.83"/><line class="cls-11" x1="46.4" y1="57.06" x2="46.4" y2="48.83"/></g></g></svg>