<svg xmlns="http://www.w3.org/2000/svg" viewBox="0 0 64 64"><defs><style>.cls-1{fill:#f0ecb6;}.cls-2{fill:#c18f35;}.cls-3{opacity:0.7;}.cls-4,.cls-6{fill:none;}.cls-4{stroke:#c18f35;}.cls-4,.cls-5,.cls-6{stroke-linejoin:round;}.cls-5{fill:#34495e;}.cls-5,.cls-6{stroke:#34495e;}.cls-6{stroke-linecap:round;}</style></defs><title>ex_broadcast_motion</title><g id="ex_broadcast_motion"><path class="cls-1" d="M21.56,51.69c-1.34,0-1.49-.13-1.5-1.41V14.15c0-1.28.15-1.41,1.5-1.41h9c1.34,0,1.48.13,1.5,1.41V50.28c0,1.28-.15,1.41-1.5,1.41Z"/><path class="cls-2" d="M21.56,13.24h9a3.09,3.09,0,0,1,.9.08h0a2,2,0,0,1,.1.84V50.27a3,3,0,0,1-.08.81,2.15,2.15,0,0,1-.92.1h-9a3.09,3.09,0,0,1-.9-.08h0a2,2,0,0,1-.1-.84V14.16a3,3,0,0,1,.08-.81,2.15,2.15,0,0,1,.92-.1m0-1c-1.61,0-2,.34-2,1.9h0V50.28h0c0,1.56.38,1.9,2,1.9h9c1.61,0,2-.34,2-1.9h0V14.15h0c0-1.56-.38-1.9-2-1.9Z"/><g class="cls-3"><line class="cls-4" x1="20.57" y1="19.93" x2="31.54" y2="19.93"/><line class="cls-4" x1="20.57" y1="27.67" x2="31.54" y2="27.67"/><line class="cls-4" x1="20.57" y1="35.42" x2="31.54" y2="35.42"/><line class="cls-4" x1="20.57" y1="43.16" x2="31.54" y2="43.16"/></g><polygon class="cls-5" points="43.3 54.68 42.27 51.55 40.01 54.79 43.3 54.68"/><line class="cls-6" x1="41.57" y1="53.35" x2="33.5" y2="47.64"/><polygon class="cls-5" points="43.3 9.32 42.27 12.45 40.01 9.21 43.3 9.32"/><line class="cls-6" x1="41.57" y1="10.65" x2="33.5" y2="16.36"/><polygon class="cls-5" points="45.44 31.63 42.8 29.65 42.8 33.6 45.44 31.63"/><line class="cls-6" x1="43.25" y1="31.53" x2="33.36" y2="31.48"/><polygon class="cls-5" points="45.04 18.95 41.88 18 43.23 21.71 45.04 18.95"/><line class="cls-6" x1="42.95" y1="19.61" x2="33.64" y2="22.95"/><polygon class="cls-5" points="45.04 43.48 41.88 44.44 43.23 40.72 45.04 43.48"/><line class="cls-6" x1="42.95" y1="42.83" x2="33.64" y2="39.49"/></g></svg>