<svg xmlns="http://www.w3.org/2000/svg" viewBox="0 0 64 64"><defs><style>.cls-1{fill:#f0ecb6;}.cls-2{fill:#c18f35;}.cls-3{opacity:0.7;}.cls-14,.cls-4,.cls-9{fill:none;}.cls-4{stroke:#c18f35;}.cls-13,.cls-14,.cls-4,.cls-8,.cls-9{stroke-linejoin:round;}.cls-5{fill:#addff3;}.cls-6{fill:#2980b9;}.cls-15,.cls-7,.cls-8{fill:#34495e;}.cls-8,.cls-9{stroke:#34495e;}.cls-14,.cls-9{stroke-linecap:round;stroke-width:2px;}.cls-10,.cls-12{fill:#d3d4f3;}.cls-11{fill:#666bd1;}.cls-12{stroke:#666bd1;stroke-miterlimit:10;}.cls-13{fill:#528d19;}.cls-13,.cls-14{stroke:#528d19;}.cls-15{font-size:6px;font-family:Helvetica-Bold, Helvetica;font-weight:700;}</style></defs><title>ex_bmp_index</title><g id="ex_bmp_index"><path class="cls-1" d="M37,54.5c-1.37,0-1.5-.13-1.5-1.5V16.5h22V53c0,1.37-.13,1.5-1.5,1.5Z"/><path class="cls-2" d="M57,17V53a3.28,3.28,0,0,1-.08.9A2.18,2.18,0,0,1,56,54H37a3.25,3.25,0,0,1-.9-.08h0A2.17,2.17,0,0,1,36,53V17H57m1-1H35V53c0,1.65.35,2,2,2H56c1.65,0,2-.35,2-2V16Z"/><g class="cls-3"><line class="cls-4" x1="36.03" y1="23.74" x2="56.99" y2="23.74"/><line class="cls-4" x1="36.03" y1="31.49" x2="56.99" y2="31.49"/><line class="cls-4" x1="36.03" y1="39.23" x2="56.99" y2="39.23"/><line class="cls-4" x1="36.03" y1="46.97" x2="56.99" y2="46.97"/></g><g class="cls-3"><line class="cls-4" x1="50.08" y1="17" x2="50.08" y2="54.11"/><line class="cls-4" x1="43.12" y1="17" x2="43.12" y2="54.11"/></g><path class="cls-5" d="M35.52,16.5V10c0-.9.43-1.5,2.5-1.5H56c1.37,0,1.5.13,1.5,1.5v6.5Z"/><path class="cls-6" d="M56,9a3.25,3.25,0,0,1,.9.08h0A2.18,2.18,0,0,1,57,10v6H36V10c0-.45,0-1,2-1H56m0-1H38c-1.65,0-3,.35-3,2v7H58V10c0-1.65-.35-2-2-2Z"/><path class="cls-7" d="M36.76,25l5.12.08v5.39l-5.12-.08Z"/><path class="cls-7" d="M36.76,40.48l5.12.08V46l-5.12-.08Z"/><polygon class="cls-8" points="30.2 51.68 27.68 48.3 32.73 48.3 30.2 51.68"/><line class="cls-9" x1="30.2" y1="48.3" x2="30.2" y2="17.32"/><path class="cls-10" d="M10,54.5c-1.37,0-1.5-.13-1.5-1.5V16.5h12V53c0,1.37-.13,1.5-1.5,1.5Z"/><path class="cls-11" d="M20,17V53a3.28,3.28,0,0,1-.08.9A2.18,2.18,0,0,1,19,54H10a3.25,3.25,0,0,1-.9-.08h0A2.18,2.18,0,0,1,9,53V17H20m1-1H8V53c0,1.65.35,2,2,2h9c1.65,0,2-.35,2-2V16Z"/><path class="cls-5" d="M8.5,16.5V10c0-1.37.13-1.5,1.5-1.5h9c1.37,0,1.5.13,1.5,1.5v6.5Z"/><path class="cls-6" d="M19,9a3.25,3.25,0,0,1,.9.08h0A2.17,2.17,0,0,1,20,10v6H9V10a3.28,3.28,0,0,1,.08-.9A2.18,2.18,0,0,1,10,9h9m0-1H10c-1.65,0-2,.35-2,2v7H21V10c0-1.65-.35-2-2-2Z"/><line class="cls-12" x1="9" y1="23.74" x2="19.99" y2="23.74"/><line class="cls-12" x1="9" y1="31.49" x2="19.99" y2="31.49"/><line class="cls-12" x1="9" y1="39.23" x2="19.99" y2="39.23"/><line class="cls-12" x1="9" y1="46.98" x2="19.99" y2="46.98"/><polygon class="cls-13" points="17.81 27.49 21.19 24.96 21.19 30.02 17.81 27.49"/><line class="cls-14" x1="21.19" y1="27.49" x2="36.16" y2="27.49"/><polygon class="cls-13" points="17.81 43.22 21.19 40.69 21.19 45.75 17.81 43.22"/><line class="cls-14" x1="21.19" y1="43.22" x2="36.16" y2="43.22"/><text class="cls-15" transform="translate(12.82 22.45)">0</text><text class="cls-15" transform="translate(12.82 30.02)">1</text><text class="cls-15" transform="translate(12.82 45.24)">1</text><text class="cls-15" transform="translate(12.82 37.33)">0</text><text class="cls-15" transform="translate(12.82 52.73)">0</text></g></svg>