<svg xmlns="http://www.w3.org/2000/svg" viewBox="0 0 64 64"><defs><style>.cls-1{fill:#f0ecb6;}.cls-2{fill:#c18f35;}.cls-3{opacity:0.7;}.cls-10,.cls-13,.cls-15,.cls-4{fill:none;}.cls-4{stroke:#c18f35;}.cls-10,.cls-12,.cls-13,.cls-14,.cls-15,.cls-4{stroke-linejoin:round;}.cls-5{fill:#addff3;}.cls-14,.cls-6{fill:#2980b9;}.cls-11,.cls-7{fill:#34495e;}.cls-8{fill:#d3d4f3;}.cls-9{fill:#666bd1;}.cls-10{stroke:#666bd1;}.cls-11{font-size:6px;font-family:Helvetica-Bold, Helvetica;font-weight:700;}.cls-12{fill:#528d19;}.cls-12,.cls-13{stroke:#528d19;}.cls-13,.cls-15{stroke-linecap:round;stroke-width:2px;}.cls-14,.cls-15{stroke:#2980b9;}</style></defs><title>ex_bmp_heap</title><g id="ex_bmp_heap"><path class="cls-1" d="M37,56.5c-1.37,0-1.5-.13-1.5-1.5V9c0-.9.43-1.5,2.5-1.5H55c2.07,0,2.5.6,2.5,1.5V55c0,1.37-.13,1.5-1.5,1.5Z"/><path class="cls-2" d="M55,8c2,0,2,.55,2,1V55a3.28,3.28,0,0,1-.08.9A2.18,2.18,0,0,1,56,56H37a3.25,3.25,0,0,1-.9-.08h0A2.17,2.17,0,0,1,36,55V9c0-.45,0-1,2-1H55m0-1H38c-1.65,0-3,.35-3,2V55c0,1.65.35,2,2,2H56c1.65,0,2-.35,2-2V9c0-1.65-1.35-2-3-2Z"/><g class="cls-3"><line class="cls-4" x1="35.98" y1="23.74" x2="56.94" y2="23.74"/><line class="cls-4" x1="35.98" y1="31.49" x2="56.94" y2="31.49"/><line class="cls-4" x1="35.98" y1="39.23" x2="56.94" y2="39.23"/><line class="cls-4" x1="35.98" y1="46.97" x2="56.94" y2="46.97"/></g><g class="cls-3"><line class="cls-4" x1="50.04" y1="16" x2="50.04" y2="56.11"/><line class="cls-4" x1="43.07" y1="16" x2="43.07" y2="56.11"/></g><path class="cls-5" d="M35.47,15.5V9c0-1.37.13-1.5,1.5-1.5H56c1.37,0,1.5.13,1.5,1.5v6.5Z"/><path class="cls-6" d="M56,8a3.25,3.25,0,0,1,.9.08h0A2.18,2.18,0,0,1,57,9v6H36V9A3.28,3.28,0,0,1,36,8.1,2.18,2.18,0,0,1,37,8H56m0-1H37c-1.65,0-2,.35-2,2v7H58V9c0-1.65-.35-2-2-2Z"/><path class="cls-7" d="M36.71,25l5.12.08v5.39l-5.12-.08Z"/><path class="cls-7" d="M51.07,40.48l5.12.08V46l-5.12-.08Z"/><path class="cls-8" d="M8,56.5c-1.37,0-1.5-.13-1.5-1.5V10c0-2.07.6-2.5,1.5-2.5h9c.9,0,1.5.43,1.5,2.5V55c0,1.37-.13,1.5-1.5,1.5Z"/><path class="cls-9" d="M17,8c.45,0,1,0,1,2V55a3.28,3.28,0,0,1-.08.9A2.18,2.18,0,0,1,17,56H8a3.25,3.25,0,0,1-.9-.08h0A2.18,2.18,0,0,1,7,55V10c0-2,.55-2,1-2h9m0-1H8C6.35,7,6,8.35,6,10V55c0,1.65.35,2,2,2h9c1.65,0,2-.35,2-2V10c0-1.65-.35-3-2-3Z"/><path class="cls-5" d="M6.5,15.5V9c0-1.37.13-1.5,1.5-1.5h9c1.37,0,1.5.13,1.5,1.5v6.5Z"/><path class="cls-6" d="M17,8a3.25,3.25,0,0,1,.9.08h0A2.17,2.17,0,0,1,18,9v6H7V9a3.28,3.28,0,0,1,.08-.9A2.18,2.18,0,0,1,8,8h9m0-1H8C6.35,7,6,7.35,6,9v7H19V9c0-1.65-.35-2-2-2Z"/><g class="cls-3"><line class="cls-10" x1="7.01" y1="23.74" x2="17.97" y2="23.74"/><line class="cls-10" x1="7.01" y1="31.49" x2="17.97" y2="31.49"/><line class="cls-10" x1="7.01" y1="39.23" x2="17.97" y2="39.23"/><line class="cls-10" x1="7.01" y1="46.97" x2="17.97" y2="46.97"/></g><text class="cls-11" transform="translate(10.82 21.83)">1</text><text class="cls-11" transform="translate(10.82 29.76)">0</text><text class="cls-11" transform="translate(10.82 45.24)">1</text><text class="cls-11" transform="translate(10.82 37.62)">0</text><text class="cls-11" transform="translate(10.82 53.33)">0</text><polygon class="cls-12" points="17.81 27.49 21.19 24.96 21.19 30.02 17.81 27.49"/><line class="cls-13" x1="21.19" y1="27.49" x2="36.16" y2="27.49"/><polygon class="cls-12" points="17.81 43.01 21.19 40.48 21.19 45.54 17.81 43.01"/><line class="cls-13" x1="21.19" y1="43.01" x2="50.04" y2="43.01"/><polygon class="cls-14" points="30.47 51.68 27.94 48.3 33 48.3 30.47 51.68"/><line class="cls-15" x1="30.47" y1="48.3" x2="30.47" y2="17.32"/></g></svg>