<svg xmlns="http://www.w3.org/2000/svg" viewBox="0 0 64 64"><defs><style>.cls-1,.cls-8{fill:#34495e;}.cls-2{fill:#d3d4f3;}.cls-3{fill:#666bd1;}.cls-4{fill:#addff3;}.cls-5{fill:#2980b9;}.cls-6{opacity:0.7;}.cls-11,.cls-7{fill:none;stroke-linejoin:round;}.cls-7{stroke:#666bd1;}.cls-8{font-size:6px;font-family:Helvetica-Bold, Helvetica;font-weight:700;}.cls-9{fill:#f0ecb6;}.cls-10{fill:#c18f35;}.cls-11{stroke:#c18f35;}</style></defs><title>ex_bmp_and</title><g id="ex_bmp_and"><path class="cls-1" d="M26,28.89a5.2,5.2,0,0,1-.46-2.07,4.62,4.62,0,0,1,1.4-3.45A5.14,5.14,0,0,1,30.69,22a4.68,4.68,0,0,1,3.49,1.27,4.19,4.19,0,0,1,1.26,3,5.47,5.47,0,0,1-1.3,3.62A12.24,12.24,0,0,1,31.6,32l3.91,4.69Q35.9,35.56,36,35t.31-1.62h2.5a16,16,0,0,1-1,4q-.74,1.9-.74,1.53l3.81,4.65H37.55l-2-2.46a10.55,10.55,0,0,1-2.19,1.9,7.55,7.55,0,0,1-4,1.05Q26,44,24.49,42.19A6.18,6.18,0,0,1,23,38.11,5.89,5.89,0,0,1,24.45,34a16.16,16.16,0,0,1,3.37-2.49A11.06,11.06,0,0,1,26,28.89Zm6.33,12a6.09,6.09,0,0,0,1.79-1.67l-4.85-5.93a14.74,14.74,0,0,0-2.68,2.11,3.93,3.93,0,0,0-1,2.68,3.08,3.08,0,0,0,1.25,2.64,4.39,4.39,0,0,0,2.66.92A5.05,5.05,0,0,0,32.33,40.93Zm-.21-12.2A3.31,3.31,0,0,0,33,26.53a2.35,2.35,0,0,0-.63-1.64,2.17,2.17,0,0,0-1.69-.69,2.26,2.26,0,0,0-2.56,2.3,3.27,3.27,0,0,0,.49,1.71,15.83,15.83,0,0,0,1.64,2.12A11.08,11.08,0,0,0,32.12,28.74Z"/><rect class="cls-2" x="6.54" y="7.5" width="11.98" height="49" rx="1.5" ry="1.5"/><path class="cls-3" d="M17,8a3.25,3.25,0,0,1,.9.08h0A2.18,2.18,0,0,1,18,9V55a3.28,3.28,0,0,1-.08.9A2.18,2.18,0,0,1,17,56H8a3.25,3.25,0,0,1-.9-.08h0A2.18,2.18,0,0,1,7,55V9a3.28,3.28,0,0,1,.08-.9A2.18,2.18,0,0,1,8,8h9m0-1H8C6.39,7,6,7.35,6,9V55c0,1.65.35,2,2,2h9c1.65,0,2-.35,2-2V9c0-1.65-.35-2-2-2Z"/><path class="cls-4" d="M6.54,15.5V9c0-1.37.13-1.5,1.5-1.5h9c1.37,0,1.5.13,1.5,1.5v6.5Z"/><path class="cls-5" d="M17,8a3.25,3.25,0,0,1,.9.08h0A2.18,2.18,0,0,1,18,9v6H7V9a3.28,3.28,0,0,1,.08-.9A2.18,2.18,0,0,1,8,8h9m0-1H8C6.39,7,6,7.35,6,9v7H19V9c0-1.65-.35-2-2-2Z"/><g class="cls-6"><line class="cls-7" x1="7.05" y1="23.74" x2="18.02" y2="23.74"/><line class="cls-7" x1="7.05" y1="31.49" x2="18.02" y2="31.49"/><line class="cls-7" x1="7.05" y1="39.23" x2="18.02" y2="39.23"/><line class="cls-7" x1="7.05" y1="46.97" x2="18.02" y2="46.97"/></g><text class="cls-8" transform="translate(10.87 21.83)">1</text><text class="cls-8" transform="translate(10.87 29.76)">0</text><text class="cls-8" transform="translate(10.87 45.24)">1</text><text class="cls-8" transform="translate(10.87 37.62)">0</text><text class="cls-8" transform="translate(10.87 53.33)">0</text><rect class="cls-9" x="45.47" y="7.5" width="11.98" height="49" rx="1.5" ry="1.5"/><path class="cls-10" d="M56,8a3.25,3.25,0,0,1,.9.08h0A2.18,2.18,0,0,1,57,9V55a3.28,3.28,0,0,1-.08.9A2.18,2.18,0,0,1,56,56H47a3.25,3.25,0,0,1-.9-.08h0A2.18,2.18,0,0,1,46,55V9A3.28,3.28,0,0,1,46,8.1,2.18,2.18,0,0,1,47,8h9m0-1H47c-1.65,0-2,.35-2,2V55c0,1.65.35,2,2,2h9c1.65,0,2-.35,2-2V9c0-1.65-.35-2-2-2Z"/><g class="cls-6"><line class="cls-11" x1="45.98" y1="23.74" x2="56.95" y2="23.74"/><line class="cls-11" x1="45.98" y1="31.49" x2="56.95" y2="31.49"/><line class="cls-11" x1="45.98" y1="39.23" x2="56.95" y2="39.23"/><line class="cls-11" x1="45.98" y1="46.97" x2="56.95" y2="46.97"/></g><text class="cls-8" transform="translate(49.8 21.83)">0</text><text class="cls-8" transform="translate(49.8 29.76)">0</text><text class="cls-8" transform="translate(49.8 45.24)">1</text><text class="cls-8" transform="translate(49.8 37.62)">1</text><text class="cls-8" transform="translate(49.8 53.33)">1</text><path class="cls-4" d="M45.47,15.5V9c0-1.37.13-1.5,1.5-1.5h9c1.37,0,1.5.13,1.5,1.5v6.5Z"/><path class="cls-5" d="M56,8a3.25,3.25,0,0,1,.9.08h0A2.18,2.18,0,0,1,57,9v6H46V9A3.28,3.28,0,0,1,46,8.1,2.18,2.18,0,0,1,47,8h9m0-1H47c-1.65,0-2,.35-2,2v7H58V9c0-1.65-.35-2-2-2Z"/></g></svg>