<svg xmlns="http://www.w3.org/2000/svg" viewBox="0 0 64 64"><defs><style>.cls-1,.cls-11{fill:none;stroke-linejoin:round;}.cls-1{stroke:#34495e;stroke-linecap:round;stroke-width:4px;}.cls-2,.cls-4{fill:#d3d4f3;}.cls-3{fill:#666bd1;}.cls-4{stroke:#666bd1;stroke-miterlimit:10;}.cls-5{font-size:6px;fill:#34495e;font-family:Helvetica-Bold, Helvetica;font-weight:700;}.cls-6{fill:#addff3;}.cls-7{fill:#2980b9;}.cls-8{fill:#f0ecb6;}.cls-9{fill:#c18f35;}.cls-10{opacity:0.7;}.cls-11{stroke:#c18f35;}</style></defs><title>ex_bmp_or</title><g id="ex_bmp_or"><line class="cls-1" x1="32" y1="15.84" x2="32" y2="48.16"/><path class="cls-2" d="M10,56.5c-1.37,0-1.5-.13-1.5-1.5V15.46h12V55c0,1.37-.13,1.5-1.5,1.5Z"/><path class="cls-3" d="M20,16V55a3.28,3.28,0,0,1-.08.9A2.18,2.18,0,0,1,19,56H10a3.25,3.25,0,0,1-.9-.08h0A2.18,2.18,0,0,1,9,55V16H20m1-1H8V55c0,1.65.35,2,2,2h9c1.65,0,2-.35,2-2V15Z"/><line class="cls-4" x1="9.01" y1="23.74" x2="19.97" y2="23.74"/><line class="cls-4" x1="9.01" y1="31.49" x2="19.97" y2="31.49"/><line class="cls-4" x1="9.01" y1="39.23" x2="19.97" y2="39.23"/><line class="cls-4" x1="9.01" y1="46.97" x2="19.97" y2="46.97"/><text class="cls-5" transform="translate(12.82 21.83)">1</text><text class="cls-5" transform="translate(12.82 29.76)">0</text><text class="cls-5" transform="translate(12.82 45.24)">1</text><text class="cls-5" transform="translate(12.82 37.62)">0</text><text class="cls-5" transform="translate(12.82 53.33)">0</text><path class="cls-6" d="M8.5,15.5V9c0-1.37.13-1.5,1.5-1.5h9c1.37,0,1.5.13,1.5,1.5v6.5Z"/><path class="cls-7" d="M19,8a3.25,3.25,0,0,1,.9.08h0A2.17,2.17,0,0,1,20,9v6H9V9a3.28,3.28,0,0,1,.08-.9A2.18,2.18,0,0,1,10,8h9m0-1H10C8.35,7,8,7.35,8,9v7H21V9c0-1.65-.35-2-2-2Z"/><path class="cls-8" d="M45,56.5c-1.37,0-1.5-.13-1.5-1.5V15.46h12V55c0,1.37-.13,1.5-1.5,1.5Z"/><path class="cls-9" d="M55,16V55a3.28,3.28,0,0,1-.08.9A2.18,2.18,0,0,1,54,56H45a3.25,3.25,0,0,1-.9-.08h0A2.18,2.18,0,0,1,44,55V16H55m1-1H43V55c0,1.65.35,2,2,2h9c1.65,0,2-.35,2-2V15Z"/><g class="cls-10"><line class="cls-11" x1="44.03" y1="23.74" x2="54.99" y2="23.74"/><line class="cls-11" x1="44.03" y1="31.49" x2="54.99" y2="31.49"/><line class="cls-11" x1="44.03" y1="39.23" x2="54.99" y2="39.23"/><line class="cls-11" x1="44.03" y1="46.97" x2="54.99" y2="46.97"/></g><text class="cls-5" transform="translate(47.84 21.83)">0</text><text class="cls-5" transform="translate(47.84 29.76)">0</text><text class="cls-5" transform="translate(47.84 45.24)">1</text><text class="cls-5" transform="translate(47.84 37.62)">1</text><text class="cls-5" transform="translate(47.84 53.33)">1</text><path class="cls-6" d="M43.52,15.5V9c0-1.37.13-1.5,1.5-1.5h9c1.37,0,1.5.13,1.5,1.5v6.5Z"/><path class="cls-7" d="M54,8a3.25,3.25,0,0,1,.9.08h0A2.18,2.18,0,0,1,55,9v6H44V9a3.28,3.28,0,0,1,.08-.9A2.18,2.18,0,0,1,45,8h9m0-1H45c-1.65,0-2,.35-2,2v7H56V9c0-1.65-.35-2-2-2Z"/></g></svg>