<svg xmlns="http://www.w3.org/2000/svg" viewBox="0 0 64 64"><defs><style>.cls-1,.cls-9{fill:#2980b9;}.cls-1,.cls-2{stroke:#2980b9;}.cls-1,.cls-2,.cls-6,.cls-7{stroke-linejoin:round;}.cls-2{fill:#6c6c6c;stroke-linecap:round;stroke-width:2px;}.cls-3{fill:#caf0b7;}.cls-4{fill:#36c13d;}.cls-5,.cls-6{opacity:0.7;}.cls-6,.cls-7{fill:none;stroke:#36c13d;}.cls-8{fill:#addff3;}.cls-10{font-size:12px;fill:#34495e;font-family:HelveticaNeue-Bold, Helvetica Neue;font-weight:700;letter-spacing:0.1em;}</style></defs><title>ex_cte_scan</title><g id="ex_cte_scan"><polygon class="cls-1" points="9.97 50.75 6.49 46.1 13.45 46.1 9.97 50.75"/><line class="cls-2" x1="9.97" y1="46.74" x2="9.97" y2="15.76"/><path class="cls-3" d="M18,57.44c-1.37,0-1.5-.13-1.5-1.5V15.5h41V55.94c0,1.37-.13,1.5-1.5,1.5Z"/><path class="cls-4" d="M57,16V55.94a3.28,3.28,0,0,1-.08.9,2.18,2.18,0,0,1-.92.1H18a3.25,3.25,0,0,1-.9-.08h0a2.18,2.18,0,0,1-.1-.92V16H57m1-1H16V55.94c0,1.65.35,2,2,2H56c1.65,0,2-.35,2-2V15Z"/><g class="cls-5"><line class="cls-6" x1="24.7" y1="56.94" x2="24.7" y2="15.94"/><line class="cls-6" x1="41.1" y1="56.94" x2="41.1" y2="15.94"/><line class="cls-6" x1="32.9" y1="56.94" x2="32.9" y2="15.94"/><line class="cls-6" x1="49.3" y1="56.94" x2="49.3" y2="15.94"/><g class="cls-5"><line class="cls-7" x1="17" y1="23.94" x2="56.97" y2="23.94"/><line class="cls-7" x1="17" y1="32.31" x2="56.97" y2="32.31"/><line class="cls-7" x1="17" y1="40.68" x2="56.97" y2="40.68"/><line class="cls-7" x1="17" y1="49.05" x2="56.97" y2="49.05"/></g></g><path class="cls-8" d="M49.31,15.49v-9H56c1.37,0,1.5.13,1.5,1.5v7.5Z"/><path class="cls-9" d="M56,7a3.25,3.25,0,0,1,.9.08h0A2.17,2.17,0,0,1,57,8v7H49.81V7H56m0-1H48.81V16H58V8c0-1.65-.35-2-2-2Z"/><path class="cls-8" d="M16.51,15.49V8c0-1.37.13-1.5,1.5-1.5H24.7v9Z"/><path class="cls-9" d="M24.2,7v8H17V8a3.28,3.28,0,0,1,.08-.9A2.18,2.18,0,0,1,18,7H24.2m1-1H18c-1.65,0-2,.35-2,2v8H25.2V6Z"/><rect class="cls-8" x="41.1" y="6.49" width="8.19" height="9"/><path class="cls-9" d="M48.79,7v8H41.6V7h7.18m1-1H40.61V16h9.19V6Z"/><rect class="cls-8" x="32.91" y="6.49" width="8.19" height="9"/><path class="cls-9" d="M40.6,7v8H33.41V7H40.6m1-1H32.42V16H41.6V6Z"/><rect class="cls-8" x="24.72" y="6.49" width="8.17" height="9"/><path class="cls-9" d="M32.4,7v8H25.22V7H32.4m1-1H24.22V16H33.4V6Z"/><text class="cls-10" transform="translate(23.35 38.4)">CTE</text></g></svg>