<svg xmlns="http://www.w3.org/2000/svg" viewBox="0 0 64 64"><defs><style>.cls-1{fill:#f0ecb6;}.cls-2{fill:#c18f36;}.cls-3,.cls-4{opacity:0.7;}.cls-4,.cls-5{fill:none;stroke:#c18f36;stroke-linejoin:round;}.cls-6{fill:#addff3;}.cls-7{fill:#2980b9;}.cls-8{fill:#f64d12;}</style></defs><title>ex_delete</title><g id="ex_delete"><path class="cls-1" d="M18,57.44c-1.37,0-1.5-.13-1.5-1.5V15.5h41V55.94c0,1.37-.13,1.5-1.5,1.5Z"/><path class="cls-2" d="M57,16V55.94a3.28,3.28,0,0,1-.08.9,2.18,2.18,0,0,1-.92.1H18a3.25,3.25,0,0,1-.9-.08h0a2.18,2.18,0,0,1-.1-.92V16H57m1-1H16V55.94c0,1.65.35,2,2,2H56c1.65,0,2-.35,2-2V15Z"/><g class="cls-3"><line class="cls-4" x1="24.7" y1="56.94" x2="24.7" y2="15.94"/><line class="cls-4" x1="41.1" y1="56.94" x2="41.1" y2="15.94"/><line class="cls-4" x1="32.9" y1="56.94" x2="32.9" y2="15.94"/><line class="cls-4" x1="49.3" y1="56.94" x2="49.3" y2="15.94"/><g class="cls-3"><line class="cls-5" x1="17" y1="23.94" x2="56.97" y2="23.94"/><line class="cls-5" x1="17" y1="32.31" x2="56.97" y2="32.31"/><line class="cls-5" x1="17" y1="40.68" x2="56.97" y2="40.68"/><line class="cls-5" x1="17" y1="49.05" x2="56.97" y2="49.05"/></g></g><path class="cls-6" d="M49.31,15.49v-9H56c1.37,0,1.5.13,1.5,1.5v7.5Z"/><path class="cls-7" d="M56,7a3.25,3.25,0,0,1,.9.08h0A2.17,2.17,0,0,1,57,8v7H49.81V7H56m0-1H48.81V16H58V8c0-1.65-.35-2-2-2Z"/><path class="cls-6" d="M16.51,15.49V8c0-1.37.13-1.5,1.5-1.5H24.7v9Z"/><path class="cls-7" d="M24.2,7v8H17V8a3.28,3.28,0,0,1,.08-.9A2.18,2.18,0,0,1,18,7H24.2m1-1H18c-1.65,0-2,.35-2,2v8H25.2V6Z"/><rect class="cls-6" x="41.1" y="6.49" width="8.19" height="9"/><path class="cls-7" d="M48.79,7v8H41.6V7h7.18m1-1H40.61V16h9.19V6Z"/><rect class="cls-6" x="32.91" y="6.49" width="8.19" height="9"/><path class="cls-7" d="M40.6,7v8H33.41V7H40.6m1-1H32.42V16H41.6V6Z"/><rect class="cls-6" x="24.72" y="6.49" width="8.17" height="9"/><path class="cls-7" d="M32.4,7v8H25.22V7H32.4m1-1H24.22V16H33.4V6Z"/><path class="cls-8" d="M17.5,24.94h6.2v6.37H17.5Z"/><path class="cls-8" d="M25.71,41.72h6.2v6.37h-6.2Z"/><path class="cls-8" d="M33.94,41.72h6.2v6.37h-6.2Z"/><path class="cls-2" d="M6,29.22a3.37,3.37,0,0,1,5.71-2.43h0l.13.13.05.05L23.45,38.52a.4.4,0,0,1,.18.2l1.63,5.82v.06h0a.46.46,0,0,1,0,.12.41.41,0,0,1,0,.12s0,0,0,0h0a.4.4,0,0,1-.06.1l0,0,0,0-.1.06h0l-.12,0-.12,0h-.07l-5.82-1.63a.4.4,0,0,1-.2-.18L6.95,31.58a.4.4,0,0,1-.08-.12A3.35,3.35,0,0,1,6,29.22ZM18.9,42.38l1-2h0L10,30.41,8.46,31.93Zm5,.55-.84.84,1.17.33Zm-1-3.48-2.26,1.09L19.6,42.8l2.57.72L23.66,42Zm-.42-.7L12.08,28.31l-1.52,1.52,9.93,9.93h0ZM6.83,29.25a2.55,2.55,0,0,0,.83,1.88h0l.22.22,3.62-3.62-.22-.22h0a2.56,2.56,0,0,0-4.45,1.73Z"/><polygon class="cls-1" points="18.9 42.38 19.9 40.36 19.9 40.35 9.97 30.42 8.45 31.94 18.9 42.38"/><polygon class="cls-1" points="12.07 28.32 10.55 29.84 20.48 39.77 20.49 39.76 22.52 38.76 12.07 28.32"/><path class="cls-1" d="M6.85,29.21a2.55,2.55,0,0,0,.83,1.88h0l.22.22,3.62-3.62-.22-.22h0a2.56,2.56,0,0,0-4.45,1.73Z"/><polygon class="cls-1" points="22.94 39.45 20.69 40.54 19.6 42.8 22.17 43.52 23.66 42.03 22.94 39.45"/></g></svg>