<svg xmlns="http://www.w3.org/2000/svg" viewBox="0 0 64 64"><defs><style>.cls-1{fill:#addff3;}.cls-2{fill:#2980b9;}.cls-3{fill:none;stroke:#d04465;stroke-linecap:round;stroke-linejoin:round;}.cls-4{fill:#d04465;}.cls-5{fill:#f3c7d7;}</style></defs><title>ex_gather_motion</title><g id="ex_delete"><rect class="cls-1" x="47.19" y="45.43" width="9" height="9" rx="0.5" ry="0.5"/><path class="cls-2" d="M55.69,45.93v8h-8v-8h8m0-1h-8a1,1,0,0,0-1,1v8a1,1,0,0,0,1,1h8a1,1,0,0,0,1-1v-8a1,1,0,0,0-1-1Z"/><rect class="cls-1" x="7.81" y="45.43" width="9" height="9" rx="0.5" ry="0.5"/><path class="cls-2" d="M16.31,45.93v8h-8v-8h8m0-1h-8a1,1,0,0,0-1,1v8a1,1,0,0,0,1,1h8a1,1,0,0,0,1-1v-8a1,1,0,0,0-1-1Z"/><rect class="cls-1" x="27.51" y="9.57" width="9" height="9" rx="0.5" ry="0.5"/><path class="cls-2" d="M36,10.07v8H28v-8h8m0-1H28a1,1,0,0,0-1,1v8a1,1,0,0,0,1,1h8a1,1,0,0,0,1-1v-8a1,1,0,0,0-1-1Z"/><line class="cls-3" x1="18.14" y1="44.2" x2="21.92" y2="42.02"/><path class="cls-4" d="M24,40.82a12.09,12.09,0,0,0-2,3.36l-.35-2-1.55-1.3A12.08,12.08,0,0,0,24,40.82Z"/><line class="cls-3" x1="42.06" y1="42.22" x2="45.84" y2="44.4"/><path class="cls-4" d="M40,41a12.09,12.09,0,0,1,2,3.36l.35-2,1.55-1.3A12.08,12.08,0,0,1,40,41Z"/><line class="cls-3" x1="32.09" y1="20.07" x2="32.08" y2="24.43"/><path class="cls-4" d="M32.08,26.85a12.09,12.09,0,0,0-1.9-3.42l1.9.69,1.9-.69A12.08,12.08,0,0,0,32.08,26.85Z"/><circle class="cls-5" cx="32.08" cy="35.93" r="7.5"/><path class="cls-4" d="M32.08,28.93a7,7,0,1,1-7,7,7,7,0,0,1,7-7m0-1a8,8,0,1,0,8,8,8,8,0,0,0-8-8Z"/></g></svg>