<svg id="_1" data-name="1" xmlns="http://www.w3.org/2000/svg" viewBox="0 0 64 64"><defs><style>.cls-1,.cls-10,.cls-11{fill:#d3d4f3;}.cls-2{fill:#666bd1;}.cls-3{fill:#addff3;}.cls-4{fill:#2980b9;}.cls-5{opacity:0.7;}.cls-12,.cls-6{fill:none;}.cls-10,.cls-11,.cls-6{stroke:#666bd1;}.cls-12,.cls-14,.cls-15,.cls-6{stroke-linejoin:round;}.cls-7{fill:#f0ecb6;}.cls-8{fill:#c18f35;}.cls-9{fill:#72ceee;stroke:#2980b9;}.cls-15,.cls-9{stroke-linecap:round;}.cls-10,.cls-11,.cls-9{stroke-miterlimit:10;}.cls-11{opacity:0.8;}.cls-12{stroke:#c18f35;}.cls-13{fill:#c00;}.cls-14,.cls-15{fill:#528d19;stroke:#528d19;}.cls-15{stroke-width:2px;}</style></defs><title>ex_hash_semi_join</title><path class="cls-1" d="M10.16,56.5c-1.37,0-1.5-.13-1.5-1.5V15.5h9V55c0,1.37-.13,1.5-1.5,1.5Z"/><path class="cls-2" d="M17.14,16V55a3.28,3.28,0,0,1-.08.9,2.18,2.18,0,0,1-.92.1h-6a3.25,3.25,0,0,1-.9-.08h0a2.18,2.18,0,0,1-.1-.92V16h8m1-1h-10V55c0,1.65.35,2,2,2h6c1.65,0,2-.35,2-2V15Z"/><path class="cls-3" d="M8.66,15.5V9c0-1.37.13-1.5,1.5-1.5h6c1.37,0,1.5.13,1.5,1.5v6.5Z"/><path class="cls-4" d="M16.14,8a3.25,3.25,0,0,1,.9.08h0a2.18,2.18,0,0,1,.1.92v6h-8V9a3.28,3.28,0,0,1,.08-.9,2.18,2.18,0,0,1,.92-.1h6m0-1h-6c-1.65,0-2,.35-2,2v7h10V9c0-1.65-.35-2-2-2Z"/><g class="cls-5"><line class="cls-6" x1="9.17" y1="23.74" x2="17.13" y2="23.74"/><line class="cls-6" x1="9.17" y1="31.49" x2="17.13" y2="31.49"/><line class="cls-6" x1="9.17" y1="39.23" x2="17.13" y2="39.23"/><line class="cls-6" x1="9.17" y1="46.97" x2="17.13" y2="46.97"/></g><path class="cls-1" d="M47.18,46.22v-28H53.4c1.37,0,1.5.13,1.5,1.5v25c0,1.37-.13,1.5-1.5,1.5Z"/><path class="cls-2" d="M53.4,18.72a3.25,3.25,0,0,1,.9.08h0a2.18,2.18,0,0,1,.1.92v25a3.28,3.28,0,0,1-.08.9,2.18,2.18,0,0,1-.92.1H47.68v-27H53.4m0-1H46.68v29H53.4c1.65,0,2-.35,2-2v-25c0-1.65-.35-2-2-2Z"/><path class="cls-7" d="M26.42,46.22c-1.37,0-1.5-.13-1.5-1.5V24.22H47.2v22Z"/><path class="cls-8" d="M46.7,24.72v21H26.42a3.25,3.25,0,0,1-.9-.08h0a2.18,2.18,0,0,1-.1-.92v-20H46.7m1-1H24.42v21c0,1.65.35,2,2,2H47.7v-23Z"/><path class="cls-3" d="M24.92,24.22v-4.5c0-1.37.13-1.5,1.5-1.5H47.2v6Z"/><path class="cls-4" d="M46.7,18.72v5H25.42v-4a3.28,3.28,0,0,1,.08-.9,2.18,2.18,0,0,1,.92-.1H46.7m1-1H26.42c-1.65,0-2,.35-2,2v5H47.7v-7Z"/><line class="cls-9" x1="32.38" y1="24.05" x2="32.38" y2="18.24"/><line class="cls-10" x1="54.78" y1="24.22" x2="47.7" y2="24.22"/><line class="cls-11" x1="54.78" y1="31.49" x2="47.7" y2="31.49"/><line class="cls-11" x1="54.78" y1="38.96" x2="47.7" y2="38.96"/><line class="cls-9" x1="40.13" y1="24.05" x2="40.13" y2="18.24"/><line class="cls-12" x1="32.38" y1="46.05" x2="32.38" y2="24.72"/><line class="cls-12" x1="40.13" y1="46.05" x2="40.13" y2="24.72"/><line class="cls-12" x1="24.95" y1="31.57" x2="47.2" y2="31.57"/><line class="cls-12" x1="24.95" y1="38.96" x2="47.2" y2="38.96"/><path class="cls-13" d="M10.05,32.86h6.37V38H10.05Z"/><path class="cls-13" d="M33.59,32.71H39v5.23h-5.4Z"/><polygon class="cls-14" points="33.21 35.53 29.83 33 29.83 38.06 33.21 35.53"/><line class="cls-15" x1="29.55" y1="35.53" x2="19.11" y2="35.53"/><polygon class="cls-14" points="36.62 7.67 34.09 11.05 39.15 11.05 36.62 7.67"/><line class="cls-15" x1="36.62" y1="11.33" x2="36.62" y2="30.77"/></svg>