<svg id="_1" data-name="1" xmlns="http://www.w3.org/2000/svg" viewBox="0 0 64 64"><defs><style>.cls-1{fill:none;stroke:#747474;stroke-linecap:round;stroke-linejoin:round;stroke-width:0.75px;}.cls-2,.cls-8{fill:#f0ecb6;}.cls-3{fill:#c18f35;}.cls-4{fill:#addff3;}.cls-5{fill:#2980b9;}.cls-6{fill:#c18f36;}.cls-7{opacity:0.8;}.cls-8{stroke:#c18f36;stroke-miterlimit:10;}</style></defs><title>ex_index_scan</title><line class="cls-1" x1="13.85" y1="36.23" x2="19.12" y2="44.7"/><line class="cls-1" x1="13.85" y1="36.23" x2="19.09" y2="27.92"/><line class="cls-1" x1="27.64" y1="44.33" x2="35.64" y2="50.23"/><line class="cls-1" x1="27.64" y1="44.33" x2="35.64" y2="38.92"/><rect class="cls-2" x="19.26" y="41.65" width="7.98" height="5.69" rx="1.5" ry="1.5"/><path class="cls-3" d="M25.75,42.15a3.54,3.54,0,0,1,.9.07h0a2.4,2.4,0,0,1,.1.93v2.69a3.18,3.18,0,0,1-.08.9s-.19.1-.92.1h-5a3.11,3.11,0,0,1-.9-.08h0a2.25,2.25,0,0,1-.1-.92V43.15a3.18,3.18,0,0,1,.08-.9s.19-.1.92-.1h5m0-1h-5c-1.65,0-2,.35-2,2v2.69c0,1.65.35,2,2,2h5c1.65,0,2-.35,2-2V43.15c0-1.65-.35-2-2-2Z"/><line class="cls-1" x1="27.64" y1="27.83" x2="35.64" y2="33.73"/><line class="cls-1" x1="27.64" y1="27.83" x2="35.64" y2="22.42"/><rect class="cls-2" x="19.26" y="25.15" width="7.98" height="5.69" rx="1.5" ry="1.5"/><path class="cls-3" d="M25.75,25.65a3.54,3.54,0,0,1,.9.07h0a2.4,2.4,0,0,1,.1.93v2.69a3.18,3.18,0,0,1-.08.9s-.19.1-.92.1h-5a3.11,3.11,0,0,1-.9-.08h0a2.25,2.25,0,0,1-.1-.92V26.65a3.18,3.18,0,0,1,.08-.9s.19-.1.92-.1h5m0-1h-5c-1.65,0-2,.35-2,2v2.69c0,1.65.35,2,2,2h5c1.65,0,2-.35,2-2V26.65c0-1.65-.35-2-2-2Z"/><path class="cls-2" d="M6.61,40.89c-1.38,0-1.5-.13-1.5-1.5V35.2h8v4.19c0,1.37-.13,1.5-1.5,1.5Z"/><path class="cls-3" d="M12.59,35.7v3.69a2.7,2.7,0,0,1-.08.9s-.19.1-.92.1h-5a3,3,0,0,1-.9-.08h0a2.45,2.45,0,0,1-.09-.92V35.7h7m1-1h-9v4.69c0,1.65.35,2,2,2h5c1.65,0,2-.35,2-2V34.7Z"/><path class="cls-4" d="M5.11,35.26V33.07c0-1.38.12-1.5,1.5-1.5h5c1.37,0,1.5.12,1.5,1.5v2.19Z"/><path class="cls-5" d="M11.59,32.07a3.54,3.54,0,0,1,.9.07h0a2.16,2.16,0,0,1,.1.93v1.69h-7V33.07a3.71,3.71,0,0,1,.07-.9,2.16,2.16,0,0,1,.93-.1h5m0-1h-5c-1.65,0-2,.35-2,2v2.69h9V33.07c0-1.65-.35-2-2-2Z"/><path class="cls-2" d="M35.74,53.47c-1.38,0-1.5-.12-1.5-1.5V19.53H58.89V52c0,1.38-.13,1.5-1.5,1.5Z"/><path class="cls-6" d="M58.39,20V52a2.7,2.7,0,0,1-.08.9s-.19.1-.92.1H35.74a3.54,3.54,0,0,1-.9-.07h0a2.16,2.16,0,0,1-.1-.93V20H58.39m1-1H33.74V52c0,1.65.35,2,2,2H57.39c1.65,0,2-.35,2-2V19Z"/><g class="cls-7"><line class="cls-8" x1="42.44" y1="52.97" x2="42.44" y2="19.97"/><line class="cls-8" x1="50.63" y1="52.97" x2="50.63" y2="19.97"/><line class="cls-8" x1="34.73" y1="27.97" x2="58.37" y2="27.97"/><line class="cls-8" x1="34.73" y1="36.34" x2="58.37" y2="36.34"/><line class="cls-8" x1="34.73" y1="44.71" x2="58.37" y2="44.71"/></g><path class="cls-4" d="M50.7,19.53v-9h6.69c1.38,0,1.5.12,1.5,1.5v7.5Z"/><path class="cls-5" d="M57.39,11a3.44,3.44,0,0,1,.9.07h0a2.62,2.62,0,0,1,.09.93v7H51.2V11h6.19m0-1H50.2V20h9.19V12c0-1.65-.35-2-2-2Z"/><path class="cls-4" d="M34.23,19.53V12c0-1.38.13-1.5,1.5-1.5h6.7v9Z"/><path class="cls-5" d="M41.93,11v8h-7.2V12a3.18,3.18,0,0,1,.08-.9,2.08,2.08,0,0,1,.92-.1h6.2m1-1h-7.2c-1.65,0-2,.35-2,2v8h9.2V10Z"/><rect class="cls-4" x="42.45" y="10.53" width="8.17" height="9"/><path class="cls-5" d="M50.12,11v8H43V11h7.17m1-1H42V20h9.17V10Z"/></svg>