<svg id="_1" data-name="1" xmlns="http://www.w3.org/2000/svg" viewBox="0 0 64 64"><defs><style>.cls-1{fill:none;stroke:#747474;stroke-width:0.75px;}.cls-1,.cls-7{stroke-linecap:round;}.cls-1,.cls-6,.cls-7{stroke-linejoin:round;}.cls-2{fill:#f0ecb6;}.cls-3{fill:#c18f35;}.cls-4{fill:#addff3;}.cls-5,.cls-6,.cls-7{fill:#2980b9;}.cls-6,.cls-7{stroke:#2980b9;}.cls-7{stroke-width:2px;}</style></defs><title>ex_index_only_scan</title><line class="cls-1" x1="36.89" y1="24.41" x2="24.9" y2="31.3"/><line class="cls-1" x1="36.89" y1="24.41" x2="48.87" y2="31.3"/><line class="cls-1" x1="24.9" y1="37.22" x2="18.92" y2="43.22"/><line class="cls-1" x1="24.9" y1="37.22" x2="30.89" y2="43.22"/><line class="cls-1" x1="48.87" y1="37.22" x2="42.55" y2="43.22"/><line class="cls-1" x1="48.87" y1="37.22" x2="54.85" y2="43.22"/><path class="cls-2" d="M33.39,23.91c-1.37,0-1.5-.13-1.5-1.5V18.22h10v4.19c0,1.37-.13,1.5-1.5,1.5Z"/><path class="cls-3" d="M41.38,18.72v3.69a3.28,3.28,0,0,1-.08.9,2.18,2.18,0,0,1-.92.1h-7a3.25,3.25,0,0,1-.9-.08h0a2.18,2.18,0,0,1-.1-.92V18.72h9m1-1h-11v4.69c0,1.65.35,2,2,2h7c1.65,0,2-.35,2-2V17.72Z"/><rect class="cls-2" x="20.91" y="31.03" width="7.98" height="5.69" rx="1.5" ry="1.5"/><path class="cls-3" d="M27.39,31.53a3.25,3.25,0,0,1,.9.08h0a2.18,2.18,0,0,1,.1.92v2.69a3.28,3.28,0,0,1-.08.9,2.18,2.18,0,0,1-.92.1h-5a3.25,3.25,0,0,1-.9-.08h0a2.18,2.18,0,0,1-.1-.92V32.53a3.28,3.28,0,0,1,.08-.9,2.18,2.18,0,0,1,.92-.1h5m0-1h-5c-1.65,0-2,.35-2,2v2.69c0,1.65.35,2,2,2h5c1.65,0,2-.35,2-2V32.53c0-1.65-.35-2-2-2Z"/><rect class="cls-2" x="14.92" y="43.72" width="7.98" height="5.69" rx="1.5" ry="1.5"/><path class="cls-3" d="M21.41,44.22a3.25,3.25,0,0,1,.9.08h0a2.18,2.18,0,0,1,.1.92v2.69a3.28,3.28,0,0,1-.08.9,2.18,2.18,0,0,1-.92.1h-5a3.25,3.25,0,0,1-.9-.08h0a2.18,2.18,0,0,1-.1-.92V45.22a3.28,3.28,0,0,1,.08-.9,2.18,2.18,0,0,1,.92-.1h5m0-1h-5c-1.65,0-2,.35-2,2v2.69c0,1.65.35,2,2,2h5c1.65,0,2-.35,2-2V45.22c0-1.65-.35-2-2-2Z"/><rect class="cls-2" x="26.89" y="43.72" width="7.98" height="5.69" rx="1.5" ry="1.5"/><path class="cls-3" d="M33.38,44.22a3.25,3.25,0,0,1,.9.08h0a2.18,2.18,0,0,1,.1.92v2.69a3.28,3.28,0,0,1-.08.9,2.18,2.18,0,0,1-.92.1h-5a3.25,3.25,0,0,1-.9-.08h0a2.18,2.18,0,0,1-.1-.92V45.22a3.28,3.28,0,0,1,.08-.9,2.18,2.18,0,0,1,.92-.1h5m0-1h-5c-1.65,0-2,.35-2,2v2.69c0,1.65.35,2,2,2h5c1.65,0,2-.35,2-2V45.22c0-1.65-.35-2-2-2Z"/><rect class="cls-2" x="38.89" y="43.72" width="7.98" height="5.69" rx="1.5" ry="1.5"/><path class="cls-3" d="M45.38,44.22a3.25,3.25,0,0,1,.9.08h0a2.18,2.18,0,0,1,.1.92v2.69a3.28,3.28,0,0,1-.08.9,2.18,2.18,0,0,1-.92.1h-5a3.25,3.25,0,0,1-.9-.08h0a2.18,2.18,0,0,1-.1-.92V45.22a3.28,3.28,0,0,1,.08-.9,2.18,2.18,0,0,1,.92-.1h5m0-1h-5c-1.65,0-2,.35-2,2v2.69c0,1.65.35,2,2,2h5c1.65,0,2-.35,2-2V45.22c0-1.65-.35-2-2-2Z"/><rect class="cls-2" x="50.86" y="43.72" width="7.98" height="5.69" rx="1.5" ry="1.5"/><path class="cls-3" d="M57.35,44.22a3.25,3.25,0,0,1,.9.08h0a2.18,2.18,0,0,1,.1.92v2.69a3.28,3.28,0,0,1-.08.9,2.18,2.18,0,0,1-.92.1h-5a3.25,3.25,0,0,1-.9-.08h0a2.18,2.18,0,0,1-.1-.92V45.22a3.28,3.28,0,0,1,.08-.9,2.18,2.18,0,0,1,.92-.1h5m0-1h-5c-1.65,0-2,.35-2,2v2.69c0,1.65.35,2,2,2h5c1.65,0,2-.35,2-2V45.22c0-1.65-.35-2-2-2Z"/><rect class="cls-2" x="44.88" y="30.97" width="7.98" height="5.69" rx="1.5" ry="1.5"/><path class="cls-3" d="M51.36,31.47a3.25,3.25,0,0,1,.9.08h0a2.18,2.18,0,0,1,.1.92v2.69a3.28,3.28,0,0,1-.08.9,2.18,2.18,0,0,1-.92.1h-5a3.25,3.25,0,0,1-.9-.08h0a2.18,2.18,0,0,1-.1-.92V32.47a3.28,3.28,0,0,1,.08-.9,2.18,2.18,0,0,1,.92-.1h5m0-1h-5c-1.65,0-2,.35-2,2v2.69c0,1.65.35,2,2,2h5c1.65,0,2-.35,2-2V32.47c0-1.65-.35-2-2-2Z"/><path class="cls-4" d="M31.89,18.28V16.09c0-1.37.13-1.5,1.5-1.5h7c1.37,0,1.5.13,1.5,1.5v2.19Z"/><path class="cls-5" d="M40.38,15.09a3.25,3.25,0,0,1,.9.08h0a2.17,2.17,0,0,1,.1.92v1.69h-9V16.09a3.28,3.28,0,0,1,.08-.9,2.18,2.18,0,0,1,.92-.1h7m0-1h-7c-1.65,0-2,.35-2,2v2.69h11V16.09c0-1.65-.35-2-2-2Z"/><polygon class="cls-6" points="8.13 49.45 4.65 44.8 11.61 44.8 8.13 49.45"/><line class="cls-7" x1="8.13" y1="45.43" x2="8.13" y2="18.46"/></svg>