<svg id="_1" data-name="1" xmlns="http://www.w3.org/2000/svg" viewBox="0 0 64 64"><defs><style>.cls-1,.cls-4{fill:#f0ecb6;}.cls-2{fill:#c18f36;}.cls-3{opacity:0.8;}.cls-4{stroke:#c18f36;}.cls-4,.cls-7{stroke-miterlimit:10;}.cls-5{fill:#addff3;}.cls-6{fill:#2980b9;}.cls-7{fill:#d3d4f3;stroke:#c00;}.cls-7,.cls-9{stroke-linecap:round;stroke-width:1.5px;}.cls-8,.cls-9{fill:#528d19;}.cls-9{stroke:#528d19;stroke-linejoin:round;}</style></defs><title>ex_limit</title><path class="cls-1" d="M12.79,53.47c-1.37,0-1.5-.13-1.5-1.5V19.53h41V52c0,1.37-.13,1.5-1.5,1.5Z"/><path class="cls-2" d="M51.77,20V52a3.28,3.28,0,0,1-.08.9,2.18,2.18,0,0,1-.92.1h-38a3.25,3.25,0,0,1-.9-.08h0a2.17,2.17,0,0,1-.1-.92V20h40m1-1h-42V52c0,1.65.35,2,2,2h38c1.65,0,2-.35,2-2V19Z"/><g class="cls-3"><line class="cls-4" x1="19.48" y1="52.97" x2="19.48" y2="19.97"/><line class="cls-4" x1="35.88" y1="52.97" x2="35.88" y2="19.97"/><line class="cls-4" x1="27.68" y1="52.97" x2="27.68" y2="19.97"/><line class="cls-4" x1="44.08" y1="52.97" x2="44.08" y2="19.97"/><line class="cls-4" x1="11.78" y1="27.97" x2="51.75" y2="27.97"/><line class="cls-4" x1="11.78" y1="36.34" x2="51.75" y2="36.34"/><line class="cls-4" x1="11.78" y1="44.71" x2="51.75" y2="44.71"/></g><path class="cls-5" d="M44.09,19.53v-9h6.69c1.37,0,1.5.13,1.5,1.5v7.5Z"/><path class="cls-6" d="M50.78,11a3.25,3.25,0,0,1,.9.08h0a2.18,2.18,0,0,1,.1.92v7H44.59V11h6.19m0-1H43.59V20h9.19V12c0-1.65-.35-2-2-2Z"/><path class="cls-5" d="M11.29,19.53V12c0-1.37.13-1.5,1.5-1.5h6.69v9Z"/><path class="cls-6" d="M19,11v8H11.79V12a3.28,3.28,0,0,1,.08-.9,2.18,2.18,0,0,1,.92-.1H19m1-1H12.79c-1.65,0-2,.35-2,2v8H20V10Z"/><rect class="cls-5" x="35.88" y="10.53" width="8.18" height="9"/><path class="cls-6" d="M43.57,11v8H36.38V11h7.18m1-1H35.39V20h9.19V10Z"/><rect class="cls-5" x="27.69" y="10.53" width="8.19" height="9"/><path class="cls-6" d="M35.38,11v8H28.19V11h7.18m1-1H27.2V20h9.19V10Z"/><rect class="cls-5" x="19.5" y="10.53" width="8.17" height="9"/><path class="cls-6" d="M27.18,11v8H20V11h7.17m1-1H19V20h9.18V10Z"/><line class="cls-7" x1="6.31" y1="19.76" x2="57.77" y2="19.77"/><line class="cls-7" x1="6.31" y1="36.33" x2="57.77" y2="36.34"/><polygon class="cls-8" points="56.25 34.71 58.78 31.33 53.72 31.33 56.25 34.71"/><line class="cls-9" x1="56.25" y1="32.18" x2="56.25" y2="21.94"/><polygon class="cls-8" points="7.75 34.71 10.28 31.33 5.22 31.33 7.75 34.71"/><line class="cls-9" x1="7.75" y1="32.18" x2="7.75" y2="21.94"/></svg>