<svg id="_1" data-name="1" xmlns="http://www.w3.org/2000/svg" viewBox="0 0 64 64"><defs><style>.cls-1,.cls-7{fill:#34495e;}.cls-1{stroke:#528d19;stroke-miterlimit:10;}.cls-2{fill:#f0ecb6;}.cls-3{fill:#c18f35;}.cls-4{fill:#addff3;}.cls-5{fill:#2980b9;}.cls-10,.cls-6{fill:none;stroke-linejoin:round;opacity:0.8;}.cls-6{stroke:#c18f35;}.cls-8{fill:#d3d4f3;}.cls-9{fill:#666bd1;}.cls-10{stroke:#666bd1;}</style></defs><title>ex_merge_append</title><path class="cls-1" d="M28.32,41.36a4.42,4.42,0,0,0,2.05-.51,2.81,2.81,0,0,0,1.06-1.08,3.59,3.59,0,0,0,.4-1.4q.06-.75.06-1.46v.35c0-.68,0-1.25,0-1.72a9.28,9.28,0,0,1,.11-1.2,2.76,2.76,0,0,1,.26-.83,2.37,2.37,0,0,1,.44-.6,2.53,2.53,0,0,1,.62-.46,4,4,0,0,1,.64-.27,3.5,3.5,0,0,1,.6-.13c.19,0,.19-.1,0-.12a3.52,3.52,0,0,1-.6-.13,3.65,3.65,0,0,1-.64-.27,2.52,2.52,0,0,1-.62-.46,2.41,2.41,0,0,1-.44-.6,2.77,2.77,0,0,1-.26-.83,9.31,9.31,0,0,1-.11-1.2q0-.71,0-1.73v.36c0-.47,0-1-.06-1.46a3.58,3.58,0,0,0-.4-1.4,2.82,2.82,0,0,0-1.06-1.08,4.47,4.47,0,0,0-2.05-.51V22.2l.53,0a4.11,4.11,0,0,1,.67.11,5.12,5.12,0,0,1,.72.23,2.89,2.89,0,0,1,.7.41,3.34,3.34,0,0,1,.83.9A3.66,3.66,0,0,1,32.2,25a7,7,0,0,1,.16,1.29c0,.47,0,1.88,0,1.88a7.9,7.9,0,0,0,.12,1.5A2.37,2.37,0,0,0,33,30.69a2.65,2.65,0,0,0,1,.73.69.69,0,0,1,0,1.17,2.66,2.66,0,0,0-1,.73,2.39,2.39,0,0,0-.47,1.06,7.9,7.9,0,0,0-.12,1.5s-.09,2.78-.18,3.17a3.65,3.65,0,0,1-.43,1.07,3.31,3.31,0,0,1-.83.9,2.9,2.9,0,0,1-.7.41,5.39,5.39,0,0,1-.72.23,4.34,4.34,0,0,1-.67.11l-.53,0Z"/><path class="cls-2" d="M11.39,53.46c-1.37,0-1.5-.13-1.5-1.5V40.46h7.28v13Z"/><path class="cls-3" d="M16.67,41V53H11.39a3.25,3.25,0,0,1-.9-.08h0a2.18,2.18,0,0,1-.1-.92V41h6.28m1-1H9.39V52c0,1.65.35,2,2,2h6.28V40Z"/><path class="cls-2" d="M17.16,53.46v-13h7.28V52c0,1.37-.13,1.5-1.5,1.5Z"/><path class="cls-3" d="M23.94,41V52a3.28,3.28,0,0,1-.08.9,2.18,2.18,0,0,1-.92.1H17.66V41h6.28m1-1H16.66V54h6.28c1.65,0,2-.35,2-2V40Z"/><path class="cls-4" d="M9.89,40.46V36c0-1.37.13-1.5,1.5-1.5h5.78v6Z"/><path class="cls-5" d="M16.67,35v5H10.39V36a3.28,3.28,0,0,1,.08-.9,2.18,2.18,0,0,1,.92-.1h5.28m1-1H11.39c-1.65,0-2,.35-2,2v5h8.28V34Z"/><path class="cls-4" d="M17.16,40.46v-6h5.78c1.37,0,1.5.13,1.5,1.5v4.5Z"/><path class="cls-5" d="M22.94,35a3.25,3.25,0,0,1,.9.08h0a2.18,2.18,0,0,1,.1.92v4H17.66V35h5.28m0-1H16.66v7h8.28V36c0-1.65-.35-2-2-2Z"/><line class="cls-6" x1="16.92" y1="46.81" x2="24.41" y2="46.81"/><line class="cls-6" x1="9.92" y1="46.81" x2="16.66" y2="46.81"/><path class="cls-7" d="M13.77,42v3.36H13V42Z"/><path class="cls-7" d="M12.89,48.47v3.36h-.77V48.47Z"/><path class="cls-7" d="M14.95,48.47v3.36h-.77V48.47Z"/><path class="cls-8" d="M11.39,29.31c-1.37,0-1.5-.13-1.5-1.5V16.31h7.28v13Z"/><path class="cls-9" d="M16.67,16.81v12H11.39a3.25,3.25,0,0,1-.9-.08h0a2.18,2.18,0,0,1-.1-.92v-11h6.28m1-1H9.39v12c0,1.65.35,2,2,2h6.28v-14Z"/><path class="cls-8" d="M17.16,29.31v-13h7.28v11.5c0,1.37-.13,1.5-1.5,1.5Z"/><path class="cls-9" d="M23.94,16.81v11a3.28,3.28,0,0,1-.08.9,2.18,2.18,0,0,1-.92.1H17.66v-12h6.28m1-1H16.66v14h6.28c1.65,0,2-.35,2-2v-12Z"/><path class="cls-4" d="M9.89,16.31v-4.5c0-1.37.13-1.5,1.5-1.5h5.78v6Z"/><path class="cls-5" d="M16.67,10.81v5H10.39v-4a3.28,3.28,0,0,1,.08-.9,2.18,2.18,0,0,1,.92-.1h5.28m1-1H11.39c-1.65,0-2,.35-2,2v5h8.28v-7Z"/><path class="cls-4" d="M17.16,16.31v-6h5.78c1.37,0,1.5.13,1.5,1.5v4.5Z"/><path class="cls-5" d="M22.94,10.81a3.25,3.25,0,0,1,.9.08h0a2.18,2.18,0,0,1,.1.92v4H17.66v-5h5.28m0-1H16.66v7h8.28v-5c0-1.65-.35-2-2-2Z"/><line class="cls-10" x1="16.92" y1="22.66" x2="24.41" y2="22.66"/><line class="cls-10" x1="9.92" y1="22.66" x2="16.66" y2="22.66"/><path class="cls-7" d="M13.77,17.79v3.36H13V17.79Z"/><path class="cls-7" d="M12.89,24.17v3.36h-.77V24.17Z"/><path class="cls-7" d="M14.95,24.17v3.36h-.77V24.17Z"/><path class="cls-2" d="M40.54,47.76c-1.37,0-1.5-.13-1.5-1.5v-4.8h7.28v6.3Z"/><path class="cls-3" d="M45.82,42v5.3H40.54a3.26,3.26,0,0,1-.9-.08h0a2.18,2.18,0,0,1-.1-.92V42h6.28m1-1H38.54v5.3c0,1.65.35,2,2,2h6.28V41Z"/><path class="cls-2" d="M46.31,47.76v-6.3h7.28v4.8c0,1.37-.13,1.5-1.5,1.5Z"/><path class="cls-3" d="M53.09,42v4.3a3.28,3.28,0,0,1-.08.9,2.18,2.18,0,0,1-.92.1H46.81V42h6.28m1-1H45.81v7.3h6.28c1.65,0,2-.35,2-2V41Z"/><rect class="cls-8" x="39.04" y="35.16" width="7.28" height="6.3"/><path class="cls-9" d="M45.82,35.66V41H39.54v-5.3h6.28m1-1H38.54V42h8.28v-7.3Z"/><rect class="cls-8" x="46.31" y="35.16" width="7.28" height="6.3"/><path class="cls-9" d="M53.09,35.66V41H46.81v-5.3h6.28m1-1H45.81V42h8.28v-7.3Z"/><rect class="cls-2" x="39.04" y="28.84" width="7.28" height="6.3"/><path class="cls-3" d="M45.82,29.34v5.3H39.54v-5.3h6.28m1-1H38.54v7.3h8.28v-7.3Z"/><rect class="cls-2" x="46.31" y="28.84" width="7.28" height="6.3"/><path class="cls-3" d="M53.09,29.34v5.3H46.81v-5.3h6.28m1-1H45.81v7.3h8.28v-7.3Z"/><rect class="cls-8" x="39.04" y="22.55" width="7.28" height="6.3"/><path class="cls-9" d="M45.82,23v5.3H39.54V23h6.28m1-1H38.54v7.3h8.28V22Z"/><rect class="cls-8" x="46.31" y="22.55" width="7.28" height="6.3"/><path class="cls-9" d="M53.09,23v5.3H46.81V23h6.28m1-1H45.81v7.3h8.28V22Z"/><path class="cls-4" d="M39,22.54v-4.8c0-1.37.13-1.5,1.5-1.5h5.78v6.3Z"/><path class="cls-5" d="M45.82,16.74V22H39.54v-4.3a3.28,3.28,0,0,1,.08-.9,2.18,2.18,0,0,1,.92-.1h5.28m1-1H40.54c-1.65,0-2,.35-2,2V23h8.28v-7.3Z"/><path class="cls-4" d="M46.31,22.54v-6.3h5.78c1.37,0,1.5.13,1.5,1.5v4.8Z"/><path class="cls-5" d="M52.09,16.74a3.25,3.25,0,0,1,.9.08h0a2.18,2.18,0,0,1,.1.92V22H46.81v-5.3h5.28m0-1H45.81V23h8.28v-5.3c0-1.65-.35-2-2-2Z"/><path class="cls-7" d="M43,24.12v3.36h-.77V24.12Z"/><path class="cls-7" d="M43,30.33v3.36h-.77V30.33Z"/><path class="cls-7" d="M42.15,43v3.36h-.77V43Z"/><path class="cls-7" d="M44.21,43v3.36h-.77V43Z"/><path class="cls-7" d="M42.15,36.78v3.36h-.77V36.78Z"/><path class="cls-7" d="M44.21,36.78v3.36h-.77V36.78Z"/></svg>