<svg id="_1" data-name="1" xmlns="http://www.w3.org/2000/svg" viewBox="0 0 64 64"><defs><style>.cls-1{fill:#d3d4f3;}.cls-2{fill:#666bd1;}.cls-10,.cls-13,.cls-3{fill:none;}.cls-3{stroke:#666bd1;}.cls-10,.cls-3,.cls-4,.cls-5{stroke-linejoin:round;}.cls-10,.cls-3{opacity:0.8;}.cls-4,.cls-5{fill:#528d19;stroke:#528d19;}.cls-5{stroke-linecap:round;stroke-width:2px;}.cls-6{fill:#f0ecb6;}.cls-7{fill:#c18f35;}.cls-8{fill:#addff3;}.cls-9{fill:#2980b9;}.cls-10{stroke:#c18f35;}.cls-11{fill:#def4fd;}.cls-12{fill:#c00;}.cls-13{stroke:#c00;stroke-miterlimit:10;stroke-width:1.5px;}</style></defs><title>ex_merge_anti_join</title><path class="cls-1" d="M10.12,18.59c-1.37,0-1.5-.13-1.5-1.5v-4c0-1.37.13-1.5,1.5-1.5h4.5v7Z"/><path class="cls-2" d="M14.12,12.11v6h-4a3.25,3.25,0,0,1-.9-.08h0a2.17,2.17,0,0,1-.1-.92v-4a3.29,3.29,0,0,1,.08-.9,2.18,2.18,0,0,1,.92-.1h4m1-1h-5c-1.65,0-2,.35-2,2v4c0,1.65.35,2,2,2h5v-8Z"/><path class="cls-1" d="M14.63,18.59v-7H25.81c1.37,0,1.5.13,1.5,1.5v4c0,1.37-.13,1.5-1.5,1.5Z"/><path class="cls-2" d="M25.81,12.11a3.25,3.25,0,0,1,.9.08h0a2.18,2.18,0,0,1,.1.92v4a3.28,3.28,0,0,1-.08.9,2.18,2.18,0,0,1-.92.1H15.13v-6H25.81m0-1H14.13v8H25.81c1.65,0,2-.35,2-2v-4c0-1.65-.35-2-2-2Z"/><line class="cls-3" x1="20.9" y1="18.21" x2="20.9" y2="11.97"/><polygon class="cls-4" points="28.49 38.11 25.11 35.58 25.11 40.64 28.49 38.11"/><line class="cls-5" x1="24.83" y1="38.11" x2="17.73" y2="38.11"/><line class="cls-5" x1="17.58" y1="22.67" x2="17.58" y2="38.11"/><path class="cls-6" d="M34.26,52.16c-1.37,0-1.5-.13-1.5-1.5V28.16H40v24Z"/><path class="cls-7" d="M39.54,28.66v23H34.26a3.25,3.25,0,0,1-.9-.08h0a2.18,2.18,0,0,1-.1-.92v-22h6.28m1-1H32.26v23c0,1.65.35,2,2,2h6.28v-25Z"/><path class="cls-8" d="M32.76,28.16v-4.5c0-1.37.13-1.5,1.5-1.5H40v6Z"/><path class="cls-9" d="M39.54,22.66v5H33.26v-4a3.28,3.28,0,0,1,.08-.9,2.18,2.18,0,0,1,.92-.1h5.28m1-1H34.26c-1.65,0-2,.35-2,2v5h8.28v-7Z"/><line class="cls-10" x1="32.79" y1="34.51" x2="39.53" y2="34.51"/><line class="cls-10" x1="32.79" y1="40.51" x2="39.53" y2="40.51"/><line class="cls-10" x1="32.79" y1="46.51" x2="39.53" y2="46.51"/><rect class="cls-6" x="40.06" y="28.16" width="7.28" height="24"/><path class="cls-7" d="M46.84,28.66v23H40.56v-23h6.28m1-1H39.56v25h8.28v-25Z"/><path class="cls-1" d="M47.32,52.16v-24h7.28v22.5c0,1.37-.13,1.5-1.5,1.5Z"/><path class="cls-2" d="M54.11,28.66v22a3.28,3.28,0,0,1-.08.9,2.18,2.18,0,0,1-.92.1H47.82v-23h6.28m1-1H46.82v25h6.28c1.65,0,2-.35,2-2v-23Z"/><rect class="cls-8" x="40.06" y="22.16" width="7.28" height="6"/><path class="cls-9" d="M46.84,22.66v5H40.56v-5h6.28m1-1H39.56v7h8.28v-7Z"/><path class="cls-8" d="M47.32,28.16v-6h5.78c1.37,0,1.5.13,1.5,1.5v4.5Z"/><path class="cls-9" d="M53.11,22.66a3.25,3.25,0,0,1,.9.08h0a2.17,2.17,0,0,1,.1.92v4H47.82v-5h5.28m0-1H46.83v7h8.28v-5c0-1.65-.35-2-2-2Z"/><line class="cls-3" x1="47.09" y1="34.51" x2="54.58" y2="34.51"/><line class="cls-10" x1="40.09" y1="34.51" x2="46.82" y2="34.51"/><line class="cls-3" x1="47.09" y1="40.51" x2="54.58" y2="40.51"/><line class="cls-10" x1="40.09" y1="40.51" x2="46.82" y2="40.51"/><line class="cls-3" x1="47.09" y1="46.51" x2="54.58" y2="46.51"/><line class="cls-10" x1="40.09" y1="46.51" x2="46.82" y2="46.51"/><circle class="cls-11" cx="50.83" cy="40.46" r="4.29"/><path class="cls-12" d="M50.83,36.92a3.54,3.54,0,1,1-3.54,3.54,3.55,3.55,0,0,1,3.54-3.54m0-1.5a5,5,0,1,0,5,5,5,5,0,0,0-5-5Z"/><line class="cls-13" x1="47.55" y1="42.73" x2="54.06" y2="38"/></svg>