<svg id="_1" data-name="1" xmlns="http://www.w3.org/2000/svg" viewBox="0 0 64 64"><defs><style>.cls-1{opacity:0.6;}.cls-2{fill:#f0ecb6;}.cls-3{fill:#c18f35;}.cls-4{fill:#addff3;}.cls-5{fill:#2980b9;}.cls-6{fill:none;stroke:#c18f35;opacity:0.8;}.cls-6,.cls-7,.cls-8{stroke-linejoin:round;}.cls-7,.cls-8{fill:#528d19;stroke:#528d19;}.cls-8{stroke-linecap:round;stroke-width:2px;}</style></defs><title>ex_materialize</title><g class="cls-1"><path class="cls-2" d="M10.17,49.88c-1.37,0-1.5-.13-1.5-1.5V19.88H16v30Z"/><path class="cls-3" d="M15.45,20.38v29H10.17a3.25,3.25,0,0,1-.9-.08h0a2.18,2.18,0,0,1-.1-.92v-28h6.28m1-1H8.17v29c0,1.65.35,2,2,2h6.28v-31Z"/><path class="cls-2" d="M15.94,49.88v-30h7.28v28.5c0,1.37-.13,1.5-1.5,1.5Z"/><path class="cls-3" d="M22.72,20.38v28a3.28,3.28,0,0,1-.08.9,2.18,2.18,0,0,1-.92.1H16.44v-29h6.28m1-1H15.44v31h6.28c1.65,0,2-.35,2-2v-29Z"/><path class="cls-4" d="M8.67,19.88v-4.5c0-1.37.13-1.5,1.5-1.5H16v6Z"/><path class="cls-5" d="M15.45,14.38v5H9.17v-4a3.28,3.28,0,0,1,.08-.9,2.18,2.18,0,0,1,.92-.1h5.28m1-1H10.17c-1.65,0-2,.35-2,2v5h8.28v-7Z"/><path class="cls-4" d="M15.94,19.88v-6h5.78c1.37,0,1.5.13,1.5,1.5v4.5Z"/><path class="cls-5" d="M21.72,14.38a3.25,3.25,0,0,1,.9.08h0a2.18,2.18,0,0,1,.1.92v4H16.44v-5h5.28m0-1H15.44v7h8.28v-5c0-1.65-.35-2-2-2Z"/><line class="cls-6" x1="15.7" y1="26.23" x2="23.19" y2="26.23"/><line class="cls-6" x1="8.7" y1="26.23" x2="15.44" y2="26.23"/><line class="cls-6" x1="15.7" y1="32.23" x2="23.19" y2="32.23"/><line class="cls-6" x1="8.7" y1="32.23" x2="15.44" y2="32.23"/><line class="cls-6" x1="15.7" y1="38.23" x2="23.19" y2="38.23"/><line class="cls-6" x1="8.7" y1="38.23" x2="15.44" y2="38.23"/><line class="cls-6" x1="15.7" y1="44.23" x2="23.19" y2="44.23"/><line class="cls-6" x1="8.7" y1="44.23" x2="15.44" y2="44.23"/></g><path class="cls-2" d="M42.45,49.88c-1.37,0-1.5-.13-1.5-1.5V19.88h7.28v30Z"/><path class="cls-3" d="M47.73,20.38v29H42.45a3.25,3.25,0,0,1-.9-.08h0a2.18,2.18,0,0,1-.1-.92v-28h6.28m1-1H40.45v29c0,1.65.35,2,2,2h6.28v-31Z"/><path class="cls-2" d="M48.22,49.88v-30H55.5v28.5c0,1.37-.13,1.5-1.5,1.5Z"/><path class="cls-3" d="M55,20.38v28a3.28,3.28,0,0,1-.08.9,2.18,2.18,0,0,1-.92.1H48.72v-29H55m1-1H47.72v31H54c1.65,0,2-.35,2-2v-29Z"/><path class="cls-4" d="M41,19.88v-4.5c0-1.37.13-1.5,1.5-1.5h5.78v6Z"/><path class="cls-5" d="M47.73,14.38v5H41.45v-4a3.28,3.28,0,0,1,.08-.9,2.18,2.18,0,0,1,.92-.1h5.28m1-1H42.45c-1.65,0-2,.35-2,2v5h8.28v-7Z"/><path class="cls-4" d="M48.22,19.88v-6H54c1.37,0,1.5.13,1.5,1.5v4.5Z"/><path class="cls-5" d="M54,14.38a3.25,3.25,0,0,1,.9.08h0a2.18,2.18,0,0,1,.1.92v4H48.72v-5H54m0-1H47.72v7H56v-5c0-1.65-.35-2-2-2Z"/><line class="cls-6" x1="47.98" y1="26.23" x2="55.47" y2="26.23"/><line class="cls-6" x1="40.98" y1="26.23" x2="47.72" y2="26.23"/><line class="cls-6" x1="47.98" y1="32.23" x2="55.47" y2="32.23"/><line class="cls-6" x1="40.98" y1="32.23" x2="47.72" y2="32.23"/><line class="cls-6" x1="47.98" y1="38.23" x2="55.47" y2="38.23"/><line class="cls-6" x1="40.98" y1="38.23" x2="47.72" y2="38.23"/><line class="cls-6" x1="47.98" y1="44.23" x2="55.47" y2="44.23"/><line class="cls-6" x1="40.98" y1="44.23" x2="47.72" y2="44.23"/><polygon class="cls-7" points="37.55 32 34.17 29.47 34.17 34.53 37.55 32"/><line class="cls-8" x1="33.89" y1="32" x2="26.45" y2="32"/></svg>