<svg id="_1" data-name="1" xmlns="http://www.w3.org/2000/svg" viewBox="0 0 64 64"><defs><style>.cls-1,.cls-3{fill:none;stroke-linecap:round;stroke-linejoin:round;stroke-width:2px;}.cls-1{stroke:#666bd1;}.cls-2{fill:#666bd1;}.cls-3{stroke:#8d8119;}.cls-4{fill:#8d8119;}</style></defs><title>ex_nested</title><path class="cls-1" d="M17.23,20a6,6,0,0,1,6-6h22a6,6,0,0,1,6,6V44a6,6,0,0,1-6,6h-22a6,6,0,0,1-6-6V32.27"/><polygon class="cls-2" points="17.23 27.31 12.77 33.26 21.68 33.26 17.23 27.31"/><path class="cls-3" d="M24.23,25c0-3.3.7-4,4-4h12c3.3,0,4,.7,4,4V39c0,3.3-.7,4-4,4H28.72c-3.3,0-4-.7-4-4V33.72"/><polygon class="cls-4" points="24.67 31.34 20.71 36.1 28.23 36.1 24.67 31.34"/></svg>