<svg id="_1" data-name="1" xmlns="http://www.w3.org/2000/svg" viewBox="0 0 64 64"><defs><style>.cls-1{opacity:0.6;}.cls-2{fill:#d3d4f3;}.cls-3{fill:#666bd1;}.cls-4{fill:#addff3;}.cls-5{fill:#2980b9;}.cls-11,.cls-12,.cls-6,.cls-9{fill:none;stroke-linejoin:round;}.cls-11,.cls-6{stroke:#666bd1;}.cls-6,.cls-9{opacity:0.8;}.cls-7{fill:#f0ecb6;}.cls-8{fill:#c18f35;}.cls-9{stroke:#c18f35;}.cls-10{fill:#34495e;stroke:#528d19;stroke-miterlimit:10;}.cls-11,.cls-12{stroke-linecap:round;stroke-width:1.5px;}.cls-12{stroke:#8d8119;}.cls-13{fill:#8d8119;}</style></defs><title>ex_nested_loop_semi_join</title><g class="cls-1"><path class="cls-2" d="M49.45,46.88v-24h7.28v22.5c0,1.37-.13,1.5-1.5,1.5Z"/><path class="cls-3" d="M56.23,23.38v22a3.29,3.29,0,0,1-.08.9,2.18,2.18,0,0,1-.92.1H49.95v-23h6.28m1-1H48.95v25h6.28c1.65,0,2-.35,2-2v-23Z"/><path class="cls-4" d="M49.45,22.88v-6h5.78c1.37,0,1.5.13,1.5,1.5v4.5Z"/><path class="cls-5" d="M55.23,17.38a3.25,3.25,0,0,1,.9.08h0a2.18,2.18,0,0,1,.1.92v4H49.95v-5h5.28m0-1H49v7h8.28v-5c0-1.65-.35-2-2-2Z"/><line class="cls-6" x1="49.21" y1="29.23" x2="56.71" y2="29.23"/><line class="cls-6" x1="49.21" y1="35.23" x2="56.71" y2="35.23"/><line class="cls-6" x1="49.21" y1="41.23" x2="56.71" y2="41.23"/></g><path class="cls-7" d="M43.68,46.88c-1.37,0-1.5-.13-1.5-1.5V22.88h7.28v24Z"/><path class="cls-8" d="M49,23.38v23H43.68a3.25,3.25,0,0,1-.9-.08h0a2.18,2.18,0,0,1-.1-.92v-22H49m1-1H41.68v23c0,1.65.35,2,2,2H50v-25Z"/><path class="cls-4" d="M42.18,22.88v-4.5c0-1.37.13-1.5,1.5-1.5h5.78v6Z"/><path class="cls-5" d="M49,17.38v5H42.68v-4a3.29,3.29,0,0,1,.08-.9,2.18,2.18,0,0,1,.92-.1H49m1-1H43.68c-1.65,0-2,.35-2,2v5H50v-7Z"/><line class="cls-9" x1="42.21" y1="29.23" x2="48.95" y2="29.23"/><line class="cls-9" x1="42.21" y1="35.23" x2="48.95" y2="35.23"/><line class="cls-9" x1="42.21" y1="41.23" x2="48.95" y2="41.23"/><path class="cls-10" d="M34.45,35.55a9.28,9.28,0,0,1,.11-1.2,2.76,2.76,0,0,1,.26-.83,2.37,2.37,0,0,1,.44-.6,2.53,2.53,0,0,1,.62-.46,4,4,0,0,1,.64-.27,3.5,3.5,0,0,1,.6-.13c.19,0,.19-.1,0-.12a3.52,3.52,0,0,1-.6-.13,3.65,3.65,0,0,1-.64-.27,2.52,2.52,0,0,1-.62-.46,2.41,2.41,0,0,1-.44-.6,2.77,2.77,0,0,1-.26-.83,9.31,9.31,0,0,1-.11-1.2c0-.47.5.77.58,1.18a2.37,2.37,0,0,0,.47,1.06,2.65,2.65,0,0,0,1,.73.69.69,0,0,1,0,1.17,2.66,2.66,0,0,0-1,.73A2.39,2.39,0,0,0,35,34.37C35,34.78,34.44,36,34.45,35.55Z"/><path class="cls-11" d="M9,23.05c0-.35.06-3.69.17-4a3,3,0,0,1,2.83-2H26a3,3,0,0,1,3,3v24a3,3,0,0,1-3,3H12a3,3,0,0,1-3-3V29.19"/><polygon class="cls-3" points="8.99 26.71 6.77 29.68 11.22 29.68 8.99 26.71"/><path class="cls-12" d="M12.49,25.55c0-.26,0-3.48,0-3.68.11-1.07.58-1.32,2-1.32h9c1.65,0,2,.35,2,2v19c0,1.65-.35,2-2,2H14.74c-1.65,0-2-.35-2-2V29.91"/><polygon class="cls-13" points="12.71 28.72 10.74 31.1 14.49 31.1 12.71 28.72"/></svg>