<svg id="_1" data-name="1" xmlns="http://www.w3.org/2000/svg" viewBox="0 0 64 64"><defs><style>.cls-1{fill:#34495e;stroke:#528d19;stroke-miterlimit:10;}.cls-2{fill:#d3d4f3;}.cls-3{fill:#666bd1;}.cls-4{fill:#addff3;}.cls-5{fill:#2980b9;}.cls-6,.cls-9{fill:none;stroke-linejoin:round;opacity:0.8;}.cls-6{stroke:#666bd1;}.cls-7{fill:#f0ecb6;}.cls-8{fill:#c18f35;}.cls-9{stroke:#c18f35;}</style></defs><title>ex_recursive_union</title><path class="cls-1" d="M4.59,25.21A9.28,9.28,0,0,1,4.7,24,2.76,2.76,0,0,1,5,23.18a2.37,2.37,0,0,1,.44-.6A2.53,2.53,0,0,1,6,22.12a4,4,0,0,1,.64-.27,3.5,3.5,0,0,1,.6-.13c.19,0,.19-.1,0-.12a3.52,3.52,0,0,1-.6-.13A3.65,3.65,0,0,1,6,21.2a2.52,2.52,0,0,1-.62-.46,2.41,2.41,0,0,1-.44-.6,2.77,2.77,0,0,1-.26-.83,9.31,9.31,0,0,1-.11-1.2c0-.47.5.77.58,1.18a2.37,2.37,0,0,0,.47,1.06,2.65,2.65,0,0,0,1,.73.69.69,0,0,1,0,1.17,2.66,2.66,0,0,0-1,.73A2.39,2.39,0,0,0,5.17,24C5.09,24.44,4.57,25.68,4.59,25.21Z"/><path class="cls-1" d="M4.59,49.36a9.28,9.28,0,0,1,.11-1.2A2.76,2.76,0,0,1,5,47.33a2.37,2.37,0,0,1,.44-.6A2.53,2.53,0,0,1,6,46.27,4,4,0,0,1,6.65,46a3.5,3.5,0,0,1,.6-.13c.19,0,.19-.1,0-.12a3.52,3.52,0,0,1-.6-.13A3.65,3.65,0,0,1,6,45.35a2.52,2.52,0,0,1-.62-.46,2.41,2.41,0,0,1-.44-.6,2.77,2.77,0,0,1-.26-.83,9.31,9.31,0,0,1-.11-1.2c0-.47.5.77.58,1.18a2.37,2.37,0,0,0,.47,1.06,2.65,2.65,0,0,0,1,.73.69.69,0,0,1,0,1.17,2.66,2.66,0,0,0-1,.73,2.39,2.39,0,0,0-.47,1.06C5.09,48.59,4.57,49.83,4.59,49.36Z"/><path class="cls-1" d="M29.2,41.36a4.42,4.42,0,0,0,2.05-.51,2.81,2.81,0,0,0,1.06-1.08,3.59,3.59,0,0,0,.4-1.4q.06-.75.06-1.46v.35c0-.68,0-1.25,0-1.72a9.28,9.28,0,0,1,.11-1.2,2.76,2.76,0,0,1,.26-.83,2.37,2.37,0,0,1,.44-.6,2.53,2.53,0,0,1,.62-.46,4,4,0,0,1,.64-.27,3.5,3.5,0,0,1,.6-.13c.19,0,.19-.1,0-.12a3.52,3.52,0,0,1-.6-.13,3.65,3.65,0,0,1-.64-.27,2.52,2.52,0,0,1-.62-.46,2.41,2.41,0,0,1-.44-.6,2.77,2.77,0,0,1-.26-.83,9.31,9.31,0,0,1-.11-1.2q0-.71,0-1.73v.36c0-.47,0-1-.06-1.46a3.58,3.58,0,0,0-.4-1.4,2.82,2.82,0,0,0-1.06-1.08,4.47,4.47,0,0,0-2.05-.51V22.2l.53,0a4.11,4.11,0,0,1,.67.11,5.12,5.12,0,0,1,.72.23,2.89,2.89,0,0,1,.7.41,3.34,3.34,0,0,1,.83.9A3.66,3.66,0,0,1,33.08,25a7,7,0,0,1,.16,1.29c0,.47,0,1.88,0,1.88a7.9,7.9,0,0,0,.12,1.5,2.37,2.37,0,0,0,.47,1.06,2.65,2.65,0,0,0,1,.73.69.69,0,0,1,0,1.17,2.66,2.66,0,0,0-1,.73,2.39,2.39,0,0,0-.47,1.06,7.9,7.9,0,0,0-.12,1.5s-.09,2.78-.18,3.17a3.65,3.65,0,0,1-.43,1.07,3.31,3.31,0,0,1-.83.9,2.9,2.9,0,0,1-.7.41,5.39,5.39,0,0,1-.72.23,4.34,4.34,0,0,1-.67.11l-.53,0Z"/><path class="cls-2" d="M12.27,29.31c-1.37,0-1.5-.13-1.5-1.5V16.31h7.28v13Z"/><path class="cls-3" d="M17.55,16.81v12H12.27a3.25,3.25,0,0,1-.9-.08h0a2.18,2.18,0,0,1-.1-.92v-11h6.28m1-1H10.27v12c0,1.65.35,2,2,2h6.28v-14Z"/><path class="cls-2" d="M18,29.31v-13h7.28v11.5c0,1.37-.13,1.5-1.5,1.5Z"/><path class="cls-3" d="M24.82,16.81v11a3.28,3.28,0,0,1-.08.9,2.18,2.18,0,0,1-.92.1H18.54v-12h6.28m1-1H17.54v14h6.28c1.65,0,2-.35,2-2v-12Z"/><path class="cls-4" d="M10.77,16.31v-4.5c0-1.37.13-1.5,1.5-1.5h5.78v6Z"/><path class="cls-5" d="M17.55,10.81v5H11.27v-4a3.28,3.28,0,0,1,.08-.9,2.18,2.18,0,0,1,.92-.1h5.28m1-1H12.27c-1.65,0-2,.35-2,2v5h8.28v-7Z"/><path class="cls-4" d="M18,16.31v-6h5.78c1.37,0,1.5.13,1.5,1.5v4.5Z"/><path class="cls-5" d="M23.82,10.81a3.25,3.25,0,0,1,.9.08h0a2.18,2.18,0,0,1,.1.92v4H18.54v-5h5.28m0-1H17.54v7h8.28v-5c0-1.65-.35-2-2-2Z"/><line class="cls-6" x1="17.8" y1="22.66" x2="25.29" y2="22.66"/><line class="cls-6" x1="10.8" y1="22.66" x2="17.54" y2="22.66"/><path class="cls-7" d="M12.27,53.46c-1.37,0-1.5-.13-1.5-1.5V40.46h7.28v13Z"/><path class="cls-8" d="M17.55,41V53H12.27a3.25,3.25,0,0,1-.9-.08h0a2.18,2.18,0,0,1-.1-.92V41h6.28m1-1H10.27V52c0,1.65.35,2,2,2h6.28V40Z"/><path class="cls-7" d="M18,53.46v-13h7.28V52c0,1.37-.13,1.5-1.5,1.5Z"/><path class="cls-8" d="M24.82,41V52a3.28,3.28,0,0,1-.08.9,2.18,2.18,0,0,1-.92.1H18.54V41h6.28m1-1H17.54V54h6.28c1.65,0,2-.35,2-2V40Z"/><path class="cls-4" d="M10.77,40.46V36c0-1.37.13-1.5,1.5-1.5h5.78v6Z"/><path class="cls-5" d="M17.55,35v5H11.27V36a3.28,3.28,0,0,1,.08-.9,2.18,2.18,0,0,1,.92-.1h5.28m1-1H12.27c-1.65,0-2,.35-2,2v5h8.28V34Z"/><path class="cls-4" d="M18,40.46v-6h5.78c1.37,0,1.5.13,1.5,1.5v4.5Z"/><path class="cls-5" d="M23.82,35a3.25,3.25,0,0,1,.9.08h0a2.18,2.18,0,0,1,.1.92v4H18.54V35h5.28m0-1H17.54v7h8.28V36c0-1.65-.35-2-2-2Z"/><line class="cls-9" x1="17.8" y1="46.81" x2="25.29" y2="46.81"/><line class="cls-9" x1="10.8" y1="46.81" x2="17.54" y2="46.81"/><path class="cls-1" d="M56.61,35.55a9.28,9.28,0,0,1,.11-1.2,2.76,2.76,0,0,1,.26-.83,2.37,2.37,0,0,1,.44-.6,2.53,2.53,0,0,1,.62-.46,4,4,0,0,1,.64-.27,3.5,3.5,0,0,1,.6-.13c.19,0,.19-.1,0-.12a3.52,3.52,0,0,1-.6-.13,3.65,3.65,0,0,1-.64-.27,2.52,2.52,0,0,1-.62-.46,2.41,2.41,0,0,1-.44-.6,2.77,2.77,0,0,1-.26-.83,9.31,9.31,0,0,1-.11-1.2c0-.47.5.77.58,1.18a2.37,2.37,0,0,0,.47,1.06,2.65,2.65,0,0,0,1,.73.69.69,0,0,1,0,1.17,2.66,2.66,0,0,0-1,.73,2.39,2.39,0,0,0-.47,1.06C57.11,34.78,56.6,36,56.61,35.55Z"/><rect class="cls-2" x="39.17" y="21.4" width="7.28" height="13"/><path class="cls-3" d="M45.95,21.9v12H39.67v-12h6.28m1-1H38.67v14h8.28v-14Z"/><rect class="cls-2" x="46.44" y="21.4" width="7.28" height="13"/><path class="cls-3" d="M53.22,21.9v12H46.93v-12h6.28m1-1H45.93v14h8.28v-14Z"/><path class="cls-4" d="M39.17,21.4V16.9c0-1.37.13-1.5,1.5-1.5h5.78v6Z"/><path class="cls-5" d="M45.95,15.9v5H39.67v-4a3.28,3.28,0,0,1,.08-.9,2.18,2.18,0,0,1,.92-.1h5.28m1-1H40.67c-1.65,0-2,.35-2,2v5H47v-7Z"/><path class="cls-4" d="M46.44,21.4v-6h5.78c1.37,0,1.5.13,1.5,1.5v4.5Z"/><path class="cls-5" d="M52.22,15.9a3.25,3.25,0,0,1,.9.08h0a2.18,2.18,0,0,1,.1.92v4H46.94v-5h5.28m0-1H45.94v7h8.28v-5c0-1.65-.35-2-2-2Z"/><line class="cls-6" x1="46.2" y1="27.75" x2="53.69" y2="27.75"/><line class="cls-6" x1="39.2" y1="27.75" x2="45.93" y2="27.75"/><path class="cls-7" d="M40.67,47.38c-1.37,0-1.5-.13-1.5-1.5V34.38h7.28v13Z"/><path class="cls-8" d="M45.95,34.88v12H40.67a3.25,3.25,0,0,1-.9-.08h0a2.18,2.18,0,0,1-.1-.92v-11h6.28m1-1H38.67v12c0,1.65.35,2,2,2h6.28v-14Z"/><path class="cls-7" d="M46.44,47.38v-13h7.28v11.5c0,1.37-.13,1.5-1.5,1.5Z"/><path class="cls-8" d="M53.22,34.88v11a3.28,3.28,0,0,1-.08.9,2.18,2.18,0,0,1-.92.1H46.93v-12h6.28m1-1H45.93v14h6.28c1.65,0,2-.35,2-2v-12Z"/><line class="cls-9" x1="46.2" y1="40.73" x2="53.69" y2="40.73"/><line class="cls-9" x1="39.2" y1="40.73" x2="45.93" y2="40.73"/></svg>