<svg xmlns="http://www.w3.org/2000/svg" viewBox="0 0 64 64"><defs><style>.cls-1{fill:#f3c7d7;}.cls-2{fill:#d04465;}.cls-3{fill:none;stroke:#2980b9;stroke-linecap:round;stroke-linejoin:round;}.cls-4{fill:#2980b9;}.cls-5{fill:#addff3;}</style></defs><title>ex_redistribute_motion</title><g id="ex_delete"><rect class="cls-1" x="47.19" y="45.43" width="9" height="9" rx="0.5" ry="0.5"/><path class="cls-2" d="M55.69,45.93v8h-8v-8h8m0-1h-8a1,1,0,0,0-1,1v8a1,1,0,0,0,1,1h8a1,1,0,0,0,1-1v-8a1,1,0,0,0-1-1Z"/><rect class="cls-1" x="7.81" y="45.43" width="9" height="9" rx="0.5" ry="0.5"/><path class="cls-2" d="M16.31,45.93v8h-8v-8h8m0-1h-8a1,1,0,0,0-1,1v8a1,1,0,0,0,1,1h8a1,1,0,0,0,1-1v-8a1,1,0,0,0-1-1Z"/><rect class="cls-1" x="27.51" y="9.57" width="9" height="9" rx="0.5" ry="0.5"/><path class="cls-2" d="M36,10.07v8H28v-8h8m0-1H28a1,1,0,0,0-1,1v8a1,1,0,0,0,1,1h8a1,1,0,0,0,1-1v-8a1,1,0,0,0-1-1Z"/><line class="cls-3" x1="20.23" y1="43" x2="24.01" y2="40.82"/><path class="cls-4" d="M18.14,44.2a12.09,12.09,0,0,1,3.91-.06l-1.55-1.3-.35-2A12.08,12.08,0,0,1,18.14,44.2Z"/><line class="cls-3" x1="39.96" y1="41.02" x2="43.75" y2="43.2"/><path class="cls-4" d="M45.84,44.4a12.09,12.09,0,0,0-3.91-.06L43.47,43l.35-2A12.08,12.08,0,0,0,45.84,44.4Z"/><line class="cls-3" x1="32.08" y1="22.48" x2="32.08" y2="26.85"/><path class="cls-4" d="M32.09,20.07a12.09,12.09,0,0,1-1.91,3.42l1.9-.69,1.9.69A12.08,12.08,0,0,1,32.09,20.07Z"/><circle class="cls-5" cx="32.08" cy="35.93" r="7.5"/><path class="cls-4" d="M32.08,28.93a7,7,0,1,1-7,7,7,7,0,0,1,7-7m0-1a8,8,0,1,0,8,8,8,8,0,0,0-8-8Z"/></g></svg>