<svg id="_1" data-name="1" xmlns="http://www.w3.org/2000/svg" viewBox="0 0 64 64"><defs><style>.cls-1{fill:#d3d4f3;}.cls-2{fill:#666bd1;}.cls-3{fill:#b6eeff;}.cls-4{fill:#0cc5ff;}.cls-5{fill:#c8ffac;}.cls-6{fill:#48d601;}.cls-7{fill:#f0ecb6;}.cls-8{fill:#c18f35;}.cls-9{fill:#ffe7e7;}.cls-10{fill:#ff3d3d;}.cls-11{fill:#addff3;}.cls-12{fill:#2980b9;}.cls-13{fill:#34495e;}.cls-14,.cls-15{fill:#528d19;stroke:#528d19;stroke-linejoin:round;}.cls-15{stroke-linecap:round;stroke-width:2px;}</style></defs><title>ex_sort</title><path class="cls-1" d="M13.19,50.94c-1.37,0-1.5-.13-1.5-1.5v-4.8H23v6.3Z"/><path class="cls-2" d="M22.47,45.14v5.3H13.19a3.25,3.25,0,0,1-.9-.08h0a2.18,2.18,0,0,1-.1-.92v-4.3H22.47m1-1H11.19v5.3c0,1.65.35,2,2,2H23.47v-7.3Z"/><rect class="cls-3" x="11.69" y="38.31" width="11.28" height="6.3"/><path class="cls-4" d="M22.47,38.81v5.3H12.19v-5.3H22.47m1-1H11.19v7.3H23.47v-7.3Z"/><rect class="cls-5" x="11.69" y="31.97" width="11.28" height="6.31"/><path class="cls-6" d="M22.47,32.47v5.3H12.19v-5.3H22.47m1-1H11.19v7.3H23.47v-7.3Z"/><rect class="cls-7" x="11.69" y="25.68" width="11.28" height="6.3"/><path class="cls-8" d="M22.47,26.18v5.3H12.19v-5.3H22.47m1-1H11.19v7.3H23.47v-7.3Z"/><rect class="cls-9" x="11.69" y="19.38" width="11.28" height="6.3"/><path class="cls-10" d="M22.47,19.88v5.3H12.19v-5.3H22.47m1-1H11.19v7.3H23.47v-7.3Z"/><path class="cls-11" d="M11.69,19.36v-4.8c0-1.37.22-1.44,1.07-1.49H21.9c.85,0,1.07.12,1.07,1.49v4.8Z"/><path class="cls-12" d="M21.87,13.56h0a2.24,2.24,0,0,1,.5.07h0a2.23,2.23,0,0,1,.1.92v4.3H12.19v-4.3a3.07,3.07,0,0,1,.08-.9,1.3,1.3,0,0,1,.52-.09h9.08m1.6-1h0Zm0,0H12.74c-1.25.07-1.54.5-1.54,2v5.3H23.47v-5.3c0-1.48-.29-1.91-1.54-2Z"/><path class="cls-13" d="M17.51,20.93v3.36h-.77V20.93Z"/><path class="cls-13" d="M19.32,20.93v3.36h-.77V20.93Z"/><path class="cls-13" d="M15.67,20.93v3.36H14.9V20.93Z"/><path class="cls-13" d="M17.51,27.22v3.36h-.77V27.22Z"/><path class="cls-13" d="M19.32,27.22v3.36h-.77V27.22Z"/><path class="cls-13" d="M21.07,27.22v3.36H20.3V27.22Z"/><path class="cls-13" d="M14,27.22v3.36h-.77V27.22Z"/><path class="cls-13" d="M15.67,27.22v3.36H14.9V27.22Z"/><path class="cls-13" d="M18.65,39.78v3.36h-.77V39.78Z"/><path class="cls-13" d="M20.4,39.78v3.36h-.77V39.78Z"/><path class="cls-13" d="M15.23,39.78v3.36h-.77V39.78Z"/><path class="cls-13" d="M16.87,39.78v3.36H16.1V39.78Z"/><path class="cls-13" d="M17.51,33.59v3.36h-.77V33.59Z"/><path class="cls-13" d="M18.65,46.11v3.36h-.77V46.11Z"/><path class="cls-13" d="M16.87,46.11v3.36H16.1V46.11Z"/><path class="cls-7" d="M42.53,50.94c-1.37,0-1.5-.13-1.5-1.5v-4.8H52.31v6.3Z"/><path class="cls-8" d="M51.81,45.14v5.3H42.53a3.26,3.26,0,0,1-.9-.08h0a2.18,2.18,0,0,1-.1-.92v-4.3H51.81m1-1H40.53v5.3c0,1.65.35,2,2,2H52.81v-7.3Z"/><rect class="cls-3" x="41.03" y="38.31" width="11.28" height="6.3"/><path class="cls-4" d="M51.81,38.81v5.3H41.53v-5.3H51.81m1-1H40.53v7.3H52.81v-7.3Z"/><rect class="cls-9" x="41.03" y="31.97" width="11.28" height="6.31"/><path class="cls-10" d="M51.81,32.47v5.3H41.53v-5.3H51.81m1-1H40.53v7.3H52.81v-7.3Z"/><rect class="cls-1" x="41.03" y="25.68" width="11.28" height="6.3"/><path class="cls-2" d="M51.81,26.18v5.3H41.53v-5.3H51.81m1-1H40.53v7.3H52.81v-7.3Z"/><rect class="cls-5" x="41.03" y="19.38" width="11.28" height="6.3"/><path class="cls-6" d="M51.81,19.88v5.3H41.53v-5.3H51.81m1-1H40.53v7.3H52.81v-7.3Z"/><path class="cls-11" d="M41,19.36v-4.8c0-1.37.22-1.44,1.07-1.49h9.14c.85,0,1.07.12,1.07,1.49v4.8Z"/><path class="cls-12" d="M51.21,13.56h0a2.24,2.24,0,0,1,.5.07h0a2.23,2.23,0,0,1,.1.92v4.3H41.53v-4.3a3.07,3.07,0,0,1,.08-.9,1.3,1.3,0,0,1,.52-.09h9.08m1.6-1h0Zm0,0H42.07c-1.25.07-1.54.5-1.54,2v5.3H52.81v-5.3c0-1.48-.29-1.91-1.54-2Z"/><path class="cls-13" d="M46.84,33.44V36.8h-.77V33.44Z"/><path class="cls-13" d="M48.66,33.44V36.8h-.77V33.44Z"/><path class="cls-13" d="M45,33.44V36.8h-.77V33.44Z"/><path class="cls-13" d="M46.84,46.11v3.36h-.77V46.11Z"/><path class="cls-13" d="M48.66,46.11v3.36h-.77V46.11Z"/><path class="cls-13" d="M50.41,46.11v3.36h-.77V46.11Z"/><path class="cls-13" d="M43.36,46.11v3.36h-.77V46.11Z"/><path class="cls-13" d="M45,46.11v3.36h-.77V46.11Z"/><path class="cls-13" d="M48,39.78v3.36h-.77V39.78Z"/><path class="cls-13" d="M49.73,39.78v3.36H49V39.78Z"/><path class="cls-13" d="M44.57,39.78v3.36H43.8V39.78Z"/><path class="cls-13" d="M46.2,39.78v3.36h-.77V39.78Z"/><path class="cls-13" d="M46.84,20.85v3.36h-.77V20.85Z"/><path class="cls-13" d="M47.73,27.22v3.36H47V27.22Z"/><path class="cls-13" d="M46,27.22v3.36h-.77V27.22Z"/><polygon class="cls-14" points="37.38 32 34 29.47 34 34.53 37.38 32"/><line class="cls-15" x1="33.72" y1="32" x2="26.62" y2="32"/></svg>