<svg id="_1" data-name="1" xmlns="http://www.w3.org/2000/svg" viewBox="0 0 64 64"><defs><style>.cls-1,.cls-4{fill:#f0ecb6;}.cls-2{fill:#c18f36;}.cls-3{opacity:0.8;}.cls-4{stroke:#c18f36;stroke-miterlimit:10;}.cls-5{fill:#addff3;}.cls-6{fill:#2980b9;}.cls-7,.cls-8{fill:#528d19;stroke:#528d19;stroke-linejoin:round;}.cls-8{stroke-linecap:round;stroke-width:2px;}.cls-9{fill:#34495e;}</style></defs><title>ex_seek</title><path class="cls-1" d="M18,57.46c-1.37,0-1.5-.13-1.5-1.5V15.52h41V56c0,1.37-.13,1.5-1.5,1.5Z"/><path class="cls-2" d="M57,16V56a3.28,3.28,0,0,1-.08.9A2.18,2.18,0,0,1,56,57H18a3.25,3.25,0,0,1-.9-.08h0A2.18,2.18,0,0,1,17,56V16H57m1-1H16V56c0,1.65.35,2,2,2H56c1.65,0,2-.35,2-2V15Z"/><g class="cls-3"><line class="cls-4" x1="24.7" y1="56.95" x2="24.7" y2="15.96"/><line class="cls-4" x1="41.1" y1="56.95" x2="41.1" y2="15.96"/><line class="cls-4" x1="32.9" y1="56.95" x2="32.9" y2="15.96"/><line class="cls-4" x1="49.3" y1="56.95" x2="49.3" y2="15.96"/><line class="cls-4" x1="17" y1="23.95" x2="56.97" y2="23.95"/><line class="cls-4" x1="17" y1="32.32" x2="56.97" y2="32.32"/><line class="cls-4" x1="17" y1="40.69" x2="56.97" y2="40.69"/><line class="cls-4" x1="17" y1="49.06" x2="56.97" y2="49.06"/></g><path class="cls-5" d="M49.31,15.51v-9H56c1.37,0,1.5.13,1.5,1.5v7.5Z"/><path class="cls-6" d="M56,7a3.25,3.25,0,0,1,.9.08h0A2.18,2.18,0,0,1,57,8v7H49.81V7H56m0-1H48.81V16H58V8c0-1.65-.35-2-2-2Z"/><path class="cls-5" d="M16.51,15.51V8c0-1.37.13-1.5,1.5-1.5H24.7v9Z"/><path class="cls-6" d="M24.2,7v8H17V8a3.28,3.28,0,0,1,.08-.9A2.18,2.18,0,0,1,18,7H24.2m1-1H18c-1.65,0-2,.35-2,2v8H25.2V6Z"/><rect class="cls-5" x="41.1" y="6.51" width="8.19" height="9"/><path class="cls-6" d="M48.79,7v8H41.6V7h7.18m1-1H40.61V16h9.19V6Z"/><rect class="cls-5" x="32.91" y="6.51" width="8.19" height="9"/><path class="cls-6" d="M40.6,7v8H33.41V7H40.6m1-1H32.42V16H41.6V6Z"/><rect class="cls-5" x="24.72" y="6.51" width="8.17" height="9"/><path class="cls-6" d="M32.4,7v8H25.22V7H32.4m1-1H24.22V16H33.4V6Z"/><polygon class="cls-7" points="14.91 53.1 11.53 50.57 11.53 55.63 14.91 53.1"/><line class="cls-8" x1="11.25" y1="53.1" x2="4.14" y2="53.1"/><polygon class="cls-7" points="14.91 36.29 11.53 33.76 11.53 38.82 14.91 36.29"/><line class="cls-8" x1="11.25" y1="36.29" x2="4.14" y2="36.29"/><line class="cls-8" x1="4" y1="15.66" x2="4" y2="53.1"/><rect class="cls-9" x="17.99" y="33.77" width="5.22" height="5.44"/><rect class="cls-9" x="17.99" y="50.57" width="5.22" height="5.44"/></svg>