<svg id="_1" data-name="1" xmlns="http://www.w3.org/2000/svg" viewBox="0 0 64 64"><defs><style>.cls-1{opacity:0.7;}.cls-2{fill:#f0ecb6;}.cls-3{fill:#c18f35;}.cls-4{fill:#d3d4f3;}.cls-5{fill:#666bd1;}.cls-6{fill:#addff3;}.cls-7{fill:#2980b9;}</style></defs><title>ex_setop</title><g class="cls-1"><rect class="cls-2" x="46.01" y="35.58" width="7" height="7"/><path class="cls-3" d="M52.51,36.08v6h-6v-6h6m1-1h-8v8h8v-8Z"/><path class="cls-2" d="M19.51,49.56a1.5,1.5,0,0,1-1.5-1.5v-5.5h7v7Z"/><path class="cls-3" d="M24.51,43.06v6h-5a1,1,0,0,1-1-1v-5h6m1-1h-8v6a2,2,0,0,0,2,2h6v-8Z"/><rect class="cls-2" x="25.04" y="42.56" width="7" height="7"/><path class="cls-3" d="M31.54,43.06v6h-6v-6h6m1-1h-8v8h8v-8Z"/><rect class="cls-2" x="32.01" y="42.56" width="7" height="7"/><path class="cls-3" d="M38.51,43.06v6h-6v-6h6m1-1h-8v8h8v-8Z"/><rect class="cls-2" x="39.04" y="42.56" width="7" height="7"/><path class="cls-3" d="M45.54,43.06v6h-6v-6h6m1-1h-8v8h8v-8Z"/><path class="cls-2" d="M46,49.56v-7h7v5.5a1.5,1.5,0,0,1-1.5,1.5Z"/><path class="cls-3" d="M52.51,43.06v5a1,1,0,0,1-1,1h-5v-6h6m1-1h-8v8h6a2,2,0,0,0,2-2v-6Z"/><path class="cls-2" d="M46,28.43v-7h5.5a1.5,1.5,0,0,1,1.5,1.5v5.5Z"/><path class="cls-3" d="M51.51,21.93a1,1,0,0,1,1,1v5h-6v-6h5m0-1h-6v8h8v-6a2,2,0,0,0-2-2Z"/><rect class="cls-2" x="46.01" y="28.5" width="7" height="7"/><path class="cls-3" d="M52.51,29v6h-6V29h6m1-1h-8v8h8V28Z"/></g><g class="cls-1"><rect class="cls-4" x="10.99" y="28.36" width="7" height="7"/><path class="cls-5" d="M17.49,28.86v6h-6v-6h6m1-1h-8v8h8v-8Z"/><path class="cls-4" d="M12.49,42.36a1.5,1.5,0,0,1-1.5-1.5v-5.5h7v7Z"/><path class="cls-5" d="M17.49,35.86v6h-5a1,1,0,0,1-1-1v-5h6m1-1h-8v6a2,2,0,0,0,2,2h6v-8Z"/><rect class="cls-4" x="10.99" y="21.28" width="7" height="7"/><path class="cls-5" d="M17.49,21.78v6h-6v-6h6m1-1h-8v8h8v-8Z"/><path class="cls-4" d="M11,21.44v-5.5a1.5,1.5,0,0,1,1.5-1.5H18v7Z"/><path class="cls-5" d="M17.49,14.94v6h-6v-5a1,1,0,0,1,1-1h5m1-1h-6a2,2,0,0,0-2,2v6h8v-8Z"/><rect class="cls-4" x="17.96" y="14.44" width="7" height="7"/><path class="cls-5" d="M24.46,14.94v6h-6v-6h6m1-1h-8v8h8v-8Z"/><rect class="cls-4" x="24.99" y="14.44" width="7" height="7"/><path class="cls-5" d="M31.49,14.94v6h-6v-6h6m1-1h-8v8h8v-8Z"/><rect class="cls-4" x="32.01" y="14.44" width="7" height="7"/><path class="cls-5" d="M38.51,14.94v6h-6v-6h6m1-1h-8v8h8v-8Z"/><path class="cls-4" d="M39,21.44v-7h5.5a1.5,1.5,0,0,1,1.5,1.5v5.5Z"/><path class="cls-5" d="M44.49,14.94a1,1,0,0,1,1,1v5h-6v-6h5m0-1h-6v8h8v-6a2,2,0,0,0-2-2Z"/></g><rect class="cls-6" x="18.01" y="21.43" width="7" height="7"/><path class="cls-7" d="M24.51,21.93v6h-6v-6h6m1-1h-8v8h8v-8Z"/><rect class="cls-6" x="25.04" y="21.43" width="7" height="7"/><path class="cls-7" d="M31.54,21.93v6h-6v-6h6m1-1h-8v8h8v-8Z"/><rect class="cls-6" x="39.04" y="21.43" width="7" height="7"/><path class="cls-7" d="M45.54,21.93v6h-6v-6h6m1-1h-8v8h8v-8Z"/><rect class="cls-6" x="39.04" y="28.5" width="7" height="7"/><path class="cls-7" d="M45.54,29v6h-6V29h6m1-1h-8v8h8V28Z"/><rect class="cls-6" x="18.01" y="35.58" width="7" height="7"/><path class="cls-7" d="M24.51,36.08v6h-6v-6h6m1-1h-8v8h8v-8Z"/><rect class="cls-6" x="25.04" y="35.58" width="7" height="7"/><path class="cls-7" d="M31.54,36.08v6h-6v-6h6m1-1h-8v8h8v-8Z"/><rect class="cls-6" x="32.01" y="35.58" width="7" height="7"/><path class="cls-7" d="M38.51,36.08v6h-6v-6h6m1-1h-8v8h8v-8Z"/><rect class="cls-6" x="39.04" y="35.58" width="7" height="7"/><path class="cls-7" d="M45.54,36.08v6h-6v-6h6m1-1h-8v8h8v-8Z"/><rect class="cls-6" x="32.01" y="21.43" width="7" height="7"/><path class="cls-7" d="M38.51,21.93v6h-6v-6h6m1-1h-8v8h8v-8Z"/><rect class="cls-6" x="18.01" y="28.5" width="7" height="7"/><path class="cls-7" d="M24.51,29v6h-6V29h6m1-1h-8v8h8V28Z"/><rect class="cls-6" x="25.04" y="28.5" width="7" height="7"/><path class="cls-7" d="M31.54,29v6h-6V29h6m1-1h-8v8h8V28Z"/><rect class="cls-6" x="32.01" y="28.5" width="7" height="7"/><path class="cls-7" d="M38.51,29v6h-6V29h6m1-1h-8v8h8V28Z"/></svg>