<svg id="_1" data-name="1" xmlns="http://www.w3.org/2000/svg" viewBox="0 0 64 64"><defs><style>.cls-1,.cls-2,.cls-8{fill:#2980b9;}.cls-1,.cls-2{stroke:#2980b9;stroke-linejoin:round;}.cls-2{stroke-linecap:round;stroke-width:2px;}.cls-3,.cls-6{fill:#f0ecb6;}.cls-4{fill:#c18f36;}.cls-5{opacity:0.8;}.cls-6{stroke:#c18f36;stroke-miterlimit:10;}.cls-7{fill:#addff3;}</style></defs><title>ex_scan</title><polygon class="cls-1" points="9.06 50.78 5.58 46.14 12.54 46.14 9.06 50.78"/><line class="cls-2" x1="9.06" y1="46.77" x2="9.06" y2="15.8"/><path class="cls-3" d="M18.43,57.47c-1.38,0-1.5-.12-1.5-1.5V15.53h41V56c0,1.38-.12,1.5-1.5,1.5Z"/><path class="cls-4" d="M57.41,16V56a3.71,3.71,0,0,1-.07.9,2.16,2.16,0,0,1-.93.1h-38a3.54,3.54,0,0,1-.9-.07h0a2.16,2.16,0,0,1-.1-.93V16h40m1-1h-42V56c0,1.65.35,2,2,2h38c1.65,0,2-.35,2-2V15Z"/><g class="cls-5"><line class="cls-6" x1="25.13" y1="56.97" x2="25.13" y2="15.97"/><line class="cls-6" x1="41.52" y1="56.97" x2="41.52" y2="15.97"/><line class="cls-6" x1="33.32" y1="56.97" x2="33.32" y2="15.97"/><line class="cls-6" x1="49.72" y1="56.97" x2="49.72" y2="15.97"/><line class="cls-6" x1="17.42" y1="23.97" x2="57.4" y2="23.97"/><line class="cls-6" x1="17.42" y1="32.34" x2="57.4" y2="32.34"/><line class="cls-6" x1="17.42" y1="40.71" x2="57.4" y2="40.71"/><line class="cls-6" x1="17.42" y1="49.08" x2="57.4" y2="49.08"/></g><path class="cls-7" d="M49.73,15.53v-9h6.69c1.37,0,1.5.12,1.5,1.5v7.5Z"/><path class="cls-8" d="M56.42,7a3.54,3.54,0,0,1,.9.07h0a2.16,2.16,0,0,1,.1.93v7H50.23V7h6.19m0-1H49.23V16h9.19V8c0-1.65-.35-2-2-2Z"/><path class="cls-7" d="M16.92,15.53V8c0-1.38.13-1.5,1.5-1.5h6.7v9Z"/><path class="cls-8" d="M24.62,7v8h-7.2V8a3.18,3.18,0,0,1,.08-.9,2.08,2.08,0,0,1,.92-.1h6.2m1-1h-7.2c-1.65,0-2,.35-2,2v8h9.2V6Z"/><rect class="cls-7" x="41.52" y="6.53" width="8.19" height="9"/><path class="cls-8" d="M49.21,7v8H42V7h7.19m1-1H41V16h9.19V6Z"/><rect class="cls-7" x="33.33" y="6.53" width="8.19" height="9"/><path class="cls-8" d="M41,7v8H33.83V7H41m1-1H32.83V16H42V6Z"/><rect class="cls-7" x="25.14" y="6.53" width="8.17" height="9"/><path class="cls-8" d="M32.81,7v8H25.64V7h7.17m1-1H24.64V16h9.17V6Z"/></svg>