<svg id="_1" data-name="1" xmlns="http://www.w3.org/2000/svg" viewBox="0 0 64 64"><defs><style>.cls-1{fill:#f0ecb6;}.cls-2{fill:#c18f35;}.cls-3{fill:#addff3;}.cls-4{fill:#2980b9;}.cls-5,.cls-6,.cls-8{fill:none;}.cls-5{stroke:#c18f35;opacity:0.8;}.cls-10,.cls-11,.cls-5,.cls-6,.cls-8{stroke-linejoin:round;}.cls-6{stroke:#666bd1;}.cls-11,.cls-6,.cls-8{stroke-linecap:round;}.cls-6,.cls-8{stroke-width:1.5px;}.cls-7{fill:#666bd1;}.cls-8{stroke:#8d8119;}.cls-9{fill:#8d8119;}.cls-10,.cls-11{fill:#528d19;stroke:#528d19;}.cls-11{stroke-width:2px;}</style></defs><title>ex_subplan</title><path class="cls-1" d="M9,53.38c-1.37,0-1.5-.13-1.5-1.5V40.38h7.28v13Z"/><path class="cls-2" d="M14.23,40.88v12H9a3.25,3.25,0,0,1-.9-.08h0a2.18,2.18,0,0,1-.1-.92v-11h6.28m1-1H7v12c0,1.65.35,2,2,2h6.28v-14Z"/><path class="cls-1" d="M14.72,53.38v-13H22v11.5c0,1.37-.13,1.5-1.5,1.5Z"/><path class="cls-2" d="M21.5,40.88v11a3.28,3.28,0,0,1-.08.9,2.18,2.18,0,0,1-.92.1H15.22v-12H21.5m1-1H14.22v14H20.5c1.65,0,2-.35,2-2v-12Z"/><path class="cls-3" d="M7.45,40.38v-4.5c0-1.37.13-1.5,1.5-1.5h5.78v6Z"/><path class="cls-4" d="M14.23,34.88v5H8v-4A3.28,3.28,0,0,1,8,35a2.18,2.18,0,0,1,.92-.1h5.28m1-1H9c-1.65,0-2,.35-2,2v5h8.28v-7Z"/><path class="cls-3" d="M14.72,40.38v-6H20.5c1.37,0,1.5.13,1.5,1.5v4.5Z"/><path class="cls-4" d="M20.5,34.88a3.25,3.25,0,0,1,.9.08h0a2.18,2.18,0,0,1,.1.92v4H15.22v-5H20.5m0-1H14.22v7H22.5v-5c0-1.65-.35-2-2-2Z"/><line class="cls-5" x1="14.48" y1="46.73" x2="21.97" y2="46.73"/><line class="cls-5" x1="7.48" y1="46.73" x2="14.22" y2="46.73"/><path class="cls-1" d="M43.53,53.38c-1.37,0-1.5-.13-1.5-1.5V40.38h7.28v13Z"/><path class="cls-2" d="M48.81,40.88v12H43.53a3.25,3.25,0,0,1-.9-.08h0a2.18,2.18,0,0,1-.1-.92v-11h6.28m1-1H41.53v12c0,1.65.35,2,2,2h6.28v-14Z"/><path class="cls-1" d="M49.3,53.38v-13h7.28v11.5c0,1.37-.13,1.5-1.5,1.5Z"/><path class="cls-2" d="M56.08,40.88v11a3.28,3.28,0,0,1-.08.9,2.18,2.18,0,0,1-.92.1H49.8v-12h6.28m1-1H48.8v14h6.28c1.65,0,2-.35,2-2v-12Z"/><path class="cls-3" d="M42,40.38v-4.5c0-1.37.13-1.5,1.5-1.5h5.78v6Z"/><path class="cls-4" d="M48.81,34.88v5H42.53v-4a3.28,3.28,0,0,1,.08-.9,2.18,2.18,0,0,1,.92-.1h5.28m1-1H43.53c-1.65,0-2,.35-2,2v5h8.28v-7Z"/><path class="cls-3" d="M49.3,40.38v-6h5.78c1.37,0,1.5.13,1.5,1.5v4.5Z"/><path class="cls-4" d="M55.08,34.88A3.25,3.25,0,0,1,56,35h0a2.17,2.17,0,0,1,.1.92v4H49.8v-5h5.28m0-1H48.8v7h8.28v-5c0-1.65-.35-2-2-2Z"/><line class="cls-5" x1="49.06" y1="46.73" x2="56.55" y2="46.73"/><line class="cls-5" x1="42.06" y1="46.73" x2="48.8" y2="46.73"/><path class="cls-6" d="M23.5,12.88a3,3,0,0,1,3-3h11a3,3,0,0,1,3,3v12a3,3,0,0,1-3,3h-11a3,3,0,0,1-3-3V19"/><polygon class="cls-7" points="23.5 16.54 21.27 19.51 25.73 19.51 23.5 16.54"/><path class="cls-8" d="M27,15.38c0-1.65.35-2,2-2h6c1.65,0,2,.35,2,2v7c0,1.65-.35,2-2,2H29.25c-1.65,0-2-.35-2-2V19.74"/><polygon class="cls-9" points="27.22 18.55 25.24 20.93 29 20.93 27.22 18.55"/><polygon class="cls-10" points="40.91 44.2 37.53 41.67 37.53 46.73 40.91 44.2"/><line class="cls-11" x1="39.25" y1="44.2" x2="32.14" y2="44.2"/><polygon class="cls-10" points="23.23 44.2 26.61 41.67 26.61 46.73 23.23 44.2"/><line class="cls-11" x1="24.9" y1="44.2" x2="32" y2="44.2"/><line class="cls-11" x1="32" y1="29.77" x2="32" y2="44.2"/></svg>