<svg id="_1" data-name="1" xmlns="http://www.w3.org/2000/svg" viewBox="0 0 64 64"><defs><style>.cls-1{fill:#e6e6e6;}.cls-2{fill:#818181;}.cls-3{fill:#fbe65a;}.cls-4{fill:#c4953b;}.cls-5{fill:none;stroke:#2980b9;stroke-linecap:round;stroke-linejoin:round;stroke-width:1.5px;}.cls-6{fill:#2980b9;}</style></defs><title>ex_tid_scan</title><path class="cls-1" d="M35.47,50.69c-9.57,0-16-2.84-16-5.5s6.43-5.5,16-5.5,16,2.84,16,5.5S45,50.69,35.47,50.69Z"/><path class="cls-2" d="M35.47,40.19c8.87,0,15.5,2.64,15.5,5s-6.63,5-15.5,5S20,47.55,20,45.19s6.63-5,15.5-5m0-1c-9.11,0-16.5,2.69-16.5,6s7.39,6,16.5,6S52,48.5,52,45.19s-7.39-6-16.5-6Z"/><path class="cls-1" d="M35.47,46.28c-9.57,0-16-2.84-16-5.5s6.43-5.5,16-5.5,16,2.84,16,5.5S45,46.28,35.47,46.28Z"/><path class="cls-2" d="M35.47,35.78c8.87,0,15.5,2.64,15.5,5s-6.63,5-15.5,5S20,43.14,20,40.78s6.63-5,15.5-5m0-1c-9.11,0-16.5,2.69-16.5,6s7.39,6,16.5,6,16.5-2.69,16.5-6-7.39-6-16.5-6Z"/><path class="cls-1" d="M35.47,42c-9.57,0-16-2.84-16-5.5s6.43-5.5,16-5.5,16,2.84,16,5.5S45,42,35.47,42Z"/><path class="cls-2" d="M35.47,31.46c8.87,0,15.5,2.64,15.5,5s-6.63,5-15.5,5S20,38.83,20,36.46s6.63-5,15.5-5m0-1c-9.11,0-16.5,2.69-16.5,6s7.39,6,16.5,6,16.5-2.69,16.5-6-7.39-6-16.5-6Z"/><path class="cls-1" d="M35.47,37.52c-9.57,0-16-2.84-16-5.5s6.43-5.5,16-5.5,16,2.84,16,5.5S45,37.52,35.47,37.52Z"/><path class="cls-2" d="M35.47,27C44.34,27,51,29.66,51,32s-6.63,5-15.5,5S20,34.38,20,32s6.63-5,15.5-5m0-1C26.36,26,19,28.7,19,32s7.39,6,16.5,6S52,35.33,52,32s-7.39-6-16.5-6Z"/><path class="cls-1" d="M35.47,32.69c-9.57,0-16-2.84-16-5.5s6.43-5.5,16-5.5,16,2.84,16,5.5S45,32.69,35.47,32.69Z"/><path class="cls-2" d="M35.47,22.19c8.87,0,15.5,2.64,15.5,5s-6.63,5-15.5,5S20,29.55,20,27.19s6.63-5,15.5-5m0-1c-9.11,0-16.5,2.69-16.5,6s7.39,6,16.5,6S52,30.5,52,27.19s-7.39-6-16.5-6Z"/><path class="cls-3" d="M19.55,26.69c.73-2.45,6.72-4.91,15.43-5v5Z"/><path class="cls-4" d="M34.47,22.2v4H20.35c1.46-2,7-3.83,14.12-4m1-1c-9.11,0-16.5,2.69-16.5,6h16.5v-6Z"/><path class="cls-5" d="M12,26c2.38-8.37,12.92-13.21,22-13.21"/><path class="cls-6" d="M40.4,12.81a31.73,31.73,0,0,0-9,5l1.81-5-1.81-5A31.7,31.7,0,0,0,40.4,12.81Z"/></svg>