<svg id="_1" data-name="1" xmlns="http://www.w3.org/2000/svg" viewBox="0 0 64 64"><defs><style>.cls-1{fill:#f3c7d7;}.cls-2{fill:#d04465;}.cls-3{opacity:0.5;}.cls-4{fill:none;stroke:#d04465;}.cls-4,.cls-7,.cls-8{stroke-linejoin:round;}.cls-5{fill:#addff3;}.cls-6,.cls-7,.cls-8{fill:#2980b9;}.cls-7,.cls-8{stroke:#2980b9;}.cls-8{stroke-linecap:round;stroke-width:2px;}</style></defs><title>table_fun_scan</title><path class="cls-1" d="M22.85,49c-1.37,0-1.5-.12-1.5-1.5V24H54.14V47.47c0,1.38-.13,1.5-1.5,1.5Z"/><path class="cls-2" d="M53.64,24.53V47.47a3.18,3.18,0,0,1-.08.9s-.19.1-.92.1H22.85A3.39,3.39,0,0,1,22,48.4h0a2.4,2.4,0,0,1-.1-.93V24.53H53.64m1-1H20.85V47.47c0,1.65.35,2,2,2H52.64c1.65,0,2-.35,2-2V23.53Z"/><g class="cls-3"><line class="cls-4" x1="37.75" y1="48.47" x2="37.75" y2="24.47"/><line class="cls-4" x1="29.55" y1="48.47" x2="29.55" y2="24.47"/><line class="cls-4" x1="45.95" y1="48.47" x2="45.95" y2="24.47"/><line class="cls-4" x1="21.85" y1="32.47" x2="53.62" y2="32.47"/><line class="cls-4" x1="21.85" y1="40.84" x2="53.62" y2="40.84"/></g><path class="cls-5" d="M46,24V15h6.69c1.38,0,1.5.12,1.5,1.5V24Z"/><path class="cls-6" d="M52.64,15.53a3.44,3.44,0,0,1,.9.07h0a2.16,2.16,0,0,1,.1.93v7H46.45v-8h6.19m0-1H45.45v10h9.19v-8c0-1.65-.35-2-2-2Z"/><path class="cls-5" d="M21.35,24v-7.5c0-1.38.13-1.5,1.5-1.5h6.69v9Z"/><path class="cls-6" d="M29,15.53v8H21.85v-7a2.7,2.7,0,0,1,.08-.9s.19-.1.92-.1H29m1-1H22.85c-1.65,0-2,.35-2,2v8H30v-10Z"/><rect class="cls-5" x="37.75" y="15.03" width="8.19" height="9"/><path class="cls-6" d="M45.43,15.53v8H38.24v-8h7.18m1-1H37.25v10h9.19v-10Z"/><rect class="cls-5" x="29.56" y="15.03" width="8.19" height="9"/><path class="cls-6" d="M37.24,15.53v8H30.05v-8h7.18m1-1H29.06v10h9.19v-10Z"/><polygon class="cls-7" points="12.83 47.38 9.36 42.73 16.31 42.73 12.83 47.38"/><line class="cls-8" x1="12.83" y1="43.36" x2="12.83" y2="16.39"/></svg>