<svg id="_1" data-name="1" xmlns="http://www.w3.org/2000/svg" viewBox="0 0 64 64"><defs><style>.cls-1,.cls-5{fill:#f0ecb6;}.cls-2{fill:#c18f36;}.cls-3{fill:#ffbd30;}.cls-4{opacity:0.8;}.cls-5{stroke:#c18f36;stroke-miterlimit:10;}.cls-6{fill:#addff3;}.cls-7{fill:#2980b9;}</style></defs><title>ex_update</title><path class="cls-1" d="M16.73,57.47c-1.37,0-1.5-.13-1.5-1.5V15.53h41V56c0,1.37-.13,1.5-1.5,1.5Z"/><path class="cls-2" d="M55.72,16V56a3.28,3.28,0,0,1-.08.9,2.18,2.18,0,0,1-.92.1h-38a3.25,3.25,0,0,1-.9-.08h0a2.18,2.18,0,0,1-.1-.92V16h40m1-1h-42V56c0,1.65.35,2,2,2h38c1.65,0,2-.35,2-2V15Z"/><rect class="cls-3" x="32.12" y="41.2" width="7.22" height="7.44"/><rect class="cls-3" x="23.92" y="41.2" width="7.22" height="7.44"/><rect class="cls-3" x="15.72" y="24.48" width="7.22" height="7.44"/><g class="cls-4"><line class="cls-5" x1="23.43" y1="56.97" x2="23.43" y2="15.97"/><line class="cls-5" x1="39.83" y1="56.97" x2="39.83" y2="15.97"/><line class="cls-5" x1="31.63" y1="56.97" x2="31.63" y2="15.97"/><line class="cls-5" x1="48.03" y1="56.97" x2="48.03" y2="15.97"/><line class="cls-5" x1="15.73" y1="23.97" x2="55.7" y2="23.97"/><line class="cls-5" x1="15.73" y1="32.34" x2="55.7" y2="32.34"/><line class="cls-5" x1="15.73" y1="40.71" x2="55.7" y2="40.71"/><line class="cls-5" x1="15.73" y1="49.08" x2="55.7" y2="49.08"/></g><path class="cls-6" d="M48,15.53v-9h6.69c1.37,0,1.5.13,1.5,1.5v7.5Z"/><path class="cls-7" d="M54.73,7a3.25,3.25,0,0,1,.9.08h0a2.18,2.18,0,0,1,.1.92v7H48.53V7h6.19m0-1H47.53V16h9.19V8c0-1.65-.35-2-2-2Z"/><path class="cls-6" d="M15.23,15.53V8c0-1.37.13-1.5,1.5-1.5h6.69v9Z"/><path class="cls-7" d="M22.93,7v8H15.73V8a3.28,3.28,0,0,1,.08-.9,2.18,2.18,0,0,1,.92-.1h6.19m1-1H16.73c-1.65,0-2,.35-2,2v8h9.19V6Z"/><rect class="cls-6" x="39.83" y="6.53" width="8.19" height="9"/><path class="cls-7" d="M47.52,7v8H40.33V7h7.18m1-1H39.33V16h9.19V6Z"/><rect class="cls-6" x="31.64" y="6.53" width="8.19" height="9"/><path class="cls-7" d="M39.33,7v8H32.14V7h7.18m1-1H31.14V16h9.19V6Z"/><rect class="cls-6" x="23.45" y="6.53" width="8.17" height="9"/><path class="cls-7" d="M31.12,7v8H23.95V7h7.17m1-1H23V16h9.18V6Z"/><path class="cls-2" d="M7.27,28.28A3.37,3.37,0,0,1,13,25.85h0l.13.13.05.05L24.72,37.58a.4.4,0,0,1,.18.2l1.63,5.82v.06h0a.46.46,0,0,1,0,.12.41.41,0,0,1,0,.12s0,0,0,0h0a.4.4,0,0,1-.06.1l0,0,0,0-.1.06h0l-.12,0-.12,0H26l-5.82-1.63a.4.4,0,0,1-.2-.18L8.22,30.64a.4.4,0,0,1-.08-.12A3.35,3.35,0,0,1,7.27,28.28Zm12.9,13.15,1-2h0l-9.93-9.93L9.73,31Zm5,.55-.84.84,1.17.33Zm-1-3.48L22,39.6l-1.09,2.26,2.57.72,1.49-1.49Zm-.42-.7L13.35,27.37l-1.52,1.52,9.93,9.93h0ZM8.1,28.31a2.55,2.55,0,0,0,.83,1.88h0l.22.22,3.62-3.62-.22-.22h0A2.56,2.56,0,0,0,8.1,28.31Z"/><polygon class="cls-1" points="20.17 41.45 21.17 39.42 21.18 39.41 11.25 29.48 9.73 31 20.17 41.45"/><polygon class="cls-1" points="13.35 27.38 11.83 28.9 21.76 38.83 21.77 38.82 23.79 37.83 13.35 27.38"/><path class="cls-1" d="M8.12,28.27A2.55,2.55,0,0,0,9,30.15H9l.22.22,3.62-3.62-.22-.22h0a2.56,2.56,0,0,0-4.45,1.73Z"/><polygon class="cls-1" points="24.22 38.52 21.96 39.6 20.87 41.86 23.44 42.58 24.94 41.09 24.22 38.52"/></svg>