<svg id="_1" data-name="1" xmlns="http://www.w3.org/2000/svg" viewBox="0 0 64 64"><defs><style>.cls-1,.cls-3{fill:#f0ecb6;}.cls-2{fill:#c18f35;}.cls-3{stroke:#c18f35;}.cls-3,.cls-4,.cls-7,.cls-8{stroke-miterlimit:10;}.cls-3,.cls-7{opacity:0.8;}.cls-4{fill:#34495e;stroke:#528d19;}.cls-5,.cls-7,.cls-8{fill:#d3d4f3;}.cls-6{fill:#666bd1;}.cls-7{stroke:#666bd1;}.cls-8{stroke:#c00;stroke-linecap:round;stroke-width:1.5px;opacity:0.5;}</style></defs><title>ex_unique</title><rect class="cls-1" x="40.3" y="17.26" width="9.98" height="5.69" rx="1.5" ry="1.5"/><path class="cls-2" d="M48.79,17.76a3.25,3.25,0,0,1,.9.08h0a2.18,2.18,0,0,1,.1.92v2.69a3.28,3.28,0,0,1-.08.9,2.18,2.18,0,0,1-.92.1h-7a3.25,3.25,0,0,1-.9-.08h0a2.18,2.18,0,0,1-.1-.92V18.76a3.28,3.28,0,0,1,.08-.9,2.18,2.18,0,0,1,.92-.1h7m0-1h-7c-1.65,0-2,.35-2,2v2.69c0,1.65.35,2,2,2h7c1.65,0,2-.35,2-2V18.76c0-1.65-.35-2-2-2Z"/><rect class="cls-1" x="13.71" y="10.76" width="9.98" height="18.69" rx="1.5" ry="1.5"/><path class="cls-2" d="M22.2,11.26a3.25,3.25,0,0,1,.9.08h0a2.18,2.18,0,0,1,.1.92V27.95a3.28,3.28,0,0,1-.08.9,2.18,2.18,0,0,1-.92.1h-7a3.25,3.25,0,0,1-.9-.08h0a2.18,2.18,0,0,1-.1-.92V12.26a3.28,3.28,0,0,1,.08-.9,2.18,2.18,0,0,1,.92-.1h7m0-1h-7c-1.65,0-2,.35-2,2V27.95c0,1.65.35,2,2,2h7c1.65,0,2-.35,2-2V12.26c0-1.65-.35-2-2-2Z"/><line class="cls-3" x1="14.1" y1="17.17" x2="23.34" y2="17.17"/><line class="cls-3" x1="14.1" y1="23.4" x2="23.34" y2="23.4"/><path class="cls-4" d="M28.87,27.47A4.42,4.42,0,0,0,30.92,27,2.81,2.81,0,0,0,32,25.88a3.59,3.59,0,0,0,.4-1.4c0-.5.07-.36.09-.83a9.28,9.28,0,0,1,.11-1.2,2.76,2.76,0,0,1,.26-.83,2.37,2.37,0,0,1,.44-.6,2.53,2.53,0,0,1,.62-.46,4,4,0,0,1,.64-.27,3.5,3.5,0,0,1,.6-.13c.19,0,.19-.1,0-.12a3.52,3.52,0,0,1-.6-.13,3.65,3.65,0,0,1-.64-.27,2.52,2.52,0,0,1-.62-.46,2.41,2.41,0,0,1-.44-.6,2.77,2.77,0,0,1-.26-.83,9.31,9.31,0,0,1-.11-1.2c0-.47,0-.33-.09-.83a3.58,3.58,0,0,0-.4-1.4,2.82,2.82,0,0,0-1.06-1.08,4.47,4.47,0,0,0-2.05-.51V12.3l.53,0a4.11,4.11,0,0,1,.67.11,5.12,5.12,0,0,1,.72.23,2.89,2.89,0,0,1,.7.41,3.34,3.34,0,0,1,.83.9,3.66,3.66,0,0,1,.43,1.07,7,7,0,0,1,.16,1.29c0,.47,0-.12,0-.12a7.9,7.9,0,0,0,.12,1.5,2.37,2.37,0,0,0,.47,1.06,2.65,2.65,0,0,0,1,.73.69.69,0,0,1,0,1.17,2.66,2.66,0,0,0-1,.73A2.39,2.39,0,0,0,33,22.47a7.9,7.9,0,0,0-.12,1.5s-.09.78-.18,1.17a3.65,3.65,0,0,1-.43,1.07,3.31,3.31,0,0,1-.83.9,2.9,2.9,0,0,1-.7.41,5.39,5.39,0,0,1-.72.23,4.34,4.34,0,0,1-.67.11l-.53,0Z"/><rect class="cls-5" x="40.3" y="41.05" width="9.98" height="5.69" rx="1.5" ry="1.5"/><path class="cls-6" d="M48.79,41.55a3.25,3.25,0,0,1,.9.08h0a2.17,2.17,0,0,1,.1.92v2.69a3.28,3.28,0,0,1-.08.9,2.18,2.18,0,0,1-.92.1h-7a3.25,3.25,0,0,1-.9-.08h0a2.18,2.18,0,0,1-.1-.92V42.55a3.28,3.28,0,0,1,.08-.9,2.18,2.18,0,0,1,.92-.1h7m0-1h-7c-1.65,0-2,.35-2,2v2.69c0,1.65.35,2,2,2h7c1.65,0,2-.35,2-2V42.55c0-1.65-.35-2-2-2Z"/><rect class="cls-5" x="13.79" y="34.55" width="9.98" height="18.69" rx="1.5" ry="1.5"/><path class="cls-6" d="M22.28,35.05a3.25,3.25,0,0,1,.9.08h0a2.17,2.17,0,0,1,.1.92V51.74a3.28,3.28,0,0,1-.08.9,2.18,2.18,0,0,1-.92.1h-7a3.25,3.25,0,0,1-.9-.08h0a2.18,2.18,0,0,1-.1-.92V36.05a3.28,3.28,0,0,1,.08-.9,2.18,2.18,0,0,1,.92-.1h7m0-1h-7c-1.65,0-2,.35-2,2V51.74c0,1.65.35,2,2,2h7c1.65,0,2-.35,2-2V36.05c0-1.65-.35-2-2-2Z"/><line class="cls-7" x1="14.18" y1="40.97" x2="23.42" y2="40.97"/><line class="cls-7" x1="14.18" y1="47.2" x2="23.42" y2="47.2"/><path class="cls-4" d="M28.87,51.26a4.42,4.42,0,0,0,2.05-.51A2.81,2.81,0,0,0,32,49.67a3.59,3.59,0,0,0,.4-1.4c0-.5.07-.36.09-.83a9.28,9.28,0,0,1,.11-1.2,2.76,2.76,0,0,1,.26-.83,2.37,2.37,0,0,1,.44-.6,2.53,2.53,0,0,1,.62-.46,4,4,0,0,1,.64-.27,3.5,3.5,0,0,1,.6-.13c.19,0,.19-.1,0-.12a3.52,3.52,0,0,1-.6-.13,3.65,3.65,0,0,1-.64-.27,2.52,2.52,0,0,1-.62-.46,2.41,2.41,0,0,1-.44-.6,2.77,2.77,0,0,1-.26-.83,9.31,9.31,0,0,1-.11-1.2c0-.47,0-.33-.09-.83a3.58,3.58,0,0,0-.4-1.4A2.82,2.82,0,0,0,30.92,37a4.47,4.47,0,0,0-2.05-.51V36.1l.53,0a4.11,4.11,0,0,1,.67.11,5.12,5.12,0,0,1,.72.23,2.89,2.89,0,0,1,.7.41,3.34,3.34,0,0,1,.83.9,3.66,3.66,0,0,1,.43,1.07,7,7,0,0,1,.16,1.29c0,.47,0-.12,0-.12a7.9,7.9,0,0,0,.12,1.5,2.37,2.37,0,0,0,.47,1.06,2.65,2.65,0,0,0,1,.73.69.69,0,0,1,0,1.17,2.66,2.66,0,0,0-1,.73A2.39,2.39,0,0,0,33,46.27a7.9,7.9,0,0,0-.12,1.5s-.09.78-.18,1.17A3.65,3.65,0,0,1,32.32,50a3.31,3.31,0,0,1-.83.9,2.9,2.9,0,0,1-.7.41,5.39,5.39,0,0,1-.72.23,4.34,4.34,0,0,1-.67.11l-.53,0Z"/><line class="cls-8" x1="14.1" y1="29.05" x2="23.34" y2="10.99"/><line class="cls-8" x1="14.18" y1="52.92" x2="23.42" y2="34.87"/></svg>