<svg id="_1" data-name="1" xmlns="http://www.w3.org/2000/svg" viewBox="0 0 64 64"><defs><style>.cls-1,.cls-9{fill:#2980b9;}.cls-1,.cls-2{stroke:#2980b9;}.cls-1,.cls-2,.cls-6,.cls-7{stroke-linejoin:round;}.cls-2,.cls-6,.cls-7{fill:none;}.cls-2{stroke-linecap:round;stroke-width:2px;}.cls-3{fill:#f3c7d7;}.cls-4{fill:#d04465;}.cls-5{opacity:0.5;}.cls-6,.cls-7{stroke:#d04465;}.cls-7{opacity:0.8;}.cls-8{fill:#addff3;}.cls-10{font-size:10px;fill:#34495e;font-family:HelveticaNeue-Bold, Helvetica Neue;font-weight:700;}.cls-10,.cls-12{letter-spacing:0.1em;}.cls-11{letter-spacing:0.01em;}</style></defs><title>ex_worktable_scan</title><polygon class="cls-1" points="9.72 50.78 6.25 46.14 13.2 46.14 9.72 50.78"/><line class="cls-2" x1="9.72" y1="46.77" x2="9.72" y2="15.8"/><path class="cls-3" d="M17.76,57.47c-1.37,0-1.5-.13-1.5-1.5V15.53h41V56c0,1.37-.13,1.5-1.5,1.5Z"/><path class="cls-4" d="M56.75,16V56a3.28,3.28,0,0,1-.08.9,2.18,2.18,0,0,1-.92.1h-38a3.25,3.25,0,0,1-.9-.08h0a2.17,2.17,0,0,1-.1-.92V16h40m1-1h-42V56c0,1.65.35,2,2,2h38c1.65,0,2-.35,2-2V15Z"/><g class="cls-5"><line class="cls-6" x1="24.46" y1="56.97" x2="24.46" y2="15.97"/><line class="cls-6" x1="40.86" y1="56.97" x2="40.86" y2="15.97"/><line class="cls-6" x1="32.66" y1="56.97" x2="32.66" y2="15.97"/><line class="cls-6" x1="49.06" y1="56.97" x2="49.06" y2="15.97"/><line class="cls-6" x1="16.76" y1="23.97" x2="56.73" y2="23.97"/><line class="cls-7" x1="16.76" y1="32.34" x2="56.73" y2="32.34"/><line class="cls-6" x1="16.76" y1="40.71" x2="56.73" y2="40.71"/><line class="cls-6" x1="16.76" y1="49.08" x2="56.73" y2="49.08"/></g><path class="cls-8" d="M49.06,15.53v-9h6.69c1.37,0,1.5.13,1.5,1.5v7.5Z"/><path class="cls-9" d="M55.76,7a3.25,3.25,0,0,1,.9.08h0a2.18,2.18,0,0,1,.1.92v7H49.56V7h6.19m0-1H48.56V16h9.19V8c0-1.65-.35-2-2-2Z"/><path class="cls-8" d="M16.26,15.53V8c0-1.37.13-1.5,1.5-1.5h6.69v9Z"/><path class="cls-9" d="M24,7v8H16.76V8a3.29,3.29,0,0,1,.08-.9,2.18,2.18,0,0,1,.92-.1H24m1-1H17.76c-1.65,0-2,.35-2,2v8H25V6Z"/><rect class="cls-8" x="40.86" y="6.53" width="8.19" height="9"/><path class="cls-9" d="M48.54,7v8H41.36V7h7.18m1-1H40.36V16h9.19V6Z"/><rect class="cls-8" x="32.67" y="6.53" width="8.19" height="9"/><path class="cls-9" d="M40.36,7v8H33.17V7h7.18m1-1H32.17V16h9.19V6Z"/><rect class="cls-8" x="24.48" y="6.53" width="8.17" height="9"/><path class="cls-9" d="M32.15,7v8H25V7h7.17m1-1H24V16h9.18V6Z"/><text class="cls-10" transform="translate(18.98 33.55)">WORK<tspan class="cls-11"><tspan x="-0.42" y="12">T</tspan><tspan class="cls-12" x="5.78" y="12">ABLE</tspan></tspan></text></svg>