<svg width="96" height="96" viewBox="0 0 96 96" fill="none" xmlns="http://www.w3.org/2000/svg">
<path fill-rule="evenodd" clip-rule="evenodd" d="M30.1389 64.2311H6.13892V61.2311H30.1389V64.2311Z" fill="#AAAAAA"/>
<circle cx="6.01389" cy="62.6339" r="3.01389" fill="#AAAAAA"/>
<path fill-rule="evenodd" clip-rule="evenodd" d="M30.1389 45.2311H6.13892V42.2311H30.1389V45.2311Z" fill="#AAAAAA"/>
<circle cx="6.01389" cy="43.6339" r="3.01389" fill="#AAAAAA"/>
<path fill-rule="evenodd" clip-rule="evenodd" d="M30.1389 25.2311H6.13892V22.2311H30.1389V25.2311Z" fill="#AAAAAA"/>
<circle cx="6.01389" cy="23.6339" r="3.01389" fill="#AAAAAA"/>
<path d="M61.4974 15.62H22.8314C19.6521 15.62 17.0748 18.1973 17.0748 21.3766V25.6558C17.0748 28.8351 19.6521 31.4124 22.8314 31.4124H61.4974C64.6767 31.4124 67.254 28.8351 67.254 25.6558V21.3766C67.254 18.1973 64.6767 15.62 61.4974 15.62Z" fill="#F2F2F2"/>
<path d="M61.4974 17.9226C62.5107 17.9226 63.4826 18.3252 64.1991 19.0417C64.9156 19.7582 65.3182 20.7301 65.3182 21.7434V26.0736C65.3182 27.0869 64.9156 28.0587 64.1991 28.7753C63.4826 29.4918 62.5107 29.8943 61.4974 29.8943H22.7804C21.7671 29.8943 20.7953 29.4918 20.0787 28.7753C19.3622 28.0587 18.9597 27.0869 18.9597 26.0736V21.6415C18.9862 20.6459 19.4005 19.7001 20.1141 19.0055C20.8278 18.3108 21.7845 17.9223 22.7804 17.9226H61.4974ZM61.4974 14.1019H22.7804C20.7538 14.1019 18.8101 14.907 17.3771 16.34C15.944 17.7731 15.1389 19.7167 15.1389 21.7434V26.0736C15.1389 28.1002 15.944 30.0439 17.3771 31.4769C18.8101 32.91 20.7538 33.7151 22.7804 33.7151H61.4974C63.5241 33.7151 65.4677 32.91 66.9008 31.4769C68.3338 30.0439 69.1389 28.1002 69.1389 26.0736V21.6415C69.1389 19.6149 68.3338 17.6712 66.9008 16.2381C65.4677 14.8051 63.5241 14 61.4974 14V14.1019Z" fill="#AAAAAA"/>
<path d="M33.8352 23.7811H23.1371" stroke="#AAAAAA" stroke-width="0.75" stroke-miterlimit="1"/>
<path d="M22.7805 35.4981H61.4975C63.0242 35.4981 64.4884 36.1046 65.568 37.1842C66.6476 38.2638 67.2541 39.728 67.2541 41.2547V45.5849C67.2541 46.3385 67.1048 47.0846 66.8149 47.7802C66.525 48.4758 66.1002 49.107 65.5649 49.6375C65.0297 50.168 64.3947 50.5872 63.6966 50.871C62.9984 51.1547 62.251 51.2973 61.4975 51.2906H22.7805C22.0269 51.2906 21.2808 51.1413 20.5852 50.8514C19.8896 50.5615 19.2583 50.1367 18.7278 49.6014C18.1974 49.0662 17.7781 48.4312 17.4944 47.7331C17.2107 47.0349 17.0681 46.2875 17.0748 45.534V41.2547C17.0748 39.7368 17.6743 38.2802 18.7428 37.2021C19.8114 36.124 21.2626 35.5115 22.7805 35.4981Z" fill="#F2F2F2"/>
<path d="M61.4974 37.4407C62.5107 37.4407 63.4826 37.8433 64.1991 38.5598C64.9156 39.2764 65.3182 40.2482 65.3182 41.2615V45.5917C65.3182 46.605 64.9156 47.5768 64.1991 48.2934C63.4826 49.0099 62.5107 49.4124 61.4974 49.4124H22.7804C21.7671 49.4124 20.7953 49.0099 20.0787 48.2934C19.3622 47.5768 18.9597 46.605 18.9597 45.5917V41.2615C18.9597 40.2482 19.3622 39.2764 20.0787 38.5598C20.7953 37.8433 21.7671 37.4407 22.7804 37.4407H61.4974ZM61.4974 33.62H22.7804C20.7538 33.62 18.8101 34.4251 17.3771 35.8581C15.944 37.2912 15.1389 39.2348 15.1389 41.2615V45.5917C15.1389 47.6183 15.944 49.562 17.3771 50.9951C18.8101 52.4281 20.7538 53.2332 22.7804 53.2332H61.4974C63.5241 53.2332 65.4677 52.4281 66.9008 50.9951C68.3338 49.562 69.1389 47.6183 69.1389 45.5917V41.2615C69.1389 39.2348 68.3338 37.2912 66.9008 35.8581C65.4677 34.4251 63.5241 33.62 61.4974 33.62Z" fill="#7B7B97"/>
<path d="M33.8352 43.3943H23.1371" stroke="#7B7B97" stroke-width="0.75" stroke-miterlimit="1"/>
<path d="M22.7804 54.6202H61.4974C63.0106 54.6202 64.4619 55.2214 65.5319 56.2914C66.6019 57.3614 67.203 58.8126 67.203 60.3259V64.6561C67.2098 65.4096 67.0672 66.157 66.7834 66.8552C66.4997 67.5533 66.0805 68.1883 65.55 68.7236C65.0195 69.2588 64.3883 69.6836 63.6927 69.9735C62.9971 70.2635 62.251 70.4127 61.4974 70.4127H22.7804C21.2537 70.4127 19.7894 69.8062 18.7099 68.7266C17.6303 67.647 17.0238 66.1828 17.0238 64.6561V60.3259C17.0238 59.5723 17.173 58.8262 17.4629 58.1306C17.7529 57.435 18.1777 56.8037 18.7129 56.2733C19.2482 55.7428 19.8832 55.3236 20.5813 55.0398C21.2794 54.7561 22.0269 54.6135 22.7804 54.6202Z" fill="#F2F2F2"/>
<path d="M61.4974 57.0472C62.5107 57.0472 63.4826 57.4497 64.1991 58.1662C64.9156 58.8828 65.3182 59.8546 65.3182 60.8679V65.1981C65.3182 66.2114 64.9156 67.1833 64.1991 67.8998C63.4826 68.6163 62.5107 69.0189 61.4974 69.0189H22.7804C21.7671 69.0189 20.7953 68.6163 20.0787 67.8998C19.3622 67.1833 18.9597 66.2114 18.9597 65.1981V60.8679C18.9597 59.8546 19.3622 58.8828 20.0787 58.1662C20.7953 57.4497 21.7671 57.0472 22.7804 57.0472H61.4974ZM61.4974 53.2264H22.7804C20.7538 53.2264 18.8101 54.0315 17.3771 55.4646C15.944 56.8976 15.1389 58.8413 15.1389 60.8679V65.1981C15.1389 67.2248 15.944 69.1684 17.3771 70.6015C18.8101 72.0345 20.7538 72.8396 22.7804 72.8396H61.4974C63.5241 72.8396 65.4677 72.0345 66.9008 70.6015C68.3338 69.1684 69.1389 67.2248 69.1389 65.1981V60.8679C69.1389 58.8413 68.3338 56.8976 66.9008 55.4646C65.4677 54.0315 63.5241 53.2264 61.4974 53.2264Z" fill="#AAAAAA"/>
<path d="M33.8352 63.0075H23.1371" stroke="#AAAAAA" stroke-width="0.75" stroke-miterlimit="1"/>
<path fill-rule="evenodd" clip-rule="evenodd" d="M30.1389 55.2311H6.13892V52.2311H30.1389V55.2311Z" fill="#AAAAAA"/>
<circle cx="6.01389" cy="53.6339" r="3.01389" fill="#AAAAAA"/>
<path fill-rule="evenodd" clip-rule="evenodd" d="M30.1389 35.2311H6.13892V32.2311H30.1389V35.2311Z" fill="#AAAAAA"/>
<circle cx="6.01389" cy="33.6339" r="3.01389" fill="#AAAAAA"/>
<path fill-rule="evenodd" clip-rule="evenodd" d="M5.13892 81.62L5.13891 15.62L7.13892 15.62L7.13892 81.62L5.13892 81.62Z" fill="#AAAAAA"/>
<path fill-rule="evenodd" clip-rule="evenodd" d="M30.1389 74.2311H6.13892V71.2311H30.1389V74.2311Z" fill="#AAAAAA"/>
<circle cx="6.01389" cy="72.6339" r="3.01389" fill="#AAAAAA"/>
<path d="M71.4974 25.62H32.8314C29.6521 25.62 27.0748 28.1973 27.0748 31.3766V35.6558C27.0748 38.8351 29.6521 41.4124 32.8314 41.4124H71.4974C74.6767 41.4124 77.254 38.8351 77.254 35.6558V31.3766C77.254 28.1973 74.6767 25.62 71.4974 25.62Z" fill="#F2F2F2"/>
<path d="M71.4974 27.9226C72.5107 27.9226 73.4826 28.3252 74.1991 29.0417C74.9156 29.7582 75.3182 30.7301 75.3182 31.7434V36.0736C75.3182 37.0869 74.9156 38.0587 74.1991 38.7753C73.4826 39.4918 72.5107 39.8943 71.4974 39.8943H32.7804C31.7671 39.8943 30.7953 39.4918 30.0787 38.7753C29.3622 38.0587 28.9597 37.0869 28.9597 36.0736V31.6415C28.9862 30.6459 29.4005 29.7001 30.1141 29.0055C30.8278 28.3108 31.7845 27.9223 32.7804 27.9226H71.4974ZM71.4974 24.1019H32.7804C30.7538 24.1019 28.8101 24.907 27.3771 26.34C25.944 27.7731 25.1389 29.7167 25.1389 31.7434V36.0736C25.1389 38.1002 25.944 40.0439 27.3771 41.4769C28.8101 42.91 30.7538 43.7151 32.7804 43.7151H71.4974C73.5241 43.7151 75.4677 42.91 76.9008 41.4769C78.3338 40.0439 79.1389 38.1002 79.1389 36.0736V31.6415C79.1389 29.6149 78.3338 27.6712 76.9008 26.2381C75.4677 24.8051 73.5241 24 71.4974 24V24.1019Z" fill="#AAAAAA"/>
<path d="M43.8352 33.7811H33.1371" stroke="#AAAAAA" stroke-width="0.75" stroke-miterlimit="1"/>
<path d="M32.7805 45.62H71.4975C73.0242 45.62 74.4884 46.2265 75.568 47.3061C76.6476 48.3856 77.2541 49.8499 77.2541 51.3766V55.7068C77.2541 56.4604 77.1048 57.2065 76.8149 57.9021C76.525 58.5977 76.1002 59.2289 75.5649 59.7594C75.0297 60.2899 74.3947 60.7091 73.6966 60.9928C72.9984 61.2766 72.251 61.4192 71.4975 61.4124H32.7805C32.0269 61.4125 31.2808 61.2632 30.5852 60.9733C29.8896 60.6834 29.2583 60.2586 28.7278 59.7233C28.1974 59.1881 27.7781 58.5531 27.4944 57.855C27.2107 57.1568 27.0681 56.4094 27.0748 55.6558V51.3766C27.0748 49.8586 27.6743 48.4021 28.7428 47.324C29.8114 46.2459 31.2626 45.6334 32.7805 45.62Z" fill="#F2F2F2"/>
<path d="M71.4974 47.383C72.5107 47.383 73.4826 47.7856 74.1991 48.5021C74.9156 49.2186 75.3182 50.1904 75.3182 51.2038V55.534C75.3182 56.5473 74.9156 57.5191 74.1991 58.2356C73.4826 58.9522 72.5107 59.3547 71.4974 59.3547H32.7804C31.7671 59.3547 30.7953 58.9522 30.0787 58.2356C29.3622 57.5191 28.9597 56.5473 28.9597 55.534V51.2038C28.9597 50.1904 29.3622 49.2186 30.0787 48.5021C30.7953 47.7856 31.7671 47.383 32.7804 47.383H71.4974ZM71.4974 43.5623H32.7804C30.7538 43.5623 28.8101 44.3673 27.3771 45.8004C25.944 47.2335 25.1389 49.1771 25.1389 51.2038V55.534C25.1389 57.5606 25.944 59.5043 27.3771 60.9373C28.8101 62.3704 30.7538 63.1755 32.7804 63.1755H71.4974C73.5241 63.1755 75.4677 62.3704 76.9008 60.9373C78.3338 59.5043 79.1389 57.5606 79.1389 55.534V51.2038C79.1389 49.1771 78.3338 47.2335 76.9008 45.8004C75.4677 44.3673 73.5241 43.5623 71.4974 43.5623Z" fill="#7B7B97"/>
<path d="M43.8352 53.3943H33.1371" stroke="#7B7B97" stroke-width="0.75" stroke-miterlimit="1"/>
<path d="M32.7804 64.6202H71.4974C73.0106 64.6202 74.4619 65.2214 75.5319 66.2914C76.6019 67.3614 77.203 68.8126 77.203 70.3259V74.6561C77.2098 75.4096 77.0672 76.157 76.7834 76.8552C76.4997 77.5533 76.0805 78.1883 75.55 78.7236C75.0195 79.2588 74.3883 79.6836 73.6927 79.9735C72.9971 80.2635 72.251 80.4127 71.4974 80.4127H32.7804C31.2537 80.4127 29.7894 79.8062 28.7099 78.7266C27.6303 77.647 27.0238 76.1828 27.0238 74.6561V70.3259C27.0238 69.5723 27.173 68.8262 27.4629 68.1306C27.7529 67.435 28.1777 66.8037 28.7129 66.2733C29.2482 65.7428 29.8832 65.3236 30.5813 65.0398C31.2794 64.7561 32.0269 64.6135 32.7804 64.6202Z" fill="#F2F2F2"/>
<path d="M71.4974 67.0472C72.5107 67.0472 73.4826 67.4497 74.1991 68.1662C74.9156 68.8828 75.3182 69.8546 75.3182 70.8679V75.1981C75.3182 76.2114 74.9156 77.1833 74.1991 77.8998C73.4826 78.6163 72.5107 79.0189 71.4974 79.0189H32.7804C31.7671 79.0189 30.7953 78.6163 30.0787 77.8998C29.3622 77.1833 28.9597 76.2114 28.9597 75.1981V70.8679C28.9597 69.8546 29.3622 68.8828 30.0787 68.1662C30.7953 67.4497 31.7671 67.0472 32.7804 67.0472H71.4974ZM71.4974 63.2264H32.7804C30.7538 63.2264 28.8101 64.0315 27.3771 65.4646C25.944 66.8976 25.1389 68.8413 25.1389 70.8679V75.1981C25.1389 77.2248 25.944 79.1684 27.3771 80.6015C28.8101 82.0345 30.7538 82.8396 32.7804 82.8396H71.4974C73.5241 82.8396 75.4677 82.0345 76.9008 80.6015C78.3338 79.1684 79.1389 77.2248 79.1389 75.1981V70.8679C79.1389 68.8413 78.3338 66.8976 76.9008 65.4646C75.4677 64.0315 73.5241 63.2264 71.4974 63.2264Z" fill="#AAAAAA"/>
<path d="M43.8352 73.0075H33.1371" stroke="#AAAAAA" stroke-width="0.75" stroke-miterlimit="1"/>
<g clip-path="url(#clip0_70_311)">
<mask id="mask0_70_311" style="mask-type:luminance" maskUnits="userSpaceOnUse" x="60" y="50" width="33" height="33">
<path fill-rule="evenodd" clip-rule="evenodd" d="M60.1389 50.62H92.1389V82.62H60.1389V50.62Z" fill="white"/>
</mask>
<g mask="url(#mask0_70_311)">
<path d="M92.0149 66.558C92.0149 75.3603 84.8792 82.496 76.0769 82.496C67.2746 82.496 60.1389 75.3603 60.1389 66.558C60.1389 57.7557 67.2746 50.62 76.0769 50.62C84.8792 50.62 92.0149 57.7557 92.0149 66.558Z" fill="#FF3E00"/>
<path d="M85.64 65.7775C86.2389 65.1883 86.6161 64.3822 86.6161 63.5269C86.6161 61.9322 85.3059 60.7717 83.6898 60.9348L81.2325 61.1829C80.9735 61.209 80.7635 61.4373 80.7635 61.6929V65.9973V66.5423V70.8465C80.7635 71.1021 80.9735 71.2881 81.2325 71.262L83.6898 71.0139C85.3059 70.8508 86.6161 69.4258 86.6161 67.8311C86.6161 66.9759 86.2389 66.2458 85.64 65.7775Z" fill="white"/>
<path d="M70.9887 61.1831L68.5314 60.9348C66.9153 60.7715 65.6052 61.933 65.6052 63.5291C65.6052 64.3851 65.9823 65.192 66.5812 65.7817C65.9823 66.2504 65.6052 66.9811 65.6052 67.8371V67.8371C65.6052 69.4331 66.9153 70.8594 68.5314 71.0227L70.9887 71.2709C71.2477 71.2971 71.4576 71.1109 71.4576 70.8551V66.5471V66.0016V61.6936C71.4576 61.4378 71.2477 61.2092 70.9887 61.1831Z" fill="white"/>
<path d="M76.0832 63.2282H73.6266C73.3676 63.2282 73.1576 63.4386 73.1576 63.6981V70.0917V70.741C73.1576 71.0152 73.3463 71.2908 73.6185 71.2908H76.0839C76.0579 71.8033 75.356 72.4244 73.7101 72.6077L73.5234 72.6243C73.4124 72.6363 73.1576 72.6243 73.1576 73.1061V73.2339C73.1576 73.4936 73.3608 73.7219 73.62 73.7219H76.0769C77.693 73.7219 79.0101 72.1567 79.0101 70.5367V66.1623C79.0101 64.5418 77.6997 63.2282 76.0832 63.2282Z" fill="white"/>
</g>
<g clip-path="url(#clip1_70_311)">
<mask id="mask1_70_311" style="mask-type:luminance" maskUnits="userSpaceOnUse" x="60" y="50" width="33" height="33">
<path fill-rule="evenodd" clip-rule="evenodd" d="M60.1389 50.62H92.1389V82.62H60.1389V50.62Z" fill="white"/>
</mask>
<g mask="url(#mask1_70_311)">
<path d="M92.0149 66.558C92.0149 75.3603 84.8792 82.496 76.0769 82.496C67.2746 82.496 60.1389 75.3603 60.1389 66.558C60.1389 57.7557 67.2746 50.62 76.0769 50.62C84.8792 50.62 92.0149 57.7557 92.0149 66.558Z" fill="#0A8A8A"/>
<path d="M85.64 65.7775C86.2389 65.1883 86.6161 64.3822 86.6161 63.5269C86.6161 61.9322 85.3059 60.7717 83.6898 60.9348L81.2325 61.1829C80.9735 61.209 80.7635 61.4373 80.7635 61.6929V65.9973V66.5423V70.8465C80.7635 71.1021 80.9735 71.2881 81.2325 71.262L83.6898 71.0139C85.3059 70.8508 86.6161 69.4258 86.6161 67.8311C86.6161 66.9759 86.2389 66.2458 85.64 65.7775Z" fill="#0A8A8A"/>
<path d="M70.9887 61.1831L68.5314 60.9348C66.9153 60.7715 65.6052 61.933 65.6052 63.5291C65.6052 64.3851 65.9823 65.192 66.5812 65.7817C65.9823 66.2504 65.6052 66.9811 65.6052 67.8371V67.8371C65.6052 69.4331 66.9153 70.8594 68.5314 71.0227L70.9887 71.2709C71.2477 71.2971 71.4576 71.1109 71.4576 70.8551V66.5471V66.0016V61.6936C71.4576 61.4378 71.2477 61.2092 70.9887 61.1831Z" fill="#0A8A8A"/>
<path d="M76.0832 63.2282H73.6266C73.3676 63.2282 73.1576 63.4386 73.1576 63.6981V70.0917V70.741C73.1576 71.0152 73.3463 71.2908 73.6185 71.2908H76.0839C76.0579 71.8033 75.356 72.4244 73.7101 72.6077L73.5234 72.6243C73.4124 72.6363 73.1576 72.6243 73.1576 73.1061V73.2339C73.1576 73.4936 73.3608 73.7219 73.62 73.7219H76.0769C77.693 73.7219 79.0101 72.1567 79.0101 70.5367V66.1623C79.0101 64.5418 77.6997 63.2282 76.0832 63.2282Z" fill="#0A8A8A"/>
</g>
<path d="M82.3261 64.2102V64.2126C82.0741 64.2044 81.8222 64.2149 81.5725 64.2452C81.5968 64.0447 81.6095 63.8407 81.6095 63.6331C81.6083 60.8643 79.3834 58.62 76.6383 58.62C73.8933 58.62 71.6683 60.8643 71.6683 63.6331C71.6683 63.8395 71.681 64.0435 71.7053 64.2441C71.4545 64.2149 71.2025 64.2044 70.9517 64.2126C70.9517 64.2126 70.9517 64.2102 70.9517 64.2091C68.2795 64.2942 66.1389 66.5046 66.1389 69.2211C66.1389 71.9375 68.3639 74.2342 71.1089 74.2342C72.4196 74.2342 73.5951 73.7807 74.5001 72.8865L74.5024 72.8888L76.6568 70.7157C76.6684 70.7262 76.6788 70.7378 76.6892 70.7495C77.3076 71.3732 77.9132 72.0109 78.542 72.6253C79.5533 73.614 80.7369 74.2354 82.1689 74.2354C84.914 74.2354 87.1389 71.9911 87.1389 69.2222C87.1389 66.4533 84.9983 64.2953 82.3273 64.2114M76.6383 60.7092C78.2391 60.7092 79.5371 62.0184 79.5371 63.6331C79.5371 64.3956 79.247 65.0905 78.7731 65.6116L76.658 67.7987L74.514 65.6244C74.0331 65.1021 73.7384 64.4026 73.7384 63.6343C73.7384 62.0196 75.0364 60.7104 76.6372 60.7104M73.172 71.3173C72.5791 71.8069 71.8879 72.145 71.1089 72.145C69.5081 72.145 68.2101 70.8358 68.2101 69.2211C68.2101 68.0039 68.9475 66.9605 69.9959 66.521C70.0086 66.521 70.0213 66.5186 70.0329 66.514C71.1667 66.05 72.3584 66.3741 73.2056 67.2228C73.8829 67.9013 74.5556 68.5845 75.2282 69.2689C75.004 69.5358 73.3073 71.2065 73.172 71.3184M82.1678 72.145C81.4454 72.145 80.7866 71.9083 80.2792 71.4688C80.2745 71.4653 80.2468 71.4385 80.2468 71.4385L78.0981 69.2595C78.2253 69.1301 80.1301 67.1937 80.5103 66.8182C81.3229 66.2493 82.3596 66.1467 83.2531 66.5128C83.2623 66.5163 83.2704 66.5186 83.2797 66.5186C84.3291 66.9581 85.0665 68.0027 85.0665 69.2199C85.0665 70.8346 83.7686 72.1438 82.1666 72.1438" fill="white"/>
</g>
</g>
<defs>
<clipPath id="clip0_70_311">
<rect width="32" height="32" fill="white" transform="translate(60.1389 50.62)"/>
</clipPath>
<clipPath id="clip1_70_311">
<rect width="32" height="32" fill="white" transform="translate(60.1389 50.62)"/>
</clipPath>
</defs>
</svg>
