<svg id="Layer_1" data-name="Layer 1" xmlns="http://www.w3.org/2000/svg" viewBox="0 0 16 16"><defs><style>.cls-1{fill:#def4fd;}.cls-2{fill:#717f8e;}.cls-3,.cls-5,.cls-6{fill:none;stroke-width:0.75px;}.cls-3{stroke:#717f8e;stroke-linecap:round;}.cls-3,.cls-5{stroke-linejoin:round;}.cls-4{fill:#34495e;}.cls-5{stroke:#c1cbd5;}.cls-6{stroke:#2880b9;stroke-miterlimit:10;}.cls-7{fill:#2880b9;}</style></defs><title>coll-partition</title><path class="cls-1" d="M2,13.63A.63.63,0,0,1,1.38,13V11.63l8.25,0V13a.63.63,0,0,1-.62.63Z"/><path class="cls-2" d="M1.75,12l7.5,0v1a.25.25,0,0,1-.25.25H2A.25.25,0,0,1,1.75,13V12M1,11.25V13a1,1,0,0,0,1,1H9a1,1,0,0,0,1-1V11.28l-9,0Z"/><path class="cls-1" d="M1.38,7.63V4A.63.63,0,0,1,2,3.38H9A.63.63,0,0,1,9.63,4V7.63Z"/><path class="cls-2" d="M9,3.75A.25.25,0,0,1,9.25,4V7.25H1.75V4A.25.25,0,0,1,2,3.75H9M9,3H2A1,1,0,0,0,1,4V8h9V4A1,1,0,0,0,9,3Z"/><polygon class="cls-1" points="1.38 7.63 1.38 5.63 9.63 5.66 9.63 7.63 1.38 7.63"/><path class="cls-2" d="M1.75,6l7.5,0V7.25H1.75V6M1,5.25V8h9V5.28l-9,0Z"/><polygon class="cls-1" points="1.38 11.63 1.38 9.63 9.63 9.65 9.63 11.63 1.38 11.63"/><path class="cls-2" d="M1.75,10l7.5,0v1.22H1.75V10M1,9.25V12h9V9.28l-9,0Z"/><line class="cls-3" x1="5.5" y1="3.39" x2="5.5" y2="7.55"/><line class="cls-3" x1="5.5" y1="10.08" x2="5.5" y2="13.55"/><polygon class="cls-1" points="3.38 11.63 3.38 9.63 11.63 9.65 11.63 11.63 3.38 11.63"/><path class="cls-4" d="M3.75,10l7.5,0v1.22H3.75V10M3,9.25V12h9V9.28l-9,0Z"/><path class="cls-1" d="M3,8V4A1,1,0,0,1,4,3h7a1,1,0,0,1,1,1V8Z"/><line class="cls-5" x1="7.5" y1="6" x2="7.5" y2="7.5"/><path class="cls-4" d="M3.75,6l7.5,0V7.25H3.75V6M3,5.25V8h9V5.28l-9,0Z"/><line class="cls-6" x1="7.5" y1="3" x2="7.5" y2="6"/><path class="cls-7" d="M11,3.75a.25.25,0,0,1,.25.25V5.25H3.75V4A.25.25,0,0,1,4,3.75h7M11,3H4A1,1,0,0,0,3,4V6h9V4a1,1,0,0,0-1-1Z"/><path class="cls-1" d="M11,14H4a1,1,0,0,1-1-1V12h9v1A1,1,0,0,1,11,14Z"/><line class="cls-5" x1="7.5" y1="12" x2="7.5" y2="13.47"/><line class="cls-5" x1="7.5" y1="10" x2="7.5" y2="12.47"/><path class="cls-4" d="M3.75,12l7.5,0v1a.25.25,0,0,1-.25.25H4A.25.25,0,0,1,3.75,13V12M3,11.25V13a1,1,0,0,0,1,1h7a1,1,0,0,0,1-1V11.28l-9,0Z"/></svg>