<?xml version="1.0" encoding="utf-8"?>
<!-- Generator: Adobe Illustrator 24.0.3, SVG Export Plug-In . SVG Version: 6.00 Build 0)  -->
<svg version="1.1" id="Layer_1" xmlns="http://www.w3.org/2000/svg" xmlns:xlink="http://www.w3.org/1999/xlink" x="0px" y="0px"
	 viewBox="0 0 16 16" style="enable-background:new 0 0 16 16;" xml:space="preserve">
<style type="text/css">
	.st0{fill:#F2F2F2;}
	.st1{fill:none;stroke:#C1CBD5;stroke-width:0.75;stroke-linejoin:round;}
	.st2{fill:#2195E7;}
</style>
<title>partition</title>
<g>
	<g id="_2_1_">
		<path class="st0" d="M0.5,7V1c0-0.6,0.4-1,1-1h9c0.6,0,1,0.4,1,1v6H0.5z"/>
		<line class="st1" x1="6" y1="4" x2="6" y2="6.5"/>
		<g>
			<path class="st2" d="M10.5,0H6.4H5.6H1.5c-0.6,0-1,0.4-1,1v2.2l0,0V4v3h11V4V3.3V1C11.5,0.4,11.1,0,10.5,0z M10.5,0.8
				c0.1,0,0.2,0.1,0.2,0.2v2.2H6.4V0.8H10.5z M1.2,1c0-0.1,0.1-0.2,0.2-0.2h4.1v2.5H1.2V1z M10.8,6.2H1.2V4h4.4h0.8h4.4
				C10.8,4,10.8,6.2,10.8,6.2z"/>
		</g>
	</g>
	<g id="_2">
		<path class="st0" d="M2.5,9V3c0-0.6,0.4-1,1-1h9c0.6,0,1,0.4,1,1v6H2.5z"/>
		<line class="st1" x1="8" y1="6" x2="8" y2="8.5"/>
		<path class="st0" d="M12.5,14h-9c-0.6,0-1-0.4-1-1v-2h11v2C13.5,13.6,13.1,14,12.5,14z"/>
		<line class="st1" x1="8" y1="10.5" x2="8" y2="13.5"/>
		<g>
			<path class="st2" d="M12.5,2H8.4H7.6H3.5c-0.6,0-1,0.4-1,1v2.2l0,0V6v3h11V6V5.3V3C13.5,2.4,13.1,2,12.5,2z M12.5,2.8
				c0.1,0,0.2,0.1,0.2,0.2v2.2H8.4V2.8H12.5z M3.2,3c0-0.1,0.1-0.2,0.2-0.2h4.1v2.5H3.2V3z M12.8,8.2H3.2V6h4.4h0.8h4.4
				C12.8,6,12.8,8.2,12.8,8.2z"/>
			<path class="st2" d="M2.5,13c0,0.6,0.4,1,1,1h9c0.6,0,1-0.4,1-1v-2.7h-11V13z M3.2,11h9.5v2c0,0.1-0.1,0.2-0.2,0.2h-9
				c-0.1,0-0.2-0.1-0.2-0.2L3.2,11L3.2,11z"/>
		</g>
	</g>
</g>
</svg>
