<svg xmlns="http://www.w3.org/2000/svg" viewBox="0 0 16 16"><defs><style>.cls-1{fill:#def4fd;}.cls-2{fill:#717f8e;}.cls-3,.cls-5,.cls-6{fill:none;stroke-width:0.75px;}.cls-3{stroke:#717f8e;stroke-linecap:round;}.cls-3,.cls-5{stroke-linejoin:round;}.cls-4{fill:#2195e7;}.cls-5{stroke:#c1cbd5;}.cls-6{stroke:#2195e7;stroke-miterlimit:10;}</style></defs><title>coll-partition</title><g id="_2" data-name="2"><path class="cls-1" d="M3.5,13.13a.63.63,0,0,1-.62-.62V11.13l8.25,0V12.5a.63.63,0,0,1-.62.63Z"/><path class="cls-2" d="M3.25,11.5l7.5,0v1a.25.25,0,0,1-.25.25h-7a.25.25,0,0,1-.25-.25v-1m-.75-.75V12.5a1,1,0,0,0,1,1h7a1,1,0,0,0,1-1V10.78l-9,0Z"/><path class="cls-1" d="M2.88,7.13V3.5a.63.63,0,0,1,.63-.62h7a.63.63,0,0,1,.63.63V7.13Z"/><path class="cls-2" d="M10.5,3.25a.25.25,0,0,1,.25.25V6.75H3.25V3.5a.25.25,0,0,1,.25-.25h7m0-.75h-7a1,1,0,0,0-1,1v4h9v-4a1,1,0,0,0-1-1Z"/><polygon class="cls-1" points="2.88 7.13 2.88 5.13 11.13 5.16 11.13 7.13 2.88 7.13"/><path class="cls-2" d="M3.25,5.5l7.5,0V6.75H3.25V5.5M2.5,4.75V7.5h9V4.78l-9,0Z"/><polygon class="cls-1" points="2.88 11.13 2.88 9.13 11.13 9.15 11.13 11.13 2.88 11.13"/><path class="cls-2" d="M3.25,9.5l7.5,0v1.22H3.25V9.5M2.5,8.75V11.5h9V8.78l-9,0Z"/><line class="cls-3" x1="7" y1="2.89" x2="7" y2="7.05"/><line class="cls-3" x1="7" y1="9.58" x2="7" y2="13.05"/><polygon class="cls-1" points="4.88 11.13 4.88 9.13 13.13 9.15 13.13 11.13 4.88 11.13"/><path class="cls-4" d="M5.25,9.5l7.5,0v1.22H5.25V9.5M4.5,8.75V11.5h9V8.78l-9,0Z"/><path class="cls-1" d="M4.5,7.5v-4a1,1,0,0,1,1-1h7a1,1,0,0,1,1,1v4Z"/><line class="cls-5" x1="9" y1="5.5" x2="9" y2="7"/><path class="cls-4" d="M5.25,5.5l7.5,0V6.75H5.25V5.5M4.5,4.75V7.5h9V4.78l-9,0Z"/><line class="cls-6" x1="9" y1="2.5" x2="9" y2="5.5"/><path class="cls-4" d="M12.5,3.25a.25.25,0,0,1,.25.25V4.75H5.25V3.5a.25.25,0,0,1,.25-.25h7m0-.75h-7a1,1,0,0,0-1,1v2h9v-2a1,1,0,0,0-1-1Z"/><path class="cls-1" d="M12.5,13.5h-7a1,1,0,0,1-1-1v-1h9v1A1,1,0,0,1,12.5,13.5Z"/><line class="cls-5" x1="9" y1="11.5" x2="9" y2="12.97"/><line class="cls-5" x1="9" y1="9.5" x2="9" y2="11.97"/><path class="cls-4" d="M5.25,11.5l7.5,0v1a.25.25,0,0,1-.25.25h-7a.25.25,0,0,1-.25-.25v-1m-.75-.75V12.5a1,1,0,0,0,1,1h7a1,1,0,0,0,1-1V10.78l-9,0Z"/></g></svg>