<svg id="Layer_1" data-name="Layer 1" xmlns="http://www.w3.org/2000/svg" viewBox="0 0 16 16"><defs><style>.cls-1{fill:#def4fd;}.cls-2,.cls-4{fill:none;stroke-width:0.75px;}.cls-2{stroke:#c1cbd5;stroke-linejoin:round;}.cls-3{fill:#34495e;}.cls-4{stroke:#2880b9;stroke-miterlimit:10;}.cls-5{fill:#2880b9;}</style></defs><title>partition</title><path class="cls-1" d="M1,9V3A1,1,0,0,1,2,2h9a1,1,0,0,1,1,1V9Z"/><line class="cls-2" x1="6.5" y1="6" x2="6.5" y2="8.5"/><path class="cls-3" d="M1.75,6l9.5,0V8.25H1.75V6M1,5.25V9H12V5.28l-11,0Z"/><line class="cls-4" x1="6.5" y1="2" x2="6.5" y2="6"/><path class="cls-5" d="M11,2.75a.25.25,0,0,1,.25.25V5.25H1.75V3A.25.25,0,0,1,2,2.75h9M11,2H2A1,1,0,0,0,1,3V6H12V3a1,1,0,0,0-1-1Z"/><path class="cls-1" d="M11,14H2a1,1,0,0,1-1-1V11H12v2A1,1,0,0,1,11,14Z"/><line class="cls-2" x1="6.5" y1="10.5" x2="6.5" y2="13.47"/><path class="cls-3" d="M1.75,11l9.5,0v2a.25.25,0,0,1-.25.25H2A.25.25,0,0,1,1.75,13V11M1,10.25V13a1,1,0,0,0,1,1h9a1,1,0,0,0,1-1V10.28l-11,0Z"/></svg>