<svg xmlns="http://www.w3.org/2000/svg" viewBox="0 0 16 16"><defs><style>.cls-1{fill:#f2f2f2;}.cls-2,.cls-4{fill:none;stroke-width:0.75px;}.cls-2{stroke:#c1cbd5;stroke-linejoin:round;}.cls-3{fill:#2195e7;}.cls-4{stroke:#2195e7;stroke-miterlimit:10;}</style></defs><title>partition</title><g id="_2" data-name="2"><path class="cls-1" d="M2.5,9V3a1,1,0,0,1,1-1h9a1,1,0,0,1,1,1V9Z"/><line class="cls-2" x1="8" y1="6" x2="8" y2="8.5"/><path class="cls-3" d="M3.25,6l9.5,0V8.25H3.25V6M2.5,5.25V9h11V5.28l-11,0Z"/><line class="cls-4" x1="8" y1="2" x2="8" y2="6"/><path class="cls-3" d="M12.5,2.75a.25.25,0,0,1,.25.25V5.25H3.25V3a.25.25,0,0,1,.25-.25h9m0-.75h-9a1,1,0,0,0-1,1V6h11V3a1,1,0,0,0-1-1Z"/><path class="cls-1" d="M12.5,14h-9a1,1,0,0,1-1-1V11h11v2A1,1,0,0,1,12.5,14Z"/><line class="cls-2" x1="8" y1="10.5" x2="8" y2="13.47"/><path class="cls-3" d="M3.25,11l9.5,0v2a.25.25,0,0,1-.25.25h-9A.25.25,0,0,1,3.25,13V11m-.75-.75V13a1,1,0,0,0,1,1h9a1,1,0,0,0,1-1V10.28l-11,0Z"/></g></svg>