<?xml version="1.0" encoding="utf-8"?>
<!-- Generator: Adobe Illustrator 24.0.3, SVG Export Plug-In . SVG Version: 6.00 Build 0)  -->
<svg version="1.1" id="Layer_1" xmlns="http://www.w3.org/2000/svg" xmlns:xlink="http://www.w3.org/1999/xlink" x="0px" y="0px"
	 viewBox="0 0 16 16" style="enable-background:new 0 0 16 16;" xml:space="preserve">
<style type="text/css">
	.st0{fill:#F2F2F2;}
	.st1{fill:none;stroke:#C1CBD5;stroke-width:0.75;stroke-linejoin:round;}
	.st2{fill:#2195E7;}
	.st3{fill:#F2F2F2;stroke:#34495E;stroke-width:0.5;stroke-linejoin:bevel;stroke-miterlimit:10;}
	.st4{fill:#34495E;}
</style>
<title>partition</title>
<g>
	<path class="st0" d="M2.5,10.1v-6c0-0.6,0.4-1,1-1h9c0.6,0,1,0.4,1,1v6H2.5z"/>
	<line class="st1" x1="8" y1="7.1" x2="8" y2="9.6"/>
	<path class="st2" d="M12.5,3.1H8.4H7.6H3.5c-0.6,0-1,0.4-1,1v2.2l0,0v0.8v3h11v-3V6.4V4.1C13.5,3.5,13.1,3.1,12.5,3.1z M12.5,3.9
		c0.1,0,0.2,0.1,0.2,0.2v2.2H8.4V3.9H12.5z M3.2,4.1c0-0.1,0.1-0.2,0.2-0.2h4.1v2.5H3.2V4.1z M12.8,9.3H3.2V7.1h4.4h0.8h4.4
		C12.8,7.1,12.8,9.3,12.8,9.3z"/>
	<g>
		<path class="st0" d="M12.5,14.5h-9c-0.6,0-1-0.4-1-1v-2h11v2C13.5,14.1,13.1,14.5,12.5,14.5z"/>
		<line class="st1" x1="8" y1="11" x2="8" y2="14"/>
		<path class="st2" d="M2.5,13.5c0,0.6,0.4,1,1,1h9c0.6,0,1-0.4,1-1v-2.7h-11V13.5z M3.2,11.5h9.5v2c0,0.1-0.1,0.2-0.2,0.2h-9
			c-0.1,0-0.2-0.1-0.2-0.2L3.2,11.5L3.2,11.5z"/>
	</g>
	<path class="st3" d="M5,8.5C3,8.5,1.4,6.9,1.4,5C1.4,3,3,1.5,5,1.5C6.9,1.5,8.5,3,8.5,5C8.5,6.9,6.9,8.5,5,8.5L5,8.5z"/>
	<path class="st4" d="M5.4,3.1H4.6l0,0H3.8v4h0.8V5.7h0.8c0.7,0,1.3-0.6,1.3-1.3S6.1,3.1,5.4,3.1z M5.4,5H4.6V3.8h0.9
		c0.3,0,0.6,0.3,0.6,0.6S5.8,5,5.4,5z"/>
</g>
</svg>
