<svg xmlns="http://www.w3.org/2000/svg" viewBox="0 0 16 16"><defs><style>.cls-1{fill:#efa539;}.cls-2{fill:#2f91a3;}</style></defs><title>coll_compound_trigger</title><g id="_10" data-name="10"><path class="cls-1" d="M2.75,12.5H4.82l0,1.7a.51.51,0,0,0,.31.47.65.65,0,0,0,.19,0,.5.5,0,0,0,.35-.14l2.51-2.42a.53.53,0,0,0,.15-.37H2A.74.74,0,0,0,2.75,12.5Z"/><path class="cls-2" d="M8.3,11.52a.5.5,0,0,0-.13-.34L5.75,8.68a.51.51,0,0,0-.55-.12A.48.48,0,0,0,4.89,9l0,1.72H2.76a.74.74,0,0,0-.75.75v0Z"/><path class="cls-1" d="M2.75,5.26H4.82L4.79,7a.5.5,0,0,0,.31.46.45.45,0,0,0,.19.05.5.5,0,0,0,.35-.14L8.15,4.91a.51.51,0,0,0,.15-.37H2A.74.74,0,0,0,2.75,5.26Z"/><path class="cls-2" d="M8.3,4.29A.48.48,0,0,0,8.17,4L5.75,1.44a.51.51,0,0,0-.55-.11.48.48,0,0,0-.31.45l0,1.73H2.76A.74.74,0,0,0,2,4.26v0Z"/><path class="cls-1" d="M8.44,8.64h2.08l0,1.71a.47.47,0,0,0,.3.46.46.46,0,0,0,.2,0,.49.49,0,0,0,.34-.14L13.84,8.3A.51.51,0,0,0,14,7.92H7.7A.75.75,0,0,0,8.44,8.64Z"/><path class="cls-2" d="M14,7.67a.5.5,0,0,0-.13-.34L11.44,4.82a.51.51,0,0,0-.55-.11.49.49,0,0,0-.31.45l0,1.73H8.45a.74.74,0,0,0-.75.75v0Z"/></g></svg>