<svg xmlns="http://www.w3.org/2000/svg" viewBox="0 0 16 16"><defs><style>.cls-1{fill:#2f91a3;}.cls-2{fill:#efa539;}.cls-3{fill:none;stroke:#d0021b;stroke-linecap:round;stroke-linejoin:round;stroke-width:1.5px;}</style></defs><title>compud_trigger_disable</title><g id="_10" data-name="10"><path class="cls-1" d="M13,7.74a.5.5,0,0,0-.13-.25L8.79,3.22a.51.51,0,0,0-.55-.12.49.49,0,0,0-.31.46L7.87,6.77H3.94a1,1,0,0,0-1,1Z"/><path class="cls-2" d="M3,8.24a1,1,0,0,0,1,1H7.84l0,3.19a.47.47,0,0,0,.3.46.45.45,0,0,0,.2,0,.45.45,0,0,0,.34-.14l4.28-4.12A.52.52,0,0,0,13,8.21H3Z"/><line class="cls-3" x1="12.91" y1="2.46" x2="9.91" y2="5.46"/><line class="cls-3" x1="12.91" y1="5.46" x2="9.91" y2="2.46"/></g></svg>