<svg xmlns="http://www.w3.org/2000/svg" viewBox="0 0 16 16"><defs><style>.cls-1{fill:#cbdff1;}.cls-2,.cls-3,.cls-4,.cls-6{fill:none;stroke-linecap:round;stroke-linejoin:round;stroke-width:0.75px;}.cls-2{stroke:#717f8e;}.cls-3{stroke:#c42e2e;}.cls-4{stroke:#6f6f6f;}.cls-5{fill:#81602b;}.cls-6{stroke:#def4fd;}</style></defs><title>coll-domain_constraints</title><g id="_2" data-name="2"><polygon class="cls-1" points="10.53 12.08 3.31 12.15 3.31 6.62 6.95 2.84 10.6 6.48 10.53 12.08"/><line class="cls-2" x1="3.31" y1="6.48" x2="3.31" y2="12.15"/><line class="cls-2" x1="3.31" y1="12.15" x2="10.6" y2="12.15"/><line class="cls-2" x1="10.6" y1="12.15" x2="10.6" y2="6.48"/><line class="cls-3" x1="2.09" y1="7.7" x2="6.95" y2="2.84"/><line class="cls-3" x1="6.95" y1="2.84" x2="11.81" y2="7.7"/><polygon class="cls-1" points="12.63 13.09 5.4 13.16 5.4 7.63 9.05 3.85 12.69 7.49 12.63 13.09"/><line class="cls-4" x1="5.4" y1="7.49" x2="5.4" y2="13.16"/><line class="cls-4" x1="5.4" y1="13.16" x2="12.69" y2="13.16"/><line class="cls-4" x1="12.69" y1="13.16" x2="12.69" y2="7.49"/><line class="cls-3" x1="4.19" y1="8.71" x2="9.05" y2="3.85"/><line class="cls-3" x1="9.05" y1="3.85" x2="13.91" y2="8.71"/><circle class="cls-5" cx="9.05" cy="9.62" r="2.51"/><polyline class="cls-6" points="7.67 10.05 8.68 10.91 10.33 8.66"/></g></svg>