<svg id="Layer_1" data-name="Layer 1" xmlns="http://www.w3.org/2000/svg" viewBox="0 0 15.92 17"><defs><style>.cls-1{fill:#def4fd;}.cls-2,.cls-3,.cls-5{fill:none;stroke-linecap:round;stroke-linejoin:round;stroke-width:0.75px;}.cls-2{stroke:#717f8e;}.cls-3{stroke:#34495e;}.cls-4{fill:#34495e;}.cls-5{stroke:#def4fd;}</style></defs><title>coll-domain_constraints</title><polygon class="cls-1" points="9.56 13.53 1.54 13.62 1.54 7.47 5.59 3.27 9.64 7.32 9.56 13.53"/><line class="cls-2" x1="0.19" y1="8.66" x2="5.59" y2="3.26"/><line class="cls-2" x1="5.59" y1="3.26" x2="10.99" y2="8.66"/><line class="cls-2" x1="1.54" y1="7.31" x2="1.54" y2="13.61"/><line class="cls-2" x1="1.54" y1="13.61" x2="9.64" y2="13.61"/><line class="cls-2" x1="9.64" y1="13.61" x2="9.64" y2="7.31"/><polygon class="cls-1" points="12.71 13.53 4.69 13.62 4.69 7.47 8.74 3.27 12.79 7.32 12.71 13.53"/><line class="cls-3" x1="3.34" y1="8.66" x2="8.74" y2="3.26"/><line class="cls-3" x1="8.74" y1="3.26" x2="14.14" y2="8.66"/><line class="cls-3" x1="4.69" y1="7.31" x2="4.69" y2="13.61"/><line class="cls-3" x1="4.69" y1="13.61" x2="12.79" y2="13.61"/><line class="cls-3" x1="12.79" y1="13.61" x2="12.79" y2="7.31"/><circle class="cls-4" cx="8.74" cy="9.68" r="2.78"/><polyline class="cls-5" points="7.21 10.15 8.33 11.11 10.16 8.61"/></svg>