<svg width="28" height="28" viewBox="0 0 35 35" fill="none" xmlns="http://www.w3.org/2000/svg">
<path d="M22.7889 23.7914H29.698V21.2005C29.698 20.2469 29.3606 19.4327 28.6859 18.758C28.0112 18.0833 27.197 17.7459 26.2434 17.7459C25.2898 17.7459 24.4757 18.0833 23.801 18.758C23.1262 19.4327 22.7889 20.2469 22.7889 21.2005V23.7914ZM34.0162 25.0868V32.8596C34.0162 33.2194 33.8902 33.5253 33.6383 33.7772C33.3864 34.0291 33.0806 34.155 32.7207 34.155H19.7662C19.4063 34.155 19.1004 34.0291 18.8485 33.7772C18.5967 33.5253 18.4707 33.2194 18.4707 32.8596V25.0868C18.4707 24.727 18.5967 24.4211 18.8485 24.1692C19.1004 23.9173 19.4063 23.7914 19.7662 23.7914H20.198V21.2005C20.198 19.5452 20.7917 18.1238 21.9792 16.9363C23.1667 15.7488 24.5881 15.155 26.2434 15.155C27.8987 15.155 29.3201 15.7488 30.5076 16.9363C31.6951 18.1238 32.2889 19.5452 32.2889 21.2005V23.7914H32.7207C33.0806 23.7914 33.3864 23.9173 33.6383 24.1692C33.8902 24.4211 34.0162 24.727 34.0162 25.0868Z" fill="#222222"/>
<path fill-rule="evenodd" clip-rule="evenodd" d="M3.76927 3.76903V4.43862C3.76927 6.36825 4.77367 8.15876 6.42037 9.16467L14.3561 14.0123C14.9469 14.3732 15.6899 14.3732 16.2807 14.0123L24.2165 9.16467C25.8632 8.15876 26.8676 6.36825 26.8676 4.43862V3.76903H3.76927ZM2.84626 1C1.82673 1 1.00024 1.82649 1.00024 2.84602V4.43862C1.00024 7.33307 2.50684 10.0188 4.9769 11.5277L12.9126 16.3753C14.3896 17.2775 16.2472 17.2775 17.7242 16.3753L25.66 11.5277C28.13 10.0188 29.6366 7.33307 29.6366 4.43862V2.84602C29.6366 1.82649 28.8101 1 27.7906 1H2.84626Z" fill="#222222"/>
<path d="M4.69253 3.76903H25.9448C26.4546 3.76903 26.8678 4.18228 26.8678 4.69204V12.6043H29.6368V4.69204C29.6368 2.65298 27.9839 1 25.9448 1H4.69253C2.65347 1 1.00049 2.65298 1.00049 4.69204V19.7679C1.00049 21.8069 2.65347 23.4599 4.69253 23.4599H16.3483V20.6909H4.69253C4.18276 20.6909 3.76952 20.2776 3.76952 19.7679V4.69204C3.76952 4.18227 4.18276 3.76903 4.69253 3.76903Z" fill="#222222"/>
</svg>
