<svg width="30" height="30" viewBox="0 0 35 35" fill="none" xmlns="http://www.w3.org/2000/svg">
<path d="M22.0323 22.1865H28.9414V19.5956C28.9414 18.642 28.604 17.8279 27.9293 17.1532C27.2546 16.4784 26.4404 16.1411 25.4868 16.1411C24.5332 16.1411 23.7191 16.4784 23.0444 17.1532C22.3697 17.8279 22.0323 18.642 22.0323 19.5956V22.1865ZM33.2596 23.482V31.2547C33.2596 31.6146 33.1336 31.9204 32.8817 32.1723C32.6298 32.4242 32.324 32.5502 31.9641 32.5502H19.0096C18.6497 32.5502 18.3438 32.4242 18.092 32.1723C17.8401 31.9204 17.7141 31.6146 17.7141 31.2547V23.482C17.7141 23.1221 17.8401 22.8163 18.092 22.5644C18.3438 22.3125 18.6497 22.1865 19.0096 22.1865H19.4414V19.5956C19.4414 17.9403 20.0351 16.5189 21.2226 15.3314C22.4101 14.1439 23.8315 13.5502 25.4868 13.5502C27.1422 13.5502 28.5636 14.1439 29.7511 15.3314C30.9386 16.5189 31.5323 17.9403 31.5323 19.5956V22.1865H31.9641C32.324 22.1865 32.6298 22.3125 32.8817 22.5644C33.1336 22.8163 33.2596 23.1221 33.2596 23.482Z" fill="#222222"/>
<path d="M15.9998 16.4644V8.96441C15.9998 8.80816 15.9495 8.67981 15.8491 8.57936C15.7486 8.47892 15.6203 8.42869 15.464 8.42869H14.3926C14.2364 8.42869 14.108 8.47892 14.0076 8.57936C13.9071 8.67981 13.8569 8.80816 13.8569 8.96441V14.8573H10.1069C9.95065 14.8573 9.8223 14.9075 9.72185 15.0079C9.62141 15.1084 9.57118 15.2367 9.57118 15.393V16.4644C9.57118 16.6207 9.62141 16.749 9.72185 16.8495C9.8223 16.9499 9.95065 17.0001 10.1069 17.0001H15.464C15.6203 17.0001 15.7486 16.9499 15.8491 16.8495C15.9495 16.749 15.9998 16.6207 15.9998 16.4644Z" fill="#222222"/>
<path d="M22.1674 11.1073C22.0407 10.8291 21.8989 10.5557 21.7419 10.287C20.9272 8.89186 19.8223 7.78695 18.4272 6.97222C17.0321 6.15749 15.5087 5.75012 13.8569 5.75012C12.2051 5.75012 10.6817 6.15749 9.28659 6.97222C7.8915 7.78695 6.78659 8.89186 5.97185 10.287C5.15712 11.682 4.74976 13.2055 4.74976 14.8573C4.74976 16.5091 5.15712 18.0325 5.97185 19.4276C6.78659 20.8227 7.8915 21.9276 9.28659 22.7423C10.6817 23.557 12.2051 23.9644 13.8569 23.9644C14.2821 23.9644 14.6987 23.9374 15.1069 23.8834V27.6578C14.6962 27.6955 14.2795 27.7144 13.8569 27.7144C11.5243 27.7144 9.37308 27.1396 7.40322 25.9901C5.43335 24.8405 3.87364 23.2808 2.72409 21.3109C1.57453 19.3411 0.999756 17.1899 0.999756 14.8573C0.999756 12.5247 1.57453 10.3734 2.72409 8.40358C3.87364 6.43372 5.43335 4.87401 7.40322 3.72445C9.37308 2.5749 11.5243 2.00012 13.8569 2.00012C16.1895 2.00012 18.3407 2.5749 20.3106 3.72445C22.2804 4.87401 23.8402 6.43372 24.9897 8.40358C25.4952 9.26976 25.8895 10.171 26.1727 11.1073H22.1674Z" fill="#222222"/>
</svg>
