<svg xmlns="http://www.w3.org/2000/svg" viewBox="0 0 16 16"><defs><style>.cls-1{fill:#f2f2f2;}.cls-2,.cls-3,.cls-5{fill:none;stroke-width:0.75px;}.cls-2{stroke:#c1cbd5;}.cls-2,.cls-5{stroke-linejoin:round;}.cls-3,.cls-5{stroke:#2195e7;}.cls-3{stroke-miterlimit:10;}.cls-4{fill:#2195e7;}</style></defs><title>catalog_object</title><g id="_2" data-name="2"><rect class="cls-1" x="2.5" y="3" width="11" height="10" rx="1" ry="1"/><line class="cls-2" x1="8" y1="6" x2="8" y2="13"/><line class="cls-2" x1="3" y1="9.5" x2="13" y2="9.5"/><line class="cls-3" x1="8" y1="3" x2="8" y2="6.5"/><path class="cls-4" d="M12.5,3.75a.25.25,0,0,1,.25.25v8a.25.25,0,0,1-.25.25h-9A.25.25,0,0,1,3.25,12V4a.25.25,0,0,1,.25-.25h9m0-.75h-9a1,1,0,0,0-1,1v8a1,1,0,0,0,1,1h9a1,1,0,0,0,1-1V4A1,1,0,0,0,12.5,3Z"/><line class="cls-5" x1="13" y1="6.5" x2="3" y2="6.5"/></g></svg>