<svg id="Layer_1" data-name="Layer 1" xmlns="http://www.w3.org/2000/svg" viewBox="0 0 16 16"><defs><style>.cls-1{fill:#def4fd;}.cls-2,.cls-3,.cls-5{fill:none;stroke-width:0.75px;}.cls-2{stroke:#c1cbd5;}.cls-2,.cls-5{stroke-linejoin:round;}.cls-3,.cls-5{stroke:#34495e;}.cls-3{stroke-miterlimit:10;}.cls-4{fill:#34495e;}</style></defs><title>catalog_object</title><rect class="cls-1" x="1.32" y="3.14" width="11" height="10" rx="1" ry="1"/><line class="cls-2" x1="6.82" y1="6.14" x2="6.82" y2="13.14"/><line class="cls-2" x1="1.82" y1="9.64" x2="11.82" y2="9.64"/><line class="cls-3" x1="6.82" y1="3.14" x2="6.82" y2="6.64"/><path class="cls-4" d="M11.32,3.89a.25.25,0,0,1,.25.25v8a.25.25,0,0,1-.25.25h-9a.25.25,0,0,1-.25-.25v-8a.25.25,0,0,1,.25-.25h9m0-.75h-9a1,1,0,0,0-1,1v8a1,1,0,0,0,1,1h9a1,1,0,0,0,1-1v-8A1,1,0,0,0,11.32,3.14Z"/><line class="cls-5" x1="11.82" y1="6.64" x2="1.82" y2="6.64"/></svg>