<svg id="Layer_1" data-name="Layer 1" xmlns="http://www.w3.org/2000/svg" viewBox="0 0 16 16"><defs><style>.cls-1{fill:#def4fd;}.cls-2{fill:#717f8e;}.cls-3,.cls-4,.cls-6{fill:none;stroke-width:0.75px;}.cls-3{stroke:#c1cbd5;}.cls-3,.cls-6{stroke-linejoin:round;}.cls-4,.cls-6{stroke:#34495e;}.cls-4{stroke-miterlimit:10;}.cls-5{fill:#34495e;}</style></defs><title>coll-catalog_object</title><path class="cls-1" d="M1.82,3.48h8.1a.53.53,0,0,1,.53.53v7.2a.52.52,0,0,1-.52.52H1.83a.52.52,0,0,1-.52-.52V4a.52.52,0,0,1,.51-.53Z"/><path class="cls-2" d="M9.92,3.83a.15.15,0,0,1,.15.15v7.2a.15.15,0,0,1-.15.15H1.82a.15.15,0,0,1-.15-.15V4a.15.15,0,0,1,.15-.15h8.1m0-.75H1.82a.9.9,0,0,0-.9.9v7.2a.9.9,0,0,0,.9.9h8.1a.9.9,0,0,0,.9-.9V4A.9.9,0,0,0,9.92,3.08Z"/><rect class="cls-1" x="2.82" y="4.98" width="9.9" height="9" rx="1" ry="1"/><line class="cls-3" x1="7.77" y1="7.68" x2="7.77" y2="13.98"/><line class="cls-3" x1="3.27" y1="10.83" x2="12.27" y2="10.83"/><line class="cls-4" x1="7.77" y1="4.98" x2="7.77" y2="8.13"/><path class="cls-5" d="M11.82,5.73a.15.15,0,0,1,.15.15v7.2a.15.15,0,0,1-.15.15H3.72a.15.15,0,0,1-.15-.15V5.88a.15.15,0,0,1,.15-.15h8.1m0-.75H3.72a.9.9,0,0,0-.9.9v7.2a.9.9,0,0,0,.9.9h8.1a.9.9,0,0,0,.9-.9V5.88A.9.9,0,0,0,11.82,5Z"/><line class="cls-6" x1="12.27" y1="8.13" x2="3.27" y2="8.13"/></svg>