<svg xmlns="http://www.w3.org/2000/svg" viewBox="0 0 16 16"><defs><style>.cls-1{fill:#f2f2f2;}.cls-2{fill:#2195e7;}.cls-3,.cls-4,.cls-5{fill:none;stroke-width:0.75px;}.cls-3{stroke:#c1cbd5;}.cls-3,.cls-5{stroke-linejoin:round;}.cls-4,.cls-5{stroke:#2195e7;}.cls-4{stroke-miterlimit:10;}</style></defs><title>coll-catalog_object</title><g id="_2" data-name="2"><path class="cls-1" d="M3,2.95h8.1a.53.53,0,0,1,.53.53v7.2a.52.52,0,0,1-.52.52H3a.52.52,0,0,1-.52-.52V3.48A.52.52,0,0,1,3,2.95Z"/><path class="cls-2" d="M11.1,3.3a.15.15,0,0,1,.15.15v7.2a.15.15,0,0,1-.15.15H3a.15.15,0,0,1-.15-.15V3.45A.15.15,0,0,1,3,3.3h8.1m0-.75H3a.9.9,0,0,0-.9.9v7.2a.9.9,0,0,0,.9.9h8.1a.9.9,0,0,0,.9-.9V3.45A.9.9,0,0,0,11.1,2.55Z"/><rect class="cls-1" x="4" y="4.45" width="9.9" height="9" rx="1" ry="1"/><line class="cls-3" x1="8.95" y1="7.15" x2="8.95" y2="13.45"/><line class="cls-3" x1="4.45" y1="10.3" x2="13.45" y2="10.3"/><line class="cls-4" x1="8.95" y1="4.45" x2="8.95" y2="7.6"/><path class="cls-2" d="M13,5.2a.15.15,0,0,1,.15.15v7.2a.15.15,0,0,1-.15.15H4.9a.15.15,0,0,1-.15-.15V5.35A.15.15,0,0,1,4.9,5.2H13m0-.75H4.9a.9.9,0,0,0-.9.9v7.2a.9.9,0,0,0,.9.9H13a.9.9,0,0,0,.9-.9V5.35A.9.9,0,0,0,13,4.45Z"/><line class="cls-5" x1="13.45" y1="7.6" x2="4.45" y2="7.6"/></g></svg>