<svg id="Layer_1" data-name="Layer 1" xmlns="http://www.w3.org/2000/svg" viewBox="0 0 16 16"><defs><style>.cls-1{fill:#cadff1;stroke:#6f6f6f;stroke-linecap:round;stroke-miterlimit:10;}.cls-2{fill:#9cbe44;}.cls-3{fill:#888;}</style></defs><rect class="cls-1" x="2.48" y="1.21" width="7" height="9.54" rx="1"/><rect class="cls-2" x="4" y="2.83" width="4" height="2"/><rect class="cls-3" x="4.12" y="5.64" width="1.5" height="1.36"/><rect class="cls-3" x="6.5" y="5.64" width="1.5" height="1.36"/><rect class="cls-3" x="4.12" y="8" width="1.5" height="1.36"/><rect class="cls-3" x="6.5" y="8" width="1.5" height="1.36"/><rect class="cls-1" x="4.5" y="3.23" width="7" height="9.54" rx="1"/><rect class="cls-2" x="6.02" y="4.84" width="4" height="2"/><rect class="cls-3" x="6.14" y="7.66" width="1.5" height="1.36"/><rect class="cls-3" x="8.52" y="7.66" width="1.5" height="1.36"/><rect class="cls-3" x="6.14" y="10.02" width="1.5" height="1.36"/><rect class="cls-3" x="8.52" y="10.02" width="1.5" height="1.36"/><rect class="cls-1" x="6.52" y="5.25" width="7" height="9.54" rx="1"/><rect class="cls-2" x="8.04" y="6.86" width="4" height="2"/><rect class="cls-3" x="8.16" y="9.67" width="1.5" height="1.36"/><rect class="cls-3" x="10.54" y="9.67" width="1.5" height="1.36"/><rect class="cls-3" x="8.16" y="12.03" width="1.5" height="1.36"/><rect class="cls-3" x="10.54" y="12.03" width="1.5" height="1.36"/></svg>