<?xml version="1.0" encoding="utf-8"?>
<!-- Generator: Adobe Illustrator 23.0.6, SVG Export Plug-In . SVG Version: 6.00 Build 0)  -->
<svg version="1.1" id="Layer_1" xmlns="http://www.w3.org/2000/svg" xmlns:xlink="http://www.w3.org/1999/xlink" x="0px" y="0px"
	 viewBox="0 0 16 16" style="enable-background:new 0 0 16 16;" xml:space="preserve">
<style type="text/css">
	.st0{fill:#DDE1F0;stroke:#4B5FAD;stroke-width:0.65;stroke-linecap:round;stroke-linejoin:round;stroke-miterlimit:10;}
	.st1{fill:#4B5FAD;}
	.st2{fill:none;stroke:#4B5FAD;stroke-width:0.65;stroke-linecap:round;stroke-linejoin:round;stroke-miterlimit:10;}
</style>
<g>
	<g>
		<path class="st0" d="M11,12c-2,2-5.1,2-7.1,0s-2-5.1,0-7.1C5.4,6.4,9.5,10.5,11,12z"/>
	</g>
	<g>
		<path class="st1" d="M7.9,8.6l0.7-0.7C8.7,8,8.9,8,9,8c0.6,0,1-0.4,1-1S9.6,6,9,6S8,6.4,8,7c0,0.1,0,0.3,0.1,0.4L7.4,8.1"/>
		<g>
			<path class="st2" d="M9.6,2.5c2.2,0,4,1.8,4,4"/>
			<path class="st2" d="M9.7,4.4c1.1,0,2,0.9,2,2"/>
		</g>
	</g>
</g>
</svg>
