<?xml version="1.0" encoding="utf-8"?>
<!-- Generator: Adobe Illustrator 23.0.6, SVG Export Plug-In . SVG Version: 6.00 Build 0)  -->
<svg version="1.1" id="Layer_1" xmlns="http://www.w3.org/2000/svg" xmlns:xlink="http://www.w3.org/1999/xlink" x="0px" y="0px"
	 viewBox="0 0 16 16" style="enable-background:new 0 0 16 16;" xml:space="preserve">
<style type="text/css">
	.st0{fill:#FBEEDF;stroke:#E58E26;stroke-width:0.65;stroke-linecap:round;stroke-linejoin:round;stroke-miterlimit:10;}
	.st1{fill:#E58E26;}
	.st2{fill:none;stroke:#E58E26;stroke-width:0.65;stroke-linecap:round;stroke-linejoin:round;stroke-miterlimit:10;}
</style>
<g>
	<g>
		<path class="st0" d="M12.2,5c2,2,2,5.1,0,7.1s-5.1,2-7.1,0C6.6,10.6,10.7,6.5,12.2,5z"/>
	</g>
	<g>
		<path class="st1" d="M8.6,8.1L7.9,7.4C8,7.3,8,7.1,8,7c0-0.6-0.4-1-1-1S6,6.4,6,7s0.4,1,1,1c0.1,0,0.3,0,0.4-0.1l0.7,0.7"/>
		<g>
			<path class="st2" d="M6.4,2.5c0,2.2-1.8,4-4,4"/>
			<path class="st2" d="M4.5,2.6c0,1.1-0.9,2-2,2"/>
		</g>
	</g>
</g>
</svg>
