<svg width="96" height="96" viewBox="0 0 96 96" fill="none" xmlns="http://www.w3.org/2000/svg">
<path d="M70.8 15.6H25.26C21.5155 15.6 18.48 18.6355 18.48 22.38V27.42C18.48 31.1645 21.5155 34.2 25.26 34.2H70.8C74.5445 34.2 77.58 31.1645 77.58 27.42V22.38C77.58 18.6355 74.5445 15.6 70.8 15.6Z" fill="#F2F2F2"/>
<path d="M70.8 18C71.9935 18 73.1381 18.4741 73.982 19.318C74.8259 20.1619 75.3 21.3065 75.3 22.5V27.6C75.3 28.7935 74.8259 29.9381 73.982 30.782C73.1381 31.6259 71.9935 32.1 70.8 32.1H25.2C24.0065 32.1 22.8619 31.6259 22.018 30.782C21.1741 29.9381 20.7 28.7935 20.7 27.6V22.38C20.7313 21.2075 21.2192 20.0935 22.0597 19.2753C22.9003 18.4572 24.027 17.9996 25.2 18H70.8ZM70.8 13.5H25.2C22.8131 13.5 20.5239 14.4482 18.8361 16.136C17.1482 17.8239 16.2 20.1131 16.2 22.5V27.6C16.2 29.987 17.1482 32.2761 18.8361 33.964C20.5239 35.6518 22.8131 36.6 25.2 36.6H70.8C73.187 36.6 75.4762 35.6518 77.164 33.964C78.8518 32.2761 79.8 29.987 79.8 27.6V22.38C79.8 19.9931 78.8518 17.7039 77.164 16.016C75.4762 14.3282 73.187 13.38 70.8 13.38V13.5Z" fill="#AAAAAA"/>
<path d="M38.22 24.9H25.62" stroke="#AAAAAA" stroke-width="0.75" stroke-miterlimit="1"/>
<path d="M25.2 38.7H70.8C72.5982 38.7 74.3227 39.4143 75.5942 40.6858C76.8657 41.9573 77.58 43.6818 77.58 45.48V50.58C77.58 51.4676 77.4043 52.3463 77.0628 53.1656C76.7213 53.9848 76.221 54.7283 75.5906 55.3531C74.9602 55.9779 74.2123 56.4716 73.3901 56.8058C72.5678 57.14 71.6875 57.3079 70.8 57.3H25.2C24.3124 57.3001 23.4337 57.1243 22.6144 56.7828C21.7952 56.4413 21.0517 55.941 20.4269 55.3106C19.8021 54.6802 19.3084 53.9323 18.9742 53.1101C18.64 52.2878 18.4721 51.4075 18.48 50.52V45.48C18.4799 43.6922 19.186 41.9767 20.4446 40.7069C21.7031 39.4371 23.4123 38.7158 25.2 38.7Z" fill="#F2F2F2"/>
<path d="M70.8 40.92C71.9935 40.92 73.1381 41.3941 73.982 42.238C74.8259 43.0819 75.3 44.2265 75.3 45.42V50.52C75.3 51.7135 74.8259 52.858 73.982 53.702C73.1381 54.5459 71.9935 55.02 70.8 55.02H25.2C24.0065 55.02 22.8619 54.5459 22.018 53.702C21.1741 52.858 20.7 51.7135 20.7 50.52V45.42C20.7 44.2265 21.1741 43.0819 22.018 42.238C22.8619 41.3941 24.0065 40.92 25.2 40.92H70.8ZM70.8 36.42H25.2C22.8131 36.42 20.5239 37.3682 18.8361 39.056C17.1482 40.7438 16.2 43.033 16.2 45.42V50.52C16.2 52.9069 17.1482 55.1961 18.8361 56.8839C20.5239 58.5718 22.8131 59.52 25.2 59.52H70.8C73.187 59.52 75.4762 58.5718 77.164 56.8839C78.8518 55.1961 79.8 52.9069 79.8 50.52V45.42C79.8 43.033 78.8518 40.7438 77.164 39.056C75.4762 37.3682 73.187 36.42 70.8 36.42Z" fill="#7B7B97"/>
<path d="M38.22 48H25.62" stroke="#7B7B97" stroke-width="0.75" stroke-miterlimit="1"/>
<path d="M25.2 61.8H70.8C72.5822 61.8 74.2915 62.508 75.5517 63.7683C76.812 65.0285 77.52 66.7378 77.52 68.52V73.62C77.5279 74.5075 77.3599 75.3878 77.0258 76.2101C76.6916 77.0323 76.1979 77.7802 75.5731 78.4106C74.9483 79.041 74.2048 79.5413 73.3856 79.8828C72.5663 80.2243 71.6875 80.4 70.8 80.4H25.2C23.4018 80.4 21.6773 79.6857 20.4058 78.4142C19.1343 77.1427 18.42 75.4182 18.42 73.62V68.52C18.4199 67.6325 18.5957 66.7537 18.9372 65.9344C19.2786 65.1152 19.779 64.3717 20.4094 63.7469C21.0398 63.1221 21.7877 62.6284 22.6099 62.2942C23.4322 61.9601 24.3125 61.7921 25.2 61.8Z" fill="#F2F2F2"/>
<path d="M70.8 64.08C71.9935 64.08 73.1381 64.5541 73.982 65.398C74.8259 66.2419 75.3 67.3865 75.3 68.58V73.68C75.3 74.8735 74.8259 76.0181 73.982 76.862C73.1381 77.7059 71.9935 78.18 70.8 78.18H25.2C24.0065 78.18 22.8619 77.7059 22.018 76.862C21.1741 76.0181 20.7 74.8735 20.7 73.68V68.58C20.7 67.3865 21.1741 66.2419 22.018 65.398C22.8619 64.5541 24.0065 64.08 25.2 64.08H70.8ZM70.8 59.58H25.2C22.8131 59.58 20.5239 60.5282 18.8361 62.2161C17.1482 63.9039 16.2 66.1931 16.2 68.58V73.68C16.2 76.067 17.1482 78.3561 18.8361 80.044C20.5239 81.7318 22.8131 82.68 25.2 82.68H70.8C73.187 82.68 75.4762 81.7318 77.164 80.044C78.8518 78.3561 79.8 76.067 79.8 73.68V68.58C79.8 66.1931 78.8518 63.9039 77.164 62.2161C75.4762 60.5282 73.187 59.58 70.8 59.58Z" fill="#AAAAAA"/>
<path d="M38.22 71.1H25.62" stroke="#AAAAAA" stroke-width="0.75" stroke-miterlimit="1"/>
<path d="M71.5988 48.0017C66.9351 48.0017 62.3762 46.6187 58.4985 44.0277C54.6208 41.4367 51.5984 37.754 49.8137 33.4454C48.029 29.1367 47.5621 24.3955 48.4719 19.8215C49.3817 15.2474 51.6275 11.0458 54.9252 7.74811C58.223 4.45039 62.4245 2.20461 66.9986 1.29477C71.5727 0.384929 76.3138 0.851892 80.6225 2.63661C84.9312 4.42132 88.6139 7.44363 91.2049 11.3213C93.7959 15.1991 95.1788 19.758 95.1788 24.4217C95.163 30.6706 92.6736 36.6591 88.2549 41.0778C83.8362 45.4964 77.8477 47.9858 71.5988 48.0017Z" fill="#F2F2F2"/>
<path d="M71.6 1.50185C76.1094 1.50185 80.5176 2.83905 84.267 5.34435C88.0165 7.84964 90.9388 11.4105 92.6645 15.5767C94.3901 19.7428 94.8417 24.3271 93.9619 28.7499C93.0822 33.1727 90.9107 37.2353 87.722 40.4239C84.5334 43.6125 80.4708 45.784 76.0481 46.6638C71.6253 47.5435 67.041 47.092 62.8748 45.3663C58.7087 43.6406 55.1478 40.7183 52.6425 36.9689C50.1372 33.2194 48.8 28.8113 48.8 24.3019C48.8 18.2549 51.2021 12.4556 55.478 8.17982C57.5952 6.06264 60.1086 4.38321 62.8748 3.2374C65.6411 2.09159 68.6059 1.50185 71.6 1.50185ZM71.6 0.00185269C66.7816 -0.0576385 62.0543 1.31681 58.0189 3.9505C53.9835 6.5842 50.8223 10.3582 48.937 14.7929C47.0517 19.2276 46.5275 24.1226 47.4309 28.856C48.3344 33.5893 50.6248 37.9472 54.0109 41.3756C57.3971 44.8041 61.7262 47.1485 66.4479 48.1106C71.1696 49.0728 76.0708 48.6095 80.5286 46.7794C84.9863 44.9493 88.7993 41.8352 91.483 37.8329C94.1666 33.8305 95.5996 29.1206 95.6 24.3019C95.6397 21.125 95.0483 17.9718 93.86 15.0253C92.6716 12.0788 90.9101 9.3975 88.6775 7.13702C86.445 4.87654 83.7858 3.08184 80.8542 1.85701C77.9227 0.632182 74.7771 0.00160446 71.6 0.00185269Z" fill="#34495E"/>
<path d="M72.3793 11.5814C72.9802 12.1881 73.3173 13.0075 73.3173 13.8614C73.3173 14.7153 72.9802 15.5347 72.3793 16.1414L67.4593 21.0614H82.9393C83.7986 21.0614 84.6227 21.4028 85.2303 22.0104C85.8379 22.618 86.1793 23.4421 86.1793 24.3014C86.1793 25.1607 85.8379 25.9848 85.2303 26.5925C84.6227 27.2001 83.7986 27.5414 82.9393 27.5414H67.4593L72.3793 32.4614C72.7289 32.7483 73.0145 33.1053 73.2178 33.5092C73.4212 33.9132 73.5377 34.3553 73.5599 34.807C73.582 35.2587 73.5094 35.7101 73.3466 36.132C73.1839 36.554 72.9346 36.9372 72.6148 37.257C72.295 37.5767 71.9118 37.826 71.4898 37.9888C71.0679 38.1516 70.6165 38.2242 70.1648 38.202C69.7131 38.1798 69.271 38.0633 68.8671 37.86C68.4631 37.6567 68.1062 37.371 67.8193 37.0214L57.3793 26.5814C57.0744 26.2851 56.8322 25.9306 56.6667 25.539C56.5013 25.1474 56.416 24.7266 56.416 24.3014C56.416 23.8763 56.5013 23.4555 56.6667 23.0639C56.8322 22.6723 57.0744 22.3178 57.3793 22.0214L67.8193 11.5814C68.426 10.9805 69.2453 10.6434 70.0993 10.6434C70.9532 10.6434 71.7726 10.9805 72.3793 11.5814Z" fill="#34495E"/>
</svg>
