<svg xmlns="http://www.w3.org/2000/svg" viewBox="0 0 64.03 64"><defs><style>.cls-1{fill:#d3d4f3;}.cls-2{fill:#666bd1;}.cls-3,.cls-6{fill:#f0ecb6;}.cls-4{fill:#c18f36;}.cls-5{opacity:0.8;}.cls-6{stroke:#c18f36;stroke-miterlimit:10;}.cls-7{fill:#addff3;}.cls-8{fill:#2980b9;}.cls-10,.cls-9{fill:#528d19;stroke:#528d19;stroke-linejoin:round;}.cls-10{stroke-linecap:round;stroke-width:2px;}</style></defs><title>gather_merge</title><g id="ex_append"><path class="cls-1" d="M12.82,14.3c-1.37,0-1.5-.12-1.5-1.5v-4c0-1.38.13-1.5,1.5-1.5h4.5v7Z"/><path class="cls-2" d="M16.82,7.82v6h-4a3.54,3.54,0,0,1-.9-.07h0a2.16,2.16,0,0,1-.1-.93v-4a2.7,2.7,0,0,1,.08-.9s.19-.1.92-.1h4m1-1h-5c-1.65,0-2,.35-2,2v4c0,1.65.35,2,2,2h5v-8Z"/><path class="cls-1" d="M17.32,14.3v-7H22.1c1.38,0,1.5.12,1.5,1.5v4c0,1.38-.12,1.5-1.5,1.5Z"/><path class="cls-2" d="M22.1,7.82a3.44,3.44,0,0,1,.9.07h0a2.16,2.16,0,0,1,.1.93v4a3.71,3.71,0,0,1-.07.9,2.16,2.16,0,0,1-.93.1H17.82v-6H22.1m0-1H16.82v8H22.1c1.65,0,2-.35,2-2v-4c0-1.65-.35-2-2-2Z"/><path class="cls-1" d="M27.87,14.3c-1.37,0-1.5-.12-1.5-1.5v-4c0-1.38.13-1.5,1.5-1.5h4.5v7Z"/><path class="cls-2" d="M31.87,7.82v6h-4a3.64,3.64,0,0,1-.9-.07h0a2.4,2.4,0,0,1-.1-.93v-4a3.18,3.18,0,0,1,.08-.9,2.08,2.08,0,0,1,.92-.1h4m1-1h-5c-1.65,0-2,.35-2,2v4c0,1.65.35,2,2,2h5v-8Z"/><path class="cls-1" d="M32.38,14.3v-7h4.78c1.37,0,1.5.12,1.5,1.5v4c0,1.38-.13,1.5-1.5,1.5Z"/><path class="cls-2" d="M37.16,7.82a3.39,3.39,0,0,1,.89.07h0a2.4,2.4,0,0,1,.1.93v4a3.18,3.18,0,0,1-.08.9,2.08,2.08,0,0,1-.92.1H32.88v-6h4.28m0-1H31.88v8h5.28c1.65,0,2-.35,2-2v-4c0-1.65-.35-2-2-2Z"/><path class="cls-1" d="M42.93,14.3c-1.38,0-1.5-.12-1.5-1.5v-4c0-1.38.12-1.5,1.5-1.5h4.5v7Z"/><path class="cls-2" d="M46.93,7.82v6h-4a3.44,3.44,0,0,1-.9-.07h0a2.16,2.16,0,0,1-.1-.93v-4a3.71,3.71,0,0,1,.07-.9,2.16,2.16,0,0,1,.93-.1h4m1-1h-5c-1.65,0-2,.35-2,2v4c0,1.65.35,2,2,2h5v-8Z"/><path class="cls-1" d="M47.43,14.3v-7h4.78c1.37,0,1.5.12,1.5,1.5v4c0,1.38-.13,1.5-1.5,1.5Z"/><path class="cls-2" d="M52.21,7.82a3.54,3.54,0,0,1,.9.07h0a2.16,2.16,0,0,1,.1.93v4a2.7,2.7,0,0,1-.08.9s-.19.1-.92.1H47.93v-6h4.28m0-1H46.93v8h5.28c1.65,0,2-.35,2-2v-4c0-1.65-.35-2-2-2Z"/><path class="cls-3" d="M21.21,57.44c-1.38,0-1.5-.13-1.5-1.5V44.49h24.6V55.94c0,1.37-.13,1.5-1.5,1.5Z"/><path class="cls-4" d="M43.81,45V55.94a4,4,0,0,1-.07.9,2.4,2.4,0,0,1-.93.1H21.21a3.11,3.11,0,0,1-.9-.08h0a2.13,2.13,0,0,1-.1-.92V45h23.6m1-1H19.21V55.94c0,1.65.35,2,2,2h21.6c1.65,0,2-.35,2-2V44Z"/><g class="cls-5"><line class="cls-6" x1="27.91" y1="56.93" x2="27.91" y2="44.93"/><line class="cls-6" x1="36.12" y1="56.93" x2="36.12" y2="44.93"/><line class="cls-6" x1="20.2" y1="50.93" x2="43.79" y2="50.93"/></g><path class="cls-7" d="M36.13,44.49v-6h6.69c1.37,0,1.5.12,1.5,1.5v4.5Z"/><path class="cls-8" d="M42.82,39a3.54,3.54,0,0,1,.9.07h0a2.16,2.16,0,0,1,.1.93v4H36.63V39h6.19m0-1H35.63v7h9.19V40c0-1.65-.35-2-2-2Z"/><path class="cls-7" d="M19.71,44.49V40c0-1.38.12-1.5,1.5-1.5H27.9v6Z"/><path class="cls-8" d="M27.4,39v5H20.21V40a3.71,3.71,0,0,1,.07-.9,2.16,2.16,0,0,1,.93-.1H27.4m1-1H21.21c-1.65,0-2,.35-2,2v5H28.4V38Z"/><rect class="cls-7" x="27.92" y="38.49" width="8.19" height="6"/><path class="cls-8" d="M35.61,39v5H28.42V39h7.18m1-1H27.43v7h9.19V38Z"/><polygon class="cls-9" points="27.1 36.38 27.96 32.25 23.38 34.39 27.1 36.38"/><line class="cls-10" x1="25.55" y1="33.06" x2="18.96" y2="18.94"/><polygon class="cls-9" points="32.4 36.2 34.92 32.82 29.86 32.82 32.4 36.2"/><line class="cls-10" x1="32.39" y1="32.54" x2="32.39" y2="18.02"/><polygon class="cls-9" points="38.52 36.38 37.65 32.25 42.24 34.39 38.52 36.38"/><line class="cls-10" x1="40.06" y1="33.06" x2="46.65" y2="18.94"/></g></svg>