<svg id="_1" data-name="1" xmlns="http://www.w3.org/2000/svg" viewBox="0 0 64 64"><defs><style>.cls-1{fill:#f0ecb6;}.cls-2{fill:#c18f35;}.cls-10,.cls-3{fill:#d3d4f3;}.cls-4{fill:#666bd1;}.cls-5{fill:#addff3;}.cls-6{fill:#2980b9;}.cls-7{opacity:0.7;}.cls-8,.cls-9{fill:none;stroke-linejoin:round;}.cls-11,.cls-8{stroke:#c18f35;}.cls-10,.cls-12,.cls-9{stroke:#666bd1;}.cls-10,.cls-11,.cls-12{stroke-miterlimit:10;}.cls-11{fill:#34495e;}.cls-12{fill:#528d19;}</style></defs><title>ex_group</title><rect class="cls-1" x="19.03" y="16" width="35.98" height="24.96"/><path class="cls-2" d="M54.52,16.5v24h-35v-24h35m1-1h-37v26h37v-26Z"/><path class="cls-3" d="M20.53,56c-1.37,0-1.5-.13-1.5-1.5V41H55V54.5c0,1.37-.13,1.5-1.5,1.5Z"/><path class="cls-4" d="M54.52,41.5v13a3.28,3.28,0,0,1-.08.9,2.18,2.18,0,0,1-.92.1h-33a3.25,3.25,0,0,1-.9-.08h0a2.18,2.18,0,0,1-.1-.92v-13h35m1-1h-37v14c0,1.65.35,2,2,2h33c1.65,0,2-.35,2-2v-14Z"/><path class="cls-5" d="M46.87,16V8h6.63c1.37,0,1.5.13,1.5,1.5V16Z"/><path class="cls-6" d="M53.49,8.5a3.25,3.25,0,0,1,.9.08h0a2.18,2.18,0,0,1,.1.92v6H47.37v-7h6.13m0-1H46.37v9h9.13v-7c0-1.65-.35-2-2-2Z"/><path class="cls-5" d="M19,16V9.5c0-1.37.13-1.5,1.5-1.5h6.59v8Z"/><path class="cls-6" d="M26.59,8.5v7H19.51v-6a3.28,3.28,0,0,1,.08-.9,2.18,2.18,0,0,1,.92-.1h6.09m1-1H20.51c-1.65,0-2,.35-2,2v7h9.09v-9Z"/><rect class="cls-5" x="40.31" y="8" width="7.05" height="8"/><path class="cls-6" d="M46.86,8.5v7H40.8v-7h6m1-1h-8v9h8.05v-9Z"/><rect class="cls-5" x="33.74" y="8" width="6.57" height="8"/><path class="cls-6" d="M39.81,8.5v7H34.24v-7h5.56m1-1H33.25v9h7.57v-9Z"/><rect class="cls-5" x="26.62" y="8" width="7.1" height="8"/><path class="cls-6" d="M33.23,8.5v7H27.12v-7h6.1m1-1h-8.1v9h8.11v-9Z"/><g class="cls-7"><line class="cls-8" x1="26.61" y1="40.5" x2="26.61" y2="16.5"/><line class="cls-8" x1="40.29" y1="40.5" x2="40.29" y2="16.5"/><line class="cls-8" x1="33.7" y1="40.5" x2="33.7" y2="16.5"/><line class="cls-8" x1="47.37" y1="40.5" x2="47.37" y2="16.5"/><line class="cls-9" x1="26.61" y1="55.62" x2="26.61" y2="40.5"/><line class="cls-9" x1="40.29" y1="55.62" x2="40.29" y2="40.5"/><line class="cls-9" x1="33.7" y1="55.62" x2="33.7" y2="40.5"/><line class="cls-9" x1="47.37" y1="55.62" x2="47.37" y2="40.5"/><line class="cls-8" x1="19.49" y1="24.35" x2="54.46" y2="24.35"/><line class="cls-10" x1="19.52" y1="48.5" x2="54.49" y2="48.5"/><line class="cls-8" x1="19.49" y1="32.73" x2="54.46" y2="32.73"/></g><path class="cls-11" d="M14.88,38.29l-.53,0a4.34,4.34,0,0,1-.67-.11A5.39,5.39,0,0,1,13,37.9a2.9,2.9,0,0,1-.7-.41,3.31,3.31,0,0,1-.83-.9A3.65,3.65,0,0,1,11,35.52c-.09-.39-.22-5.25-.3-5.66a2.39,2.39,0,0,0-.47-1.06,2.66,2.66,0,0,0-1-.73.69.69,0,0,1,0-1.17,2.65,2.65,0,0,0,1-.73,2.37,2.37,0,0,0,.47-1.06c.08-.41.13-2.91.14-3.38A7,7,0,0,1,11,20.45a3.66,3.66,0,0,1,.43-1.07,3.34,3.34,0,0,1,.83-.9,2.89,2.89,0,0,1,.7-.41,5.12,5.12,0,0,1,.72-.23,4.11,4.11,0,0,1,.67-.11l.53,0v.44a4.47,4.47,0,0,0-2.05.51,2.82,2.82,0,0,0-1.06,1.08,3.58,3.58,0,0,0-.4,1.4c0,.5-.14,3.7-.2,4a2.77,2.77,0,0,1-.26.83,2.41,2.41,0,0,1-.44.6,2.52,2.52,0,0,1-.62.46,3.65,3.65,0,0,1-.64.27,3.52,3.52,0,0,1-.6.13c-.19,0-.19.1,0,.12a3.5,3.5,0,0,1,.6.13,4,4,0,0,1,.64.27,2.53,2.53,0,0,1,.62.46,2.37,2.37,0,0,1,.44.6,2.76,2.76,0,0,1,.26.83,2.56,2.56,0,0,1,.13.93s0,3.6.06,4.1a3.59,3.59,0,0,0,.4,1.4,2.81,2.81,0,0,0,1.06,1.08,4.42,4.42,0,0,0,2.05.51Z"/><path class="cls-12" d="M14.88,55.3l-.53,0a4.34,4.34,0,0,1-.67-.11,5.39,5.39,0,0,1-.72-.23,2.9,2.9,0,0,1-.7-.41,3.31,3.31,0,0,1-.83-.9A3.65,3.65,0,0,1,11,52.53c-.09-.39-.22-1.25-.3-1.66a2.39,2.39,0,0,0-.47-1.06,2.66,2.66,0,0,0-1-.73.69.69,0,0,1,0-1.17,2.65,2.65,0,0,0,1-.73,2.37,2.37,0,0,0,.47-1.06c.08-.41.21-1.28.3-1.66a3.66,3.66,0,0,1,.43-1.07,3.34,3.34,0,0,1,.83-.9,2.89,2.89,0,0,1,.7-.41,5.12,5.12,0,0,1,.72-.23,4.11,4.11,0,0,1,.67-.11l.53,0v.44a4.47,4.47,0,0,0-2.05.51,2.82,2.82,0,0,0-1.06,1.08,3.58,3.58,0,0,0-.4,1.4,7.66,7.66,0,0,1-.2,1,2.77,2.77,0,0,1-.26.83,2.41,2.41,0,0,1-.44.6,2.52,2.52,0,0,1-.62.46,3.65,3.65,0,0,1-.64.27,3.52,3.52,0,0,1-.6.13c-.19,0-.19.1,0,.12a3.5,3.5,0,0,1,.6.13,4,4,0,0,1,.64.27,2.53,2.53,0,0,1,.62.46,2.37,2.37,0,0,1,.44.6,2.76,2.76,0,0,1,.26.83,7.66,7.66,0,0,1,.2,1,3.59,3.59,0,0,0,.4,1.4,2.81,2.81,0,0,0,1.06,1.08,4.42,4.42,0,0,0,2.05.51Z"/></svg>