<svg id="_1" data-name="1" xmlns="http://www.w3.org/2000/svg" viewBox="0 0 64 64"><defs><style>.cls-1,.cls-3{fill:#f0ecb6;}.cls-2{fill:#c18f35;}.cls-10,.cls-3{stroke:#c18f35;}.cls-3,.cls-9{stroke-miterlimit:10;}.cls-10,.cls-3,.cls-8{opacity:0.8;}.cls-4{fill:#addff3;}.cls-5{fill:#2980b9;}.cls-6{fill:#d3d4f3;}.cls-7{fill:#666bd1;}.cls-10,.cls-8{fill:none;stroke-linejoin:round;}.cls-8{stroke:#666bd1;}.cls-12,.cls-9{fill:#34495e;}.cls-9{stroke:#528d19;}.cls-11{fill:#88f625;}.cls-12{font-size:9px;font-family:Helvetica-Bold, Helvetica;font-weight:700;}</style></defs><title>ex_hash_setop_except_all</title><path class="cls-1" d="M13.16,58.21c-1.37,0-1.5-.13-1.5-1.5V39.52h7V56.71c0,1.37-.13,1.5-1.5,1.5Z"/><path class="cls-2" d="M18.15,40V56.71a3.28,3.28,0,0,1-.08.9,2.18,2.18,0,0,1-.92.1h-4a3.25,3.25,0,0,1-.9-.08h0a2.17,2.17,0,0,1-.1-.92V40h6m1-1h-8V56.71c0,1.65.35,2,2,2h4c1.65,0,2-.35,2-2V39Z"/><line class="cls-3" x1="12.05" y1="45.87" x2="18.29" y2="45.87"/><line class="cls-3" x1="12.05" y1="51.79" x2="18.29" y2="51.79"/><path class="cls-4" d="M11.66,11.67V7.17c0-1.37.13-1.5,1.5-1.5h4c1.37,0,1.5.13,1.5,1.5v4.5Z"/><path class="cls-5" d="M17.15,6.17a3.25,3.25,0,0,1,.9.08h0a2.17,2.17,0,0,1,.1.92v4h-6v-4a3.28,3.28,0,0,1,.08-.9,2.18,2.18,0,0,1,.92-.1h4m0-1h-4c-1.65,0-2,.35-2,2v5h8v-5c0-1.65-.35-2-2-2Z"/><path class="cls-6" d="M13.16,30.36c-1.37,0-1.5-.13-1.5-1.5V11.67h7V28.86c0,1.37-.13,1.5-1.5,1.5Z"/><path class="cls-7" d="M18.15,12.17V28.86a3.28,3.28,0,0,1-.08.9,2.18,2.18,0,0,1-.92.1h-4a3.25,3.25,0,0,1-.9-.08h0a2.17,2.17,0,0,1-.1-.92V12.17h6m1-1h-8V28.86c0,1.65.35,2,2,2h4c1.65,0,2-.35,2-2V11.17Z"/><line class="cls-8" x1="12.05" y1="18.02" x2="18.29" y2="18.02"/><line class="cls-8" x1="12.05" y1="23.94" x2="18.29" y2="23.94"/><path class="cls-4" d="M11.66,39.52V35c0-1.37.13-1.5,1.5-1.5h4c1.37,0,1.5.13,1.5,1.5v4.5Z"/><path class="cls-5" d="M17.15,34a3.25,3.25,0,0,1,.9.08h0a2.17,2.17,0,0,1,.1.92v4h-6V35a3.28,3.28,0,0,1,.08-.9,2.18,2.18,0,0,1,.92-.1h4m0-1h-4c-1.65,0-2,.35-2,2v5h8V35c0-1.65-.35-2-2-2Z"/><path class="cls-9" d="M22.25,41.12a4.42,4.42,0,0,0,2.05-.51,2.81,2.81,0,0,0,1.06-1.08,3.59,3.59,0,0,0,.4-1.4q.06-.75.06-1.46V37c0-.68,0-1.25,0-1.72A9.28,9.28,0,0,1,26,34.1a2.76,2.76,0,0,1,.26-.83,2.37,2.37,0,0,1,.44-.6,2.53,2.53,0,0,1,.62-.46,4,4,0,0,1,.64-.27,3.5,3.5,0,0,1,.6-.13c.19,0,.19-.1,0-.12a3.52,3.52,0,0,1-.6-.13,3.65,3.65,0,0,1-.64-.27,2.52,2.52,0,0,1-.62-.46,2.41,2.41,0,0,1-.44-.6,2.77,2.77,0,0,1-.26-.83,9.31,9.31,0,0,1-.11-1.2q0-.71,0-1.73v.36c0-.47,0-1-.06-1.46a3.58,3.58,0,0,0-.4-1.4A2.82,2.82,0,0,0,24.3,22.9a4.47,4.47,0,0,0-2.05-.51V22l.53,0a4.11,4.11,0,0,1,.67.11,5.12,5.12,0,0,1,.72.23,2.89,2.89,0,0,1,.7.41,3.34,3.34,0,0,1,.83.9,3.66,3.66,0,0,1,.43,1.07A7,7,0,0,1,26.28,26c0,.47,0,1.88,0,1.88a7.9,7.9,0,0,0,.12,1.5,2.37,2.37,0,0,0,.47,1.06,2.65,2.65,0,0,0,1,.73.69.69,0,0,1,0,1.17,2.66,2.66,0,0,0-1,.73,2.39,2.39,0,0,0-.47,1.06,7.9,7.9,0,0,0-.12,1.5s-.09,2.78-.18,3.17a3.65,3.65,0,0,1-.43,1.07,3.31,3.31,0,0,1-.83.9,2.9,2.9,0,0,1-.7.41,5.39,5.39,0,0,1-.72.23,4.34,4.34,0,0,1-.67.11l-.53,0Z"/><path class="cls-1" d="M35.18,37.79c-1.37,0-1.5-.13-1.5-1.5V24.79H41v13Z"/><path class="cls-2" d="M40.46,25.29v12H35.18a3.25,3.25,0,0,1-.9-.08h0a2.18,2.18,0,0,1-.1-.92v-11h6.28m1-1H33.18v12c0,1.65.35,2,2,2h6.28v-14Z"/><path class="cls-6" d="M40.95,37.79v-13h7.28v11.5c0,1.37-.13,1.5-1.5,1.5Z"/><path class="cls-7" d="M47.73,25.29v11a3.28,3.28,0,0,1-.08.9,2.18,2.18,0,0,1-.92.1H41.45v-12h6.28m1-1H40.45v14h6.28c1.65,0,2-.35,2-2v-12Z"/><path class="cls-4" d="M33.68,24.79v-4.5c0-1.37.13-1.5,1.5-1.5H41v6Z"/><path class="cls-5" d="M40.46,19.29v5H34.18v-4a3.28,3.28,0,0,1,.08-.9,2.18,2.18,0,0,1,.92-.1h5.28m1-1H35.18c-1.65,0-2,.35-2,2v5h8.28v-7Z"/><path class="cls-4" d="M40.95,24.79v-6h5.78c1.37,0,1.5.13,1.5,1.5v4.5Z"/><path class="cls-5" d="M46.73,19.29a3.25,3.25,0,0,1,.9.08h0a2.17,2.17,0,0,1,.1.92v4H41.45v-5h5.28m0-1H40.45v7h8.28v-5c0-1.65-.35-2-2-2Z"/><line class="cls-8" x1="40.71" y1="31.14" x2="48.2" y2="31.14"/><line class="cls-10" x1="33.71" y1="31.14" x2="40.45" y2="31.14"/><path class="cls-11" d="M36,50.42a8.4,8.4,0,0,1,5-7.66,8.4,8.4,0,1,0,0,15.33A8.4,8.4,0,0,1,36,50.42Z"/><path class="cls-2" d="M37.56,43.4a6.9,6.9,0,1,1-6.9,6.9,6.91,6.91,0,0,1,6.9-6.9m0-1.5a8.4,8.4,0,1,0,8.4,8.4,8.4,8.4,0,0,0-8.4-8.4Z"/><path class="cls-7" d="M44.43,43.4a6.9,6.9,0,1,1-6.9,6.9,6.91,6.91,0,0,1,6.9-6.9m0-1.5a8.4,8.4,0,1,0,8.4,8.4,8.4,8.4,0,0,0-8.4-8.4Z"/><text class="cls-12" transform="translate(20.35 18.02)">All</text></svg>