<svg id="_1" data-name="1" xmlns="http://www.w3.org/2000/svg" viewBox="0 0 64 64"><defs><style>.cls-1{fill:#d3d4f3;}.cls-2{fill:#666bd1;}.cls-10,.cls-3{fill:none;opacity:0.8;}.cls-3{stroke:#666bd1;}.cls-10,.cls-3,.cls-4,.cls-5{stroke-linejoin:round;}.cls-4,.cls-5{fill:#528d19;stroke:#528d19;}.cls-5{stroke-linecap:round;stroke-width:2px;}.cls-6{fill:#f0ecb6;}.cls-7{fill:#c18f35;}.cls-8{fill:#addff3;}.cls-9{fill:#2980b9;}.cls-10{stroke:#c18f35;}.cls-11{opacity:0.6;}</style></defs><title>ex_merge_semi_join</title><path class="cls-1" d="M10.51,18.18c-1.37,0-1.5-.13-1.5-1.5v-4c0-1.37.13-1.5,1.5-1.5H15v7Z"/><path class="cls-2" d="M14.51,11.69v6h-4a3.26,3.26,0,0,1-.9-.08h0a2.18,2.18,0,0,1-.1-.92v-4a3.28,3.28,0,0,1,.08-.9,2.18,2.18,0,0,1,.92-.1h4m1-1h-5c-1.65,0-2,.35-2,2v4c0,1.65.35,2,2,2h5v-8Z"/><path class="cls-1" d="M15,18.18v-7H26.2c1.37,0,1.5.13,1.5,1.5v4c0,1.37-.13,1.5-1.5,1.5Z"/><path class="cls-2" d="M26.2,11.69a3.25,3.25,0,0,1,.9.08h0a2.18,2.18,0,0,1,.1.92v4a3.29,3.29,0,0,1-.08.9,2.18,2.18,0,0,1-.92.1H15.51v-6H26.2m0-1H14.51v8H26.2c1.65,0,2-.35,2-2v-4c0-1.65-.35-2-2-2Z"/><line class="cls-3" x1="21.28" y1="17.79" x2="21.28" y2="11.55"/><polygon class="cls-4" points="28.88 37.69 25.5 35.16 25.5 40.22 28.88 37.69"/><line class="cls-5" x1="25.21" y1="37.69" x2="18.11" y2="37.69"/><line class="cls-5" x1="17.97" y1="22.25" x2="17.97" y2="37.69"/><path class="cls-6" d="M34.64,52.57c-1.37,0-1.5-.13-1.5-1.5V28.57h7.28v24Z"/><path class="cls-7" d="M39.92,29.07v23H34.64a3.25,3.25,0,0,1-.9-.08h0a2.18,2.18,0,0,1-.1-.92v-22h6.28m1-1H32.64v23c0,1.65.35,2,2,2h6.28v-25Z"/><path class="cls-8" d="M33.14,28.57v-4.5c0-1.37.13-1.5,1.5-1.5h5.78v6Z"/><path class="cls-9" d="M39.92,23.07v5H33.64v-4a3.28,3.28,0,0,1,.08-.9,2.18,2.18,0,0,1,.92-.1h5.28m1-1H34.64c-1.65,0-2,.35-2,2v5h8.28v-7Z"/><line class="cls-10" x1="33.17" y1="34.92" x2="39.91" y2="34.92"/><line class="cls-10" x1="33.17" y1="40.92" x2="39.91" y2="40.92"/><line class="cls-10" x1="33.17" y1="46.92" x2="39.91" y2="46.92"/><g class="cls-11"><rect class="cls-6" x="40.44" y="28.57" width="7.28" height="24"/><path class="cls-7" d="M47.22,29.07v23H40.94v-23h6.28m1-1H39.94v25h8.28v-25Z"/><path class="cls-1" d="M47.71,52.57v-24H55v22.5c0,1.37-.13,1.5-1.5,1.5Z"/><path class="cls-2" d="M54.49,29.07v22a3.28,3.28,0,0,1-.08.9,2.18,2.18,0,0,1-.92.1H48.21v-23h6.28m1-1H47.21v25h6.28c1.65,0,2-.35,2-2v-23Z"/><rect class="cls-8" x="40.44" y="22.57" width="7.28" height="6"/><path class="cls-9" d="M47.22,23.07v5H40.94v-5h6.28m1-1H39.94v7h8.28v-7Z"/><path class="cls-8" d="M47.71,28.57v-6h5.78c1.37,0,1.5.13,1.5,1.5v4.5Z"/><path class="cls-9" d="M53.49,23.07a3.25,3.25,0,0,1,.9.08h0a2.18,2.18,0,0,1,.1.92v4H48.21v-5h5.28m0-1H47.21v7h8.28v-5c0-1.65-.35-2-2-2Z"/><line class="cls-3" x1="47.47" y1="34.92" x2="54.96" y2="34.92"/><line class="cls-10" x1="40.47" y1="34.92" x2="47.21" y2="34.92"/><line class="cls-3" x1="47.47" y1="40.92" x2="54.96" y2="40.92"/><line class="cls-10" x1="40.47" y1="40.92" x2="47.21" y2="40.92"/><line class="cls-3" x1="47.47" y1="46.92" x2="54.96" y2="46.92"/><line class="cls-10" x1="40.47" y1="46.92" x2="47.21" y2="46.92"/></g></svg>