<svg xmlns="http://www.w3.org/2000/svg" viewBox="0 0 16 16"><defs><style>.cls-1{fill:#fee;}.cls-2{fill:#bd4949;}</style></defs><title>schema</title><g id="_2" data-name="2"><rect class="cls-1" x="2.87" y="3.41" width="4.25" height="4.25" transform="translate(-2.45 5.15) rotate(-45)"/><path class="cls-2" d="M5,3.06,7.47,5.53,5,8,2.52,5.53,5,3.06M5,2,1.46,5.53,5,9.07,8.53,5.53,5,2Z"/><rect class="cls-2" x="4.11" y="4.63" width="1.8" height="1.8" transform="translate(12.46 5.91) rotate(135)"/><rect class="cls-1" x="8.88" y="3.41" width="4.25" height="4.25" transform="translate(-0.69 9.4) rotate(-45)"/><path class="cls-2" d="M11,3.06l2.47,2.47L11,8,8.53,5.53,11,3.06M11,2,7.47,5.53,11,9.07l3.54-3.54L11,2Z"/><rect class="cls-2" x="10.12" y="4.63" width="1.8" height="1.8" transform="translate(22.72 1.66) rotate(135)"/><rect class="cls-1" x="5.87" y="8.34" width="4.25" height="4.25" transform="translate(-5.06 8.72) rotate(-45)"/><path class="cls-2" d="M8,8l2.47,2.47L8,12.94,5.52,10.47,8,8M8,6.93,4.46,10.47,8,14l3.54-3.54L8,6.93Z"/><rect class="cls-2" x="7.11" y="9.57" width="1.8" height="1.8" transform="translate(21.08 12.2) rotate(135)"/></g></svg>