<svg id="Layer_1" data-name="Layer 1" xmlns="http://www.w3.org/2000/svg" viewBox="0 0 16 16"><defs><style>.cls-1{fill:#def4fd;}.cls-2{fill:#717f8e;}.cls-3,.cls-4,.cls-6{fill:none;stroke-width:0.75px;}.cls-3{stroke:#c1cbd5;}.cls-3,.cls-6{stroke-linejoin:round;}.cls-4,.cls-6{stroke:#34495e;}.cls-4{stroke-miterlimit:10;}.cls-5{fill:#34495e;}</style></defs><title>coll-table</title><path class="cls-1" d="M1.55,3h8.1a.53.53,0,0,1,.53.53v7.2a.52.52,0,0,1-.52.52H1.55A.52.52,0,0,1,1,10.7V3.5A.52.52,0,0,1,1.55,3Z"/><path class="cls-2" d="M9.65,3.35a.15.15,0,0,1,.15.15v7.2a.15.15,0,0,1-.15.15H1.55a.15.15,0,0,1-.15-.15V3.5a.15.15,0,0,1,.15-.15h8.1m0-.75H1.55a.9.9,0,0,0-.9.9v7.2a.9.9,0,0,0,.9.9h8.1a.9.9,0,0,0,.9-.9V3.5a.9.9,0,0,0-.9-.9Z"/><rect class="cls-1" x="2.55" y="4.5" width="9.9" height="9" rx="1" ry="1"/><line class="cls-3" x1="7.5" y1="7.2" x2="7.5" y2="13.5"/><line class="cls-3" x1="3" y1="10.35" x2="12" y2="10.35"/><line class="cls-4" x1="7.5" y1="4.5" x2="7.5" y2="7.65"/><path class="cls-5" d="M11.55,5.25a.15.15,0,0,1,.15.15v7.2a.15.15,0,0,1-.15.15H3.45a.15.15,0,0,1-.15-.15V5.4a.15.15,0,0,1,.15-.15h8.1m0-.75H3.45a.9.9,0,0,0-.9.9v7.2a.9.9,0,0,0,.9.9h8.1a.9.9,0,0,0,.9-.9V5.4a.9.9,0,0,0-.9-.9Z"/><line class="cls-6" x1="12" y1="7.65" x2="3" y2="7.65"/></svg>