<svg xmlns="http://www.w3.org/2000/svg" viewBox="0 0 16 16"><defs><style>.cls-1{fill:#f2f2f2;}.cls-2{fill:#2195e7;}.cls-3{fill:none;stroke:#c1cbd5;stroke-linejoin:round;}.cls-3,.cls-4{stroke-width:0.75px;}.cls-4{fill:#def4fd;stroke:#2195e7;stroke-miterlimit:1;}</style></defs><title>coll-table</title><g id="_2" data-name="2"><rect class="cls-1" x="2.42" y="2.66" width="8.88" height="8.25" rx="0.52" ry="0.52"/><path class="cls-2" d="M10.77,3a.15.15,0,0,1,.15.15v7.2a.15.15,0,0,1-.15.15H2.94a.15.15,0,0,1-.15-.15V3.19A.15.15,0,0,1,2.94,3h7.83m0-.75H2.94a.9.9,0,0,0-.9.9v7.2a.9.9,0,0,0,.9.9h7.83a.9.9,0,0,0,.9-.9V3.19a.9.9,0,0,0-.9-.9Z"/><path class="cls-1" d="M4.9,4.63h8.16a.53.53,0,0,1,.53.53v7.66a.52.52,0,0,1-.52.52H4.9a.52.52,0,0,1-.52-.52V5.16A.52.52,0,0,1,4.9,4.63Z"/><path class="cls-2" d="M13.06,5a.15.15,0,0,1,.15.15v7.66a.15.15,0,0,1-.15.15H4.9a.15.15,0,0,1-.15-.15V5.16A.15.15,0,0,1,4.9,5h8.16m0-.75H4.9a.9.9,0,0,0-.9.9v7.66a.9.9,0,0,0,.9.9h8.16a.9.9,0,0,0,.9-.9V5.16a.9.9,0,0,0-.9-.9Z"/><line class="cls-3" x1="4.76" y1="10.42" x2="13.19" y2="10.42"/><line class="cls-3" x1="8.9" y1="8.08" x2="8.89" y2="12.95"/><line class="cls-4" x1="8.9" y1="5.01" x2="8.89" y2="7.56"/><line class="cls-4" x1="13.19" y1="7.73" x2="4.76" y2="7.73"/></g></svg>