<svg xmlns="http://www.w3.org/2000/svg" viewBox="0 0 16 16"><defs><style>.cls-1{fill:#def4fd;}.cls-2,.cls-3,.cls-5,.cls-7{fill:none;}.cls-2{stroke:#c1cbd5;}.cls-2,.cls-5,.cls-6,.cls-7{stroke-linejoin:round;}.cls-2,.cls-3,.cls-5,.cls-6,.cls-7{stroke-width:0.75px;}.cls-3,.cls-5{stroke:#2195e7;}.cls-3{stroke-miterlimit:10;}.cls-4{fill:#2195e7;}.cls-6{fill:#2980b9;}.cls-6,.cls-7{stroke:#354a5f;stroke-linecap:round;}</style></defs><title>table-repl</title><g id="_3" data-name="3"><rect class="cls-1" x="2" y="2.25" width="5" height="5" rx="1" ry="1"/><line class="cls-2" x1="4.5" y1="4.25" x2="4.5" y2="7.25"/><line class="cls-3" x1="4.5" y1="2.25" x2="4.5" y2="4.75"/><path class="cls-4" d="M6,3a.25.25,0,0,1,.25.25v3A.25.25,0,0,1,6,6.5H3a.25.25,0,0,1-.25-.25v-3A.25.25,0,0,1,3,3H6m0-.75H3a1,1,0,0,0-1,1v3a1,1,0,0,0,1,1H6a1,1,0,0,0,1-1v-3a1,1,0,0,0-1-1Z"/><line class="cls-5" x1="6.5" y1="4.75" x2="2.5" y2="4.75"/><rect class="cls-1" x="9.01" y="8.75" width="5" height="5" rx="1" ry="1"/><line class="cls-2" x1="11.51" y1="10.75" x2="11.51" y2="13.75"/><line class="cls-3" x1="11.51" y1="8.75" x2="11.51" y2="11.25"/><path class="cls-4" d="M13,9.5a.25.25,0,0,1,.25.25v3A.25.25,0,0,1,13,13H10a.25.25,0,0,1-.25-.25v-3A.25.25,0,0,1,10,9.5h3m0-.75H10a1,1,0,0,0-1,1v3a1,1,0,0,0,1,1h3a1,1,0,0,0,1-1v-3a1,1,0,0,0-1-1Z"/><line class="cls-5" x1="13.51" y1="11.25" x2="9.51" y2="11.25"/><polygon class="cls-6" points="7.58 11.42 6.56 12.4 6.6 10.41 7.58 11.42"/><path class="cls-7" d="M7.07,11.31c-2.21.65-3.5-1-2.7-2.92"/></g></svg>