<svg xmlns="http://www.w3.org/2000/svg" viewBox="0 0 16 16"><defs><style>.cls-1{fill:#f2f2f2;}.cls-2{fill:#c1cbd5;}.cls-3{fill:#2195e7;}.cls-4{fill:#34495e;}</style></defs><title>multiple</title><g id="_10" data-name="10"><rect class="cls-1" x="2.5" y="3" width="11" height="10" rx="1"/><polygon class="cls-2" points="13 9.13 8.38 9.13 8.38 6 7.63 6 7.63 9.13 3 9.13 3 9.88 7.63 9.88 7.63 13 8.38 13 8.38 9.88 13 9.88 13 9.13"/><path class="cls-3" d="M12.5,3h-9a1,1,0,0,0-1,1v8a1,1,0,0,0,1,1h9a1,1,0,0,0,1-1V4A1,1,0,0,0,12.5,3Zm0,.75a.25.25,0,0,1,.25.25V6.12H8.38V3.75Zm-9,0H7.62V6.12H3.25V4A.25.25,0,0,1,3.5,3.75Zm9,8.5h-9A.25.25,0,0,1,3.25,12V6.88h9.5V12A.25.25,0,0,1,12.5,12.25Z"/><path class="cls-1" d="M12,8a3.93,3.93,0,1,1,3.93-3.93A3.94,3.94,0,0,1,12,8Z"/><path class="cls-4" d="M12,.25a3.8,3.8,0,1,1-3.8,3.8A3.8,3.8,0,0,1,12,.25M12,0A4.05,4.05,0,1,0,16,4.05,4,4,0,0,0,12,0Z"/><path class="cls-4" d="M14.94,3.71,13.38,2.14a.49.49,0,0,0-.69.69l.73.73H10.48l.73-.73a.49.49,0,0,0-.69-.69L9,3.71a.48.48,0,0,0,0,.68L10.52,6a.49.49,0,1,0,.69-.69l-.73-.73h2.94l-.73.73a.49.49,0,1,0,.69.69l1.56-1.57a.48.48,0,0,0,0-.68Z"/></g></svg>