<svg id="Layer_1" data-name="Layer 1" xmlns="http://www.w3.org/2000/svg" viewBox="0 0 17 16"><defs><style>.cls-1{fill:#def4fd;}.cls-10,.cls-2,.cls-3,.cls-5,.cls-6,.cls-8{fill:none;}.cls-2{stroke:#c1cbd5;}.cls-10,.cls-2,.cls-5,.cls-7{stroke-linejoin:round;}.cls-10,.cls-2,.cls-3,.cls-5,.cls-6,.cls-7,.cls-8{stroke-width:0.75px;}.cls-3,.cls-5{stroke:#2980b9;}.cls-3,.cls-6,.cls-8{stroke-miterlimit:10;}.cls-4{fill:#2980b9;}.cls-6,.cls-7{stroke:#354a5f;stroke-linecap:round;}.cls-7{fill:#354a5f;}.cls-10,.cls-8{stroke:#34495e;}.cls-9{fill:#34495e;}</style></defs><title>table-repl-sm</title><rect class="cls-1" y="3" width="7" height="5" rx="1" ry="1"/><line class="cls-2" x1="3.5" y1="5" x2="3.5" y2="8"/><line class="cls-3" x1="3.5" y1="3" x2="3.5" y2="5.5"/><path class="cls-4" d="M6,3.75A.25.25,0,0,1,6.25,4V7A.25.25,0,0,1,6,7.25H1A.25.25,0,0,1,.75,7V4A.25.25,0,0,1,1,3.75H6M6,3H1A1,1,0,0,0,0,4V7A1,1,0,0,0,1,8H6A1,1,0,0,0,7,7V4A1,1,0,0,0,6,3Z"/><line class="cls-5" x1="6.5" y1="5.5" x2="0.5" y2="5.5"/><line class="cls-6" x1="2.55" y1="9.04" x2="2.55" y2="11.34"/><line class="cls-6" x1="2.55" y1="11.34" x2="4.85" y2="11.34"/><polygon class="cls-7" points="6.41 11.37 4.82 12.9 4.88 9.79 6.41 11.37"/><rect class="cls-1" x="7" y="9" width="7" height="5" rx="1" ry="1"/><line class="cls-2" x1="10.5" y1="11" x2="10.5" y2="14"/><line class="cls-8" x1="10.5" y1="9" x2="10.5" y2="11.5"/><path class="cls-9" d="M13,9.75a.25.25,0,0,1,.25.25v3a.25.25,0,0,1-.25.25H8A.25.25,0,0,1,7.75,13V10A.25.25,0,0,1,8,9.75h5M13,9H8a1,1,0,0,0-1,1v3a1,1,0,0,0,1,1h5a1,1,0,0,0,1-1V10a1,1,0,0,0-1-1Z"/><line class="cls-10" x1="13.5" y1="11.5" x2="7.5" y2="11.5"/></svg>