<svg id="Layer_1" data-name="Layer 1" xmlns="http://www.w3.org/2000/svg" viewBox="0 0 16 16"><defs><style>.cls-1{fill:#def4fd;}.cls-2,.cls-3,.cls-5{fill:none;stroke-width:0.75px;}.cls-2{stroke:#c1cbd5;}.cls-2,.cls-5{stroke-linejoin:round;}.cls-3,.cls-5{stroke:#34495e;}.cls-3{stroke-miterlimit:10;}.cls-4{fill:#34495e;}</style></defs><title>table</title><rect class="cls-1" x="1" y="3" width="11" height="10" rx="1" ry="1"/><line class="cls-2" x1="6.5" y1="6" x2="6.5" y2="13"/><line class="cls-2" x1="1.5" y1="9.5" x2="11.5" y2="9.5"/><line class="cls-3" x1="6.5" y1="3" x2="6.5" y2="6.5"/><path class="cls-4" d="M11,3.75a.25.25,0,0,1,.25.25v8a.25.25,0,0,1-.25.25H2A.25.25,0,0,1,1.75,12V4A.25.25,0,0,1,2,3.75h9M11,3H2A1,1,0,0,0,1,4v8a1,1,0,0,0,1,1h9a1,1,0,0,0,1-1V4a1,1,0,0,0-1-1Z"/><line class="cls-5" x1="11.5" y1="6.5" x2="1.5" y2="6.5"/></svg>