<svg id="Layer_1" data-name="Layer 1" xmlns="http://www.w3.org/2000/svg" viewBox="0 0 16 16"><defs><style>.cls-1{fill:#def4fd;}.cls-2{fill:none;stroke:#c1cbd5;stroke-linejoin:round;stroke-width:0.75px;}.cls-3{fill:#717f8e;}.cls-4{fill:#34495e;}</style></defs><title>coll-column</title><rect class="cls-1" x="1.67" y="1.45" width="5.5" height="9.9" rx="1" ry="1"/><line class="cls-2" x1="2.22" y1="6.4" x2="6.62" y2="6.4"/><line class="cls-2" x1="2.22" y1="8.6" x2="6.62" y2="8.6"/><path class="cls-3" d="M2.43,4.68l4,0v5.55a.35.35,0,0,1-.35.35H2.78a.35.35,0,0,1-.35-.35V4.68m-.75-.75v6.32a1.1,1.1,0,0,0,1.1,1.1h3.3a1.1,1.1,0,0,0,1.1-1.1V4l-5.5,0Z"/><path class="cls-3" d="M6.07,2.2a.35.35,0,0,1,.35.35V4h-4V2.55a.35.35,0,0,1,.35-.35h3.3m0-.75H2.78a1.1,1.1,0,0,0-1.1,1.1v2.2h5.5V2.55a1.1,1.1,0,0,0-1.1-1.1Z"/><rect class="cls-1" x="3.87" y="3.65" width="5.5" height="9.9" rx="1" ry="1"/><line class="cls-2" x1="4.42" y1="8.6" x2="8.82" y2="8.6"/><line class="cls-2" x1="4.42" y1="10.8" x2="8.82" y2="10.8"/><path class="cls-4" d="M4.63,6.88l4,0v5.55a.35.35,0,0,1-.35.35H5a.35.35,0,0,1-.35-.35V6.88m-.75-.75v6.32A1.1,1.1,0,0,0,5,13.55h3.3a1.1,1.1,0,0,0,1.1-1.1V6.16l-5.5,0Z"/><path class="cls-4" d="M8.28,4.4a.35.35,0,0,1,.35.35V6.2h-4V4.75A.35.35,0,0,1,5,4.4h3.3m0-.75H5a1.1,1.1,0,0,0-1.1,1.1v2.2h5.5V4.75a1.1,1.1,0,0,0-1.1-1.1Z"/></svg>