<svg id="Layer_1" data-name="Layer 1" xmlns="http://www.w3.org/2000/svg" viewBox="0 0 16 16"><defs><style>.cls-1{fill:#def4fd;}.cls-2{fill:none;stroke:#c1cbd5;stroke-linejoin:round;stroke-width:0.75px;}.cls-3{fill:#34495e;}</style></defs><title>column</title><rect class="cls-1" x="2.3" y="1.65" width="5.4" height="11.7" rx="1" ry="1"/><line class="cls-2" x1="2.75" y1="7.5" x2="7.25" y2="7.5"/><line class="cls-2" x1="2.75" y1="10.2" x2="7.25" y2="10.2"/><path class="cls-3" d="M3.05,5.33l3.9,0v7.1a.15.15,0,0,1-.15.15H3.2a.15.15,0,0,1-.15-.15V5.33M2.3,4.58v7.87a.9.9,0,0,0,.9.9H6.8a.9.9,0,0,0,.9-.9V4.6l-5.4,0Z"/><path class="cls-3" d="M6.8,2.4a.15.15,0,0,1,.15.15V4.5H3.05V2.55A.15.15,0,0,1,3.2,2.4H6.8m0-.75H3.2a.9.9,0,0,0-.9.9v2.7H7.7V2.55a.9.9,0,0,0-.9-.9Z"/></svg>